<svg preserveAspectRatio="none" width="100%" height="100%" overflow="visible" style="display: block;" viewBox="0 0 32 30.2222" fill="none" xmlns="http://www.w3.org/2000/svg">
<g id="Optical artwork / 32">
<path id="Reference layer 2 / wide outer field" d="M15.8233 6.22222C18.193 6.22222 20.9171 6.41492 23.1091 6.93261C25.301 7.45031 27.6698 8.0426 28.9733 9.33018C30.2767 10.6178 30.8684 12.8084 30.928 14.6581C30.9875 16.5078 30.5575 18.9053 29.3287 20.43C28.0998 21.9547 25.7151 23.0647 23.5533 23.8044C21.3916 24.5441 18.7261 24.9881 16.3564 24.87C13.9868 24.7519 11.4403 23.9083 9.3372 23.094C7.2341 22.2797 5.1461 21.3917 3.73959 19.986C2.33308 18.5803 1.00032 16.4341 0.896364 14.6581C0.792408 12.8821 1.78487 10.6178 3.11764 9.33018C4.4504 8.0426 6.77563 7.45031 8.89295 6.93261C11.0103 6.41492 13.4537 6.22222 15.8233 6.22222Z" fill="#D8EEF8" stroke="#A8D1EB" stroke-width="0.0977778"/>
<path id="Reference layer 3 / offset middle field" d="M14.7401 6.31172C16.5741 6.29662 19.1172 6.56309 20.9512 7.11113C22.7853 7.65917 24.5892 8.41418 25.7427 9.5982C26.8962 10.7822 27.6948 12.5889 27.8723 14.217C28.0497 15.8452 27.6061 17.9476 26.8075 19.3688C26.0089 20.79 24.8705 21.8408 23.0808 22.7441C21.2911 23.6475 18.1855 24.6689 16.071 24.7871C13.9566 24.9052 12.0187 24.1946 10.3922 23.4547C8.76579 22.7148 7.33101 21.7377 6.3106 20.3459C5.29019 18.954 4.32924 16.8524 4.26979 15.1053C4.21034 13.3581 5.00892 11.1819 5.95568 9.86467C6.90244 8.54741 8.48452 7.79241 9.94858 7.19996C11.4126 6.6075 12.906 6.32682 14.7401 6.31172Z" fill="#C5E5F3" stroke="#A8D1EB" stroke-width="0.0977778"/>
<path id="Reference layer 4 / offset core bean" d="M14.215 9.81794C15.5533 9.51029 17.2878 9.80299 18.6261 10.1695C19.9644 10.5361 21.1845 11.2533 22.2432 12.0154C23.3018 12.7775 24.4778 14.052 24.978 14.7403C25.4783 15.4285 25.3309 15.2826 25.2427 16.1467C25.1545 17.0107 25.0663 18.8715 24.4487 19.9263C23.8312 20.9811 22.8757 21.919 21.5374 22.4754C20.1991 23.0318 17.9494 23.3834 16.4206 23.2665C14.8917 23.1496 13.4651 22.5193 12.3624 21.7722C11.2596 21.025 10.3483 19.9114 9.80395 18.7836C9.25963 17.6559 8.96585 16.1317 9.09818 15.004C9.23051 13.8762 9.74484 12.8795 10.5979 12.0154C11.451 11.1514 12.8767 10.1256 14.215 9.81794Z" fill="#ADD8EB" stroke="#A8D1EB" stroke-width="0.0977778"/>
<circle id="Signal halo" cx="16" cy="15.1111" r="3.46667" fill="white"/>
<g id="Signal point" filter="url(#filter0_d_0_101)">
<circle cx="16" cy="15.1111" r="2.57778" fill="#21B8CF"/>
</g>
<path id="Blue arc / upper-left / open 70&#194;&#176;" d="M7.77138 13.6602C8.38135 10.2009 11.0898 7.49247 14.5491 6.88251" stroke="#1769E0" stroke-width="1.24444" stroke-linecap="round"/>
<path id="Blue arc / lower-right / open 70&#194;&#176;" d="M24.2286 16.562C23.6187 20.0213 20.9102 22.7297 17.4509 23.3397" stroke="#1769E0" stroke-width="1.24444" stroke-linecap="round"/>
</g>
<defs>
<filter id="filter0_d_0_101" x="12.3556" y="12" width="7.28889" height="7.28889" filterUnits="userSpaceOnUse" color-interpolation-filters="sRGB">
<feFlood flood-opacity="0" result="BackgroundImageFix"/>
<feColorMatrix in="SourceAlpha" type="matrix" values="0 0 0 0 0 0 0 0 0 0 0 0 0 0 0 0 0 0 127 0" result="hardAlpha"/>
<feOffset dy="0.533333"/>
<feGaussianBlur stdDeviation="0.533333"/>
<feColorMatrix type="matrix" values="0 0 0 0 0.02 0 0 0 0 0.33 0 0 0 0 0.38 0 0 0 0.16 0"/>
<feBlend mode="normal" in2="BackgroundImageFix" result="effect1_dropShadow_0_101"/>
<feBlend mode="normal" in="SourceGraphic" in2="effect1_dropShadow_0_101" result="shape"/>
</filter>
</defs>
</svg>
