<svg xmlns="http://www.w3.org/2000/svg" xmlns:xlink="http://www.w3.org/1999/xlink" contentStyleType="text/css" data-diagram-type="ACTIVITY" height="1731px" preserveAspectRatio="none" style="width:553px;height:1731px;background:#FFFFFF;" version="1.1" viewBox="0 0 553 1731" width="553px" zoomAndPan="magnify"><title>ACT-001 v1.0 &#8212; Spatial package activation and rollback decision</title><defs/><g><g class="title" data-source-line="2"><text fill="#000000" font-family="Arial" font-size="14" font-weight="bold" lengthAdjust="spacing" textLength="510.7949" x="20" y="32.9951">ACT-001 v1.0 &#8212; Spatial package activation and rollback decision</text></g><ellipse cx="275.6305" cy="57.2969" fill="#222222" rx="10" ry="10" style="stroke:#222222;stroke-width:1;"/><rect fill="#F1F1F1" height="33.9688" rx="12.5" ry="12.5" style="stroke:#181818;stroke-width:0.5;" width="196.0273" x="177.6168" y="87.2969"/><text fill="#000000" font-family="Arial" font-size="12" lengthAdjust="spacing" textLength="176.0273" x="187.6168" y="108.4355">Create SpatialSourceRequest</text><rect fill="#F1F1F1" height="33.9688" rx="12.5" ry="12.5" style="stroke:#181818;stroke-width:0.5;" width="283.877" x="133.692" y="189.668"/><text fill="#000000" font-family="Arial" font-size="12" lengthAdjust="spacing" textLength="263.877" x="143.692" y="210.8066">Activate enabled synthetic catalogue layers</text><ellipse cx="275.6305" cy="263.1523" fill="none" rx="11" ry="11" style="stroke:#222222;stroke-width:1;"/><ellipse cx="275.6305" cy="263.1523" fill="#222222" rx="6" ry="6" style="stroke:#222222;stroke-width:1;"/><polygon fill="#F1F1F1" points="192.6713,141.2656,358.5897,141.2656,370.5897,153.2656,358.5897,165.2656,192.6713,165.2656,180.6713,153.2656,192.6713,141.2656" style="stroke:#181818;stroke-width:0.5;"/><text fill="#000000" font-family="Arial" font-size="11" lengthAdjust="spacing" textLength="19.0083" x="279.6305" y="175.4761">yes</text><text fill="#000000" font-family="Arial" font-size="11" lengthAdjust="spacing" textLength="165.9185" x="192.6713" y="157.0737">Requested mode is synthetic?</text><rect fill="#F1F1F1" height="33.9688" rx="12.5" ry="12.5" style="stroke:#181818;stroke-width:0.5;" width="295.8535" x="127.7037" y="364.5547"/><text fill="#000000" font-family="Arial" font-size="12" lengthAdjust="spacing" textLength="275.8535" x="137.7037" y="385.6934">Reject request and activate synthetic fallback</text><ellipse cx="275.6305" cy="438.0391" fill="none" rx="11" ry="11" style="stroke:#222222;stroke-width:1;"/><ellipse cx="275.6305" cy="438.0391" fill="#222222" rx="6" ry="6" style="stroke:#222222;stroke-width:1;"/><polygon fill="#F1F1F1" points="212.1227,316.1523,339.1383,316.1523,351.1383,328.1523,339.1383,340.1523,212.1227,340.1523,200.1227,328.1523,212.1227,316.1523" style="stroke:#181818;stroke-width:0.5;"/><text fill="#000000" font-family="Arial" font-size="11" lengthAdjust="spacing" textLength="19.0083" x="279.6305" y="350.3628">yes</text><text fill="#000000" font-family="Arial" font-size="11" lengthAdjust="spacing" textLength="127.0156" x="212.1227" y="331.9604">Runtime is Production?</text><rect fill="#F1F1F1" height="33.9688" rx="12.5" ry="12.5" style="stroke:#181818;stroke-width:0.5;" width="179.0703" x="186.0953" y="541.0508"/><text fill="#000000" font-family="Arial" font-size="12" lengthAdjust="spacing" textLength="159.0703" x="196.0953" y="562.1895">Activate synthetic fallback</text><ellipse cx="275.6305" cy="614.1328" fill="none" rx="11" ry="11" style="stroke:#222222;stroke-width:1;"/><ellipse cx="275.6305" cy="614.1328" fill="#222222" rx="6" ry="6" style="stroke:#222222;stroke-width:1;"/><polygon fill="#F1F1F1" points="188.8685,491.0391,362.3925,491.0391,374.3925,503.8438,362.3925,516.6484,188.8685,516.6484,176.8685,503.8438,188.8685,491.0391" style="stroke:#181818;stroke-width:0.5;"/><text fill="#000000" font-family="Arial" font-size="11" lengthAdjust="spacing" textLength="13.7017" x="279.6305" y="526.8589">no</text><text fill="#000000" font-family="Arial" font-size="11" lengthAdjust="spacing" textLength="173.5239" x="188.8685" y="501.2495">Requested and approved mode</text><text fill="#000000" font-family="Arial" font-size="11" lengthAdjust="spacing" textLength="151.0728" x="188.8685" y="514.0542">are open_context_preview?</text><rect fill="#F1F1F1" height="33.9688" rx="12.5" ry="12.5" style="stroke:#181818;stroke-width:0.5;" width="158.5039" x="196.3785" y="667.1328"/><text fill="#000000" font-family="Arial" font-size="12" lengthAdjust="spacing" textLength="138.5039" x="206.3785" y="688.2715">Load bundle descriptor</text><rect fill="#F1F1F1" height="33.9688" rx="12.5" ry="12.5" style="stroke:#181818;stroke-width:0.5;" width="253.0273" x="149.1168" y="769.5039"/><text fill="#000000" font-family="Arial" font-size="12" lengthAdjust="spacing" textLength="233.0273" x="159.1168" y="790.6426">Activate synthetic fallback with reason</text><ellipse cx="275.6305" cy="842.9883" fill="none" rx="11" ry="11" style="stroke:#222222;stroke-width:1;"/><ellipse cx="275.6305" cy="842.9883" fill="#222222" rx="6" ry="6" style="stroke:#222222;stroke-width:1;"/><polygon fill="#F1F1F1" points="188.9008,721.1016,362.3602,721.1016,374.3602,733.1016,362.3602,745.1016,188.9008,745.1016,176.9008,733.1016,188.9008,721.1016" style="stroke:#181818;stroke-width:0.5;"/><text fill="#000000" font-family="Arial" font-size="11" lengthAdjust="spacing" textLength="13.7017" x="279.6305" y="755.312">no</text><text fill="#000000" font-family="Arial" font-size="11" lengthAdjust="spacing" textLength="173.4595" x="188.9008" y="736.9097">Available and checksum exact?</text><rect fill="#F1F1F1" height="47.9375" rx="12.5" ry="12.5" style="stroke:#181818;stroke-width:0.5;" width="252.084" x="149.5885" y="944.3906"/><text fill="#000000" font-family="Arial" font-size="12" lengthAdjust="spacing" textLength="232.084" x="159.5885" y="965.5293">Evaluate release, delivery, distribution</text><text fill="#000000" font-family="Arial" font-size="12" lengthAdjust="spacing" textLength="220.8281" x="159.5885" y="979.498">and repository-publication approvals</text><rect fill="#F1F1F1" height="33.9688" rx="12.5" ry="12.5" style="stroke:#181818;stroke-width:0.5;" width="208.8066" x="171.2272" y="1060.7305"/><text fill="#000000" font-family="Arial" font-size="12" lengthAdjust="spacing" textLength="188.8066" x="181.2272" y="1081.8691">Fail closed to synthetic fallback</text><ellipse cx="275.6305" cy="1134.2148" fill="none" rx="11" ry="11" style="stroke:#222222;stroke-width:1;"/><ellipse cx="275.6305" cy="1134.2148" fill="#222222" rx="6" ry="6" style="stroke:#222222;stroke-width:1;"/><polygon fill="#F1F1F1" points="197.7711,1012.3281,353.4899,1012.3281,365.4899,1024.3281,353.4899,1036.3281,197.7711,1036.3281,185.7711,1024.3281,197.7711,1012.3281" style="stroke:#181818;stroke-width:0.5;"/><text fill="#000000" font-family="Arial" font-size="11" lengthAdjust="spacing" textLength="13.7017" x="279.6305" y="1046.5386">no</text><text fill="#000000" font-family="Arial" font-size="11" lengthAdjust="spacing" textLength="155.7188" x="197.7711" y="1028.1362">All required approvals pass?</text><polygon fill="#F1F1F1" points="187.84,895.9883,363.421,895.9883,375.421,907.9883,363.421,919.9883,187.84,919.9883,175.84,907.9883,187.84,895.9883" style="stroke:#181818;stroke-width:0.5;"/><text fill="#000000" font-family="Arial" font-size="11" lengthAdjust="spacing" textLength="19.0083" x="279.6305" y="930.1987">yes</text><text fill="#000000" font-family="Arial" font-size="11" lengthAdjust="spacing" textLength="175.5811" x="187.84" y="911.7964">Bundle contains real geometry?</text><polygon fill="#F1F1F1" points="275.6305,1187.2148,287.6305,1199.2148,275.6305,1211.2148,263.6305,1199.2148,275.6305,1187.2148" style="stroke:#181818;stroke-width:0.5;"/><rect fill="#F1F1F1" height="33.9688" rx="12.5" ry="12.5" style="stroke:#181818;stroke-width:0.5;" width="208.8066" x="171.2272" y="1281.2266"/><text fill="#000000" font-family="Arial" font-size="12" lengthAdjust="spacing" textLength="188.8066" x="181.2272" y="1302.3652">Fail closed to synthetic fallback</text><ellipse cx="275.6305" cy="1354.3086" fill="none" rx="11" ry="11" style="stroke:#222222;stroke-width:1;"/><ellipse cx="275.6305" cy="1354.3086" fill="#222222" rx="6" ry="6" style="stroke:#222222;stroke-width:1;"/><polygon fill="#F1F1F1" points="202.8575,1231.2148,348.4034,1231.2148,360.4034,1244.0195,348.4034,1256.8242,202.8575,1256.8242,190.8575,1244.0195,202.8575,1231.2148" style="stroke:#181818;stroke-width:0.5;"/><text fill="#000000" font-family="Arial" font-size="11" lengthAdjust="spacing" textLength="13.7017" x="279.6305" y="1267.0347">no</text><text fill="#000000" font-family="Arial" font-size="11" lengthAdjust="spacing" textLength="145.5459" x="202.8575" y="1241.4253">Controlled non-real fixture</text><text fill="#000000" font-family="Arial" font-size="11" lengthAdjust="spacing" textLength="138.6172" x="202.8575" y="1254.23">or approved real bundle?</text><rect fill="#F1F1F1" height="33.9688" rx="12.5" ry="12.5" style="stroke:#181818;stroke-width:0.5;" width="246.9219" x="152.1696" y="1407.3086"/><text fill="#000000" font-family="Arial" font-size="12" lengthAdjust="spacing" textLength="226.9219" x="162.1696" y="1428.4473">Evaluate each fixture catalogue entry</text><polygon fill="#F1F1F1" points="192.9452,1461.2773,358.3158,1461.2773,370.3158,1474.082,358.3158,1486.8867,192.9452,1486.8867,180.9452,1474.082,192.9452,1461.2773" style="stroke:#181818;stroke-width:0.5;"/><text fill="#000000" font-family="Arial" font-size="11" lengthAdjust="spacing" textLength="165.3706" x="192.9452" y="1471.4878">Layer available, reviewed and</text><text fill="#000000" font-family="Arial" font-size="11" lengthAdjust="spacing" textLength="113.4966" x="192.9452" y="1484.2925">checksum matched?</text><text fill="#000000" font-family="Arial" font-size="11" lengthAdjust="spacing" textLength="19.0083" x="161.9369" y="1471.4878">yes</text><text fill="#000000" font-family="Arial" font-size="11" lengthAdjust="spacing" textLength="13.7017" x="370.3158" y="1471.4878">no</text><rect fill="#F1F1F1" height="33.9688" rx="12.5" ry="12.5" style="stroke:#181818;stroke-width:0.5;" width="146.4102" x="97.7401" y="1496.8867"/><text fill="#000000" font-family="Arial" font-size="12" lengthAdjust="spacing" textLength="126.4102" x="107.7401" y="1518.0254">Activate fixture layer</text><rect fill="#F1F1F1" height="33.9688" rx="12.5" ry="12.5" style="stroke:#181818;stroke-width:0.5;" width="220.4258" x="270.1029" y="1496.8867"/><text fill="#000000" font-family="Arial" font-size="12" lengthAdjust="spacing" textLength="200.4258" x="280.1029" y="1518.0254">Retain its synthetic fallback layer</text><polygon fill="#F1F1F1" points="275.6305,1536.8555,287.6305,1548.8555,275.6305,1560.8555,263.6305,1548.8555,275.6305,1536.8555" style="stroke:#181818;stroke-width:0.5;"/><polygon fill="#F1F1F1" points="199.4227,1580.8555,351.8383,1580.8555,363.8383,1592.8555,351.8383,1604.8555,199.4227,1604.8555,187.4227,1592.8555,199.4227,1580.8555" style="stroke:#181818;stroke-width:0.5;"/><text fill="#000000" font-family="Arial" font-size="11" lengthAdjust="spacing" textLength="152.4155" x="199.4227" y="1596.6636">Any fixture layer activated?</text><text fill="#000000" font-family="Arial" font-size="11" lengthAdjust="spacing" textLength="19.0083" x="168.4144" y="1590.2612">yes</text><text fill="#000000" font-family="Arial" font-size="11" lengthAdjust="spacing" textLength="13.7017" x="363.8383" y="1590.2612">no</text><rect fill="#F1F1F1" height="33.9688" rx="12.5" ry="12.5" style="stroke:#181818;stroke-width:0.5;" width="212.3398" x="63.2662" y="1614.8555"/><text fill="#000000" font-family="Arial" font-size="12" lengthAdjust="spacing" textLength="192.3398" x="73.2662" y="1635.9941">Return controlled_fixture_active</text><rect fill="#F1F1F1" height="33.9688" rx="12.5" ry="12.5" style="stroke:#181818;stroke-width:0.5;" width="172.4375" x="295.6061" y="1614.8555"/><text fill="#000000" font-family="Arial" font-size="12" lengthAdjust="spacing" textLength="152.4375" x="305.6061" y="1635.9941">Return synthetic_fallback</text><polygon fill="#F1F1F1" points="275.6305,1654.8242,287.6305,1666.8242,275.6305,1678.8242,263.6305,1666.8242,275.6305,1654.8242" style="stroke:#181818;stroke-width:0.5;"/><ellipse cx="275.6305" cy="1709.8242" fill="none" rx="11" ry="11" style="stroke:#222222;stroke-width:1;"/><ellipse cx="275.6305" cy="1709.8242" fill="#222222" rx="6" ry="6" style="stroke:#222222;stroke-width:1;"/><line style="stroke:#181818;stroke-width:1;" x1="275.6305" x2="275.6305" y1="67.2969" y2="87.2969"/><polygon fill="#181818" points="271.6305,77.2969,275.6305,87.2969,279.6305,77.2969,275.6305,81.2969" style="stroke:#181818;stroke-width:1;"/><line style="stroke:#181818;stroke-width:1;" x1="275.6305" x2="275.6305" y1="223.6367" y2="252.1523"/><polygon fill="#181818" points="271.6305,242.1523,275.6305,252.1523,279.6305,242.1523,275.6305,246.1523" style="stroke:#181818;stroke-width:1;"/><line style="stroke:#181818;stroke-width:1;" x1="275.6305" x2="275.6305" y1="165.2656" y2="189.668"/><polygon fill="#181818" points="271.6305,179.668,275.6305,189.668,279.6305,179.668,275.6305,183.668" style="stroke:#181818;stroke-width:1;"/><line style="stroke:#181818;stroke-width:1;" x1="370.5897" x2="427.569" y1="153.2656" y2="153.2656"/><polygon fill="#181818" points="423.569,222.1523,427.569,232.1523,431.569,222.1523,427.569,226.1523" style="stroke:#181818;stroke-width:1;"/><line style="stroke:#181818;stroke-width:1;" x1="427.569" x2="427.569" y1="153.2656" y2="296.1523"/><line style="stroke:#181818;stroke-width:1;" x1="427.569" x2="275.6305" y1="296.1523" y2="296.1523"/><line style="stroke:#181818;stroke-width:1;" x1="275.6305" x2="275.6305" y1="296.1523" y2="316.1523"/><polygon fill="#181818" points="271.6305,306.1523,275.6305,316.1523,279.6305,306.1523,275.6305,310.1523" style="stroke:#181818;stroke-width:1;"/><line style="stroke:#181818;stroke-width:1;" x1="275.6305" x2="275.6305" y1="121.2656" y2="141.2656"/><polygon fill="#181818" points="271.6305,131.2656,275.6305,141.2656,279.6305,131.2656,275.6305,135.2656" style="stroke:#181818;stroke-width:1;"/><line style="stroke:#181818;stroke-width:1;" x1="275.6305" x2="275.6305" y1="398.5234" y2="427.0391"/><polygon fill="#181818" points="271.6305,417.0391,275.6305,427.0391,279.6305,417.0391,275.6305,421.0391" style="stroke:#181818;stroke-width:1;"/><line style="stroke:#181818;stroke-width:1;" x1="275.6305" x2="275.6305" y1="340.1523" y2="364.5547"/><polygon fill="#181818" points="271.6305,354.5547,275.6305,364.5547,279.6305,354.5547,275.6305,358.5547" style="stroke:#181818;stroke-width:1;"/><line style="stroke:#181818;stroke-width:1;" x1="351.1383" x2="433.5573" y1="328.1523" y2="328.1523"/><polygon fill="#181818" points="429.5573,397.0391,433.5573,407.0391,437.5573,397.0391,433.5573,401.0391" style="stroke:#181818;stroke-width:1;"/><line style="stroke:#181818;stroke-width:1;" x1="433.5573" x2="433.5573" y1="328.1523" y2="471.0391"/><line style="stroke:#181818;stroke-width:1;" x1="433.5573" x2="275.6305" y1="471.0391" y2="471.0391"/><line style="stroke:#181818;stroke-width:1;" x1="275.6305" x2="275.6305" y1="471.0391" y2="491.0391"/><polygon fill="#181818" points="271.6305,481.0391,275.6305,491.0391,279.6305,481.0391,275.6305,485.0391" style="stroke:#181818;stroke-width:1;"/><line style="stroke:#181818;stroke-width:1;" x1="275.6305" x2="275.6305" y1="575.0195" y2="603.1328"/><polygon fill="#181818" points="271.6305,593.1328,275.6305,603.1328,279.6305,593.1328,275.6305,597.1328" style="stroke:#181818;stroke-width:1;"/><line style="stroke:#181818;stroke-width:1;" x1="275.6305" x2="275.6305" y1="516.6484" y2="541.0508"/><polygon fill="#181818" points="271.6305,531.0508,275.6305,541.0508,279.6305,531.0508,275.6305,535.0508" style="stroke:#181818;stroke-width:1;"/><line style="stroke:#181818;stroke-width:1;" x1="374.3925" x2="386.3925" y1="503.8438" y2="503.8438"/><polygon fill="#181818" points="382.3925,573.1328,386.3925,583.1328,390.3925,573.1328,386.3925,577.1328" style="stroke:#181818;stroke-width:1;"/><line style="stroke:#181818;stroke-width:1;" x1="386.3925" x2="386.3925" y1="503.8438" y2="647.1328"/><line style="stroke:#181818;stroke-width:1;" x1="386.3925" x2="275.6305" y1="647.1328" y2="647.1328"/><line style="stroke:#181818;stroke-width:1;" x1="275.6305" x2="275.6305" y1="647.1328" y2="667.1328"/><polygon fill="#181818" points="271.6305,657.1328,275.6305,667.1328,279.6305,657.1328,275.6305,661.1328" style="stroke:#181818;stroke-width:1;"/><line style="stroke:#181818;stroke-width:1;" x1="275.6305" x2="275.6305" y1="803.4727" y2="831.9883"/><polygon fill="#181818" points="271.6305,821.9883,275.6305,831.9883,279.6305,821.9883,275.6305,825.9883" style="stroke:#181818;stroke-width:1;"/><line style="stroke:#181818;stroke-width:1;" x1="275.6305" x2="275.6305" y1="745.1016" y2="769.5039"/><polygon fill="#181818" points="271.6305,759.5039,275.6305,769.5039,279.6305,759.5039,275.6305,763.5039" style="stroke:#181818;stroke-width:1;"/><line style="stroke:#181818;stroke-width:1;" x1="374.3602" x2="412.1442" y1="733.1016" y2="733.1016"/><polygon fill="#181818" points="408.1442,801.9883,412.1442,811.9883,416.1442,801.9883,412.1442,805.9883" style="stroke:#181818;stroke-width:1;"/><line style="stroke:#181818;stroke-width:1;" x1="412.1442" x2="412.1442" y1="733.1016" y2="875.9883"/><line style="stroke:#181818;stroke-width:1;" x1="412.1442" x2="275.6305" y1="875.9883" y2="875.9883"/><line style="stroke:#181818;stroke-width:1;" x1="275.6305" x2="275.6305" y1="875.9883" y2="895.9883"/><polygon fill="#181818" points="271.6305,885.9883,275.6305,895.9883,279.6305,885.9883,275.6305,889.9883" style="stroke:#181818;stroke-width:1;"/><line style="stroke:#181818;stroke-width:1;" x1="275.6305" x2="275.6305" y1="701.1016" y2="721.1016"/><polygon fill="#181818" points="271.6305,711.1016,275.6305,721.1016,279.6305,711.1016,275.6305,715.1016" style="stroke:#181818;stroke-width:1;"/><line style="stroke:#181818;stroke-width:1;" x1="275.6305" x2="275.6305" y1="1094.6992" y2="1123.2148"/><polygon fill="#181818" points="271.6305,1113.2148,275.6305,1123.2148,279.6305,1113.2148,275.6305,1117.2148" style="stroke:#181818;stroke-width:1;"/><line style="stroke:#181818;stroke-width:1;" x1="275.6305" x2="275.6305" y1="1036.3281" y2="1060.7305"/><polygon fill="#181818" points="271.6305,1050.7305,275.6305,1060.7305,279.6305,1050.7305,275.6305,1054.7305" style="stroke:#181818;stroke-width:1;"/><line style="stroke:#181818;stroke-width:1;" x1="365.4899" x2="390.0338" y1="1024.3281" y2="1024.3281"/><polygon fill="#181818" points="386.0338,1093.2148,390.0338,1103.2148,394.0338,1093.2148,390.0338,1097.2148" style="stroke:#181818;stroke-width:1;"/><line style="stroke:#181818;stroke-width:1;" x1="390.0338" x2="390.0338" y1="1024.3281" y2="1167.2148"/><line style="stroke:#181818;stroke-width:1;" x1="390.0338" x2="275.6305" y1="1167.2148" y2="1167.2148"/><line style="stroke:#181818;stroke-width:1;" x1="275.6305" x2="275.6305" y1="1167.2148" y2="1187.2148"/><polygon fill="#181818" points="271.6305,1177.2148,275.6305,1187.2148,279.6305,1177.2148,275.6305,1181.2148" style="stroke:#181818;stroke-width:1;"/><line style="stroke:#181818;stroke-width:1;" x1="275.6305" x2="275.6305" y1="992.3281" y2="1012.3281"/><polygon fill="#181818" points="271.6305,1002.3281,275.6305,1012.3281,279.6305,1002.3281,275.6305,1006.3281" style="stroke:#181818;stroke-width:1;"/><line style="stroke:#181818;stroke-width:1;" x1="275.6305" x2="275.6305" y1="919.9883" y2="944.3906"/><polygon fill="#181818" points="271.6305,934.3906,275.6305,944.3906,279.6305,934.3906,275.6305,938.3906" style="stroke:#181818;stroke-width:1;"/><line style="stroke:#181818;stroke-width:1;" x1="375.421" x2="412.0338" y1="907.9883" y2="907.9883"/><polygon fill="#181818" points="408.0338,1045.7461,412.0338,1055.7461,416.0338,1045.7461,412.0338,1049.7461" style="stroke:#181818;stroke-width:1;"/><line style="stroke:#181818;stroke-width:1;" x1="412.0338" x2="412.0338" y1="907.9883" y2="1199.2148"/><line style="stroke:#181818;stroke-width:1;" x1="412.0338" x2="287.6305" y1="1199.2148" y2="1199.2148"/><polygon fill="#181818" points="297.6305,1195.2148,287.6305,1199.2148,297.6305,1203.2148,293.6305,1199.2148" style="stroke:#181818;stroke-width:1;"/><line style="stroke:#181818;stroke-width:1;" x1="275.6305" x2="275.6305" y1="1315.1953" y2="1343.3086"/><polygon fill="#181818" points="271.6305,1333.3086,275.6305,1343.3086,279.6305,1333.3086,275.6305,1337.3086" style="stroke:#181818;stroke-width:1;"/><line style="stroke:#181818;stroke-width:1;" x1="275.6305" x2="275.6305" y1="1256.8242" y2="1281.2266"/><polygon fill="#181818" points="271.6305,1271.2266,275.6305,1281.2266,279.6305,1271.2266,275.6305,1275.2266" style="stroke:#181818;stroke-width:1;"/><line style="stroke:#181818;stroke-width:1;" x1="360.4034" x2="390.0338" y1="1244.0195" y2="1244.0195"/><polygon fill="#181818" points="386.0338,1313.3086,390.0338,1323.3086,394.0338,1313.3086,390.0338,1317.3086" style="stroke:#181818;stroke-width:1;"/><line style="stroke:#181818;stroke-width:1;" x1="390.0338" x2="390.0338" y1="1244.0195" y2="1387.3086"/><line style="stroke:#181818;stroke-width:1;" x1="390.0338" x2="275.6305" y1="1387.3086" y2="1387.3086"/><line style="stroke:#181818;stroke-width:1;" x1="275.6305" x2="275.6305" y1="1387.3086" y2="1407.3086"/><polygon fill="#181818" points="271.6305,1397.3086,275.6305,1407.3086,279.6305,1397.3086,275.6305,1401.3086" style="stroke:#181818;stroke-width:1;"/><line style="stroke:#181818;stroke-width:1;" x1="275.6305" x2="275.6305" y1="1211.2148" y2="1231.2148"/><polygon fill="#181818" points="271.6305,1221.2148,275.6305,1231.2148,279.6305,1221.2148,275.6305,1225.2148" style="stroke:#181818;stroke-width:1;"/><line style="stroke:#181818;stroke-width:1;" x1="180.9452" x2="170.9452" y1="1474.082" y2="1474.082"/><line style="stroke:#181818;stroke-width:1;" x1="170.9452" x2="170.9452" y1="1474.082" y2="1496.8867"/><polygon fill="#181818" points="166.9452,1486.8867,170.9452,1496.8867,174.9452,1486.8867,170.9452,1490.8867" style="stroke:#181818;stroke-width:1;"/><line style="stroke:#181818;stroke-width:1;" x1="370.3158" x2="380.3158" y1="1474.082" y2="1474.082"/><line style="stroke:#181818;stroke-width:1;" x1="380.3158" x2="380.3158" y1="1474.082" y2="1496.8867"/><polygon fill="#181818" points="376.3158,1486.8867,380.3158,1496.8867,384.3158,1486.8867,380.3158,1490.8867" style="stroke:#181818;stroke-width:1;"/><line style="stroke:#181818;stroke-width:1;" x1="170.9452" x2="170.9452" y1="1530.8555" y2="1548.8555"/><line style="stroke:#181818;stroke-width:1;" x1="170.9452" x2="263.6305" y1="1548.8555" y2="1548.8555"/><polygon fill="#181818" points="253.6305,1544.8555,263.6305,1548.8555,253.6305,1552.8555,257.6305,1548.8555" style="stroke:#181818;stroke-width:1;"/><line style="stroke:#181818;stroke-width:1;" x1="380.3158" x2="380.3158" y1="1530.8555" y2="1548.8555"/><line style="stroke:#181818;stroke-width:1;" x1="380.3158" x2="287.6305" y1="1548.8555" y2="1548.8555"/><polygon fill="#181818" points="297.6305,1544.8555,287.6305,1548.8555,297.6305,1552.8555,293.6305,1548.8555" style="stroke:#181818;stroke-width:1;"/><line style="stroke:#181818;stroke-width:1;" x1="275.6305" x2="275.6305" y1="1441.2773" y2="1461.2773"/><polygon fill="#181818" points="271.6305,1451.2773,275.6305,1461.2773,279.6305,1451.2773,275.6305,1455.2773" style="stroke:#181818;stroke-width:1;"/><line style="stroke:#181818;stroke-width:1;" x1="187.4227" x2="169.4362" y1="1592.8555" y2="1592.8555"/><line style="stroke:#181818;stroke-width:1;" x1="169.4362" x2="169.4362" y1="1592.8555" y2="1614.8555"/><polygon fill="#181818" points="165.4362,1604.8555,169.4362,1614.8555,173.4362,1604.8555,169.4362,1608.8555" style="stroke:#181818;stroke-width:1;"/><line style="stroke:#181818;stroke-width:1;" x1="363.8383" x2="381.8248" y1="1592.8555" y2="1592.8555"/><line style="stroke:#181818;stroke-width:1;" x1="381.8248" x2="381.8248" y1="1592.8555" y2="1614.8555"/><polygon fill="#181818" points="377.8248,1604.8555,381.8248,1614.8555,385.8248,1604.8555,381.8248,1608.8555" style="stroke:#181818;stroke-width:1;"/><line style="stroke:#181818;stroke-width:1;" x1="169.4362" x2="169.4362" y1="1648.8242" y2="1666.8242"/><line style="stroke:#181818;stroke-width:1;" x1="169.4362" x2="263.6305" y1="1666.8242" y2="1666.8242"/><polygon fill="#181818" points="253.6305,1662.8242,263.6305,1666.8242,253.6305,1670.8242,257.6305,1666.8242" style="stroke:#181818;stroke-width:1;"/><line style="stroke:#181818;stroke-width:1;" x1="381.8248" x2="381.8248" y1="1648.8242" y2="1666.8242"/><line style="stroke:#181818;stroke-width:1;" x1="381.8248" x2="287.6305" y1="1666.8242" y2="1666.8242"/><polygon fill="#181818" points="297.6305,1662.8242,287.6305,1666.8242,297.6305,1670.8242,293.6305,1666.8242" style="stroke:#181818;stroke-width:1;"/><line style="stroke:#181818;stroke-width:1;" x1="275.6305" x2="275.6305" y1="1560.8555" y2="1580.8555"/><polygon fill="#181818" points="271.6305,1570.8555,275.6305,1580.8555,279.6305,1570.8555,275.6305,1574.8555" style="stroke:#181818;stroke-width:1;"/><line style="stroke:#181818;stroke-width:1;" x1="275.6305" x2="275.6305" y1="1678.8242" y2="1698.8242"/><polygon fill="#181818" points="271.6305,1688.8242,275.6305,1698.8242,279.6305,1688.8242,275.6305,1692.8242" style="stroke:#181818;stroke-width:1;"/><!--SRC=[bLFDRjim3BxxAJZiqWBja5xJmv05owaOXdR70W4ZCOvMMV8aoerlUuWzuPvab9muQPDYMqwAHFhxuSTtRS2wGR3O-yGG6s9qMB5XIp2RVxkUJ6wWk_amWTy_Vy53YspGGelg2Mi2L6mwkV8Eq6a8tjgLF84cPQBSLl79k1O3Df3lw-2JqtDlVO3tY_8xgeWRrFxPk1hMQ2CTlMXQOxAyy8w_O2EyWf2egiWOk9hE0o7Jdjk3Jq7HFVr85FcsCckusFqX3OtN12P2x1rlY8twU0boS73HKxoi0AQpGH41ELnPQHbBGI6ZzNMYR1Q5U2lraNrRaTDcFI0bnwOf45-3rqbbQqumxkaxAOOmq2hEuHxs02Sc53FFmOo2Ic_R1j_jr3qw30I-9RTKOXTjUTa6wWmzZpISVwdqhv3JEuyQLZ8woOIcg89fsOV1t5c7ncQh2XUr8VKKKmEq5Kd_0GdFXZTY2KRlpYZ-D81dIMXSp8KMQl8Irz2V6FovGvioJY0hNwGhOMrDHw6NauaSp2hboOXPERNK-cX4K7_TffKrQXVeOgiaCTCfIgqjCpE1zE5LTY76LqA5ma9S0MLzb5hsRtYyamam23t8dOlEl4pIxBoxBchNPiifo81bUSQHbvTXCg_D_YS6nrCUNIDKcptSKUf9EFN3qE_o0W3kHty5GyI6G3wwCGKDifprsrksHoaRTLkHxFqeu9xohC5mF9UNVSVesSprBpytBfK-iu5IvagS1fkNkyvbwQ5J9hbyPB4yM3ZWPnl_0000]--></g></svg>