<svg xmlns="http://www.w3.org/2000/svg" xmlns:xlink="http://www.w3.org/1999/xlink" contentStyleType="text/css" data-diagram-type="ACTIVITY" height="1731px" preserveAspectRatio="none" style="width:514px;height:1731px;background:#FFFFFF;" version="1.1" viewBox="0 0 514 1731" width="514px" zoomAndPan="magnify"><title>ACT-001 &#8212; Spatial package activation and rollback decision</title><defs/><g><g class="title" data-source-line="2"><text fill="#000000" font-family="Arial" font-size="14" font-weight="bold" lengthAdjust="spacing" textLength="471.9941" x="20" y="32.9951">ACT-001 &#8212; Spatial package activation and rollback decision</text></g><ellipse cx="256.2301" cy="57.2969" fill="#222222" rx="10" ry="10" style="stroke:#222222;stroke-width:1;"/><rect fill="#F1F1F1" height="33.9688" rx="12.5" ry="12.5" style="stroke:#181818;stroke-width:0.5;" width="196.0273" x="158.2164" y="87.2969"/><text fill="#000000" font-family="Arial" font-size="12" lengthAdjust="spacing" textLength="176.0273" x="168.2164" y="108.4355">Create SpatialSourceRequest</text><rect fill="#F1F1F1" height="33.9688" rx="12.5" ry="12.5" style="stroke:#181818;stroke-width:0.5;" width="283.877" x="114.2916" y="189.668"/><text fill="#000000" font-family="Arial" font-size="12" lengthAdjust="spacing" textLength="263.877" x="124.2916" y="210.8066">Activate enabled synthetic catalogue layers</text><ellipse cx="256.2301" cy="263.1523" fill="none" rx="11" ry="11" style="stroke:#222222;stroke-width:1;"/><ellipse cx="256.2301" cy="263.1523" fill="#222222" rx="6" ry="6" style="stroke:#222222;stroke-width:1;"/><polygon fill="#F1F1F1" points="173.2709,141.2656,339.1893,141.2656,351.1893,153.2656,339.1893,165.2656,173.2709,165.2656,161.2709,153.2656,173.2709,141.2656" style="stroke:#181818;stroke-width:0.5;"/><text fill="#000000" font-family="Arial" font-size="11" lengthAdjust="spacing" textLength="19.0083" x="260.2301" y="175.4761">yes</text><text fill="#000000" font-family="Arial" font-size="11" lengthAdjust="spacing" textLength="165.9185" x="173.2709" y="157.0737">Requested mode is synthetic?</text><rect fill="#F1F1F1" height="33.9688" rx="12.5" ry="12.5" style="stroke:#181818;stroke-width:0.5;" width="295.8535" x="108.3033" y="364.5547"/><text fill="#000000" font-family="Arial" font-size="12" lengthAdjust="spacing" textLength="275.8535" x="118.3033" y="385.6934">Reject request and activate synthetic fallback</text><ellipse cx="256.2301" cy="438.0391" fill="none" rx="11" ry="11" style="stroke:#222222;stroke-width:1;"/><ellipse cx="256.2301" cy="438.0391" fill="#222222" rx="6" ry="6" style="stroke:#222222;stroke-width:1;"/><polygon fill="#F1F1F1" points="192.7223,316.1523,319.7379,316.1523,331.7379,328.1523,319.7379,340.1523,192.7223,340.1523,180.7223,328.1523,192.7223,316.1523" style="stroke:#181818;stroke-width:0.5;"/><text fill="#000000" font-family="Arial" font-size="11" lengthAdjust="spacing" textLength="19.0083" x="260.2301" y="350.3628">yes</text><text fill="#000000" font-family="Arial" font-size="11" lengthAdjust="spacing" textLength="127.0156" x="192.7223" y="331.9604">Runtime is Production?</text><rect fill="#F1F1F1" height="33.9688" rx="12.5" ry="12.5" style="stroke:#181818;stroke-width:0.5;" width="179.0703" x="166.6949" y="541.0508"/><text fill="#000000" font-family="Arial" font-size="12" lengthAdjust="spacing" textLength="159.0703" x="176.6949" y="562.1895">Activate synthetic fallback</text><ellipse cx="256.2301" cy="614.1328" fill="none" rx="11" ry="11" style="stroke:#222222;stroke-width:1;"/><ellipse cx="256.2301" cy="614.1328" fill="#222222" rx="6" ry="6" style="stroke:#222222;stroke-width:1;"/><polygon fill="#F1F1F1" points="169.4681,491.0391,342.9921,491.0391,354.9921,503.8438,342.9921,516.6484,169.4681,516.6484,157.4681,503.8438,169.4681,491.0391" style="stroke:#181818;stroke-width:0.5;"/><text fill="#000000" font-family="Arial" font-size="11" lengthAdjust="spacing" textLength="13.7017" x="260.2301" y="526.8589">no</text><text fill="#000000" font-family="Arial" font-size="11" lengthAdjust="spacing" textLength="173.5239" x="169.4681" y="501.2495">Requested and approved mode</text><text fill="#000000" font-family="Arial" font-size="11" lengthAdjust="spacing" textLength="151.0728" x="169.4681" y="514.0542">are open_context_preview?</text><rect fill="#F1F1F1" height="33.9688" rx="12.5" ry="12.5" style="stroke:#181818;stroke-width:0.5;" width="158.5039" x="176.9781" y="667.1328"/><text fill="#000000" font-family="Arial" font-size="12" lengthAdjust="spacing" textLength="138.5039" x="186.9781" y="688.2715">Load bundle descriptor</text><rect fill="#F1F1F1" height="33.9688" rx="12.5" ry="12.5" style="stroke:#181818;stroke-width:0.5;" width="253.0273" x="129.7164" y="769.5039"/><text fill="#000000" font-family="Arial" font-size="12" lengthAdjust="spacing" textLength="233.0273" x="139.7164" y="790.6426">Activate synthetic fallback with reason</text><ellipse cx="256.2301" cy="842.9883" fill="none" rx="11" ry="11" style="stroke:#222222;stroke-width:1;"/><ellipse cx="256.2301" cy="842.9883" fill="#222222" rx="6" ry="6" style="stroke:#222222;stroke-width:1;"/><polygon fill="#F1F1F1" points="169.5004,721.1016,342.9598,721.1016,354.9598,733.1016,342.9598,745.1016,169.5004,745.1016,157.5004,733.1016,169.5004,721.1016" style="stroke:#181818;stroke-width:0.5;"/><text fill="#000000" font-family="Arial" font-size="11" lengthAdjust="spacing" textLength="13.7017" x="260.2301" y="755.312">no</text><text fill="#000000" font-family="Arial" font-size="11" lengthAdjust="spacing" textLength="173.4595" x="169.5004" y="736.9097">Available and checksum exact?</text><rect fill="#F1F1F1" height="47.9375" rx="12.5" ry="12.5" style="stroke:#181818;stroke-width:0.5;" width="252.084" x="130.1881" y="944.3906"/><text fill="#000000" font-family="Arial" font-size="12" lengthAdjust="spacing" textLength="232.084" x="140.1881" y="965.5293">Evaluate release, delivery, distribution</text><text fill="#000000" font-family="Arial" font-size="12" lengthAdjust="spacing" textLength="220.8281" x="140.1881" y="979.498">and repository-publication approvals</text><rect fill="#F1F1F1" height="33.9688" rx="12.5" ry="12.5" style="stroke:#181818;stroke-width:0.5;" width="208.8066" x="151.8268" y="1060.7305"/><text fill="#000000" font-family="Arial" font-size="12" lengthAdjust="spacing" textLength="188.8066" x="161.8268" y="1081.8691">Fail closed to synthetic fallback</text><ellipse cx="256.2301" cy="1134.2148" fill="none" rx="11" ry="11" style="stroke:#222222;stroke-width:1;"/><ellipse cx="256.2301" cy="1134.2148" fill="#222222" rx="6" ry="6" style="stroke:#222222;stroke-width:1;"/><polygon fill="#F1F1F1" points="178.3707,1012.3281,334.0895,1012.3281,346.0895,1024.3281,334.0895,1036.3281,178.3707,1036.3281,166.3707,1024.3281,178.3707,1012.3281" style="stroke:#181818;stroke-width:0.5;"/><text fill="#000000" font-family="Arial" font-size="11" lengthAdjust="spacing" textLength="13.7017" x="260.2301" y="1046.5386">no</text><text fill="#000000" font-family="Arial" font-size="11" lengthAdjust="spacing" textLength="155.7188" x="178.3707" y="1028.1362">All required approvals pass?</text><polygon fill="#F1F1F1" points="168.4396,895.9883,344.0206,895.9883,356.0206,907.9883,344.0206,919.9883,168.4396,919.9883,156.4396,907.9883,168.4396,895.9883" style="stroke:#181818;stroke-width:0.5;"/><text fill="#000000" font-family="Arial" font-size="11" lengthAdjust="spacing" textLength="19.0083" x="260.2301" y="930.1987">yes</text><text fill="#000000" font-family="Arial" font-size="11" lengthAdjust="spacing" textLength="175.5811" x="168.4396" y="911.7964">Bundle contains real geometry?</text><polygon fill="#F1F1F1" points="256.2301,1187.2148,268.2301,1199.2148,256.2301,1211.2148,244.2301,1199.2148,256.2301,1187.2148" style="stroke:#181818;stroke-width:0.5;"/><rect fill="#F1F1F1" height="33.9688" rx="12.5" ry="12.5" style="stroke:#181818;stroke-width:0.5;" width="208.8066" x="151.8268" y="1281.2266"/><text fill="#000000" font-family="Arial" font-size="12" lengthAdjust="spacing" textLength="188.8066" x="161.8268" y="1302.3652">Fail closed to synthetic fallback</text><ellipse cx="256.2301" cy="1354.3086" fill="none" rx="11" ry="11" style="stroke:#222222;stroke-width:1;"/><ellipse cx="256.2301" cy="1354.3086" fill="#222222" rx="6" ry="6" style="stroke:#222222;stroke-width:1;"/><polygon fill="#F1F1F1" points="183.4572,1231.2148,329.0031,1231.2148,341.0031,1244.0195,329.0031,1256.8242,183.4572,1256.8242,171.4572,1244.0195,183.4572,1231.2148" style="stroke:#181818;stroke-width:0.5;"/><text fill="#000000" font-family="Arial" font-size="11" lengthAdjust="spacing" textLength="13.7017" x="260.2301" y="1267.0347">no</text><text fill="#000000" font-family="Arial" font-size="11" lengthAdjust="spacing" textLength="145.5459" x="183.4572" y="1241.4253">Controlled non-real fixture</text><text fill="#000000" font-family="Arial" font-size="11" lengthAdjust="spacing" textLength="138.6172" x="183.4572" y="1254.23">or approved real bundle?</text><rect fill="#F1F1F1" height="33.9688" rx="12.5" ry="12.5" style="stroke:#181818;stroke-width:0.5;" width="246.9219" x="132.7692" y="1407.3086"/><text fill="#000000" font-family="Arial" font-size="12" lengthAdjust="spacing" textLength="226.9219" x="142.7692" y="1428.4473">Evaluate each fixture catalogue entry</text><polygon fill="#F1F1F1" points="173.5448,1461.2773,338.9154,1461.2773,350.9154,1474.082,338.9154,1486.8867,173.5448,1486.8867,161.5448,1474.082,173.5448,1461.2773" style="stroke:#181818;stroke-width:0.5;"/><text fill="#000000" font-family="Arial" font-size="11" lengthAdjust="spacing" textLength="165.3706" x="173.5448" y="1471.4878">Layer available, reviewed and</text><text fill="#000000" font-family="Arial" font-size="11" lengthAdjust="spacing" textLength="113.4966" x="173.5448" y="1484.2925">checksum matched?</text><text fill="#000000" font-family="Arial" font-size="11" lengthAdjust="spacing" textLength="19.0083" x="142.5365" y="1471.4878">yes</text><text fill="#000000" font-family="Arial" font-size="11" lengthAdjust="spacing" textLength="13.7017" x="350.9154" y="1471.4878">no</text><rect fill="#F1F1F1" height="33.9688" rx="12.5" ry="12.5" style="stroke:#181818;stroke-width:0.5;" width="146.4102" x="78.3397" y="1496.8867"/><text fill="#000000" font-family="Arial" font-size="12" lengthAdjust="spacing" textLength="126.4102" x="88.3397" y="1518.0254">Activate fixture layer</text><rect fill="#F1F1F1" height="33.9688" rx="12.5" ry="12.5" style="stroke:#181818;stroke-width:0.5;" width="220.4258" x="250.7025" y="1496.8867"/><text fill="#000000" font-family="Arial" font-size="12" lengthAdjust="spacing" textLength="200.4258" x="260.7025" y="1518.0254">Retain its synthetic fallback layer</text><polygon fill="#F1F1F1" points="256.2301,1536.8555,268.2301,1548.8555,256.2301,1560.8555,244.2301,1548.8555,256.2301,1536.8555" style="stroke:#181818;stroke-width:0.5;"/><polygon fill="#F1F1F1" points="180.0223,1580.8555,332.4379,1580.8555,344.4379,1592.8555,332.4379,1604.8555,180.0223,1604.8555,168.0223,1592.8555,180.0223,1580.8555" style="stroke:#181818;stroke-width:0.5;"/><text fill="#000000" font-family="Arial" font-size="11" lengthAdjust="spacing" textLength="152.4155" x="180.0223" y="1596.6636">Any fixture layer activated?</text><text fill="#000000" font-family="Arial" font-size="11" lengthAdjust="spacing" textLength="19.0083" x="149.014" y="1590.2612">yes</text><text fill="#000000" font-family="Arial" font-size="11" lengthAdjust="spacing" textLength="13.7017" x="344.4379" y="1590.2612">no</text><rect fill="#F1F1F1" height="33.9688" rx="12.5" ry="12.5" style="stroke:#181818;stroke-width:0.5;" width="212.3398" x="43.8658" y="1614.8555"/><text fill="#000000" font-family="Arial" font-size="12" lengthAdjust="spacing" textLength="192.3398" x="53.8658" y="1635.9941">Return controlled_fixture_active</text><rect fill="#F1F1F1" height="33.9688" rx="12.5" ry="12.5" style="stroke:#181818;stroke-width:0.5;" width="172.4375" x="276.2057" y="1614.8555"/><text fill="#000000" font-family="Arial" font-size="12" lengthAdjust="spacing" textLength="152.4375" x="286.2057" y="1635.9941">Return synthetic_fallback</text><polygon fill="#F1F1F1" points="256.2301,1654.8242,268.2301,1666.8242,256.2301,1678.8242,244.2301,1666.8242,256.2301,1654.8242" style="stroke:#181818;stroke-width:0.5;"/><ellipse cx="256.2301" cy="1709.8242" fill="none" rx="11" ry="11" style="stroke:#222222;stroke-width:1;"/><ellipse cx="256.2301" cy="1709.8242" fill="#222222" rx="6" ry="6" style="stroke:#222222;stroke-width:1;"/><line style="stroke:#181818;stroke-width:1;" x1="256.2301" x2="256.2301" y1="67.2969" y2="87.2969"/><polygon fill="#181818" points="252.2301,77.2969,256.2301,87.2969,260.2301,77.2969,256.2301,81.2969" style="stroke:#181818;stroke-width:1;"/><line style="stroke:#181818;stroke-width:1;" x1="256.2301" x2="256.2301" y1="223.6367" y2="252.1523"/><polygon fill="#181818" points="252.2301,242.1523,256.2301,252.1523,260.2301,242.1523,256.2301,246.1523" style="stroke:#181818;stroke-width:1;"/><line style="stroke:#181818;stroke-width:1;" x1="256.2301" x2="256.2301" y1="165.2656" y2="189.668"/><polygon fill="#181818" points="252.2301,179.668,256.2301,189.668,260.2301,179.668,256.2301,183.668" style="stroke:#181818;stroke-width:1;"/><line style="stroke:#181818;stroke-width:1;" x1="351.1893" x2="408.1686" y1="153.2656" y2="153.2656"/><polygon fill="#181818" points="404.1686,222.1523,408.1686,232.1523,412.1686,222.1523,408.1686,226.1523" style="stroke:#181818;stroke-width:1;"/><line style="stroke:#181818;stroke-width:1;" x1="408.1686" x2="408.1686" y1="153.2656" y2="296.1523"/><line style="stroke:#181818;stroke-width:1;" x1="408.1686" x2="256.2301" y1="296.1523" y2="296.1523"/><line style="stroke:#181818;stroke-width:1;" x1="256.2301" x2="256.2301" y1="296.1523" y2="316.1523"/><polygon fill="#181818" points="252.2301,306.1523,256.2301,316.1523,260.2301,306.1523,256.2301,310.1523" style="stroke:#181818;stroke-width:1;"/><line style="stroke:#181818;stroke-width:1;" x1="256.2301" x2="256.2301" y1="121.2656" y2="141.2656"/><polygon fill="#181818" points="252.2301,131.2656,256.2301,141.2656,260.2301,131.2656,256.2301,135.2656" style="stroke:#181818;stroke-width:1;"/><line style="stroke:#181818;stroke-width:1;" x1="256.2301" x2="256.2301" y1="398.5234" y2="427.0391"/><polygon fill="#181818" points="252.2301,417.0391,256.2301,427.0391,260.2301,417.0391,256.2301,421.0391" style="stroke:#181818;stroke-width:1;"/><line style="stroke:#181818;stroke-width:1;" x1="256.2301" x2="256.2301" y1="340.1523" y2="364.5547"/><polygon fill="#181818" points="252.2301,354.5547,256.2301,364.5547,260.2301,354.5547,256.2301,358.5547" style="stroke:#181818;stroke-width:1;"/><line style="stroke:#181818;stroke-width:1;" x1="331.7379" x2="414.1569" y1="328.1523" y2="328.1523"/><polygon fill="#181818" points="410.1569,397.0391,414.1569,407.0391,418.1569,397.0391,414.1569,401.0391" style="stroke:#181818;stroke-width:1;"/><line style="stroke:#181818;stroke-width:1;" x1="414.1569" x2="414.1569" y1="328.1523" y2="471.0391"/><line style="stroke:#181818;stroke-width:1;" x1="414.1569" x2="256.2301" y1="471.0391" y2="471.0391"/><line style="stroke:#181818;stroke-width:1;" x1="256.2301" x2="256.2301" y1="471.0391" y2="491.0391"/><polygon fill="#181818" points="252.2301,481.0391,256.2301,491.0391,260.2301,481.0391,256.2301,485.0391" style="stroke:#181818;stroke-width:1;"/><line style="stroke:#181818;stroke-width:1;" x1="256.2301" x2="256.2301" y1="575.0195" y2="603.1328"/><polygon fill="#181818" points="252.2301,593.1328,256.2301,603.1328,260.2301,593.1328,256.2301,597.1328" style="stroke:#181818;stroke-width:1;"/><line style="stroke:#181818;stroke-width:1;" x1="256.2301" x2="256.2301" y1="516.6484" y2="541.0508"/><polygon fill="#181818" points="252.2301,531.0508,256.2301,541.0508,260.2301,531.0508,256.2301,535.0508" style="stroke:#181818;stroke-width:1;"/><line style="stroke:#181818;stroke-width:1;" x1="354.9921" x2="366.9921" y1="503.8438" y2="503.8438"/><polygon fill="#181818" points="362.9921,573.1328,366.9921,583.1328,370.9921,573.1328,366.9921,577.1328" style="stroke:#181818;stroke-width:1;"/><line style="stroke:#181818;stroke-width:1;" x1="366.9921" x2="366.9921" y1="503.8438" y2="647.1328"/><line style="stroke:#181818;stroke-width:1;" x1="366.9921" x2="256.2301" y1="647.1328" y2="647.1328"/><line style="stroke:#181818;stroke-width:1;" x1="256.2301" x2="256.2301" y1="647.1328" y2="667.1328"/><polygon fill="#181818" points="252.2301,657.1328,256.2301,667.1328,260.2301,657.1328,256.2301,661.1328" style="stroke:#181818;stroke-width:1;"/><line style="stroke:#181818;stroke-width:1;" x1="256.2301" x2="256.2301" y1="803.4727" y2="831.9883"/><polygon fill="#181818" points="252.2301,821.9883,256.2301,831.9883,260.2301,821.9883,256.2301,825.9883" style="stroke:#181818;stroke-width:1;"/><line style="stroke:#181818;stroke-width:1;" x1="256.2301" x2="256.2301" y1="745.1016" y2="769.5039"/><polygon fill="#181818" points="252.2301,759.5039,256.2301,769.5039,260.2301,759.5039,256.2301,763.5039" style="stroke:#181818;stroke-width:1;"/><line style="stroke:#181818;stroke-width:1;" x1="354.9598" x2="392.7438" y1="733.1016" y2="733.1016"/><polygon fill="#181818" points="388.7438,801.9883,392.7438,811.9883,396.7438,801.9883,392.7438,805.9883" style="stroke:#181818;stroke-width:1;"/><line style="stroke:#181818;stroke-width:1;" x1="392.7438" x2="392.7438" y1="733.1016" y2="875.9883"/><line style="stroke:#181818;stroke-width:1;" x1="392.7438" x2="256.2301" y1="875.9883" y2="875.9883"/><line style="stroke:#181818;stroke-width:1;" x1="256.2301" x2="256.2301" y1="875.9883" y2="895.9883"/><polygon fill="#181818" points="252.2301,885.9883,256.2301,895.9883,260.2301,885.9883,256.2301,889.9883" style="stroke:#181818;stroke-width:1;"/><line style="stroke:#181818;stroke-width:1;" x1="256.2301" x2="256.2301" y1="701.1016" y2="721.1016"/><polygon fill="#181818" points="252.2301,711.1016,256.2301,721.1016,260.2301,711.1016,256.2301,715.1016" style="stroke:#181818;stroke-width:1;"/><line style="stroke:#181818;stroke-width:1;" x1="256.2301" x2="256.2301" y1="1094.6992" y2="1123.2148"/><polygon fill="#181818" points="252.2301,1113.2148,256.2301,1123.2148,260.2301,1113.2148,256.2301,1117.2148" style="stroke:#181818;stroke-width:1;"/><line style="stroke:#181818;stroke-width:1;" x1="256.2301" x2="256.2301" y1="1036.3281" y2="1060.7305"/><polygon fill="#181818" points="252.2301,1050.7305,256.2301,1060.7305,260.2301,1050.7305,256.2301,1054.7305" style="stroke:#181818;stroke-width:1;"/><line style="stroke:#181818;stroke-width:1;" x1="346.0895" x2="370.6334" y1="1024.3281" y2="1024.3281"/><polygon fill="#181818" points="366.6334,1093.2148,370.6334,1103.2148,374.6334,1093.2148,370.6334,1097.2148" style="stroke:#181818;stroke-width:1;"/><line style="stroke:#181818;stroke-width:1;" x1="370.6334" x2="370.6334" y1="1024.3281" y2="1167.2148"/><line style="stroke:#181818;stroke-width:1;" x1="370.6334" x2="256.2301" y1="1167.2148" y2="1167.2148"/><line style="stroke:#181818;stroke-width:1;" x1="256.2301" x2="256.2301" y1="1167.2148" y2="1187.2148"/><polygon fill="#181818" points="252.2301,1177.2148,256.2301,1187.2148,260.2301,1177.2148,256.2301,1181.2148" style="stroke:#181818;stroke-width:1;"/><line style="stroke:#181818;stroke-width:1;" x1="256.2301" x2="256.2301" y1="992.3281" y2="1012.3281"/><polygon fill="#181818" points="252.2301,1002.3281,256.2301,1012.3281,260.2301,1002.3281,256.2301,1006.3281" style="stroke:#181818;stroke-width:1;"/><line style="stroke:#181818;stroke-width:1;" x1="256.2301" x2="256.2301" y1="919.9883" y2="944.3906"/><polygon fill="#181818" points="252.2301,934.3906,256.2301,944.3906,260.2301,934.3906,256.2301,938.3906" style="stroke:#181818;stroke-width:1;"/><line style="stroke:#181818;stroke-width:1;" x1="356.0206" x2="392.6334" y1="907.9883" y2="907.9883"/><polygon fill="#181818" points="388.6334,1045.7461,392.6334,1055.7461,396.6334,1045.7461,392.6334,1049.7461" style="stroke:#181818;stroke-width:1;"/><line style="stroke:#181818;stroke-width:1;" x1="392.6334" x2="392.6334" y1="907.9883" y2="1199.2148"/><line style="stroke:#181818;stroke-width:1;" x1="392.6334" x2="268.2301" y1="1199.2148" y2="1199.2148"/><polygon fill="#181818" points="278.2301,1195.2148,268.2301,1199.2148,278.2301,1203.2148,274.2301,1199.2148" style="stroke:#181818;stroke-width:1;"/><line style="stroke:#181818;stroke-width:1;" x1="256.2301" x2="256.2301" y1="1315.1953" y2="1343.3086"/><polygon fill="#181818" points="252.2301,1333.3086,256.2301,1343.3086,260.2301,1333.3086,256.2301,1337.3086" style="stroke:#181818;stroke-width:1;"/><line style="stroke:#181818;stroke-width:1;" x1="256.2301" x2="256.2301" y1="1256.8242" y2="1281.2266"/><polygon fill="#181818" points="252.2301,1271.2266,256.2301,1281.2266,260.2301,1271.2266,256.2301,1275.2266" style="stroke:#181818;stroke-width:1;"/><line style="stroke:#181818;stroke-width:1;" x1="341.0031" x2="370.6334" y1="1244.0195" y2="1244.0195"/><polygon fill="#181818" points="366.6334,1313.3086,370.6334,1323.3086,374.6334,1313.3086,370.6334,1317.3086" style="stroke:#181818;stroke-width:1;"/><line style="stroke:#181818;stroke-width:1;" x1="370.6334" x2="370.6334" y1="1244.0195" y2="1387.3086"/><line style="stroke:#181818;stroke-width:1;" x1="370.6334" x2="256.2301" y1="1387.3086" y2="1387.3086"/><line style="stroke:#181818;stroke-width:1;" x1="256.2301" x2="256.2301" y1="1387.3086" y2="1407.3086"/><polygon fill="#181818" points="252.2301,1397.3086,256.2301,1407.3086,260.2301,1397.3086,256.2301,1401.3086" style="stroke:#181818;stroke-width:1;"/><line style="stroke:#181818;stroke-width:1;" x1="256.2301" x2="256.2301" y1="1211.2148" y2="1231.2148"/><polygon fill="#181818" points="252.2301,1221.2148,256.2301,1231.2148,260.2301,1221.2148,256.2301,1225.2148" style="stroke:#181818;stroke-width:1;"/><line style="stroke:#181818;stroke-width:1;" x1="161.5448" x2="151.5448" y1="1474.082" y2="1474.082"/><line style="stroke:#181818;stroke-width:1;" x1="151.5448" x2="151.5448" y1="1474.082" y2="1496.8867"/><polygon fill="#181818" points="147.5448,1486.8867,151.5448,1496.8867,155.5448,1486.8867,151.5448,1490.8867" style="stroke:#181818;stroke-width:1;"/><line style="stroke:#181818;stroke-width:1;" x1="350.9154" x2="360.9154" y1="1474.082" y2="1474.082"/><line style="stroke:#181818;stroke-width:1;" x1="360.9154" x2="360.9154" y1="1474.082" y2="1496.8867"/><polygon fill="#181818" points="356.9154,1486.8867,360.9154,1496.8867,364.9154,1486.8867,360.9154,1490.8867" style="stroke:#181818;stroke-width:1;"/><line style="stroke:#181818;stroke-width:1;" x1="151.5448" x2="151.5448" y1="1530.8555" y2="1548.8555"/><line style="stroke:#181818;stroke-width:1;" x1="151.5448" x2="244.2301" y1="1548.8555" y2="1548.8555"/><polygon fill="#181818" points="234.2301,1544.8555,244.2301,1548.8555,234.2301,1552.8555,238.2301,1548.8555" style="stroke:#181818;stroke-width:1;"/><line style="stroke:#181818;stroke-width:1;" x1="360.9154" x2="360.9154" y1="1530.8555" y2="1548.8555"/><line style="stroke:#181818;stroke-width:1;" x1="360.9154" x2="268.2301" y1="1548.8555" y2="1548.8555"/><polygon fill="#181818" points="278.2301,1544.8555,268.2301,1548.8555,278.2301,1552.8555,274.2301,1548.8555" style="stroke:#181818;stroke-width:1;"/><line style="stroke:#181818;stroke-width:1;" x1="256.2301" x2="256.2301" y1="1441.2773" y2="1461.2773"/><polygon fill="#181818" points="252.2301,1451.2773,256.2301,1461.2773,260.2301,1451.2773,256.2301,1455.2773" style="stroke:#181818;stroke-width:1;"/><line style="stroke:#181818;stroke-width:1;" x1="168.0223" x2="150.0358" y1="1592.8555" y2="1592.8555"/><line style="stroke:#181818;stroke-width:1;" x1="150.0358" x2="150.0358" y1="1592.8555" y2="1614.8555"/><polygon fill="#181818" points="146.0358,1604.8555,150.0358,1614.8555,154.0358,1604.8555,150.0358,1608.8555" style="stroke:#181818;stroke-width:1;"/><line style="stroke:#181818;stroke-width:1;" x1="344.4379" x2="362.4244" y1="1592.8555" y2="1592.8555"/><line style="stroke:#181818;stroke-width:1;" x1="362.4244" x2="362.4244" y1="1592.8555" y2="1614.8555"/><polygon fill="#181818" points="358.4244,1604.8555,362.4244,1614.8555,366.4244,1604.8555,362.4244,1608.8555" style="stroke:#181818;stroke-width:1;"/><line style="stroke:#181818;stroke-width:1;" x1="150.0358" x2="150.0358" y1="1648.8242" y2="1666.8242"/><line style="stroke:#181818;stroke-width:1;" x1="150.0358" x2="244.2301" y1="1666.8242" y2="1666.8242"/><polygon fill="#181818" points="234.2301,1662.8242,244.2301,1666.8242,234.2301,1670.8242,238.2301,1666.8242" style="stroke:#181818;stroke-width:1;"/><line style="stroke:#181818;stroke-width:1;" x1="362.4244" x2="362.4244" y1="1648.8242" y2="1666.8242"/><line style="stroke:#181818;stroke-width:1;" x1="362.4244" x2="268.2301" y1="1666.8242" y2="1666.8242"/><polygon fill="#181818" points="278.2301,1662.8242,268.2301,1666.8242,278.2301,1670.8242,274.2301,1666.8242" style="stroke:#181818;stroke-width:1;"/><line style="stroke:#181818;stroke-width:1;" x1="256.2301" x2="256.2301" y1="1560.8555" y2="1580.8555"/><polygon fill="#181818" points="252.2301,1570.8555,256.2301,1580.8555,260.2301,1570.8555,256.2301,1574.8555" style="stroke:#181818;stroke-width:1;"/><line style="stroke:#181818;stroke-width:1;" x1="256.2301" x2="256.2301" y1="1678.8242" y2="1698.8242"/><polygon fill="#181818" points="252.2301,1688.8242,256.2301,1698.8242,260.2301,1688.8242,256.2301,1692.8242" style="stroke:#181818;stroke-width:1;"/><!--SRC=[bLFDRXen4BxlKqpLIo85ARt2eQAeEKLLHNgCX0Px01UllRN7mDxw47t2Fad7NdOXWQWj9sFFxFSptxnh0gvh18kjJmon9aQ75Hks1DFPjz7z_GVu_VCNF3N81YqqgBQu9a35PYTNtW4w3S5RkvGdqAHCbDigRerhC60D-NuTV79wvgqFyFwX_CuguWQrtnktXXNQI6SlcbQOB3zunr-m5af1I5HLP0nSZMU1aAddzkHJK3Id7uaYJogpWflZ7z9GUqrW8iJMyOROg8-t80S7Dot5smfWFEqK4P33fPMMeHGKCbg_JfHzeX0dKX_PDnKvRLOTKd9iwWBnDNYTLBRc0cDEtqanX8vMSGvxs1ESc53Cl0Op22gzJHFyxgZksM4Wy0svXHAxwC2B9j3Eq7wWuVnBfN-573zwrB2KqKaSD4KLJCC-TEPETsXijgfmKHjIsvXge8D8-Wz8s1lUY2KOlRkY-5C7dYMXSJ4NMbYJbwI6ziBWppkqAUC4il95kXFMrkmej78oaODPfZmPCIkdbXeVZGXgHqrQMgEEWIwsIX8pdQBKsZ8p4qYVNcKNOdmbL2WyY2kWh8zIo_uDZuyo0JgX9xapqPcNIPgTTwEYTcKEd88CM9Pd67bvwIRpskn_Od0-vS4rGhNfuSvIJyAfxOR-c1S0i1_z7NGHwmBvx8OKrCXorczlMOzIDcfIaUpz861EUTPWE5xBIzynU3PrxSlF3KkbhsoWbBaIfyxcnR5pKNheaaak7rWiJXPs-Dd6Fm00]--></g></svg>