<svg xmlns="http://www.w3.org/2000/svg" xmlns:xlink="http://www.w3.org/1999/xlink" contentStyleType="text/css" data-diagram-type="ACTIVITY" height="1220px" preserveAspectRatio="none" style="width:1787px;height:1220px;background:#FFFFFF;" version="1.1" viewBox="0 0 1787 1220" width="1787px" zoomAndPan="magnify"><title>BPMN-001 &#8212; Core analysis flow (BPMN-aligned activity rendering)</title><defs/><g><g class="title" data-source-line="2"><text fill="#000000" font-family="Arial" font-size="14" font-weight="bold" lengthAdjust="spacing" textLength="524.0088" x="630.3943" y="32.9951">BPMN-001 &#8212; Core analysis flow (BPMN-aligned activity rendering)</text></g><rect fill="none" height="20.9531" style="stroke:none;stroke-width:1;" width="1754.7974" x="15" y="50.042"/><ellipse cx="225.5918" cy="85.9951" fill="#222222" rx="10" ry="10" style="stroke:#222222;stroke-width:1;"/><rect fill="#F1F1F1" height="33.9688" rx="12.5" ry="12.5" style="stroke:#181818;stroke-width:0.5;" width="234.623" x="108.2803" y="115.9951"/><text fill="#000000" font-family="Arial" font-size="12" lengthAdjust="spacing" textLength="214.623" x="118.2803" y="137.1338">Choose audience, role and scenario</text><polygon fill="#F1F1F1" points="175.4875,169.9639,275.696,169.9639,287.696,181.9639,275.696,193.9639,175.4875,193.9639,163.4875,181.9639,175.4875,169.9639" style="stroke:#181818;stroke-width:0.5;"/><text fill="#000000" font-family="Arial" font-size="11" lengthAdjust="spacing" textLength="100.2085" x="175.4875" y="185.772">Interaction mode?</text><text fill="#000000" font-family="Arial" font-size="11" lengthAdjust="spacing" textLength="66.1235" x="97.364" y="179.3696">Criteria-first</text><text fill="#000000" font-family="Arial" font-size="11" lengthAdjust="spacing" textLength="48.6782" x="287.696" y="179.3696">Map-first</text><rect fill="#F1F1F1" height="33.9688" rx="12.5" ry="12.5" style="stroke:#181818;stroke-width:0.5;" width="86.0938" x="77.6895" y="213.9639"/><text fill="#000000" font-family="Arial" font-size="12" lengthAdjust="spacing" textLength="66.0938" x="87.6895" y="235.1025">Set criteria</text><rect fill="#F1F1F1" height="33.9688" rx="12.5" ry="12.5" style="stroke:#181818;stroke-width:0.5;" width="199.4727" x="21" y="321.9014"/><text fill="#000000" font-family="Arial" font-size="12" lengthAdjust="spacing" textLength="179.4727" x="31" y="343.04">Select or compare candidates</text><rect fill="#F1F1F1" height="33.9688" rx="12.5" ry="12.5" style="stroke:#181818;stroke-width:0.5;" width="177.1426" x="241.876" y="213.9639"/><text fill="#000000" font-family="Arial" font-size="12" lengthAdjust="spacing" textLength="157.1426" x="251.876" y="235.1025">Select point, object or AOI</text><polygon fill="#F1F1F1" points="225.5918,365.8701,237.5918,377.8701,225.5918,389.8701,213.5918,377.8701,225.5918,365.8701" style="stroke:#181818;stroke-width:0.5;"/><rect fill="#F1F1F1" height="33.9688" rx="12.5" ry="12.5" style="stroke:#181818;stroke-width:0.5;" width="193.1387" x="129.0225" y="1021.0225"/><text fill="#000000" font-family="Arial" font-size="12" lengthAdjust="spacing" textLength="173.1387" x="139.0225" y="1042.1611">Print or save bounded report</text><polygon fill="#F1F1F1" points="175.0176,903.6514,276.166,903.6514,288.166,915.6514,276.166,927.6514,175.0176,927.6514,163.0176,915.6514,175.0176,903.6514" style="stroke:#181818;stroke-width:0.5;"/><text fill="#000000" font-family="Arial" font-size="11" lengthAdjust="spacing" textLength="19.0083" x="229.5918" y="937.8618">yes</text><text fill="#000000" font-family="Arial" font-size="11" lengthAdjust="spacing" textLength="101.1484" x="175.0176" y="919.4595">Export requested?</text><polygon fill="#F1F1F1" points="225.5918,1074.9912,237.5918,1086.9912,225.5918,1098.9912,213.5918,1086.9912,225.5918,1074.9912" style="stroke:#181818;stroke-width:0.5;"/><ellipse cx="225.5918" cy="1129.9912" fill="none" rx="11" ry="11" style="stroke:#222222;stroke-width:1;"/><ellipse cx="225.5918" cy="1129.9912" fill="#222222" rx="6" ry="6" style="stroke:#222222;stroke-width:1;"/><line style="stroke:#000000;stroke-width:1.5;" x1="15" x2="15" y1="50.042" y2="1140.9912"/><rect fill="#F1F1F1" height="33.9688" rx="12.5" ry="12.5" style="stroke:#181818;stroke-width:0.5;" width="202.2793" x="511.1533" y="267.9326"/><text fill="#000000" font-family="Arial" font-size="12" lengthAdjust="spacing" textLength="182.2793" x="521.1533" y="289.0713">Generate bounded candidates</text><rect fill="#F1F1F1" height="33.9688" rx="12.5" ry="12.5" style="stroke:#181818;stroke-width:0.5;" width="251.0293" x="591.6338" y="409.8701"/><text fill="#000000" font-family="Arial" font-size="12" lengthAdjust="spacing" textLength="231.0293" x="601.6338" y="431.0088">Build deterministic context and scores</text><rect fill="#F1F1F1" height="33.9688" rx="12.5" ry="12.5" style="stroke:#181818;stroke-width:0.5;" width="186.6289" x="623.834" y="463.8389"/><text fill="#000000" font-family="Arial" font-size="12" lengthAdjust="spacing" textLength="166.6289" x="633.834" y="484.9775">Load validation governance</text><rect fill="#F1F1F1" height="33.9688" rx="12.5" ry="12.5" style="stroke:#181818;stroke-width:0.5;" width="232.1797" x="601.0586" y="689.7451"/><text fill="#000000" font-family="Arial" font-size="12" lengthAdjust="spacing" textLength="212.1797" x="611.0586" y="710.8838">Merge narrative and decision score</text><rect fill="#F1F1F1" height="33.9688" rx="12.5" ry="12.5" style="stroke:#181818;stroke-width:0.5;" width="130.7656" x="651.7656" y="743.7139"/><text fill="#000000" font-family="Arial" font-size="12" lengthAdjust="spacing" textLength="110.7656" x="661.7656" y="764.8525">Render dashboard</text><rect fill="#555555" height="6" rx="2.5" ry="2.5" style="stroke:#555555;stroke-width:1;" width="576.2598" x="429.0186" y="797.6826"/><rect fill="#F1F1F1" height="33.9688" rx="12.5" ry="12.5" style="stroke:#181818;stroke-width:0.5;" width="279.2598" x="441.0186" y="823.6826"/><text fill="#000000" font-family="Arial" font-size="12" lengthAdjust="spacing" textLength="259.2598" x="451.0186" y="844.8213">Persist analysis through repository adapter</text><rect fill="#F1F1F1" height="33.9688" rx="12.5" ry="12.5" style="stroke:#181818;stroke-width:0.5;" width="245" x="748.2783" y="823.6826"/><text fill="#000000" font-family="Arial" font-size="12" lengthAdjust="spacing" textLength="225" x="758.2783" y="844.8213">Keep recoverable in-memory UI state</text><rect fill="#555555" height="6" rx="2.5" ry="2.5" style="stroke:#555555;stroke-width:1;" width="576.2598" x="429.0186" y="877.6514"/><line style="stroke:#000000;stroke-width:1.5;" x1="423.0186" x2="423.0186" y1="50.042" y2="1140.9912"/><rect fill="#F1F1F1" height="33.9688" rx="12.5" ry="12.5" style="stroke:#181818;stroke-width:0.5;" width="172.6367" x="1140.9785" y="517.8076"/><text fill="#000000" font-family="Arial" font-size="12" lengthAdjust="spacing" textLength="152.6367" x="1150.9785" y="538.9463">Validate request contract</text><polygon fill="#F1F1F1" points="1171.9531,571.7764,1282.6406,571.7764,1294.6406,583.7764,1282.6406,595.7764,1171.9531,595.7764,1159.9531,583.7764,1171.9531,571.7764" style="stroke:#181818;stroke-width:0.5;"/><text fill="#000000" font-family="Arial" font-size="11" lengthAdjust="spacing" textLength="110.6875" x="1171.9531" y="587.5845">OpenAI result valid?</text><text fill="#000000" font-family="Arial" font-size="11" lengthAdjust="spacing" textLength="19.0083" x="1140.9448" y="581.1821">yes</text><text fill="#000000" font-family="Arial" font-size="11" lengthAdjust="spacing" textLength="87.9946" x="1294.6406" y="581.1821">no / unavailable</text><rect fill="#F1F1F1" height="33.9688" rx="12.5" ry="12.5" style="stroke:#181818;stroke-width:0.5;" width="185.2402" x="1015.2783" y="605.7764"/><text fill="#000000" font-family="Arial" font-size="12" lengthAdjust="spacing" textLength="165.2402" x="1025.2783" y="626.915">Return structured narrative</text><rect fill="#F1F1F1" height="33.9688" rx="12.5" ry="12.5" style="stroke:#181818;stroke-width:0.5;" width="252.3535" x="1220.5186" y="605.7764"/><text fill="#000000" font-family="Arial" font-size="12" lengthAdjust="spacing" textLength="232.3535" x="1230.5186" y="626.915">Return deterministic fallback narrative</text><polygon fill="#F1F1F1" points="1227.2969,645.7451,1239.2969,657.7451,1227.2969,669.7451,1215.2969,657.7451,1227.2969,645.7451" style="stroke:#181818;stroke-width:0.5;"/><line style="stroke:#000000;stroke-width:1.5;" x1="1009.2783" x2="1009.2783" y1="50.042" y2="1140.9912"/><rect fill="#F1F1F1" height="33.9688" rx="12.5" ry="12.5" style="stroke:#181818;stroke-width:0.5;" width="281.0645" x="1482.8721" y="952.0537"/><text fill="#000000" font-family="Arial" font-size="12" lengthAdjust="spacing" textLength="261.0645" x="1492.8721" y="973.1924">Create/read report package and print route</text><line style="stroke:#000000;stroke-width:1.5;" x1="1476.8721" x2="1476.8721" y1="50.042" y2="1140.9912"/><line style="stroke:#000000;stroke-width:1.5;" x1="1767.9365" x2="1767.9365" y1="50.042" y2="1140.9912"/><line style="stroke:#181818;stroke-width:1;" x1="225.5918" x2="225.5918" y1="95.9951" y2="115.9951"/><polygon fill="#181818" points="221.5918,105.9951,225.5918,115.9951,229.5918,105.9951,225.5918,109.9951" style="stroke:#181818;stroke-width:1;"/><line style="stroke:#181818;stroke-width:1;" x1="163.4875" x2="120.7363" y1="181.9639" y2="181.9639"/><line style="stroke:#181818;stroke-width:1;" x1="120.7363" x2="120.7363" y1="181.9639" y2="213.9639"/><polygon fill="#181818" points="116.7363,203.9639,120.7363,213.9639,124.7363,203.9639,120.7363,207.9639" style="stroke:#181818;stroke-width:1;"/><line style="stroke:#181818;stroke-width:1;" x1="287.696" x2="330.4473" y1="181.9639" y2="181.9639"/><line style="stroke:#181818;stroke-width:1;" x1="330.4473" x2="330.4473" y1="181.9639" y2="213.9639"/><polygon fill="#181818" points="326.4473,203.9639,330.4473,213.9639,334.4473,203.9639,330.4473,207.9639" style="stroke:#181818;stroke-width:1;"/><line style="stroke:#181818;stroke-width:1;" x1="120.7363" x2="120.7363" y1="355.8701" y2="377.8701"/><line style="stroke:#181818;stroke-width:1;" x1="120.7363" x2="213.5918" y1="377.8701" y2="377.8701"/><polygon fill="#181818" points="203.5918,373.8701,213.5918,377.8701,203.5918,381.8701,207.5918,377.8701" style="stroke:#181818;stroke-width:1;"/><line style="stroke:#181818;stroke-width:1;" x1="330.4473" x2="330.4473" y1="247.9326" y2="377.8701"/><line style="stroke:#181818;stroke-width:1;" x1="330.4473" x2="237.5918" y1="377.8701" y2="377.8701"/><polygon fill="#181818" points="247.5918,373.8701,237.5918,377.8701,247.5918,381.8701,243.5918,377.8701" style="stroke:#181818;stroke-width:1;"/><line style="stroke:#181818;stroke-width:1;" x1="225.5918" x2="225.5918" y1="149.9639" y2="169.9639"/><polygon fill="#181818" points="221.5918,159.9639,225.5918,169.9639,229.5918,159.9639,225.5918,163.9639" style="stroke:#181818;stroke-width:1;"/><line style="stroke:#181818;stroke-width:1;" x1="163.0176" x2="75.0596" y1="915.6514" y2="915.6514"/><polygon fill="#181818" points="71.0596,993.5225,75.0596,1003.5225,79.0596,993.5225,75.0596,997.5225" style="stroke:#181818;stroke-width:1;"/><line style="stroke:#181818;stroke-width:1;" x1="75.0596" x2="75.0596" y1="915.6514" y2="1086.9912"/><line style="stroke:#181818;stroke-width:1;" x1="75.0596" x2="213.5918" y1="1086.9912" y2="1086.9912"/><polygon fill="#181818" points="203.5918,1082.9912,213.5918,1086.9912,203.5918,1090.9912,207.5918,1086.9912" style="stroke:#181818;stroke-width:1;"/><line style="stroke:#181818;stroke-width:1;" x1="225.5918" x2="225.5918" y1="1054.9912" y2="1074.9912"/><polygon fill="#181818" points="221.5918,1064.9912,225.5918,1074.9912,229.5918,1064.9912,225.5918,1068.9912" style="stroke:#181818;stroke-width:1;"/><line style="stroke:#181818;stroke-width:1;" x1="225.5918" x2="225.5918" y1="1098.9912" y2="1118.9912"/><polygon fill="#181818" points="221.5918,1108.9912,225.5918,1118.9912,229.5918,1108.9912,225.5918,1112.9912" style="stroke:#181818;stroke-width:1;"/><line style="stroke:#181818;stroke-width:1;" x1="717.1484" x2="717.1484" y1="443.8389" y2="463.8389"/><polygon fill="#181818" points="713.1484,453.8389,717.1484,463.8389,721.1484,453.8389,717.1484,457.8389" style="stroke:#181818;stroke-width:1;"/><line style="stroke:#181818;stroke-width:1;" x1="717.1484" x2="717.1484" y1="723.7139" y2="743.7139"/><polygon fill="#181818" points="713.1484,733.7139,717.1484,743.7139,721.1484,733.7139,717.1484,737.7139" style="stroke:#181818;stroke-width:1;"/><line style="stroke:#181818;stroke-width:1;" x1="580.6484" x2="580.6484" y1="803.6826" y2="823.6826"/><polygon fill="#181818" points="576.6484,813.6826,580.6484,823.6826,584.6484,813.6826,580.6484,817.6826" style="stroke:#181818;stroke-width:1;"/><line style="stroke:#181818;stroke-width:1;" x1="870.7783" x2="870.7783" y1="803.6826" y2="823.6826"/><polygon fill="#181818" points="866.7783,813.6826,870.7783,823.6826,874.7783,813.6826,870.7783,817.6826" style="stroke:#181818;stroke-width:1;"/><line style="stroke:#181818;stroke-width:1;" x1="580.6484" x2="580.6484" y1="857.6514" y2="877.6514"/><polygon fill="#181818" points="576.6484,867.6514,580.6484,877.6514,584.6484,867.6514,580.6484,871.6514" style="stroke:#181818;stroke-width:1;"/><line style="stroke:#181818;stroke-width:1;" x1="870.7783" x2="870.7783" y1="857.6514" y2="877.6514"/><polygon fill="#181818" points="866.7783,867.6514,870.7783,877.6514,874.7783,867.6514,870.7783,871.6514" style="stroke:#181818;stroke-width:1;"/><line style="stroke:#181818;stroke-width:1;" x1="717.1484" x2="717.1484" y1="777.6826" y2="797.6826"/><polygon fill="#181818" points="713.1484,787.6826,717.1484,797.6826,721.1484,787.6826,717.1484,791.6826" style="stroke:#181818;stroke-width:1;"/><line style="stroke:#181818;stroke-width:1;" x1="1159.9531" x2="1107.8984" y1="583.7764" y2="583.7764"/><line style="stroke:#181818;stroke-width:1;" x1="1107.8984" x2="1107.8984" y1="583.7764" y2="605.7764"/><polygon fill="#181818" points="1103.8984,595.7764,1107.8984,605.7764,1111.8984,595.7764,1107.8984,599.7764" style="stroke:#181818;stroke-width:1;"/><line style="stroke:#181818;stroke-width:1;" x1="1294.6406" x2="1346.6953" y1="583.7764" y2="583.7764"/><line style="stroke:#181818;stroke-width:1;" x1="1346.6953" x2="1346.6953" y1="583.7764" y2="605.7764"/><polygon fill="#181818" points="1342.6953,595.7764,1346.6953,605.7764,1350.6953,595.7764,1346.6953,599.7764" style="stroke:#181818;stroke-width:1;"/><line style="stroke:#181818;stroke-width:1;" x1="1107.8984" x2="1107.8984" y1="639.7451" y2="657.7451"/><line style="stroke:#181818;stroke-width:1;" x1="1107.8984" x2="1215.2969" y1="657.7451" y2="657.7451"/><polygon fill="#181818" points="1205.2969,653.7451,1215.2969,657.7451,1205.2969,661.7451,1209.2969,657.7451" style="stroke:#181818;stroke-width:1;"/><line style="stroke:#181818;stroke-width:1;" x1="1346.6953" x2="1346.6953" y1="639.7451" y2="657.7451"/><line style="stroke:#181818;stroke-width:1;" x1="1346.6953" x2="1239.2969" y1="657.7451" y2="657.7451"/><polygon fill="#181818" points="1249.2969,653.7451,1239.2969,657.7451,1249.2969,661.7451,1245.2969,657.7451" style="stroke:#181818;stroke-width:1;"/><line style="stroke:#181818;stroke-width:1;" x1="1227.2969" x2="1227.2969" y1="551.7764" y2="571.7764"/><polygon fill="#181818" points="1223.2969,561.7764,1227.2969,571.7764,1231.2969,561.7764,1227.2969,565.7764" style="stroke:#181818;stroke-width:1;"/><line style="stroke:#181818;stroke-width:1;" x1="120.7363" x2="120.7363" y1="247.9326" y2="252.9326"/><line style="stroke:#181818;stroke-width:1;" x1="120.7363" x2="612.293" y1="252.9326" y2="252.9326"/><line style="stroke:#181818;stroke-width:1;" x1="612.293" x2="612.293" y1="252.9326" y2="267.9326"/><polygon fill="#181818" points="608.293,257.9326,612.293,267.9326,616.293,257.9326,612.293,261.9326" style="stroke:#181818;stroke-width:1;"/><line style="stroke:#181818;stroke-width:1;" x1="612.293" x2="612.293" y1="301.9014" y2="306.9014"/><line style="stroke:#181818;stroke-width:1;" x1="612.293" x2="120.7363" y1="306.9014" y2="306.9014"/><line style="stroke:#181818;stroke-width:1;" x1="120.7363" x2="120.7363" y1="306.9014" y2="321.9014"/><polygon fill="#181818" points="116.7363,311.9014,120.7363,321.9014,124.7363,311.9014,120.7363,315.9014" style="stroke:#181818;stroke-width:1;"/><line style="stroke:#181818;stroke-width:1;" x1="225.5918" x2="225.5918" y1="389.8701" y2="394.8701"/><line style="stroke:#181818;stroke-width:1;" x1="225.5918" x2="717.1484" y1="394.8701" y2="394.8701"/><line style="stroke:#181818;stroke-width:1;" x1="717.1484" x2="717.1484" y1="394.8701" y2="409.8701"/><polygon fill="#181818" points="713.1484,399.8701,717.1484,409.8701,721.1484,399.8701,717.1484,403.8701" style="stroke:#181818;stroke-width:1;"/><line style="stroke:#181818;stroke-width:1;" x1="717.1484" x2="717.1484" y1="497.8076" y2="502.8076"/><line style="stroke:#181818;stroke-width:1;" x1="717.1484" x2="1227.2969" y1="502.8076" y2="502.8076"/><line style="stroke:#181818;stroke-width:1;" x1="1227.2969" x2="1227.2969" y1="502.8076" y2="517.8076"/><polygon fill="#181818" points="1223.2969,507.8076,1227.2969,517.8076,1231.2969,507.8076,1227.2969,511.8076" style="stroke:#181818;stroke-width:1;"/><line style="stroke:#181818;stroke-width:1;" x1="1227.2969" x2="1227.2969" y1="669.7451" y2="674.7451"/><line style="stroke:#181818;stroke-width:1;" x1="1227.2969" x2="717.1484" y1="674.7451" y2="674.7451"/><line style="stroke:#181818;stroke-width:1;" x1="717.1484" x2="717.1484" y1="674.7451" y2="689.7451"/><polygon fill="#181818" points="713.1484,679.7451,717.1484,689.7451,721.1484,679.7451,717.1484,683.7451" style="stroke:#181818;stroke-width:1;"/><line style="stroke:#181818;stroke-width:1;" x1="1623.4043" x2="1623.4043" y1="986.0225" y2="1003.5225"/><line style="stroke:#181818;stroke-width:1;" x1="1623.4043" x2="225.5918" y1="1003.5225" y2="1003.5225"/><line style="stroke:#181818;stroke-width:1;" x1="225.5918" x2="225.5918" y1="1003.5225" y2="1021.0225"/><polygon fill="#181818" points="221.5918,1011.0225,225.5918,1021.0225,229.5918,1011.0225,225.5918,1015.0225" style="stroke:#181818;stroke-width:1;"/><line style="stroke:#181818;stroke-width:1;" x1="225.5918" x2="225.5918" y1="927.6514" y2="939.8525"/><line style="stroke:#181818;stroke-width:1;" x1="225.5918" x2="1623.4043" y1="939.8525" y2="939.8525"/><line style="stroke:#181818;stroke-width:1;" x1="1623.4043" x2="1623.4043" y1="939.8525" y2="952.0537"/><polygon fill="#181818" points="1619.4043,942.0537,1623.4043,952.0537,1627.4043,942.0537,1623.4043,946.0537" style="stroke:#181818;stroke-width:1;"/><line style="stroke:#181818;stroke-width:1;" x1="717.1484" x2="717.1484" y1="883.6514" y2="888.6514"/><line style="stroke:#181818;stroke-width:1;" x1="717.1484" x2="225.5918" y1="888.6514" y2="888.6514"/><line style="stroke:#181818;stroke-width:1;" x1="225.5918" x2="225.5918" y1="888.6514" y2="903.6514"/><polygon fill="#181818" points="221.5918,893.6514,225.5918,903.6514,229.5918,893.6514,225.5918,897.6514" style="stroke:#181818;stroke-width:1;"/><text fill="#000000" font-family="Arial" font-size="18" lengthAdjust="spacing" textLength="41.0273" x="198.4956" y="66.75">User</text><text fill="#000000" font-family="Arial" font-size="18" lengthAdjust="spacing" textLength="99.4395" x="666.4287" y="66.75">Workspace</text><text fill="#000000" font-family="Arial" font-size="18" lengthAdjust="spacing" textLength="108.3604" x="1188.895" y="66.75">Analysis API</text><text fill="#000000" font-family="Arial" font-size="18" lengthAdjust="spacing" textLength="94.6758" x="1575.0664" y="66.75">Report API</text><g class="legend" data-source-line="47"><rect fill="none" height="42.5938" rx="7.5" ry="7.5" style="stroke:#000000;stroke-width:1;" width="574.0811" x="605.3582" y="1152.9912"/><text fill="#000000" font-family="Arial" font-size="14" lengthAdjust="spacing" textLength="564.0811" x="610.3582" y="1170.9863">This is an implementation-aligned activity rendering, not executable BPMN XML.</text><text fill="#000000" font-family="Arial" font-size="14" lengthAdjust="spacing" textLength="431.416" x="610.3582" y="1187.2832">Official/client validation remains outside this automated flow.</text></g><!--SRC=[VPJTRXCn48Nlzoa6STDABIstpGLA8ueY-XCL2jnErhCRKw-zsBDf8-M2X-09UHAEdOGcGYAAecZdxvpFuttLHsux9iUhC2YbJfGzLshL2LtERcvFpy_Vqk-VlsWIeX1YRfLieiQ59peg2UniwyKGrsgNLbSKnHk9rhV7LNgqlkV87SsvVcnZ6BoP11SYlRugdxsCj60Jdb163RiaUn4Z3GzEhuBNM-w4nj6ogwhrGvAuhf9orEfYiWWXGU5WhFXQJYW6bmKRIhLuZZQCAjlGqTIhnAmrUEg2aNV7f0lnT3I95X7BfusDIOyheejFebHl7u_mOFqrnCVKSoth7FuW7grKQ9vz0K6DSTRWIIhP6tsbZvDQ2RRhqC6J76GAtDBH3VS7aqj57wpN4mhpxzlwyTqK1QXju7zFpSNbO9q1AMZjhBT9ROrXyFgiMmWuFmoxk0viQ8b3m_JCe0rBYPw1R5Ijnxlp7S-cQFfbaoOuqX-392qTCxmDohjU_7YAOCBfR7h-fRcIL8pSYmxHKz8urFW7I3WBGBDBsJdtWSveyBnawtZkPB_kq10Mm-L5EkXHO1omk97OoajEyM-ajYdxBI30uRviAHbEYtdWQ4PLWnPvz4mY4EZBiki2YzikOBGFoMg8AsB3FPHjYeXRjZwNVXJfaLPdfjaAMN_QIPSh7gQ009P5CPLPsmN9ADy_zo7gZhFymt5zBoMXd0i6JQAWrnb-JP654Cm_Shjns-FweHkkj1nkugm4i4Y9bozxk-cmOvaqz5NbfCr2vq4rT2Zzl009VDcJxNeddNWj6_IV5y09-Q0apr8FMd3a5mPzkxb-WuPtJMDhNEIpsk76wlvEHka0D17q9si4AFBW0K9WsfINpviiTgFn3m00]--></g></svg>