<svg xmlns="http://www.w3.org/2000/svg" xmlns:xlink="http://www.w3.org/1999/xlink" contentStyleType="text/css" data-diagram-type="DESCRIPTION" height="782px" preserveAspectRatio="none" style="width:1201px;height:782px;background:#FFFFFF;" version="1.1" viewBox="0 0 1201 782" width="1201px" zoomAndPan="magnify"><title>C4-002 &#8212; GeoAI container architecture (implemented paths)</title><defs/><g><g class="title" data-source-line="2"><text fill="#000000" font-family="Arial" font-size="14" font-weight="bold" lengthAdjust="spacing" textLength="478.3105" x="353.5947" y="22.9951">C4-002 &#8212; GeoAI container architecture (implemented paths)</text></g><!--cluster Vercel / Next.js application--><g class="cluster" data-entity="Vercel . Next.js application" data-source-line="9" data-uid="ent0003" id="cluster_Vercel . Next.js application"><path d="M16.5,152.2969 L230.3574,152.2969 A3.75,3.75 0 0 1 232.8574,154.7969 L239.8574,174.5938 L688.5,174.5938 A2.5,2.5 0 0 1 691,177.0938 L691,628.7969 A2.5,2.5 0 0 1 688.5,631.2969 L16.5,631.2969 A2.5,2.5 0 0 1 14,628.7969 L14,154.7969 A2.5,2.5 0 0 1 16.5,152.2969" fill="none" style="stroke:#000000;stroke-width:1.5;"/><line style="stroke:#000000;stroke-width:1.5;" x1="14" x2="239.8574" y1="174.5938" y2="174.5938"/><text fill="#000000" font-family="Arial" font-size="14" font-weight="bold" lengthAdjust="spacing" textLength="212.8574" x="18" y="167.292">Vercel / Next.js application</text></g><!--entity User--><g class="entity" data-entity="User" data-source-line="8" data-uid="ent0002" id="entity_User"><ellipse cx="375.9551" cy="57.7969" fill="#F1F1F1" rx="8" ry="8" style="stroke:#181818;stroke-width:0.5;"/><path d="M375.9551,65.7969 L375.9551,92.7969 M362.9551,73.7969 L388.9551,73.7969 M375.9551,92.7969 L362.9551,107.7969 M375.9551,92.7969 L388.9551,107.7969" fill="none" style="stroke:#181818;stroke-width:0.5;"/><text fill="#000000" font-family="Arial" font-size="14" lengthAdjust="spacing" textLength="31.9102" x="360" y="122.292">User</text></g><!--entity Supabase--><g class="entity" data-entity="Supabase" data-source-line="17" data-uid="ent0010" id="entity_Supabase"><path d="M262.5,697.7969 C262.5,687.7969 361.9722,687.7969 361.9722,687.7969 C361.9722,687.7969 461.4443,687.7969 461.4443,697.7969 L461.4443,755.6875 C461.4443,765.6875 361.9722,765.6875 361.9722,765.6875 C361.9722,765.6875 262.5,765.6875 262.5,755.6875 L262.5,697.7969" fill="#F1F1F1" style="stroke:#181818;stroke-width:0.5;"/><path d="M262.5,697.7969 C262.5,707.7969 361.9722,707.7969 361.9722,707.7969 C361.9722,707.7969 461.4443,707.7969 461.4443,697.7969" fill="none" style="stroke:#181818;stroke-width:0.5;"/><text fill="#000000" font-family="Arial" font-size="14" font-style="italic" lengthAdjust="spacing" textLength="132.1182" x="295.9131" y="724.792">&#171;External System&#187;</text><text fill="#000000" font-family="Arial" font-size="14" lengthAdjust="spacing" textLength="126.9707" x="272.5" y="741.0889">Supabase/PostGIS</text><text fill="#000000" font-family="Arial" font-size="14" lengthAdjust="spacing" textLength="178.9443" x="272.5" y="757.3857">optional, readiness-gated</text></g><!--entity Fallback--><g class="entity" data-entity="Fallback" data-source-line="18" data-uid="ent0011" id="entity_Fallback"><path d="M511.5,683.2969 L552.5,683.2969 A3.75,3.75 0 0 1 555,685.7969 L562,704.2969 L726.6143,704.2969 A2.5,2.5 0 0 1 729.1143,706.7969 L729.1143,767.6875 A2.5,2.5 0 0 1 726.6143,770.1875 L511.5,770.1875 A2.5,2.5 0 0 1 509,767.6875 L509,685.7969 A2.5,2.5 0 0 1 511.5,683.2969" fill="#F1F1F1" style="stroke:#181818;stroke-width:0.5;"/><line style="stroke:#181818;stroke-width:0.5;" x1="509" x2="562" y1="704.2969" y2="704.2969"/><text fill="#000000" font-family="Arial" font-size="14" font-style="italic" lengthAdjust="spacing" textLength="120.3877" x="553.8633" y="724.292">&#171;Internal Stores&#187;</text><text fill="#000000" font-family="Arial" font-size="14" lengthAdjust="spacing" textLength="190.1143" x="519" y="740.5889">Local JSON + browser-local</text><text fill="#000000" font-family="Arial" font-size="14" lengthAdjust="spacing" textLength="98.7109" x="519" y="756.8857">demo fallback</text></g><!--entity Mapbox--><g class="entity" data-entity="Mapbox" data-source-line="19" data-uid="ent0012" id="entity_Mapbox"><path d="M710.3244,429.3763 C713.4122,424.5329 718.0097,423.5511 721.4654,428.9772 C726.1065,423.0519 729.9559,422.9284 733.875,429.6838 C737.3522,424.1861 741.8193,423.3335 746.0551,428.8444 C749.8677,422.0943 753.7587,422.4427 758.7422,427.5965 C763.5155,422.3543 767.6736,420.88 771.911,428.16 C774.8636,422.5574 779.9626,421.0125 784.2844,426.6531 C788.4486,419.9739 793.7655,420.2992 797.2027,427.3377 C801.0204,422.4634 806.2677,422.5804 809.0958,428.4347 C812.182,422.5134 817.7104,422.3868 821.0662,428.1588 C824.2834,422.4576 829.7606,422.8773 833.0011,428.1335 C837.111,422.459 843.6594,421.8553 846.778,429.1838 C850.933,424.0518 855.2713,423.0031 859.2798,429.3435 C865.3405,432.1474 865.9009,436.4483 861.2055,441.0253 C868.636,441.796 869.6036,446.6762 865.8353,452.1201 C870.1293,458.0992 868.7758,464.1243 860.6044,465.0672 C864.5122,469.8724 862.8355,474.4238 857.2371,476.406 C853.632,480.8887 849.7519,481.5092 846.8773,475.6726 C842.0056,482.214 837.4911,482.6729 832.762,475.5256 C829.2478,481.6809 825.4839,481.4448 821.3844,476.1049 C818.4221,482.3476 813.4428,482.3082 809.54,477.0757 C805.5065,483.0841 801.6849,483.4734 797.2977,477.4351 C792.1596,483.8703 787.5935,484.0452 783.6219,476.3093 C780.0849,481.4721 775.7737,482.0957 772.3017,476.2425 C768.9531,481.5635 763.4394,482.3294 760.1121,476.2197 C755.1297,482.4038 750.9828,481.5015 746.3296,475.8367 C743.2414,481.2826 739.749,481.311 735.6422,476.9463 C730.8995,483.2527 726.49,480.9833 723.1263,475.4842 C719.1661,482.2818 713.2464,481.6214 709.3902,475.3745 C702.7419,472.9552 703.2811,467.3168 708.0654,463.6101 C703.0702,460.3278 702.067,456.9536 707.5849,453.1866 C702.1299,448.8868 703.8516,444.1157 709.2349,441.3233 C704.7271,437.8939 703.6849,431.7891 710.3244,429.3763" fill="#F1F1F1" style="stroke:#181818;stroke-width:0.5;"/><text fill="#000000" font-family="Arial" font-size="14" font-style="italic" lengthAdjust="spacing" textLength="132.1182" x="717" y="448.292">&#171;External System&#187;</text><text fill="#000000" font-family="Arial" font-size="14" lengthAdjust="spacing" textLength="55.2822" x="755.418" y="464.5889">Mapbox</text></g><!--entity OpenAI--><g class="entity" data-entity="OpenAI" data-source-line="20" data-uid="ent0013" id="entity_OpenAI"><path d="M708.4967,557.59 C711.1971,552.2621 716.4888,551.8758 719.8391,556.8763 C723.0307,550.5433 727.4002,550.85 731.7411,555.6473 C736.1333,549.8638 741.3119,549.1949 745.4301,555.9464 C748.3352,548.5619 753.7541,548.7083 758.3252,554.2894 C762.0135,547.6739 766.8155,547.674 770.5169,554.2773 C772.9381,548.353 776.7431,547.6853 781.4393,551.8027 C786.3596,545.4176 790.1784,546.5197 794.2435,552.6757 C799.1727,547.023 803.802,548.5646 806.143,555.1852 C809.6394,548.7876 814.2974,549.3804 818.3448,554.6068 C822.5137,549.1256 828.0833,550.1827 831.2789,555.7465 C835.8544,550.4881 840.5741,552.0288 843.4046,557.6851 C847.9658,551.9677 853.0325,552.1179 856.4415,558.8881 C863.148,563.7477 863.6028,569.0425 855.949,573.4154 C863.7241,576.9918 863.9703,585.1924 857.2154,589.886 C863.9846,594.2902 862.6519,601.4138 855.9971,604.7151 C863.1542,609.2901 863.3611,616.8609 855.1229,620.588 C851.9126,626.0211 847.4025,627.6708 842.8067,622.1451 C839.1789,627.6003 835.8348,627.5399 832.1886,622.1632 C828.3112,628.4234 823.0634,630.0684 818.5404,622.8151 C814.7373,628.4358 810.9425,629.5995 806.2809,623.7311 C802.5409,628.8926 797.9723,627.5304 795.1821,622.6784 C790.9742,629.7575 785.956,628.9123 781.1851,623.2992 C776.4945,629.7887 772.7621,629.2154 768.8921,622.5333 C765.9573,629.2545 761.3192,629.5093 756.8873,624.0032 C752.7992,630.0222 748.2658,629.0616 744.6131,623.5402 C740.3669,629.0779 734.6525,628.7062 732.4076,621.6074 C729.5053,628.5204 723.326,628.2098 719.5849,622.4566 C715.2615,627.2879 710.3725,627.3492 707.8569,620.6223 C700.0505,617.656 699.076,612.1536 703.8361,605.7825 C693.3525,602.822 691.5437,597.6925 698.3801,589.0757 C692.9474,582.1735 695.8356,576.442 703.9639,574.8702 C697.9027,568.3794 697.8315,559.6932 708.4967,557.59" fill="#F1F1F1" style="stroke:#181818;stroke-width:0.5;"/><text fill="#000000" font-family="Arial" font-size="14" font-style="italic" lengthAdjust="spacing" textLength="132.1182" x="715" y="577.292">&#171;External System&#187;</text><text fill="#000000" font-family="Arial" font-size="14" lengthAdjust="spacing" textLength="51.0986" x="752.6899" y="593.5889">OpenAI</text><text fill="#000000" font-family="Arial" font-size="14" lengthAdjust="spacing" textLength="56.7383" x="752.6899" y="609.8857">optional</text></g><g class="entity" data-entity="GMN25" data-source-line="35" data-uid="ent0026" id="entity_GMN25"><path d="M881.5,568.7969 L881.5,609.0625 A0,0 0 0 0 881.5,609.0625 L1194.8413,609.0625 A0,0 0 0 0 1194.8413,609.0625 L1194.8413,578.7969 L1184.8413,568.7969 L1002.2092,568.7969 L577.0063,554.2397 L994.2092,568.7969 L881.5,568.7969 A0,0 0 0 0 881.5,568.7969" fill="#FEFFDD" style="stroke:#181818;stroke-width:0.5;"/><path d="M1184.8413,568.7969 L1184.8413,578.7969 L1194.8413,578.7969 L1184.8413,568.7969" fill="#FEFFDD" style="stroke:#181818;stroke-width:0.5;"/><text fill="#000000" font-family="Arial" font-size="13" lengthAdjust="spacing" textLength="292.3413" x="887.5" y="585.8638">Current Production reports local/API fallback.</text><text fill="#000000" font-family="Arial" font-size="13" lengthAdjust="spacing" textLength="278.7573" x="887.5" y="600.9966">Fallback is not durable Production storage.</text></g><!--entity Pages--><g class="entity" data-entity="Pages" data-source-line="10" data-uid="ent0004" id="entity_Pages"><rect fill="#EAF4EF" height="68.8906" rx="2.5" ry="2.5" style="stroke:#181818;stroke-width:0.5;" width="302.6387" x="224.5" y="179.2969"/><text fill="#000000" font-family="Arial" font-size="14" font-style="italic" lengthAdjust="spacing" textLength="189.916" x="280.8613" y="202.292">&#171;Container: Next.js pages&#187;</text><text fill="#000000" font-family="Arial" font-size="14" lengthAdjust="spacing" textLength="125.5352" x="234.5" y="218.5889">App Router pages</text><text fill="#000000" font-family="Arial" font-size="14" lengthAdjust="spacing" textLength="282.6387" x="234.5" y="234.8857">/, /workspace, /projects, /explore, /demo</text></g><!--entity Workspace--><g class="entity" data-entity="Workspace" data-source-line="11" data-uid="ent0005" id="entity_Workspace"><rect fill="#EAF4EF" height="68.8906" rx="2.5" ry="2.5" style="stroke:#181818;stroke-width:0.5;" width="299.542" x="226" y="285.2969"/><text fill="#000000" font-family="Arial" font-size="14" font-style="italic" lengthAdjust="spacing" textLength="169.8594" x="290.8413" y="308.292">&#171;Container: browser UI&#187;</text><text fill="#000000" font-family="Arial" font-size="14" lengthAdjust="spacing" textLength="119.5059" x="236" y="324.5889">React workspace</text><text fill="#000000" font-family="Arial" font-size="14" lengthAdjust="spacing" textLength="279.542" x="236" y="340.8857">WorkspaceShell + MapWorkspaceClient</text></g><!--entity Api--><g class="entity" data-entity="Api" data-source-line="12" data-uid="ent0006" id="entity_Api"><rect fill="#F6F8FB" height="68.8906" rx="2.5" ry="2.5" style="stroke:#181818;stroke-width:0.5;" width="191.8047" x="221" y="417.2969"/><text fill="#000000" font-family="Arial" font-size="14" font-style="italic" lengthAdjust="spacing" textLength="169.8047" x="232" y="440.292">&#171;Container: Next.js API&#187;</text><text fill="#000000" font-family="Arial" font-size="14" lengthAdjust="spacing" textLength="106.4834" x="263.6606" y="456.5889">Route handlers</text><text fill="#000000" font-family="Arial" font-size="14" lengthAdjust="spacing" textLength="37.7891" x="263.6606" y="472.8857">/api/*</text></g><!--entity Domain--><g class="entity" data-entity="Domain" data-source-line="13" data-uid="ent0007" id="entity_Domain"><rect fill="#F6F8FB" height="68.8906" rx="2.5" ry="2.5" style="stroke:#181818;stroke-width:0.5;" width="212.3223" x="69" y="554.2969"/><text fill="#000000" font-family="Arial" font-size="14" font-style="italic" lengthAdjust="spacing" textLength="139.7539" x="105.2842" y="577.292">&#171;Container: library&#187;</text><text fill="#000000" font-family="Arial" font-size="14" lengthAdjust="spacing" textLength="159.4961" x="79" y="593.5889">Deterministic analysis,</text><text fill="#000000" font-family="Arial" font-size="14" lengthAdjust="spacing" textLength="192.3223" x="79" y="609.8857">context and report libraries</text></g><!--entity Repositories--><g class="entity" data-entity="Repositories" data-source-line="14" data-uid="ent0008" id="entity_Repositories"><rect fill="#FFF9EC" height="68.8906" rx="2.5" ry="2.5" style="stroke:#181818;stroke-width:0.5;" width="192.3955" x="394" y="554.2969"/><text fill="#000000" font-family="Arial" font-size="14" font-style="italic" lengthAdjust="spacing" textLength="139.7539" x="420.3208" y="577.292">&#171;Container: library&#187;</text><text fill="#000000" font-family="Arial" font-size="14" lengthAdjust="spacing" textLength="172.3955" x="404" y="593.5889">Repository adapters and</text><text fill="#000000" font-family="Arial" font-size="14" lengthAdjust="spacing" textLength="170.6934" x="404" y="609.8857">runtime readiness gates</text></g><!--entity Spatial--><g class="entity" data-entity="Spatial" data-source-line="15" data-uid="ent0009" id="entity_Spatial"><rect fill="#FFF9EC" height="85.1875" rx="2.5" ry="2.5" style="stroke:#181818;stroke-width:0.5;" width="250.5625" x="431.5" y="409.2969"/><text fill="#000000" font-family="Arial" font-size="14" font-style="italic" lengthAdjust="spacing" textLength="139.7539" x="486.9043" y="432.292">&#171;Container: library&#187;</text><text fill="#000000" font-family="Arial" font-size="14" lengthAdjust="spacing" textLength="143.3359" x="441.5" y="448.5889">Spatial B2A contract</text><text fill="#000000" font-family="Arial" font-size="14" lengthAdjust="spacing" textLength="230.5625" x="441.5" y="464.8857">source mode, bundle, activation,</text><text fill="#000000" font-family="Arial" font-size="14" lengthAdjust="spacing" textLength="197.7158" x="441.5" y="481.1826">adapter, lineage, attribution</text></g><g class="link" data-entity-1="User" data-entity-2="Pages" data-uid="lnk14" id="link_User_Pages"><polygon fill="#181818" points="376,179.1067,380,170.1067,376,174.1067,372,170.1067,376,179.1067" style="stroke:#181818;stroke-width:1;"/><path d="M376,125.3139 C376,142.3733 376,156.4761 376,173.1067" fill="none" style="stroke:#181818;stroke-width:1;"/></g><g class="link" data-entity-1="Pages" data-entity-2="Workspace" data-uid="lnk15" id="link_Pages_Workspace"><polygon fill="#181818" points="376,285.2005,380,276.2005,376,280.2005,372,276.2005,376,285.2005" style="stroke:#181818;stroke-width:1;"/><path d="M376,248.5627 C376,260.3063 376,267.4706 376,279.2005" fill="none" style="stroke:#181818;stroke-width:1;"/></g><g class="link" data-entity-1="Workspace" data-entity-2="Api" data-uid="lnk16" id="link_Workspace_Api"><polygon fill="#181818" points="297.8619,416.9837,298.3671,407.1478,296.0683,412.3165,290.8996,410.0177,297.8619,416.9837" style="stroke:#181818;stroke-width:1;"/><path d="M310.9783,354.5385 C305.4369,359.7703 300.5878,365.6752 297,372.2969 C289.5631,386.0225 290.1831,397.0031 295.7095,411.3831" fill="none" style="stroke:#181818;stroke-width:1;"/><text fill="#000000" font-family="Arial" font-size="13" lengthAdjust="spacing" textLength="134.1323" x="299" y="386.3638">fetch JSON contracts</text></g><g class="link" data-entity-1="Workspace" data-entity-2="Domain" data-uid="lnk17" id="link_Workspace_Domain"><polygon fill="#181818" points="106.9595,554.1631,101.6459,545.8705,102.7846,551.4116,97.2436,552.5503,106.9595,554.1631" style="stroke:#181818;stroke-width:1;"/><path d="M225.643,343.4083 C150.7707,358.0612 71.4744,379.9314 49,409.2969 C26.04,439.2969 32.0192,460.5506 49,494.2969 C61.5502,519.2382 79.24,535.8945 101.9497,550.8613" fill="none" style="stroke:#181818;stroke-width:1;"/><text fill="#000000" font-family="Arial" font-size="13" lengthAdjust="spacing" textLength="159.9927" x="51" y="456.3638">deterministic client logic</text></g><g class="link" data-entity-1="Workspace" data-entity-2="Spatial" data-uid="lnk18" id="link_Workspace_Spatial"><polygon fill="#181818" points="499.1608,409.2549,494.1843,400.7558,495.0997,406.3381,489.5174,407.2535,499.1608,409.2549" style="stroke:#181818;stroke-width:1;"/><path d="M423.0831,354.6135 C446.3365,371.3148 469.7284,388.1156 494.2875,405.7548" fill="none" style="stroke:#181818;stroke-width:1;"/><text fill="#000000" font-family="Arial" font-size="13" lengthAdjust="spacing" textLength="222.2378" x="474" y="386.3638">map-layer and selection contracts</text></g><g class="link" data-entity-1="Workspace" data-entity-2="Mapbox" data-uid="lnk19" id="link_Workspace_Mapbox"><polygon fill="#181818" points="759.3186,419.9468,756.4271,410.532,756.036,416.1753,750.3927,415.7841,759.3186,419.9468" style="stroke:#181818;stroke-width:1;"/><path d="M526.0507,335.6807 C596.1531,344.4042 670.9229,356.7756 702,372.2969 C724.4248,383.4968 740.7357,398.5959 755.3795,415.421" fill="none" style="stroke:#181818;stroke-width:1;"/><text fill="#000000" font-family="Arial" font-size="13" lengthAdjust="spacing" textLength="134.4434" x="732" y="386.3638">client-side rendering</text></g><g class="link" data-entity-1="Api" data-entity-2="Domain" data-uid="lnk20" id="link_Api_Domain"><polygon fill="#181818" points="210.5063,554.0409,219.7851,550.7387,214.13,550.5958,214.2729,544.9407,210.5063,554.0409" style="stroke:#181818;stroke-width:1;"/><path d="M281.5337,486.5148 C259.8468,507.1326 236.549,529.282 214.8548,549.9068" fill="none" style="stroke:#181818;stroke-width:1;"/></g><g class="link" data-entity-1="Api" data-entity-2="Repositories" data-uid="lnk21" id="link_Api_Repositories"><polygon fill="#181818" points="447.0423,554.275,442.4078,545.5847,443.1005,551.199,437.4862,551.8917,447.0423,554.275" style="stroke:#181818;stroke-width:1;"/><path d="M360.2089,486.5148 C386.7304,507.2107 415.8371,529.9241 442.3121,550.5838" fill="none" style="stroke:#181818;stroke-width:1;"/></g><g class="link" data-entity-1="Api" data-entity-2="OpenAI" data-uid="lnk22" id="link_Api_OpenAI"><polygon fill="#181818" points="698.7557,550.5308,691.5025,543.8682,694.0171,548.9354,688.9498,551.45,698.7557,550.5308" style="stroke:#181818;stroke-width:1;"/><path d="M397.6106,486.3147 C405.7817,489.2117 414.0116,491.9339 422,494.2969 C540.6876,529.4047 577.1233,511.5558 695,549.2969 C696.2463,549.6959 691.8124,548.1931 693.0693,548.6163" fill="none" style="stroke:#181818;stroke-width:1;"/><text fill="#000000" font-family="Arial" font-size="13" lengthAdjust="spacing" textLength="189.541" x="623" y="526.3638">optional /api/analyze request</text></g><g class="link" data-entity-1="Repositories" data-entity-2="Supabase" data-uid="lnk23" id="link_Repositories_Supabase"><polygon fill="#181818" points="354.2883,687.6778,357.7499,678.4573,353.993,682.6865,349.7638,678.9297,354.2883,687.6778" style="stroke:#181818;stroke-width:1;"/><path d="M393.7292,617.7422 C381.6128,625.1548 370.7648,634.5068 363,646.2969 C355.1042,658.2857 353.1045,667.6647 353.934,681.6883" fill="none" style="stroke:#181818;stroke-width:1;"/><text fill="#000000" font-family="Arial" font-size="13" lengthAdjust="spacing" textLength="230.5977" x="365" y="660.3638">only when configured and readable</text></g><g class="link" data-entity-1="Repositories" data-entity-2="Fallback" data-uid="lnk24" id="link_Repositories_Fallback"><polygon fill="#181818" points="613.8574,683.1821,615.563,673.4821,612.6486,678.3304,607.8003,675.416,613.8574,683.1821" style="stroke:#181818;stroke-width:1;"/><path d="M571.4441,623.3062 C581.0176,629.8344 589.8894,637.4582 597,646.2969 C605.4381,656.7856 609.1951,664.4683 612.4069,677.3601" fill="none" style="stroke:#181818;stroke-width:1;"/><text fill="#000000" font-family="Arial" font-size="13" lengthAdjust="spacing" textLength="63.6479" x="609" y="660.3638">otherwise</text></g><!--SRC=[XLJRZjis47tdLqoTbrxiTH04GMi41Xnd5RXeDuirqhxuPIoE9MOfaYMfUjsYG3wYNzWlwP2IPNkxY_g97isSCvSpyvNpM3K86W-sZH0QYcXGH1KrmVBrvENBL_3Fbx_X0zd52afh8Yf37j2NjOfKnjOJVAqQfwaX4qc2mrY7RqIuLyQXnmQsMDvNthP6Bgss7buK-NVc4MgKTgzC1JlKWSw-bBPnrZ3mEXuu8S-4Q2fzxY9fXwsE1QTsWmt1mYlKGc0PcUjJ82yS9u0LmUWNyYLfcC8DFSIhpm7GEQrAZCgQ4VmfuCG7euLpSCSzuM8THuUDcOvXkhV-FZ0WyTjv-vaJ2loa1yUb9QEaneu00zoc87ZxTddisMoWpNZpERouNXIlhujBtZlYr67WsPXVZyzrJLh3T_0pki6sr8gZCk5WkoJTUhldBi2drRECgKgeqKXDFjM9Jas_pPWBfvukON6RuOetnVV5kqkuzyGzQvHH8QeIM4tw45GORqnI3uUpIV8adVKHjDfwz8f2Pdjl6wQv9Emy3i-HtJ5EK3pg0w14nymXuM-CRqrKJP8CIaOA0IgCFSyGf1vFw9ojA7wuNbwohLdSh2vuzsgHTy7pg3Ocs9Pr1OsLB81jczeu1lwYVi_AuihxrCQCRuY7pvzZz6hRTihZb8x8_vFDNq9Yn2q6LlEwTVarlRKXVbYjDyQwX8TwVAfwaggM7KNlpnpN3vmDEyBw428ryxdOMIrP9AEVRCdc7zSVRrXelNGcEXat9aaxRQXE6vqXY_uFGwxC4PBxcjGjIcrR2IDMwzO-PFVk-IH_x_pHaLciJfNaiCxuP9X82mwJoRnRDz4jNVe_R8CuxKMo9qNFO4UnhBioZtCCZnnxCSxum9phkSmB1zfMgdmKSPpX31fq4xwewKworWDfFXDSpxDSVMDcFVeaA9cKonttV1L5olcKql3tNCQ3iM_M38ujXBpEUGt_IA2_jHIYk5Y1dFnH7Hnfz07sDULyTwhY4o_xfMKXR_dw_YTw4097nvhyNl4P5yRoNV6ggYFOtMMwozRxrCTRRsNRDQSx2G6osgPyO0QjNOa1NmLWL92jJucSXmT6vkbV2MvRyg5_0G00]--></g></svg>