<svg xmlns="http://www.w3.org/2000/svg" xmlns:xlink="http://www.w3.org/1999/xlink" contentStyleType="text/css" data-diagram-type="DESCRIPTION" height="571px" preserveAspectRatio="none" style="width:1306px;height:571px;background:#FFFFFF;" version="1.1" viewBox="0 0 1306 571" width="1306px" zoomAndPan="magnify"><title>C4-001 v1.4 &#8212; GeoAI system context (current bounded runtime)</title><defs/><g><g class="title" data-source-line="2"><text fill="#000000" font-family="Arial" font-size="14" font-weight="bold" lengthAdjust="spacing" textLength="507.5273" x="395.9863" y="22.9951">C4-001 v1.4 &#8212; GeoAI system context (current bounded runtime)</text></g><!--entity User--><g class="entity" data-entity="User" data-source-line="13" data-uid="ent0002" id="entity_User"><ellipse cx="570.5376" cy="190.0938" fill="#F1F1F1" rx="8" ry="8" style="stroke:#181818;stroke-width:0.5;"/><path d="M570.5376,198.0938 L570.5376,225.0938 M557.5376,206.0938 L583.5376,206.0938 M570.5376,225.0938 L557.5376,240.0938 M570.5376,225.0938 L583.5376,240.0938" fill="none" style="stroke:#181818;stroke-width:0.5;"/><text fill="#000000" font-family="Arial" font-size="14" lengthAdjust="spacing" textLength="105.0752" x="518" y="254.5889">Screening user</text><text fill="#000000" font-family="Arial" font-size="14" font-style="italic" lengthAdjust="spacing" textLength="64.6748" x="538.2002" y="178.292">&#171;Person&#187;</text></g><!--entity GeoAI--><g class="entity" data-entity="GeoAI" data-source-line="14" data-uid="ent0003" id="entity_GeoAI"><rect fill="#EAF4EF" height="68.8906" rx="6" ry="6" style="stroke:#174F63;stroke-width:0.5;" width="225.8643" x="524.5" y="340.7969"/><text fill="#172033" font-family="Arial" font-size="14" font-style="italic" lengthAdjust="spacing" textLength="136.0557" x="569.4043" y="363.792">&#171;Software System&#187;</text><text fill="#172033" font-family="Arial" font-size="14" lengthAdjust="spacing" textLength="41.7334" x="534.5" y="380.0889">GeoAI</text><text fill="#172033" font-family="Arial" font-size="14" lengthAdjust="spacing" textLength="205.8643" x="534.5" y="396.3857">Next.js spatial decision demo</text></g><!--entity Mapbox--><g class="entity" data-entity="Mapbox" data-source-line="15" data-uid="ent0004" id="entity_Mapbox"><path d="M625.4425,59.5815 C628.706,51.6 634.2908,50.9115 639.5404,57.6836 C644.2868,48.444 651.2907,47.2718 657.8039,55.8751 C661.8792,47.973 668.4064,46.8347 673.5909,54.7694 C677.8482,47.2821 682.7672,45.5618 688.7833,52.9763 C694.6536,45.0212 700.4959,46.6751 705.0994,54.3026 C709.7677,46.1957 715.3952,47.2005 720.7231,53.5917 C724.0443,45.0656 731.1479,43.9339 736.9666,50.9877 C743.144,43.2045 748.6404,45.3173 752.871,52.9909 C757.4601,45.1888 762.7316,44.9921 767.8389,52.4836 C772.9426,47.2602 779.7626,48.2442 782.4494,55.3482 C787.4194,45.994 793.7241,47.0971 799.8542,54.1149 C806.5918,48.9144 811.6024,49.0748 815.2457,57.5878 C820.4854,50.7935 827.5324,50.2427 831.3183,59.0824 C836.0346,52.7708 842.3846,52.027 846.2207,60.0006 C856.814,61.3623 858.4707,66.7073 853.8891,75.5518 C863.5232,78.0844 863.2841,85.3581 857.6739,91.5068 C863.8502,99.8273 859.498,104.8391 851.13,107.0272 C855.4921,113.662 853.6096,118.7448 845.9425,120.8727 C843.5391,129.0278 837.5101,129.4544 832.2732,123.6466 C827.4455,132.0662 820.456,129.4874 816.4799,122.7588 C813.2983,133.3814 804.9963,133.5928 798.5589,125.9538 C793.7346,132.7071 786.5658,132.704 782.9002,124.7224 C779.1879,131.0804 772.3881,131.8109 768.0288,125.4807 C765.0451,133.5999 758.1258,134.1302 752.4224,128.5875 C748.4746,135.6543 741.2762,136.8583 736.6314,129.3422 C730.7653,136.9297 725.5362,135.2372 720.78,128.1438 C715.1595,135.4258 708.1694,135.9054 704.0604,126.6185 C699.8155,135.322 691.7936,135.3159 687.1915,126.9719 C681.699,132.9717 674.4593,132.8339 672.0912,123.8278 C667.7762,130.6611 661.3803,131.2823 657.2007,123.6882 C651.4016,132.4707 643.603,130.9106 639.6914,121.8373 C635.3548,128.7289 627.5095,128.9886 623.8598,121.1014 C617.5521,116.6573 616.5555,112.2818 623.095,107.1341 C614.93,101.4342 615.3205,95.5403 622.5422,89.3618 C616.6511,83.9496 617.157,76.0662 625.6589,73.4782 C618.0436,68.8819 619.217,64.3933 625.4425,59.5815" fill="#F1F1F1" style="stroke:#181818;stroke-width:0.5;"/><text fill="#000000" font-family="Arial" font-size="14" font-style="italic" lengthAdjust="spacing" textLength="132.1182" x="668.3062" y="77.292">&#171;External System&#187;</text><text fill="#000000" font-family="Arial" font-size="14" lengthAdjust="spacing" textLength="165.0127" x="630.5" y="93.5889">Mapbox styles and tiles</text><text fill="#000000" font-family="Arial" font-size="14" lengthAdjust="spacing" textLength="207.7305" x="630.5" y="109.8857">when a public token is usable</text></g><!--entity OpenAI--><g class="entity" data-entity="OpenAI" data-source-line="16" data-uid="ent0005" id="entity_OpenAI"><path d="M244.8741,181.6309 C248.2259,172.2186 255.9815,172.1837 261.3309,179.6876 C266.224,170.607 271.8636,170.558 277.4991,179.0026 C282.4352,169.3362 290.1171,168.8526 296.0884,177.9786 C300.475,171.6668 306.64,171.2855 311.4082,177.5123 C316.2551,168.2084 322.4776,169.8108 328.4786,176.2618 C333.4504,169.3364 338.8285,168.4044 344.4676,175.5009 C349.076,168.1092 353.8911,166.7286 359.9214,174.0025 C366.6563,165.8141 372.3032,166.4759 378.4914,174.6238 C385.7429,166.7215 391.0609,169.2309 395.4201,177.6277 C400.4084,170.4438 405.2329,170.0133 410.4999,177.338 C415.9836,169.5018 422.6209,172.2146 426.2751,179.2754 C431.8659,170.7021 438.2983,173.2461 442.5896,180.606 C447.7217,172.9398 456.7333,172.8259 460.5445,182.0132 C465.5914,174.159 471.4449,175.1742 476.0081,182.5057 C483.4874,185.8219 485.0235,192.4716 478.5061,198.0388 C485.8053,199.938 487.4273,206.8656 481.8658,211.8853 C489.297,217.324 488.1409,224.8898 479.655,228.1672 C487.7214,236.2699 486.6886,241.7826 476.0449,246.1237 C471.1018,254.6621 464.8171,254.7433 459.9885,246.0173 C454.9715,254.9127 450.1013,254.3817 443.962,247.1312 C440.9851,256.4028 433.473,258.4153 426.4164,251.5736 C422.7443,260.2324 415.8022,259.8973 410.6549,253.0756 C405.7453,259.5975 400.8967,260.0995 395.2377,253.9904 C390.5115,262.0633 382.9129,262.3375 377.0672,255.3403 C373.9835,265.7425 366.062,266.6409 359.6712,258.4314 C353.5961,265.3316 347.9742,265.6944 343.8708,256.4963 C338.3552,264.0872 332.0131,262.1283 328.5943,254.4048 C322.796,263.1778 316.6761,262.9485 311.7293,253.6119 C304.6769,259.2217 298.4969,257.0071 295.4408,248.875 C289.6629,257.0842 283.3733,256.1255 279.4357,247.16 C273.3286,256.2655 266.4696,256.8483 260.7859,246.7489 C255.7196,252.1431 249.1167,251.8709 246.8871,243.8171 C239.8098,241.4012 237.9458,236.5241 242.8677,230.4894 C234.6248,228.2267 232.5393,220.4591 238.8559,214.5353 C230.8599,208.4682 233.4974,201.1877 241.8125,198.0451 C234.4759,192.3531 236.0433,184.3073 244.8741,181.6309" fill="#F1F1F1" style="stroke:#181818;stroke-width:0.5;"/><text fill="#000000" font-family="Arial" font-size="14" font-style="italic" lengthAdjust="spacing" textLength="132.1182" x="293.4067" y="200.292">&#171;External System&#187;</text><text fill="#000000" font-family="Arial" font-size="14" lengthAdjust="spacing" textLength="180.1953" x="251" y="216.5889">OpenAI Chat Completions</text><text fill="#000000" font-family="Arial" font-size="14" lengthAdjust="spacing" textLength="216.9316" x="251" y="232.8857">optional; deterministic fallback</text></g><!--entity Supabase--><g class="entity" data-entity="Supabase" data-source-line="17" data-uid="ent0006" id="entity_Supabase"><path d="M6,338.2969 C6,328.2969 128.4102,328.2969 128.4102,328.2969 C128.4102,328.2969 250.8203,328.2969 250.8203,338.2969 L250.8203,412.4844 C250.8203,422.4844 128.4102,422.4844 128.4102,422.4844 C128.4102,422.4844 6,422.4844 6,412.4844 L6,338.2969" fill="#F1F1F1" style="stroke:#181818;stroke-width:0.5;"/><path d="M6,338.2969 C6,348.2969 128.4102,348.2969 128.4102,348.2969 C128.4102,348.2969 250.8203,348.2969 250.8203,338.2969" fill="none" style="stroke:#181818;stroke-width:0.5;"/><text fill="#000000" font-family="Arial" font-size="14" font-style="italic" lengthAdjust="spacing" textLength="132.1182" x="62.3511" y="365.292">&#171;External System&#187;</text><text fill="#000000" font-family="Arial" font-size="14" lengthAdjust="spacing" textLength="202.3779" x="16" y="381.5889">Supabase/PostGIS + Storage</text><text fill="#000000" font-family="Arial" font-size="14" lengthAdjust="spacing" textLength="224.8203" x="16" y="397.8857">readiness-gated; not configured</text><text fill="#000000" font-family="Arial" font-size="14" lengthAdjust="spacing" textLength="191.9121" x="16" y="414.1826">in current Production demo</text></g><!--entity Local--><g class="entity" data-entity="Local" data-source-line="18" data-uid="ent0007" id="entity_Local"><path d="M937.5,477.2969 L978.5,477.2969 A3.75,3.75 0 0 1 981,479.7969 L988,498.2969 L1159.7305,498.2969 A2.5,2.5 0 0 1 1162.2305,500.7969 L1162.2305,561.6875 A2.5,2.5 0 0 1 1159.7305,564.1875 L937.5,564.1875 A2.5,2.5 0 0 1 935,561.6875 L935,479.7969 A2.5,2.5 0 0 1 937.5,477.2969" fill="#F1F1F1" style="stroke:#181818;stroke-width:0.5;"/><line style="stroke:#181818;stroke-width:0.5;" x1="935" x2="988" y1="498.2969" y2="498.2969"/><text fill="#000000" font-family="Arial" font-size="14" font-style="italic" lengthAdjust="spacing" textLength="113.0938" x="987.0684" y="518.292">&#171;Internal Store&#187;</text><text fill="#000000" font-family="Arial" font-size="14" lengthAdjust="spacing" textLength="122.4043" x="945" y="534.5889">Local/API fallback</text><text fill="#000000" font-family="Arial" font-size="14" lengthAdjust="spacing" textLength="197.2305" x="945" y="550.8857">/tmp on Vercel; non-durable</text></g><!--entity Sources--><g class="entity" data-entity="Sources" data-source-line="19" data-uid="ent0008" id="entity_Sources"><rect fill="#F6F8FB" height="68.8906" rx="6" ry="6" style="stroke:#174F63;stroke-width:0.5;" width="322.3057" x="978.5" y="340.7969"/><text fill="#172033" font-family="Arial" font-size="14" font-style="italic" lengthAdjust="spacing" textLength="173.4756" x="1052.915" y="363.792">&#171;External Data Sources&#187;</text><text fill="#172033" font-family="Arial" font-size="14" lengthAdjust="spacing" textLength="231.4307" x="988.5" y="380.0889">Registered open/context sources</text><text fill="#172033" font-family="Arial" font-size="14" lengthAdjust="spacing" textLength="302.3057" x="988.5" y="396.3857">metadata, fixtures and bounded snapshots</text></g><g class="entity" data-entity="GMN21" data-source-line="33" data-uid="ent0022" id="entity_GMN21"><path d="M388.5,500.7969 L388.5,541.0625 A0,0 0 0 0 388.5,541.0625 L886.9707,541.0625 A0,0 0 0 0 886.9707,541.0625 L886.9707,510.7969 L876.9707,500.7969 L641.5,500.7969 L637.5,409.9412 L633.5,500.7969 L388.5,500.7969 A0,0 0 0 0 388.5,500.7969" fill="#FEFFDD" style="stroke:#181818;stroke-width:0.5;"/><path d="M876.9707,500.7969 L876.9707,510.7969 L886.9707,510.7969 L876.9707,500.7969" fill="#FEFFDD" style="stroke:#181818;stroke-width:0.5;"/><text fill="#000000" font-family="Arial" font-size="13" lengthAdjust="spacing" textLength="477.4707" x="394.5" y="517.8638">Production remains public demo, synthetic/local fallback and soft access.</text><text fill="#000000" font-family="Arial" font-size="13" lengthAdjust="spacing" textLength="405.6343" x="394.5" y="532.9966">No official geometry or confidential-pilot activation is claimed.</text></g><g class="link" data-entity-1="User" data-entity-2="GeoAI" data-uid="lnk9" id="link_User_GeoAI"><polygon fill="#181818" points="592.9321,340.7478,589.4948,331.5183,589.4345,337.1748,583.7779,337.1145,592.9321,340.7478" style="stroke:#181818;stroke-width:1;"/><path d="M563.7739,258.4789 C563.1163,275.3626 564.6216,294.2751 571.5,310.2969 C576.3483,321.59 580.0538,327.5921 588.7349,336.4602" fill="none" style="stroke:#181818;stroke-width:1;"/><text fill="#000000" font-family="Arial" font-size="13" lengthAdjust="spacing" textLength="279.6841" x="573.5" y="290.3638">select role, scenario, criteria or map target</text><text fill="#000000" font-family="Arial" font-size="13" lengthAdjust="spacing" textLength="226.3828" x="600.1506" y="305.4966">compare, inspect evidence, export</text></g><g class="link" data-entity-1="Mapbox" data-entity-2="GeoAI" data-uid="lnk11" id="link_Mapbox_GeoAI"><polygon fill="#181818" points="781.9392,128.4477,785.9095,137.4608,785.6395,131.8104,791.2899,131.5404,781.9392,128.4477" style="stroke:#181818;stroke-width:1;"/><path d="M786.3795,132.483 C836.6209,178.1417 898.6046,251.3062 854.5,310.2969 C841.0351,328.3064 796.2048,343.0089 750.7602,353.7597" fill="none" style="stroke:#181818;stroke-width:1;"/><text fill="#000000" font-family="Arial" font-size="13" lengthAdjust="spacing" textLength="139.147" x="869.5" y="216.3638">browser map request</text></g><g class="link" data-entity-1="OpenAI" data-entity-2="GeoAI" data-uid="lnk13" id="link_OpenAI_GeoAI"><polygon fill="#181818" points="354.9981,251.764,350.9503,260.7426,354.9715,256.7639,358.9501,260.7852,354.9981,251.764" style="stroke:#181818;stroke-width:1;"/><path d="M354.9662,257.7639 C354.8608,277.5719 358.4429,294.6895 372.5,310.2969 C393.2471,333.3319 462.1527,349.5508 524.4968,359.8976" fill="none" style="stroke:#181818;stroke-width:1;"/><text fill="#000000" font-family="Arial" font-size="13" lengthAdjust="spacing" textLength="184.7612" x="374.5" y="290.3638">structured narrative request</text><text fill="#000000" font-family="Arial" font-size="13" lengthAdjust="spacing" textLength="181.4541" x="376.1536" y="305.4966">only when server key exists</text></g><g class="link" data-entity-1="Supabase" data-entity-2="GeoAI" data-uid="lnk15" id="link_Supabase_GeoAI"><polygon fill="#181818" points="251.0659,375.2969,260.0659,379.2969,256.0659,375.2969,260.0659,371.2969,251.0659,375.2969" style="stroke:#181818;stroke-width:1;"/><path d="M257.0659,375.2969 C340.1676,375.2969 443.21,375.2969 524.2679,375.2969" fill="none" style="stroke:#181818;stroke-width:1;"/><text fill="#000000" font-family="Arial" font-size="13" lengthAdjust="spacing" textLength="171.6978" x="302.0671" y="352.3638">safe readiness probes and</text><text fill="#000000" font-family="Arial" font-size="13" lengthAdjust="spacing" textLength="252.332" x="261.75" y="367.4966">repository operations when configured</text></g><g class="link" data-entity-1="GeoAI" data-entity-2="Sources" data-uid="lnk16" id="link_GeoAI_Sources"><polygon fill="#181818" points="978.0847,375.2969,969.0847,371.2969,973.0847,375.2969,969.0847,379.2969,978.0847,375.2969" style="stroke:#181818;stroke-width:1;"/><path d="M750.7845,375.2969 C817.8741,375.2969 897.9757,375.2969 972.0847,375.2969" fill="none" style="stroke:#181818;stroke-width:1;"/><text fill="#000000" font-family="Arial" font-size="13" lengthAdjust="spacing" textLength="206.4004" x="761.5" y="367.3638">context, lineage and attribution</text></g><g class="link" data-entity-1="GeoAI" data-entity-2="Local" data-uid="lnk17" id="link_GeoAI_Local"><polygon fill="#181818" points="934.7338,480.0756,927.5554,473.3324,930.0133,478.4274,924.9183,480.8853,934.7338,480.0756" style="stroke:#181818;stroke-width:1;"/><path d="M733.6018,409.8507 C793.7404,430.848 865.8575,456.0275 929.0691,478.0978" fill="none" style="stroke:#181818;stroke-width:1;"/><text fill="#000000" font-family="Arial" font-size="13" lengthAdjust="spacing" textLength="171.0249" x="869.5" y="454.3638">demo persistence fallback</text></g><!--SRC=[RLJRRXit47tVhvWgBoqYMNPYf8KZ271SAp2GkaQ4zgNgmontTiMQIsw7ixQ48a0_eb_OB-bmBugYHayKkNFEuPd3-QPXh6e4X_lG2iIQ13rcOiKHt5pEpiyluEdYx1B-_ViVU4_X-WxYFWhLO88NsWbyQrfcyW9vQ7r11N3hnTRqNHOVhM-GiOOSpMF5wVmckC3mOjNzZhw8Mop2i_KLbEWY7PqKL6BhPALqzrWJNBD5TtJEP5HofNB_oW3U_O_fpUg7rRjq4hWW7dOllhzSlNcjkmdsiFVg_7NQ-zYNioU6YrVPfon38_h5P6sOo2UHRIIU04RuHHUmM3mGn-2No-opcaddriRVgqbdVqI83Oegr_iO6stmkgX3Xz7RkbYiGodFo0Jhpk7b4bxSNgykRrUPSQ4jOF8JDddOGPIzemZe2n2hgur_tf87XARDdJKWuL7_sgWgCNVKSGobYyNjJeYzwXX9Hl2V6_8gusQB0ZUXRXo9gbJmqAG5khUgM6jhwsqKfT56kTJO3d-e_Xf-WO8vHdLatJRTQluGeho_MyDBMAknMD76Cs5XFSKugr2eU0i-ICfOQQkMgTYexJ0cxO53qHhvmiGH-wiIok2qzp3v40ow-VN3tK7yni-bRa2HVYKsv1AldnKj7vphQXJrpe-eAfc-RFL7gjGJKfqGr8Zv-3PYQ1LKFKpFAlamXTBkH2_KjszyCj5Z4xT1Od-Llkhu9ZzgxRYlr5aNkzbiEMJd2Y8vbGCS74qX6lB8Dap1i5K4Yw3nhR41GQv8DjveWpLfKx0-DgcGdcn1tkWExPh0alN0CqUbACqGdol8EJmdxWJ6z6TByVJJ8GagILYRb9e7geOr_KyqrcYglDj3brk5UrB4HzehjzeOJm0FdLL8B1F4a1HeEEIzaoa_JOXMMxDFBKXi6jwUu7EAHcIsrRQ37fo-6gVP59n2Qo2xzg08sxnDKAULVIgkklo1yiNKV_Nl4Ami6poR_RQrXNhxkyutV_0d6smwFHqlcutIJZ_eYBDCNmTfV4H23Q7iOv0TlGkc6hMtuqX8CZKNUozRVTPcxZhvezRkib6d3w1HpdYMtGT5BQr90wkYeF5Dld9lfQf9aspMM1TIYJQsipkD7EDGPtznbf529f7_0G00]--></g></svg>