<svg xmlns="http://www.w3.org/2000/svg" xmlns:xlink="http://www.w3.org/1999/xlink" contentStyleType="text/css" data-diagram-type="DESCRIPTION" height="413px" preserveAspectRatio="none" style="width:1893px;height:413px;background:#FFFFFF;" version="1.1" viewBox="0 0 1893 413" width="1893px" zoomAndPan="magnify"><title>C4-001 &#8212; GeoAI system context (current bounded runtime)</title><defs/><g><g class="title" data-source-line="2"><text fill="#000000" font-family="Arial" font-size="14" font-weight="bold" lengthAdjust="spacing" textLength="468.7266" x="708.1367" y="22.9951">C4-001 &#8212; GeoAI system context (current bounded runtime)</text></g><!--entity User--><g class="entity" data-entity="User" data-source-line="13" data-uid="ent0002" id="entity_User"><ellipse cx="782.0376" cy="57.7969" fill="#F1F1F1" rx="8" ry="8" style="stroke:#181818;stroke-width:0.5;"/><path d="M782.0376,65.7969 L782.0376,92.7969 M769.0376,73.7969 L795.0376,73.7969 M782.0376,92.7969 L769.0376,107.7969 M782.0376,92.7969 L795.0376,107.7969" fill="none" style="stroke:#181818;stroke-width:0.5;"/><text fill="#000000" font-family="Arial" font-size="14" lengthAdjust="spacing" textLength="105.0752" x="729.5" y="122.292">Screening user</text></g><!--entity GeoAI--><g class="entity" data-entity="GeoAI" data-source-line="14" data-uid="ent0003" id="entity_GeoAI"><rect fill="#EAF4EF" height="52.5938" rx="6" ry="6" style="stroke:#174F63;stroke-width:0.5;" width="225.8643" x="669" y="195.2969"/><text fill="#172033" font-family="Arial" font-size="14" lengthAdjust="spacing" textLength="41.7334" x="679" y="218.292">GeoAI</text><text fill="#172033" font-family="Arial" font-size="14" lengthAdjust="spacing" textLength="205.8643" x="679" y="234.5889">Next.js spatial decision demo</text></g><!--entity Mapbox--><g class="entity" data-entity="Mapbox" data-source-line="15" data-uid="ent0004" id="entity_Mapbox"><path d="M16.9085,334.1605 C21.7988,329.0199 26.1298,327.4758 30.3193,334.908 C34.5026,328.0736 40.9779,326.4264 46.292,333.6205 C52.4435,327.0151 58.6245,324.9627 63.6781,334.7825 C66.8529,325.5305 75.1042,326.6415 79.9183,333.0864 C83.8157,326.7566 91.1457,326.8206 94.6829,333.4953 C100.6612,324.6415 105.9314,326.8412 111.5053,333.9222 C116.3142,326.3168 122.2506,326.642 126.8265,334.1584 C130.5544,326.9955 137.0074,326.5934 141.9531,332.7785 C147.8458,325.6802 155.2485,325.6787 159.442,334.6301 C162.2756,327.7042 169.4625,327.2389 173.7827,332.9421 C178.9068,325.1771 185.386,325.3457 189.938,333.5219 C195.57,325.4594 202.5108,327.8503 206.4378,335.3317 C211.2555,327.0863 216.8669,328.6966 221.6065,335.4109 C226.5559,328.7053 234.6847,327.3796 238.3582,336.7412 C250.7013,339.8528 252.5022,349.4131 243.0827,357.482 C251.4727,368.6785 251.0574,377.3042 236.2523,382.0527 C231.9682,388.0739 225.347,389.5149 221.1913,381.9107 C216.5158,390.5086 211.269,390.9142 204.9521,383.5841 C200.9227,390.4529 193.4105,391.3862 189.4349,383.5274 C183.5846,390.449 178.8695,389.9199 174.0057,382.4685 C170.5788,390.2381 163.1894,391.1901 157.4672,385.2341 C153.3996,393.8962 146.0618,393.1319 141.7409,385.4782 C136.9604,391.707 130.8433,392.3304 127.2024,384.315 C122.9737,392.9852 115.5613,393.8498 110.3628,385.2611 C105.3623,392.3327 97.9173,391.3122 94.5316,383.539 C89.3349,390.4492 84.0894,392.0372 78.8014,383.6327 C74.7925,392.1329 68.1684,391.0131 63.5543,384.2367 C58.313,391.0324 50.8526,389.3488 47.4174,382.1537 C42.5261,388.4804 36.1286,387.8272 32.3257,380.9131 C27.0467,389.8878 21.78,389.2385 15.3248,382.1586 C1.3089,379.0718 -3.6748,371.2461 5.9378,358.7032 C-0.8902,346.6121 0.5034,335.8663 16.9085,334.1605" fill="#F1F1F1" style="stroke:#181818;stroke-width:0.5;"/><text fill="#000000" font-family="Arial" font-size="14" lengthAdjust="spacing" textLength="165.0127" x="21" y="353.792">Mapbox styles and tiles</text><text fill="#000000" font-family="Arial" font-size="14" lengthAdjust="spacing" textLength="207.7305" x="21" y="370.0889">when a public token is usable</text></g><!--entity OpenAI--><g class="entity" data-entity="OpenAI" data-source-line="16" data-uid="ent0005" id="entity_OpenAI"><path d="M272.8378,334.6819 C277.5928,327.7136 283.3181,328.0244 287.9171,334.8525 C292.3253,326.3669 299.2786,326.5803 304.7937,333.6517 C310.3522,324.9077 316.5098,325.8333 321.7846,333.9377 C328.0096,326.2811 334.3949,325.3667 339.3909,335.1766 C343.6449,328.1762 348.8488,327.8569 354.0521,334.1277 C359.255,326.7778 366.6789,324.8679 371.4838,334.5354 C374.3182,325.4965 382.1218,325.6149 387.0309,332.5113 C393.6411,326.411 398.6689,326.993 403.4493,334.6889 C407.2601,326.4761 414.1508,325.4125 419.1742,333.5205 C423.6658,326.1022 432.0004,325.2227 436.7799,333.191 C442.8985,326.6811 449.0075,325.7508 453.7042,334.7432 C457.6741,327.2929 464.7982,328.6454 468.5724,334.9546 C472.7482,325.4352 480.9158,325.1465 485.9168,334.1832 C490.4125,326.0357 499.1182,326.6735 503.3863,334.4332 C517.7126,340.1326 519.1899,350.6853 506.2948,359.5384 C515.8996,365.9631 516.0876,376.9677 504.4976,381.6714 C500.2214,391.8122 491.2196,390.3131 486.1525,382.4786 C483.462,390.4759 475.8424,393.0634 469.9703,385.8671 C463.8805,392.6413 458.4652,393.4803 453.2709,384.8936 C449.9365,393.9407 442.3058,394.5164 436.1302,388.0286 C431.7919,395.5406 424.1323,397.0068 419.2605,388.5937 C414.6618,396.8147 408.3775,396.4804 402.7873,389.681 C397.2474,396.4201 392.1198,396.1481 387.199,388.9867 C382.0729,395.6075 375.6986,396.9679 371.0897,388.4367 C364.6953,396.756 358.7819,394.9282 353.905,386.8467 C348.4008,393.4706 343.8393,393.0444 338.7315,386.3935 C333.1872,395.0404 326.8345,394.5821 320.8513,386.8733 C314.3929,393.9884 308.8203,391.4539 304.9843,384.0145 C300.0666,390.937 292.592,390.8859 289.2948,382.3679 C284.3086,390.1613 276.3724,389.6179 273.1315,380.6817 C258.2144,379.6999 254.738,371.0522 261.7376,358.7067 C255.2721,345.9605 256.2998,336.7997 272.8378,334.6819" fill="#F1F1F1" style="stroke:#181818;stroke-width:0.5;"/><text fill="#000000" font-family="Arial" font-size="14" lengthAdjust="spacing" textLength="180.1953" x="277.5" y="353.792">OpenAI Chat Completions</text><text fill="#000000" font-family="Arial" font-size="14" lengthAdjust="spacing" textLength="216.9316" x="277.5" y="370.0889">optional; deterministic fallback</text></g><!--entity Supabase--><g class="entity" data-entity="Supabase" data-source-line="17" data-uid="ent0006" id="entity_Supabase"><path d="M527.5,328.2969 C527.5,318.2969 649.9102,318.2969 649.9102,318.2969 C649.9102,318.2969 772.3203,318.2969 772.3203,328.2969 L772.3203,386.1875 C772.3203,396.1875 649.9102,396.1875 649.9102,396.1875 C649.9102,396.1875 527.5,396.1875 527.5,386.1875 L527.5,328.2969" fill="#F1F1F1" style="stroke:#181818;stroke-width:0.5;"/><path d="M527.5,328.2969 C527.5,338.2969 649.9102,338.2969 649.9102,338.2969 C649.9102,338.2969 772.3203,338.2969 772.3203,328.2969" fill="none" style="stroke:#181818;stroke-width:0.5;"/><text fill="#000000" font-family="Arial" font-size="14" lengthAdjust="spacing" textLength="202.3779" x="537.5" y="355.292">Supabase/PostGIS + Storage</text><text fill="#000000" font-family="Arial" font-size="14" lengthAdjust="spacing" textLength="224.8203" x="537.5" y="371.5889">readiness-gated; not configured</text><text fill="#000000" font-family="Arial" font-size="14" lengthAdjust="spacing" textLength="191.9121" x="537.5" y="387.8857">in current Production demo</text></g><!--entity Local--><g class="entity" data-entity="Local" data-source-line="18" data-uid="ent0007" id="entity_Local"><path d="M805,321.7969 L846,321.7969 A3.75,3.75 0 0 1 848.5,324.2969 L855.5,342.7969 L1027.2305,342.7969 A2.5,2.5 0 0 1 1029.7305,345.2969 L1029.7305,389.8906 A2.5,2.5 0 0 1 1027.2305,392.3906 L805,392.3906 A2.5,2.5 0 0 1 802.5,389.8906 L802.5,324.2969 A2.5,2.5 0 0 1 805,321.7969" fill="#F1F1F1" style="stroke:#181818;stroke-width:0.5;"/><line style="stroke:#181818;stroke-width:0.5;" x1="802.5" x2="855.5" y1="342.7969" y2="342.7969"/><text fill="#000000" font-family="Arial" font-size="14" lengthAdjust="spacing" textLength="122.4043" x="812.5" y="362.792">Local/API fallback</text><text fill="#000000" font-family="Arial" font-size="14" lengthAdjust="spacing" textLength="197.2305" x="812.5" y="379.0889">/tmp on Vercel; non-durable</text></g><!--entity Sources--><g class="entity" data-entity="Sources" data-source-line="19" data-uid="ent0008" id="entity_Sources"><rect fill="#F6F8FB" height="52.5938" rx="6" ry="6" style="stroke:#174F63;stroke-width:0.5;" width="322.3057" x="1048" y="330.7969"/><text fill="#172033" font-family="Arial" font-size="14" lengthAdjust="spacing" textLength="231.4307" x="1058" y="353.792">Registered open/context sources</text><text fill="#172033" font-family="Arial" font-size="14" lengthAdjust="spacing" textLength="302.3057" x="1058" y="370.0889">metadata, fixtures and bounded snapshots</text></g><g class="entity" data-entity="GMN15" data-source-line="29" data-uid="ent0016" id="entity_GMN15"><path d="M1388,337.2969 L1388,377.5625 A0,0 0 0 0 1388,377.5625 L1886.4707,377.5625 A0,0 0 0 0 1886.4707,377.5625 L1886.4707,347.2969 L1876.4707,337.2969 L1594.4139,337.2969 L895.0123,223.1843 L1586.4139,337.2969 L1388,337.2969 A0,0 0 0 0 1388,337.2969" fill="#FEFFDD" style="stroke:#181818;stroke-width:0.5;"/><path d="M1876.4707,337.2969 L1876.4707,347.2969 L1886.4707,347.2969 L1876.4707,337.2969" fill="#FEFFDD" style="stroke:#181818;stroke-width:0.5;"/><text fill="#000000" font-family="Arial" font-size="13" lengthAdjust="spacing" textLength="477.4707" x="1394" y="354.3638">Production remains public demo, synthetic/local fallback and soft access.</text><text fill="#000000" font-family="Arial" font-size="13" lengthAdjust="spacing" textLength="405.6343" x="1394" y="369.4966">No official geometry or confidential-pilot activation is claimed.</text></g><g class="link" data-entity-1="User" data-entity-2="GeoAI" data-uid="lnk9" id="link_User_GeoAI"><polygon fill="#181818" points="782,195.1281,786,186.1281,782,190.1281,778,186.1281,782,195.1281" style="stroke:#181818;stroke-width:1;"/><path d="M782,125.5581 C782,147.7557 782,169.3617 782,189.1281" fill="none" style="stroke:#181818;stroke-width:1;"/><text fill="#000000" font-family="Arial" font-size="13" lengthAdjust="spacing" textLength="279.6841" x="784" y="157.3638">select role, scenario, criteria or map target</text><text fill="#000000" font-family="Arial" font-size="13" lengthAdjust="spacing" textLength="226.3828" x="810.6506" y="172.4966">compare, inspect evidence, export</text></g><g class="link" data-entity-1="GeoAI" data-entity-2="Mapbox" data-uid="lnk10" id="link_GeoAI_Mapbox"><polygon fill="#181818" points="161.5932,325.6251,171.1668,323.3131,165.5579,322.5786,166.2924,316.9696,161.5932,325.6251" style="stroke:#181818;stroke-width:1;"/><path d="M668.9948,225.9465 C539.8913,230.6584 337.1704,241.7669 265,266.2969 C226.6994,279.3149 193.1776,301.3551 166.3508,321.9693" fill="none" style="stroke:#181818;stroke-width:1;"/><text fill="#000000" font-family="Arial" font-size="13" lengthAdjust="spacing" textLength="139.147" x="267" y="287.8638">browser map request</text></g><g class="link" data-entity-1="GeoAI" data-entity-2="OpenAI" data-uid="lnk11" id="link_GeoAI_OpenAI"><polygon fill="#181818" points="397.2459,325.7349,404.5865,319.1687,399.2975,321.1752,397.291,315.8861,397.2459,325.7349" style="stroke:#181818;stroke-width:1;"/><path d="M668.6864,227.0785 C585.0231,232.12 479.6019,242.9947 443,266.2969 C421.3137,280.1032 408.8348,299.9784 399.7078,320.2632" fill="none" style="stroke:#181818;stroke-width:1;"/><text fill="#000000" font-family="Arial" font-size="13" lengthAdjust="spacing" textLength="184.7612" x="445" y="280.3638">structured narrative request</text><text fill="#000000" font-family="Arial" font-size="13" lengthAdjust="spacing" textLength="181.4541" x="446.6536" y="295.4966">only when server key exists</text></g><g class="link" data-entity-1="GeoAI" data-entity-2="Supabase" data-uid="lnk12" id="link_GeoAI_Supabase"><polygon fill="#181818" points="636.9416,318.1305,639.1031,308.5217,635.9632,313.2272,631.2578,310.0872,636.9416,318.1305" style="stroke:#181818;stroke-width:1;"/><path d="M668.9164,244.1587 C659.2832,249.9257 650.6846,257.1809 644,266.2969 C633.2582,280.9457 632.309,294.9141 635.7675,312.2465" fill="none" style="stroke:#181818;stroke-width:1;"/><text fill="#000000" font-family="Arial" font-size="13" lengthAdjust="spacing" textLength="171.6978" x="686.3171" y="280.3638">safe readiness probes and</text><text fill="#000000" font-family="Arial" font-size="13" lengthAdjust="spacing" textLength="252.332" x="646" y="295.4966">repository operations when configured</text></g><g class="link" data-entity-1="GeoAI" data-entity-2="Local" data-uid="lnk13" id="link_GeoAI_Local"><polygon fill="#181818" points="917.7196,321.6665,921.2858,312.486,917.4811,316.6722,913.2949,312.8676,917.7196,321.6665" style="stroke:#181818;stroke-width:1;"/><path d="M879.1767,248.4251 C886.985,253.3681 894.1151,259.2641 900,266.2969 C912.7307,281.5106 916.5575,297.3316 917.4334,315.6734" fill="none" style="stroke:#181818;stroke-width:1;"/><text fill="#000000" font-family="Arial" font-size="13" lengthAdjust="spacing" textLength="171.0249" x="917" y="287.8638">demo persistence fallback</text></g><g class="link" data-entity-1="GeoAI" data-entity-2="Sources" data-uid="lnk14" id="link_GeoAI_Sources"><polygon fill="#181818" points="1184.1843,330.4244,1180.4803,321.2985,1180.5843,326.9544,1174.9284,327.0584,1184.1843,330.4244" style="stroke:#181818;stroke-width:1;"/><path d="M895.1482,224.4118 C956.1159,228.7294 1031.4452,239.7541 1094,266.2969 C1129.0078,281.1511 1158.153,305.3332 1179.8643,326.2605" fill="none" style="stroke:#181818;stroke-width:1;"/><text fill="#000000" font-family="Arial" font-size="13" lengthAdjust="spacing" textLength="206.4004" x="1151" y="287.8638">context, lineage and attribution</text></g><!--SRC=[PLJ1Rjms4BtpAwQRIujwlNPYf4K2572CR62WTOqOxMal8sgaPKrnrE78zg88a8_e5_PBEfHMZeBiYKjothnvxr7VzO9jXn3nm8D2xaWneTEWaU3gOdrsTWx_VVuNFX1VNaC-PAKEF2Ub9uNl_I12IQ7Y8TLKWmn9GqS_k7mVKe-27LJexrifvrSSMU35TlmjRkGzrlmOKWiDnaoBaveQ7A9khTqDTWIN4Z0kpeMyiMsDwJyEuDqtdLvlVzw-AoSiDSbnz_odY-thLxPRO9_tNfwzAdiVft99973-qdro3htQZTMT5w9KI0wPP0MOuGzRk2yKLgD4ktHZofp-bI7tg4RNXl0X1qwsw7WidBHyyVvoU_5-wtpaeORLRzXN_0HP3v4oOAf1WwrswN5F2H3weOh1W_Az_GtPQ60LQSIRIcUWttjA1d-rHuKhxlf8QjqDYFkomFZMc2X95rB8Qf2cUYmkZLXJjQjHiS9iKzqD_RZQt7BM3zTty2FScIBOqYu9OHqIvRnkKQb-2ucrXAC9xI1Kxqmlc2DoArmFNhyIOiPs3KSp25Q_iiUukRozVYQrInljUh2gFqaynT8ZhUj1dgSVQvO-VAJM1YCZ06pJREQqPXuCmOGe6Iy3da0JdjIOJdhF8Su9-xndpHF7gSgvOZUirxySxNi3cQ8r1U589v0z9PJ09-0bMFE0OB7fi0T5QKbtoPiNA7OrfDoNGde8DILlE_JKiwYRW4kBOnZUG2NyMFeM8A6_1yhBQqUhZOgAQLiq1sCX5hm7ck-RyIaUO8oHGJqOsZqThAU9b1TWina53fjIVZGNUk5gqgXOtdCE5e134RTqicnDu5-CNw2ExXXayHoi81ThREXdWvSC9gdjzj6o4uZ6mA8s-eEg4ggXT7JEaaRcc2ftmCtaYLjaJAX34tf-DgMzcNH8khVdu3Tnf3Lp6E4pDmheZK0-TJTig4tmvG6tn9QOCh1CCvfhvMMl-n2vb9ZQemxbMVg8zW6iJnqPP27vFm00]--></g></svg>