<svg xmlns="http://www.w3.org/2000/svg" xmlns:xlink="http://www.w3.org/1999/xlink" contentStyleType="text/css" data-diagram-type="DESCRIPTION" height="702px" preserveAspectRatio="none" style="width:1058px;height:702px;background:#FFFFFF;" version="1.1" viewBox="0 0 1058 702" width="1058px" zoomAndPan="magnify"><title>C4-002 &#8212; GeoAI container architecture (implemented paths)</title><defs/><g><g class="title" data-source-line="2"><text fill="#000000" font-family="Arial" font-size="14" font-weight="bold" lengthAdjust="spacing" textLength="478.3105" x="282.0947" y="22.9951">C4-002 &#8212; GeoAI container architecture (implemented paths)</text></g><!--cluster Vercel / Next.js application--><g class="cluster" data-entity="Vercel . Next.js application" data-source-line="9" data-uid="ent0003" id="cluster_Vercel . Next.js application"><path d="M16.5,152.2969 L230.3574,152.2969 A3.75,3.75 0 0 1 232.8574,154.7969 L239.8574,174.5938 L622.5,174.5938 A2.5,2.5 0 0 1 625,177.0938 L625,564.7969 A2.5,2.5 0 0 1 622.5,567.2969 L16.5,567.2969 A2.5,2.5 0 0 1 14,564.7969 L14,154.7969 A2.5,2.5 0 0 1 16.5,152.2969" fill="none" style="stroke:#000000;stroke-width:1.5;"/><line style="stroke:#000000;stroke-width:1.5;" x1="14" x2="239.8574" y1="174.5938" y2="174.5938"/><text fill="#000000" font-family="Arial" font-size="14" font-weight="bold" lengthAdjust="spacing" textLength="212.8574" x="18" y="167.292">Vercel / Next.js application</text></g><!--entity User--><g class="entity" data-entity="User" data-source-line="8" data-uid="ent0002" id="entity_User"><ellipse cx="309.9551" cy="57.7969" fill="#F1F1F1" rx="8" ry="8" style="stroke:#181818;stroke-width:0.5;"/><path d="M309.9551,65.7969 L309.9551,92.7969 M296.9551,73.7969 L322.9551,73.7969 M309.9551,92.7969 L296.9551,107.7969 M309.9551,92.7969 L322.9551,107.7969" fill="none" style="stroke:#181818;stroke-width:0.5;"/><text fill="#000000" font-family="Arial" font-size="14" lengthAdjust="spacing" textLength="31.9102" x="294" y="122.292">User</text></g><!--entity Supabase--><g class="entity" data-entity="Supabase" data-source-line="17" data-uid="ent0010" id="entity_Supabase"><path d="M225.5,633.7969 C225.5,623.7969 324.9722,623.7969 324.9722,623.7969 C324.9722,623.7969 424.4443,623.7969 424.4443,633.7969 L424.4443,675.3906 C424.4443,685.3906 324.9722,685.3906 324.9722,685.3906 C324.9722,685.3906 225.5,685.3906 225.5,675.3906 L225.5,633.7969" fill="#F1F1F1" style="stroke:#181818;stroke-width:0.5;"/><path d="M225.5,633.7969 C225.5,643.7969 324.9722,643.7969 324.9722,643.7969 C324.9722,643.7969 424.4443,643.7969 424.4443,633.7969" fill="none" style="stroke:#181818;stroke-width:0.5;"/><text fill="#000000" font-family="Arial" font-size="14" lengthAdjust="spacing" textLength="126.9707" x="235.5" y="660.792">Supabase/PostGIS</text><text fill="#000000" font-family="Arial" font-size="14" lengthAdjust="spacing" textLength="178.9443" x="235.5" y="677.0889">optional, readiness-gated</text></g><!--entity Fallback--><g class="entity" data-entity="Fallback" data-source-line="18" data-uid="ent0011" id="entity_Fallback"><path d="M474.5,619.2969 L515.5,619.2969 A3.75,3.75 0 0 1 518,621.7969 L525,640.2969 L689.6143,640.2969 A2.5,2.5 0 0 1 692.1143,642.7969 L692.1143,687.3906 A2.5,2.5 0 0 1 689.6143,689.8906 L474.5,689.8906 A2.5,2.5 0 0 1 472,687.3906 L472,621.7969 A2.5,2.5 0 0 1 474.5,619.2969" fill="#F1F1F1" style="stroke:#181818;stroke-width:0.5;"/><line style="stroke:#181818;stroke-width:0.5;" x1="472" x2="525" y1="640.2969" y2="640.2969"/><text fill="#000000" font-family="Arial" font-size="14" lengthAdjust="spacing" textLength="190.1143" x="482" y="660.292">Local JSON + browser-local</text><text fill="#000000" font-family="Arial" font-size="14" lengthAdjust="spacing" textLength="98.7109" x="482" y="676.5889">demo fallback</text></g><!--entity Mapbox--><g class="entity" data-entity="Mapbox" data-source-line="19" data-uid="ent0012" id="entity_Mapbox"><path d="M644.2718,397.6775 C647.338,392.6841 651.2332,392.4187 655.0112,396.8681 C658.09,390.7419 662.4004,390.8384 666.6129,395.6676 C669.5011,390.3889 673.7322,389.9132 677.2845,394.9829 C681.0022,390.097 684.8283,389.0044 688.7849,394.7239 C693.7976,389.506 697.9972,389.6591 700.8092,396.8555 C704.8381,391.7275 709.4612,392.0012 713.1188,397.294 C720.4567,400.1334 722.194,407.4895 715.8792,412.7649 C721.6838,419.1665 721.5293,424.2502 713.5333,428.6084 C711.6029,434.7224 706.1138,435.1344 702.3888,430.4627 C699.4798,438.6862 695.0431,439.7278 688.95,433.4043 C688.0431,439.0815 683.3912,441.2635 678.5286,438.031 C673.9567,442.19 668.7135,441.6446 666.7775,435.1292 C660.2896,439.9154 657.093,437.291 654.9176,430.6524 C650.736,435.0695 645.7076,434.5989 643.0627,428.8589 C633.4047,427.8862 630.1838,420.6627 636.7799,413.1777 C630.6629,404.1954 633.7557,398.6204 644.2718,397.6775" fill="#F1F1F1" style="stroke:#181818;stroke-width:0.5;"/><text fill="#000000" font-family="Arial" font-size="14" lengthAdjust="spacing" textLength="55.2822" x="649.5" y="416.792">Mapbox</text></g><!--entity OpenAI--><g class="entity" data-entity="OpenAI" data-source-line="20" data-uid="ent0013" id="entity_OpenAI"><path d="M641.5741,509.3745 C646.6446,503.03 650.5901,504.8797 654.1644,510.8982 C656.7207,506.0536 661.4442,504.2853 665.1247,509.6969 C668.981,503.1831 673.4425,503.7377 677.4526,509.5429 C681.0842,503.3148 686.0869,503.2463 689.8532,509.408 C693.5555,504.7543 698.3689,504.0491 701.1886,510.3235 C704.8048,505.3608 710.0903,504.5228 713.1672,510.8935 C719.152,513.1966 719.1404,518.4766 714.0941,521.7238 C719.6565,524.9396 721.3608,530.531 715.1571,534.7099 C720.0396,538.6011 720.6764,542.5544 715.051,546.3498 C718.9797,550.4399 718.2566,554.5988 713.1357,557.0724 C708.8206,563.5322 704.7564,563.0564 700.7635,556.76 C698.3054,563.366 693.2123,563.4267 689.228,558.2548 C685.543,563.3074 682.1092,562.912 678.56,558.1078 C674.0894,562.9037 670.245,562.6854 666.3813,557.3764 C662.7644,562.7392 657.5145,562.9919 654.3963,556.8566 C651.0575,562.0457 645.0532,562.8804 641.5862,557.005 C636.2825,554.1802 636.0618,550.0368 640.4499,546.1934 C633.4261,544.7942 632.2472,538.8848 637.0266,534.1348 C633.0412,529.3841 633.9761,523.4781 641.0213,522.5217 C635.7105,518.8408 634.7551,512.5454 641.5741,509.3745" fill="#F1F1F1" style="stroke:#181818;stroke-width:0.5;"/><text fill="#000000" font-family="Arial" font-size="14" lengthAdjust="spacing" textLength="51.0986" x="648.5" y="529.292">OpenAI</text><text fill="#000000" font-family="Arial" font-size="14" lengthAdjust="spacing" textLength="56.7383" x="648.5" y="545.5889">optional</text></g><g class="entity" data-entity="GMN25" data-source-line="35" data-uid="ent0026" id="entity_GMN25"><path d="M738.5,512.7969 L738.5,553.0625 A0,0 0 0 0 738.5,553.0625 L1051.8413,553.0625 A0,0 0 0 0 1051.8413,553.0625 L1051.8413,522.7969 L1041.8413,512.7969 L853.1672,512.7969 L517.5454,506.2694 L845.1672,512.7969 L738.5,512.7969 A0,0 0 0 0 738.5,512.7969" fill="#FEFFDD" style="stroke:#181818;stroke-width:0.5;"/><path d="M1041.8413,512.7969 L1041.8413,522.7969 L1051.8413,522.7969 L1041.8413,512.7969" fill="#FEFFDD" style="stroke:#181818;stroke-width:0.5;"/><text fill="#000000" font-family="Arial" font-size="13" lengthAdjust="spacing" textLength="292.3413" x="744.5" y="529.8638">Current Production reports local/API fallback.</text><text fill="#000000" font-family="Arial" font-size="13" lengthAdjust="spacing" textLength="278.7573" x="744.5" y="544.9966">Fallback is not durable Production storage.</text></g><!--entity Pages--><g class="entity" data-entity="Pages" data-source-line="10" data-uid="ent0004" id="entity_Pages"><rect fill="#EAF4EF" height="52.5938" rx="2.5" ry="2.5" style="stroke:#181818;stroke-width:0.5;" width="302.6387" x="158.5" y="179.2969"/><text fill="#000000" font-family="Arial" font-size="14" lengthAdjust="spacing" textLength="125.5352" x="168.5" y="202.292">App Router pages</text><text fill="#000000" font-family="Arial" font-size="14" lengthAdjust="spacing" textLength="282.6387" x="168.5" y="218.5889">/, /workspace, /projects, /explore, /demo</text></g><!--entity Workspace--><g class="entity" data-entity="Workspace" data-source-line="11" data-uid="ent0005" id="entity_Workspace"><rect fill="#EAF4EF" height="52.5938" rx="2.5" ry="2.5" style="stroke:#181818;stroke-width:0.5;" width="299.542" x="160" y="269.2969"/><text fill="#000000" font-family="Arial" font-size="14" lengthAdjust="spacing" textLength="119.5059" x="170" y="292.292">React workspace</text><text fill="#000000" font-family="Arial" font-size="14" lengthAdjust="spacing" textLength="279.542" x="170" y="308.5889">WorkspaceShell + MapWorkspaceClient</text></g><!--entity Api--><g class="entity" data-entity="Api" data-source-line="12" data-uid="ent0006" id="entity_Api"><rect fill="#F6F8FB" height="52.5938" rx="2.5" ry="2.5" style="stroke:#181818;stroke-width:0.5;" width="126.4834" x="221" y="385.2969"/><text fill="#000000" font-family="Arial" font-size="14" lengthAdjust="spacing" textLength="106.4834" x="231" y="408.292">Route handlers</text><text fill="#000000" font-family="Arial" font-size="14" lengthAdjust="spacing" textLength="37.7891" x="231" y="424.5889">/api/*</text></g><!--entity Domain--><g class="entity" data-entity="Domain" data-source-line="13" data-uid="ent0007" id="entity_Domain"><rect fill="#F6F8FB" height="52.5938" rx="2.5" ry="2.5" style="stroke:#181818;stroke-width:0.5;" width="212.3223" x="61" y="506.2969"/><text fill="#000000" font-family="Arial" font-size="14" lengthAdjust="spacing" textLength="159.4961" x="71" y="529.292">Deterministic analysis,</text><text fill="#000000" font-family="Arial" font-size="14" lengthAdjust="spacing" textLength="192.3223" x="71" y="545.5889">context and report libraries</text></g><!--entity Repositories--><g class="entity" data-entity="Repositories" data-source-line="14" data-uid="ent0008" id="entity_Repositories"><rect fill="#FFF9EC" height="52.5938" rx="2.5" ry="2.5" style="stroke:#181818;stroke-width:0.5;" width="192.3955" x="357" y="506.2969"/><text fill="#000000" font-family="Arial" font-size="14" lengthAdjust="spacing" textLength="172.3955" x="367" y="529.292">Repository adapters and</text><text fill="#000000" font-family="Arial" font-size="14" lengthAdjust="spacing" textLength="170.6934" x="367" y="545.5889">runtime readiness gates</text></g><!--entity Spatial--><g class="entity" data-entity="Spatial" data-source-line="15" data-uid="ent0009" id="entity_Spatial"><rect fill="#FFF9EC" height="68.8906" rx="2.5" ry="2.5" style="stroke:#181818;stroke-width:0.5;" width="250.5625" x="365.5" y="377.2969"/><text fill="#000000" font-family="Arial" font-size="14" lengthAdjust="spacing" textLength="143.3359" x="375.5" y="400.292">Spatial B2A contract</text><text fill="#000000" font-family="Arial" font-size="14" lengthAdjust="spacing" textLength="230.5625" x="375.5" y="416.5889">source mode, bundle, activation,</text><text fill="#000000" font-family="Arial" font-size="14" lengthAdjust="spacing" textLength="197.7158" x="375.5" y="432.8857">adapter, lineage, attribution</text></g><g class="link" data-entity-1="User" data-entity-2="Pages" data-uid="lnk14" id="link_User_Pages"><polygon fill="#181818" points="310,179.0106,314,170.0106,310,174.0106,306,170.0106,310,179.0106" style="stroke:#181818;stroke-width:1;"/><path d="M310,125.4785 C310,142.9253 310,157.2864 310,173.0106" fill="none" style="stroke:#181818;stroke-width:1;"/></g><g class="link" data-entity-1="Pages" data-entity-2="Workspace" data-uid="lnk15" id="link_Pages_Workspace"><polygon fill="#181818" points="310,269.0552,314,260.0552,310,264.0552,306,260.0552,310,269.0552" style="stroke:#181818;stroke-width:1;"/><path d="M310,232.7238 C310,244.1818 310,251.6188 310,263.0552" fill="none" style="stroke:#181818;stroke-width:1;"/></g><g class="link" data-entity-1="Workspace" data-entity-2="Api" data-uid="lnk16" id="link_Workspace_Api"><polygon fill="#181818" points="246.3871,384.9853,242.4805,375.9444,242.7107,381.5965,237.0585,381.8267,246.3871,384.9853" style="stroke:#181818;stroke-width:1;"/><path d="M246.9719,322.5807 C240.6416,327.5605 235.0624,333.4224 231,340.2969 C221.8075,355.8525 227.9381,367.98 241.9754,380.9188" fill="none" style="stroke:#181818;stroke-width:1;"/><text fill="#000000" font-family="Arial" font-size="13" lengthAdjust="spacing" textLength="134.1323" x="233" y="354.3638">fetch JSON contracts</text></g><g class="link" data-entity-1="Workspace" data-entity-2="Domain" data-uid="lnk17" id="link_Workspace_Domain"><polygon fill="#181818" points="111.0782,506.1403,105.375,498.1108,106.7768,503.5912,101.2964,504.993,111.0782,506.1403" style="stroke:#181818;stroke-width:1;"/><path d="M178.0049,322.3062 C121.8843,336.0848 65.5433,354.8822 49,377.2969 C30.7892,401.971 35.06,418.9816 49,446.2969 C62.2248,472.2107 82.2184,489.0374 105.9166,503.0813" fill="none" style="stroke:#181818;stroke-width:1;"/><text fill="#000000" font-family="Arial" font-size="13" lengthAdjust="spacing" textLength="159.9927" x="51" y="416.3638">deterministic client logic</text></g><g class="link" data-entity-1="Workspace" data-entity-2="Spatial" data-uid="lnk18" id="link_Workspace_Spatial"><polygon fill="#181818" points="437.7998,377.2896,432.3162,369.1085,433.569,374.6249,428.0527,375.8778,437.7998,377.2896" style="stroke:#181818;stroke-width:1;"/><path d="M350.6199,322.3807 C376.3643,338.5954 404.8632,356.545 432.7229,374.0919" fill="none" style="stroke:#181818;stroke-width:1;"/><text fill="#000000" font-family="Arial" font-size="13" lengthAdjust="spacing" textLength="222.2378" x="408" y="354.3638">map-layer and selection contracts</text></g><g class="link" data-entity-1="Workspace" data-entity-2="Mapbox" data-uid="lnk19" id="link_Workspace_Mapbox"><polygon fill="#181818" points="670.0628,388.6194,670.538,378.782,668.2549,383.9577,663.0792,381.6747,670.0628,388.6194" style="stroke:#181818;stroke-width:1;"/><path d="M460.2008,304.1494 C531.3203,310.1368 606.9668,320.9269 636,340.2969 C652.9606,351.6124 661.6437,366.9106 667.8933,383.0254" fill="none" style="stroke:#181818;stroke-width:1;"/><text fill="#000000" font-family="Arial" font-size="13" lengthAdjust="spacing" textLength="134.4434" x="656" y="354.3638">client-side rendering</text></g><g class="link" data-entity-1="Api" data-entity-2="Domain" data-uid="lnk20" id="link_Api_Domain"><polygon fill="#181818" points="192.4616,505.9,201.6237,502.2867,195.9671,502.3346,195.9191,496.678,192.4616,505.9" style="stroke:#181818;stroke-width:1;"/><path d="M258.9006,438.3254 C239.2941,458.267 216.3666,481.5864 196.6682,501.6216" fill="none" style="stroke:#181818;stroke-width:1;"/></g><g class="link" data-entity-1="Api" data-entity-2="Repositories" data-uid="lnk21" id="link_Api_Repositories"><polygon fill="#181818" points="416.514,506.1056,411.4582,497.6534,412.4258,503.2269,406.8524,504.1945,416.514,506.1056" style="stroke:#181818;stroke-width:1;"/><path d="M320.2547,438.3254 C348.6722,458.3353 383.1316,482.5996 411.6082,502.6512" fill="none" style="stroke:#181818;stroke-width:1;"/></g><g class="link" data-entity-1="Api" data-entity-2="OpenAI" data-uid="lnk22" id="link_Api_OpenAI"><polygon fill="#181818" points="633.4035,503.1938,626.887,495.809,628.8577,501.1115,623.5553,503.0822,633.4035,503.1938" style="stroke:#181818;stroke-width:1;"/><path d="M335.3184,438.4527 C342.1733,441.3515 349.1884,444.0611 356,446.2969 C473.5987,484.8956 514.1699,455.1085 629,501.2969 C630.4656,501.8864 626.4806,500.0226 627.9486,500.695" fill="none" style="stroke:#181818;stroke-width:1;"/><text fill="#000000" font-family="Arial" font-size="13" lengthAdjust="spacing" textLength="189.541" x="576" y="478.3638">optional /api/analyze request</text></g><g class="link" data-entity-1="Repositories" data-entity-2="Supabase" data-uid="lnk23" id="link_Repositories_Supabase"><polygon fill="#181818" points="318.1684,623.6246,321.2375,614.2662,317.6626,618.6503,313.2785,615.0754,318.1684,623.6246" style="stroke:#181818;stroke-width:1;"/><path d="M356.9875,555.6493 C344.836,562.3026 333.9095,570.9799 326,582.2969 C317.7504,594.1005 316.1647,603.9184 317.5615,617.6554" fill="none" style="stroke:#181818;stroke-width:1;"/><text fill="#000000" font-family="Arial" font-size="13" lengthAdjust="spacing" textLength="230.5977" x="328" y="596.3638">only when configured and readable</text></g><g class="link" data-entity-1="Repositories" data-entity-2="Fallback" data-uid="lnk24" id="link_Repositories_Fallback"><polygon fill="#181818" points="577.4723,619.1981,579.2118,609.5041,576.2805,614.3423,571.4424,611.411,577.4723,619.1981" style="stroke:#181818;stroke-width:1;"/><path d="M530.9021,559.4008 C541.7402,565.568 551.9137,573.1118 560,582.2969 C569.011,592.5324 572.9011,600.5728 576.0422,613.3711" fill="none" style="stroke:#181818;stroke-width:1;"/><text fill="#000000" font-family="Arial" font-size="13" lengthAdjust="spacing" textLength="63.6479" x="574" y="596.3638">otherwise</text></g><!--SRC=[TLHDRnCn4BtxLmpfXO-agQeAGGz8QTfKHT16ZO1BBfFrPDUjrpQsbpGW97u4lv1VmdWtkqaAtPDtxFVcpSopdpcFUOcWSMsh2A6aY0P5L54JZ4y6HqV7yEVNRxWaExg2p9g8of07z5cX8cMnyWJFLUaqbMGYIN0OY_12X7jb77eiOO7PVUvjPUJOQklXO59_EoT2WTAkbCbXYJhGpavcIsSD4y_YcWLvJeWcrxj792snqd72qgwn91XvXLe8p2Bd-XJ82yS2C2VeVIQVaOOXNDD3FBmBWCvfbM5KrlJWXu1jFkYDd8DRxWaNwnWTvcROX-7A-ll0XCHhv-qT2mgyf0V7fQMWfDBs00DC4mWEBaQJaul9FlKjiJhegERcIxkS5QGrl8AFwBhOM2j6rPnTx0dU91SAD5AJJuBHgU7B6ZboYXl_Ul9cShQFEIUki5H6XQWouDdhTL2XFpTfrjmc3adkkxC-WbOBZrvHg2dFRSbU-3_hBGE2uWci0IKwJX4IqTpuoaHLfacYP2E503d63M47KgbnR96t5-DzsXcRYwSBPyUZsekU-pWtmLOyLoYjv04igbHz7tX7VQidoxLiDFIv0aCy5zwEqQj5rKoUSxVCRTgVGcB41GQspQnozMeujI5UNitcnhe4HDtVrZ58TSY6QtDUBAsMR9_U1vinzVlPpJMFTk7jYbqvq2auDyaloVOwNPCQFjdyY4pRIaAFlR2m3_LMismtRXoPqTLMJNsa2GgHd0-3mRl6Xw9nO_hlF2IsRahnv91JM5BCYaPgs-3mwE1cxgTyytQjazKs1MrpbJr2jCqzXHBTW9-Qz82mhG9flZ-i_SbSJS4CRDW7GSda7UwQv-T29CrRITtlhf6wODCOfchR1VNrg1t_FP5-hIX4iMV2MlnccWbfz1fM1TLwbohdjqzkxWSxRC7FqZ_eTfW97GloAyM-4CRoFVKgBoBOvRxSSULzwkFKMrarpMbkNu3QCSFHzAhpow7e-5K0PWLP-IHa5nwOcQT_ABXjwGpz1G00]--></g></svg>