<svg xmlns="http://www.w3.org/2000/svg" xmlns:xlink="http://www.w3.org/1999/xlink" contentStyleType="text/css" data-diagram-type="DESCRIPTION" height="597px" preserveAspectRatio="none" style="width:1282px;height:597px;background:#FFFFFF;" version="1.1" viewBox="0 0 1282 597" width="1282px" zoomAndPan="magnify"><title>C4-003 &#8212; Spatial B2A exact component map</title><defs/><g><g class="title" data-source-line="2"><text fill="#000000" font-family="Arial" font-size="14" font-weight="bold" lengthAdjust="spacing" textLength="350.1162" x="462.6919" y="22.9951">C4-003 &#8212; Spatial B2A exact component map</text></g><!--entity Page--><g class="entity" data-entity="Page" data-source-line="8" data-uid="ent0002" id="entity_Page"><rect fill="#F1F1F1" height="52.5938" rx="2.5" ry="2.5" style="stroke:#181818;stroke-width:0.5;" width="218.8369" x="696" y="49.2969"/><text fill="#000000" font-family="Arial" font-size="14" lengthAdjust="spacing" textLength="111.8633" x="706" y="72.292">WorkspacePage</text><text fill="#000000" font-family="Arial" font-size="14" lengthAdjust="spacing" textLength="198.8369" x="706" y="88.5889">createSpatialSourceRequest</text></g><!--entity Shell--><g class="entity" data-entity="Shell" data-source-line="9" data-uid="ent0003" id="entity_Shell"><rect fill="#F1F1F1" height="52.5938" rx="2.5" ry="2.5" style="stroke:#181818;stroke-width:0.5;" width="214.7627" x="555" y="157.2969"/><text fill="#000000" font-family="Arial" font-size="14" lengthAdjust="spacing" textLength="111.4941" x="565" y="180.292">WorkspaceShell</text><text fill="#000000" font-family="Arial" font-size="14" lengthAdjust="spacing" textLength="194.7627" x="565" y="196.5889">selection and analysis state</text></g><!--entity Map--><g class="entity" data-entity="Map" data-source-line="10" data-uid="ent0004" id="entity_Map"><rect fill="#F1F1F1" height="52.5938" rx="2.5" ry="2.5" style="stroke:#181818;stroke-width:0.5;" width="227.5527" x="548.5" y="265.2969"/><text fill="#000000" font-family="Arial" font-size="14" lengthAdjust="spacing" textLength="147.417" x="558.5" y="288.292">MapWorkspaceClient</text><text fill="#000000" font-family="Arial" font-size="14" lengthAdjust="spacing" textLength="207.5527" x="558.5" y="304.5889">map sources, layers, visibility</text></g><!--entity SourceMode--><g class="entity" data-entity="SourceMode" data-source-line="11" data-uid="ent0005" id="entity_SourceMode"><rect fill="#F1F1F1" height="52.5938" rx="2.5" ry="2.5" style="stroke:#181818;stroke-width:0.5;" width="199.252" x="788" y="157.2969"/><text fill="#000000" font-family="Arial" font-size="14" lengthAdjust="spacing" textLength="108.7871" x="798" y="180.292">source-mode.ts</text><text fill="#000000" font-family="Arial" font-size="14" lengthAdjust="spacing" textLength="179.252" x="798" y="196.5889">runtime/request approval</text></g><!--entity Bundle--><g class="entity" data-entity="Bundle" data-source-line="12" data-uid="ent0006" id="entity_Bundle"><rect fill="#F1F1F1" height="52.5938" rx="2.5" ry="2.5" style="stroke:#181818;stroke-width:0.5;" width="203.1621" x="6" y="464.2969"/><text fill="#000000" font-family="Arial" font-size="14" lengthAdjust="spacing" textLength="114.5977" x="16" y="487.292">bundle-loader.ts</text><text fill="#000000" font-family="Arial" font-size="14" lengthAdjust="spacing" textLength="183.1621" x="16" y="503.5889">controlled non-real fixture</text></g><!--entity Activation--><g class="entity" data-entity="Activation" data-source-line="13" data-uid="ent0007" id="entity_Activation"><rect fill="#F1F1F1" height="52.5938" rx="2.5" ry="2.5" style="stroke:#181818;stroke-width:0.5;" width="168.3945" x="424.5" y="373.2969"/><text fill="#000000" font-family="Arial" font-size="14" lengthAdjust="spacing" textLength="148.3945" x="434.5" y="396.292">activation-resolver.ts</text><text fill="#000000" font-family="Arial" font-size="14" lengthAdjust="spacing" textLength="146.4736" x="434.5" y="412.5889">fail-closed + fallback</text></g><!--entity Catalogue--><g class="entity" data-entity="Catalogue" data-source-line="14" data-uid="ent0008" id="entity_Catalogue"><rect fill="#F1F1F1" height="52.5938" rx="2.5" ry="2.5" style="stroke:#181818;stroke-width:0.5;" width="178.9424" x="227" y="464.2969"/><text fill="#000000" font-family="Arial" font-size="14" lengthAdjust="spacing" textLength="126.5811" x="237" y="487.292">layer-catalogue.ts</text><text fill="#000000" font-family="Arial" font-size="14" lengthAdjust="spacing" textLength="158.9424" x="237" y="503.5889">layer/source metadata</text></g><!--entity Adapter--><g class="entity" data-entity="Adapter" data-source-line="15" data-uid="ent0009" id="entity_Adapter"><rect fill="#F1F1F1" height="52.5938" rx="2.5" ry="2.5" style="stroke:#181818;stroke-width:0.5;" width="186.0313" x="781.5" y="373.2969"/><text fill="#000000" font-family="Arial" font-size="14" lengthAdjust="spacing" textLength="148.3535" x="791.5" y="396.292">map-layer-adapter.ts</text><text fill="#000000" font-family="Arial" font-size="14" lengthAdjust="spacing" textLength="166.0313" x="791.5" y="412.5889">feature &#8594; map + target</text></g><!--entity Lineage--><g class="entity" data-entity="Lineage" data-source-line="16" data-uid="ent0010" id="entity_Lineage"><rect fill="#F1F1F1" height="52.5938" rx="2.5" ry="2.5" style="stroke:#181818;stroke-width:0.5;" width="176.7891" x="905" y="464.2969"/><text fill="#000000" font-family="Arial" font-size="14" lengthAdjust="spacing" textLength="136.5547" x="915" y="487.292">selection-lineage.ts</text><text fill="#000000" font-family="Arial" font-size="14" lengthAdjust="spacing" textLength="156.7891" x="915" y="503.5889">identity + provenance</text></g><!--entity Attribution--><g class="entity" data-entity="Attribution" data-source-line="17" data-uid="ent0011" id="entity_Attribution"><rect fill="#F1F1F1" height="52.5938" rx="2.5" ry="2.5" style="stroke:#181818;stroke-width:0.5;" width="194.3779" x="1007.5" y="373.2969"/><text fill="#000000" font-family="Arial" font-size="14" lengthAdjust="spacing" textLength="91.0137" x="1017.5" y="396.292">attribution.ts</text><text fill="#000000" font-family="Arial" font-size="14" lengthAdjust="spacing" textLength="174.3779" x="1017.5" y="412.5889">visible-layer aggregation</text></g><!--entity AttributionUI--><g class="entity" data-entity="AttributionUI" data-source-line="18" data-uid="ent0012" id="entity_AttributionUI"><rect fill="#F1F1F1" height="36.2969" rx="2.5" ry="2.5" style="stroke:#181818;stroke-width:0.5;" width="176.4063" x="1100.5" y="472.7969"/><text fill="#000000" font-family="Arial" font-size="14" lengthAdjust="spacing" textLength="156.4063" x="1110.5" y="495.792">SpatialDataAttribution</text></g><!--entity LineageUI--><g class="entity" data-entity="LineageUI" data-source-line="19" data-uid="ent0013" id="entity_LineageUI"><rect fill="#F1F1F1" height="36.2969" rx="2.5" ry="2.5" style="stroke:#181818;stroke-width:0.5;" width="222.7813" x="882" y="555.2969"/><text fill="#000000" font-family="Arial" font-size="14" lengthAdjust="spacing" textLength="202.7813" x="892" y="578.292">SpatialSourceLineageDrawer</text></g><g class="entity" data-entity="GMN26" data-source-line="35" data-uid="ent0027" id="entity_GMN26"><path d="M424.5,463.2969 L424.5,518.6953 A0,0 0 0 0 424.5,518.6953 L886.9287,518.6953 A0,0 0 0 0 886.9287,518.6953 L886.9287,473.2969 L876.9287,463.2969 L615.5779,463.2969 L550.6243,426.3007 L607.5779,463.2969 L424.5,463.2969 A0,0 0 0 0 424.5,463.2969" fill="#FEFFDD" style="stroke:#181818;stroke-width:0.5;"/><path d="M876.9287,463.2969 L876.9287,473.2969 L886.9287,473.2969 L876.9287,463.2969" fill="#FEFFDD" style="stroke:#181818;stroke-width:0.5;"/><text fill="#000000" font-family="Arial" font-size="13" lengthAdjust="spacing" textLength="281.144" x="430.5" y="480.3638">Production accepts synthetic_fallback only.</text><text fill="#000000" font-family="Arial" font-size="13" lengthAdjust="spacing" textLength="375.7241" x="430.5" y="495.4966">Preview may activate only the controlled non-real fixture.</text><text fill="#000000" font-family="Arial" font-size="13" lengthAdjust="spacing" textLength="441.4287" x="430.5" y="510.6294">Missing, invalid, unapproved or mismatched inputs fall back closed.</text></g><g class="link" data-entity-1="Page" data-entity-2="SourceMode" data-uid="lnk14" id="link_Page_SourceMode"><polygon fill="#181818" points="870.854,157.0267,869.1692,147.323,868.0716,152.8723,862.5223,151.7747,870.854,157.0267" style="stroke:#181818;stroke-width:1;"/><path d="M829.5693,102.5506 C834.6411,108.2756 839.8581,114.3987 844.5,120.2969 C853.7043,131.9922 859.8222,140.5551 867.5152,152.0415" fill="none" style="stroke:#181818;stroke-width:1;"/></g><g class="link" data-entity-1="Page" data-entity-2="Shell" data-uid="lnk15" id="link_Page_Shell"><polygon fill="#181818" points="670.2445,157.234,677.2537,150.3152,672.0696,152.5791,669.8058,147.3949,670.2445,157.234" style="stroke:#181818;stroke-width:1;"/><path d="M719.6046,102.2994 C710.1634,107.3142 701.1992,113.2611 693.5,120.2969 C682.6813,130.1834 677.3543,139.1009 672.4347,151.6481" fill="none" style="stroke:#181818;stroke-width:1;"/><text fill="#000000" font-family="Arial" font-size="13" lengthAdjust="spacing" textLength="143.0825" x="695.5" y="134.3638">SpatialSourceRequest</text></g><g class="link" data-entity-1="Shell" data-entity-2="Map" data-uid="lnk16" id="link_Shell_Map"><polygon fill="#181818" points="662.5,265.0061,666.5,256.0061,662.5,260.0061,658.5,256.0061,662.5,265.0061" style="stroke:#181818;stroke-width:1;"/><path d="M662.5,210.4565 C662.5,226.9998 662.5,242.4371 662.5,259.0061" fill="none" style="stroke:#181818;stroke-width:1;"/><text fill="#000000" font-family="Arial" font-size="13" lengthAdjust="spacing" textLength="191.4263" x="664.5" y="242.3638">selection callbacks + request</text></g><g class="link" data-entity-1="Map" data-entity-2="Bundle" data-uid="lnk17" id="link_Map_Bundle"><polygon fill="#181818" points="133.8519,464.2364,143.1857,461.0931,137.5339,460.8537,137.7733,455.2019,133.8519,464.2364" style="stroke:#181818;stroke-width:1;"/><path d="M548.3602,302.3249 C466.2709,312.352 354.4694,332.6436 263.5,373.2969 C212.8884,395.9147 167.5188,433.3058 138.2703,460.1771" fill="none" style="stroke:#181818;stroke-width:1;"/><text fill="#000000" font-family="Arial" font-size="13" lengthAdjust="spacing" textLength="148.1353" x="265.5" y="404.3638">load static_test_fixture</text></g><g class="link" data-entity-1="Map" data-entity-2="Activation" data-uid="lnk18" id="link_Map_Activation"><polygon fill="#181818" points="545.7024,373.19,555.3839,371.3821,549.821,370.3551,550.848,364.7923,545.7024,373.19" style="stroke:#181818;stroke-width:1;"/><path d="M625.2209,318.4565 C601.0973,335.0611 574.7532,353.194 550.6448,369.7881" fill="none" style="stroke:#181818;stroke-width:1;"/><text fill="#000000" font-family="Arial" font-size="13" lengthAdjust="spacing" textLength="157.4409" x="601.5" y="350.3638">resolveSpatialActivation</text></g><g class="link" data-entity-1="Activation" data-entity-2="Catalogue" data-uid="lnk19" id="link_Activation_Catalogue"><polygon fill="#181818" points="371.5275,464.2893,381.3752,464.1334,376.0639,462.1865,378.0107,456.8753,371.5275,464.2893" style="stroke:#181818;stroke-width:1;"/><path d="M453.4805,426.3007 C427.7722,438.2176 402.6805,449.8486 376.9711,461.766" fill="none" style="stroke:#181818;stroke-width:1;"/></g><g class="link" data-entity-1="Activation" data-entity-2="Bundle" data-uid="lnk20" id="link_Activation_Bundle"><polygon fill="#181818" points="209.0669,465.2313,218.736,467.1042,213.9387,464.1065,216.9363,459.3092,209.0669,465.2313" style="stroke:#181818;stroke-width:1;"/><path d="M424.3322,418.2968 C366.1568,430.5338 287.0274,447.4581 217.5,463.2969 C214.7228,463.9295 217.7536,463.2258 214.9131,463.8816" fill="none" style="stroke:#181818;stroke-width:1;"/></g><g class="link" data-entity-1="Map" data-entity-2="Adapter" data-uid="lnk21" id="link_Map_Adapter"><polygon fill="#181818" points="832.0114,373.1591,826.2575,365.1658,827.694,370.6372,822.2226,372.0737,832.0114,373.1591" style="stroke:#181818;stroke-width:1;"/><path d="M725.5835,318.3746 C738.5767,324.0119 752.0792,330.1445 764.5,336.2969 C787.2331,347.5573 806.6634,358.3529 826.8305,370.1329" fill="none" style="stroke:#181818;stroke-width:1;"/><text fill="#000000" font-family="Arial" font-size="13" lengthAdjust="spacing" textLength="143.5332" x="800.5" y="350.3638">controlled fixture only</text></g><g class="link" data-entity-1="Adapter" data-entity-2="Lineage" data-uid="lnk22" id="link_Adapter_Lineage"><polygon fill="#181818" points="959.3944,464.2893,954.5828,455.6958,955.3904,461.2947,949.7914,462.1022,959.3944,464.2893" style="stroke:#181818;stroke-width:1;"/><path d="M908.6006,426.3007 C924.5344,438.2176 938.6551,448.7784 954.5896,460.6958" fill="none" style="stroke:#181818;stroke-width:1;"/></g><g class="link" data-entity-1="Map" data-entity-2="Attribution" data-uid="lnk23" id="link_Map_Attribution"><polygon fill="#181818" points="1049.9792,373.1806,1043.3391,365.9068,1045.399,371.1752,1040.1305,373.2352,1049.9792,373.1806" style="stroke:#181818;stroke-width:1;"/><path d="M776.5634,303.8967 C829.7264,310.6391 893.475,320.9811 949.5,336.2969 C983.7853,345.6696 1015.2537,357.977 1044.4829,370.7742" fill="none" style="stroke:#181818;stroke-width:1;"/><text fill="#000000" font-family="Arial" font-size="13" lengthAdjust="spacing" textLength="163.1982" x="1008.5" y="350.3638">visible source/layer state</text></g><g class="link" data-entity-1="Attribution" data-entity-2="AttributionUI" data-uid="lnk24" id="link_Attribution_AttributionUI"><polygon fill="#181818" points="1172.2293,472.5577,1168.9608,463.267,1168.7974,468.9215,1163.1429,468.758,1172.2293,472.5577" style="stroke:#181818;stroke-width:1;"/><path d="M1128.7963,426.5394 C1142.751,441.3247 1155.779,455.1282 1168.111,468.1942" fill="none" style="stroke:#181818;stroke-width:1;"/></g><g class="link" data-entity-1="Lineage" data-entity-2="LineageUI" data-uid="lnk25" id="link_Lineage_LineageUI"><polygon fill="#181818" points="993.5,554.8234,997.5,545.8234,993.5,549.8234,989.5,545.8234,993.5,554.8234" style="stroke:#181818;stroke-width:1;"/><path d="M993.5,517.7107 C993.5,529.8447 993.5,537.9783 993.5,548.8234" fill="none" style="stroke:#181818;stroke-width:1;"/></g><!--SRC=[VLHDQnin4BtlhvYcnsQTqFRKGy5n21IQ4cfABu4mrexN8bffAyqwyQsd_e3INzXVqj67RIM46epnwitRftblvjNeiHyG3ExSn106OhJOi6P3i7ZVdf-_Wxy__y1oHDPeuEBj7EWH5ODom-WiMOO1noRSQpkYnm5MgEvxxoRRBPnn7bvVfK-521lit8EsFQpH1AfE3fnBtidxFIbHqviQqj4Q9yDNpl8N70ZcNcGrpL7DoNVdxyE8YcwmfrkhF25JqRzqarVqbNvC5FW4C404lLYzt90njpQG4HNQMK3RoHVDBkW0WOKq4IHSpN2Duu5aORGykxNI8WZftU4qzfgy_6vrq2jjDEyIaTJLD1dU3gwZ6OTRwoVBUg0pdyK3ZgDtMpHPH09V2xQcM8a9XbhZi2EVI9IqpJjZg0FhR2kjCR3MZppvV9cBL55pYDLwYx41WWxER0lJ6hLfbN51gDv48qqqFf7C3oKrKRfrgv3Hk7xATqhFpl9D8KQla-F4iTZZQWhfOfjf13ZoNeduA_hXxw_VCOgYXj7tbEsTP-2JnkuTROss9FOd5jt9eLWXvR6lPD6gt9FF6VMaASnUhwP8aegJax7JKHnWttlgKmEoXYEw9YcHl9IRLeZd5Ty-lL2JxIx2BZq-aA-bIaqJSmrj-x6Enl5Pp2nyW9Uceic74IQ95D1n0bHnEKYJIWoRY8dOd1o1nxIbyT3gZWLnL_9rG1xZ8UYIgIAaIaw5YaN7F3mxA8aza6U_XRcAUb40pffTiqT4zDxQG_Mnxy9GN2s3UvRDJOFVrC1dXTByGbk_8bfY7HEi7BCRmAthCRdnhflAbb6AHfO5ixEyeTZ4_Mmb-JF1qbRJWqHz1sKuyyr0yF2V0Pyrrpe4MRkdeAqi3jsTmcJp6X6uhEf1Xm5PRUIVhDj9LCHtfuqEUTHd3Td8pFGF]--></g></svg>