<svg xmlns="http://www.w3.org/2000/svg" xmlns:xlink="http://www.w3.org/1999/xlink" contentStyleType="text/css" data-diagram-type="DESCRIPTION" height="691px" preserveAspectRatio="none" style="width:1282px;height:691px;background:#FFFFFF;" version="1.1" viewBox="0 0 1282 691" width="1282px" zoomAndPan="magnify"><title>C4-003 &#8212; Spatial B2A exact component map</title><defs/><g><g class="title" data-source-line="2"><text fill="#000000" font-family="Arial" font-size="14" font-weight="bold" lengthAdjust="spacing" textLength="350.1162" x="462.6919" y="22.9951">C4-003 &#8212; Spatial B2A exact component map</text></g><!--entity Page--><g class="entity" data-entity="Page" data-source-line="8" data-uid="ent0002" id="entity_Page"><rect fill="#F1F1F1" height="68.8906" rx="2.5" ry="2.5" style="stroke:#181818;stroke-width:0.5;" width="218.8369" x="696" y="49.2969"/><text fill="#000000" font-family="Arial" font-size="14" font-style="italic" lengthAdjust="spacing" textLength="98.4102" x="756.2134" y="72.292">&#171;Component&#187;</text><text fill="#000000" font-family="Arial" font-size="14" lengthAdjust="spacing" textLength="111.8633" x="706" y="88.5889">WorkspacePage</text><text fill="#000000" font-family="Arial" font-size="14" lengthAdjust="spacing" textLength="198.8369" x="706" y="104.8857">createSpatialSourceRequest</text></g><!--entity Shell--><g class="entity" data-entity="Shell" data-source-line="9" data-uid="ent0003" id="entity_Shell"><rect fill="#F1F1F1" height="68.8906" rx="2.5" ry="2.5" style="stroke:#181818;stroke-width:0.5;" width="214.7627" x="555" y="173.2969"/><text fill="#000000" font-family="Arial" font-size="14" font-style="italic" lengthAdjust="spacing" textLength="98.4102" x="613.1763" y="196.292">&#171;Component&#187;</text><text fill="#000000" font-family="Arial" font-size="14" lengthAdjust="spacing" textLength="111.4941" x="565" y="212.5889">WorkspaceShell</text><text fill="#000000" font-family="Arial" font-size="14" lengthAdjust="spacing" textLength="194.7627" x="565" y="228.8857">selection and analysis state</text></g><!--entity Map--><g class="entity" data-entity="Map" data-source-line="10" data-uid="ent0004" id="entity_Map"><rect fill="#F1F1F1" height="68.8906" rx="2.5" ry="2.5" style="stroke:#181818;stroke-width:0.5;" width="227.5527" x="548.5" y="297.2969"/><text fill="#000000" font-family="Arial" font-size="14" font-style="italic" lengthAdjust="spacing" textLength="98.4102" x="613.0713" y="320.292">&#171;Component&#187;</text><text fill="#000000" font-family="Arial" font-size="14" lengthAdjust="spacing" textLength="147.417" x="558.5" y="336.5889">MapWorkspaceClient</text><text fill="#000000" font-family="Arial" font-size="14" lengthAdjust="spacing" textLength="207.5527" x="558.5" y="352.8857">map sources, layers, visibility</text></g><!--entity SourceMode--><g class="entity" data-entity="SourceMode" data-source-line="11" data-uid="ent0005" id="entity_SourceMode"><rect fill="#F1F1F1" height="68.8906" rx="2.5" ry="2.5" style="stroke:#181818;stroke-width:0.5;" width="199.252" x="788" y="173.2969"/><text fill="#000000" font-family="Arial" font-size="14" font-style="italic" lengthAdjust="spacing" textLength="98.4102" x="838.4209" y="196.292">&#171;Component&#187;</text><text fill="#000000" font-family="Arial" font-size="14" lengthAdjust="spacing" textLength="108.7871" x="798" y="212.5889">source-mode.ts</text><text fill="#000000" font-family="Arial" font-size="14" lengthAdjust="spacing" textLength="179.252" x="798" y="228.8857">runtime/request approval</text></g><!--entity Bundle--><g class="entity" data-entity="Bundle" data-source-line="12" data-uid="ent0006" id="entity_Bundle"><rect fill="#F1F1F1" height="68.8906" rx="2.5" ry="2.5" style="stroke:#181818;stroke-width:0.5;" width="203.1621" x="6" y="527.2969"/><text fill="#000000" font-family="Arial" font-size="14" font-style="italic" lengthAdjust="spacing" textLength="98.4102" x="58.376" y="550.292">&#171;Component&#187;</text><text fill="#000000" font-family="Arial" font-size="14" lengthAdjust="spacing" textLength="114.5977" x="16" y="566.5889">bundle-loader.ts</text><text fill="#000000" font-family="Arial" font-size="14" lengthAdjust="spacing" textLength="183.1621" x="16" y="582.8857">controlled non-real fixture</text></g><!--entity Activation--><g class="entity" data-entity="Activation" data-source-line="13" data-uid="ent0007" id="entity_Activation"><rect fill="#F1F1F1" height="68.8906" rx="2.5" ry="2.5" style="stroke:#181818;stroke-width:0.5;" width="168.3945" x="424.5" y="421.2969"/><text fill="#000000" font-family="Arial" font-size="14" font-style="italic" lengthAdjust="spacing" textLength="98.4102" x="459.4922" y="444.292">&#171;Component&#187;</text><text fill="#000000" font-family="Arial" font-size="14" lengthAdjust="spacing" textLength="148.3945" x="434.5" y="460.5889">activation-resolver.ts</text><text fill="#000000" font-family="Arial" font-size="14" lengthAdjust="spacing" textLength="146.4736" x="434.5" y="476.8857">fail-closed + fallback</text></g><!--entity Catalogue--><g class="entity" data-entity="Catalogue" data-source-line="14" data-uid="ent0008" id="entity_Catalogue"><rect fill="#F1F1F1" height="68.8906" rx="2.5" ry="2.5" style="stroke:#181818;stroke-width:0.5;" width="178.9424" x="227" y="527.2969"/><text fill="#000000" font-family="Arial" font-size="14" font-style="italic" lengthAdjust="spacing" textLength="98.4102" x="267.2661" y="550.292">&#171;Component&#187;</text><text fill="#000000" font-family="Arial" font-size="14" lengthAdjust="spacing" textLength="126.5811" x="237" y="566.5889">layer-catalogue.ts</text><text fill="#000000" font-family="Arial" font-size="14" lengthAdjust="spacing" textLength="158.9424" x="237" y="582.8857">layer/source metadata</text></g><!--entity Adapter--><g class="entity" data-entity="Adapter" data-source-line="15" data-uid="ent0009" id="entity_Adapter"><rect fill="#F1F1F1" height="68.8906" rx="2.5" ry="2.5" style="stroke:#181818;stroke-width:0.5;" width="186.0313" x="781.5" y="421.2969"/><text fill="#000000" font-family="Arial" font-size="14" font-style="italic" lengthAdjust="spacing" textLength="98.4102" x="825.3105" y="444.292">&#171;Component&#187;</text><text fill="#000000" font-family="Arial" font-size="14" lengthAdjust="spacing" textLength="148.3535" x="791.5" y="460.5889">map-layer-adapter.ts</text><text fill="#000000" font-family="Arial" font-size="14" lengthAdjust="spacing" textLength="166.0313" x="791.5" y="476.8857">feature &#8594; map + target</text></g><!--entity Lineage--><g class="entity" data-entity="Lineage" data-source-line="16" data-uid="ent0010" id="entity_Lineage"><rect fill="#F1F1F1" height="68.8906" rx="2.5" ry="2.5" style="stroke:#181818;stroke-width:0.5;" width="176.7891" x="905" y="527.2969"/><text fill="#000000" font-family="Arial" font-size="14" font-style="italic" lengthAdjust="spacing" textLength="98.4102" x="944.1895" y="550.292">&#171;Component&#187;</text><text fill="#000000" font-family="Arial" font-size="14" lengthAdjust="spacing" textLength="136.5547" x="915" y="566.5889">selection-lineage.ts</text><text fill="#000000" font-family="Arial" font-size="14" lengthAdjust="spacing" textLength="156.7891" x="915" y="582.8857">identity + provenance</text></g><!--entity Attribution--><g class="entity" data-entity="Attribution" data-source-line="17" data-uid="ent0011" id="entity_Attribution"><rect fill="#F1F1F1" height="68.8906" rx="2.5" ry="2.5" style="stroke:#181818;stroke-width:0.5;" width="194.3779" x="1007.5" y="421.2969"/><text fill="#000000" font-family="Arial" font-size="14" font-style="italic" lengthAdjust="spacing" textLength="98.4102" x="1055.4839" y="444.292">&#171;Component&#187;</text><text fill="#000000" font-family="Arial" font-size="14" lengthAdjust="spacing" textLength="91.0137" x="1017.5" y="460.5889">attribution.ts</text><text fill="#000000" font-family="Arial" font-size="14" lengthAdjust="spacing" textLength="174.3779" x="1017.5" y="476.8857">visible-layer aggregation</text></g><!--entity AttributionUI--><g class="entity" data-entity="AttributionUI" data-source-line="18" data-uid="ent0012" id="entity_AttributionUI"><rect fill="#F1F1F1" height="52.5938" rx="2.5" ry="2.5" style="stroke:#181818;stroke-width:0.5;" width="176.4063" x="1100.5" y="535.2969"/><text fill="#000000" font-family="Arial" font-size="14" font-style="italic" lengthAdjust="spacing" textLength="98.4102" x="1139.498" y="558.292">&#171;Component&#187;</text><text fill="#000000" font-family="Arial" font-size="14" lengthAdjust="spacing" textLength="156.4063" x="1110.5" y="574.5889">SpatialDataAttribution</text></g><!--entity LineageUI--><g class="entity" data-entity="LineageUI" data-source-line="19" data-uid="ent0013" id="entity_LineageUI"><rect fill="#F1F1F1" height="52.5938" rx="2.5" ry="2.5" style="stroke:#181818;stroke-width:0.5;" width="222.7813" x="882" y="633.2969"/><text fill="#000000" font-family="Arial" font-size="14" font-style="italic" lengthAdjust="spacing" textLength="98.4102" x="944.1855" y="656.292">&#171;Component&#187;</text><text fill="#000000" font-family="Arial" font-size="14" lengthAdjust="spacing" textLength="202.7813" x="892" y="672.5889">SpatialSourceLineageDrawer</text></g><g class="entity" data-entity="GMN26" data-source-line="35" data-uid="ent0027" id="entity_GMN26"><path d="M424.5,534.2969 L424.5,589.6953 A0,0 0 0 0 424.5,589.6953 L886.9287,589.6953 A0,0 0 0 0 886.9287,589.6953 L886.9287,544.2969 L876.9287,534.2969 L621.7796,534.2969 L556.2267,490.5627 L613.7796,534.2969 L424.5,534.2969 A0,0 0 0 0 424.5,534.2969" fill="#FEFFDD" style="stroke:#181818;stroke-width:0.5;"/><path d="M876.9287,534.2969 L876.9287,544.2969 L886.9287,544.2969 L876.9287,534.2969" fill="#FEFFDD" style="stroke:#181818;stroke-width:0.5;"/><text fill="#000000" font-family="Arial" font-size="13" lengthAdjust="spacing" textLength="281.144" x="430.5" y="551.3638">Production accepts synthetic_fallback only.</text><text fill="#000000" font-family="Arial" font-size="13" lengthAdjust="spacing" textLength="375.7241" x="430.5" y="566.4966">Preview may activate only the controlled non-real fixture.</text><text fill="#000000" font-family="Arial" font-size="13" lengthAdjust="spacing" textLength="441.4287" x="430.5" y="581.6294">Missing, invalid, unapproved or mismatched inputs fall back closed.</text></g><g class="link" data-entity-1="Page" data-entity-2="SourceMode" data-uid="lnk14" id="link_Page_SourceMode"><polygon fill="#181818" points="867.8335,173.0088,866.6117,163.236,865.2516,168.7269,859.7607,167.3669,867.8335,173.0088" style="stroke:#181818;stroke-width:1;"/><path d="M831.7947,118.5174 C836.1408,124.3725 840.5226,130.457 844.5,136.2969 C852.4897,148.0277 857.6324,156.0906 864.7353,167.8705" fill="none" style="stroke:#181818;stroke-width:1;"/></g><g class="link" data-entity-1="Page" data-entity-2="Shell" data-uid="lnk15" id="link_Page_Shell"><polygon fill="#181818" points="671.7214,172.9564,678.6481,165.955,673.4912,168.2802,671.1661,163.1233,671.7214,172.9564" style="stroke:#181818;stroke-width:1;"/><path d="M715.8727,118.4425 C707.7443,123.6554 700.1027,129.5828 693.5,136.2969 C683.5624,146.402 678.6634,154.6144 673.8452,167.3449" fill="none" style="stroke:#181818;stroke-width:1;"/><text fill="#000000" font-family="Arial" font-size="13" lengthAdjust="spacing" textLength="143.0825" x="695.5" y="150.3638">SpatialSourceRequest</text></g><g class="link" data-entity-1="Shell" data-entity-2="Map" data-uid="lnk16" id="link_Shell_Map"><polygon fill="#181818" points="662.5,297.2467,666.5,288.2467,662.5,292.2467,658.5,288.2467,662.5,297.2467" style="stroke:#181818;stroke-width:1;"/><path d="M662.5,242.4569 C662.5,259.5251 662.5,274.194 662.5,291.2467" fill="none" style="stroke:#181818;stroke-width:1;"/><text fill="#000000" font-family="Arial" font-size="13" lengthAdjust="spacing" textLength="191.4263" x="664.5" y="274.3638">selection callbacks + request</text></g><g class="link" data-entity-1="Map" data-entity-2="Bundle" data-uid="lnk17" id="link_Map_Bundle"><polygon fill="#181818" points="135.5791,527.2463,144.5625,523.2092,138.9143,523.5212,138.6024,517.8729,135.5791,527.2463" style="stroke:#181818;stroke-width:1;"/><path d="M548.4955,342.5157 C465.71,353.1905 352.9916,375.3932 263.5,421.2969 C212.0988,447.6625 168.3716,490.6201 139.5813,522.7761" fill="none" style="stroke:#181818;stroke-width:1;"/><text fill="#000000" font-family="Arial" font-size="13" lengthAdjust="spacing" textLength="148.1353" x="265.5" y="460.3638">load static_test_fixture</text></g><g class="link" data-entity-1="Map" data-entity-2="Activation" data-uid="lnk18" id="link_Map_Activation"><polygon fill="#181818" points="550.8502,421.2467,560.3886,418.7934,554.7694,418.1419,555.4209,412.5227,550.8502,421.2467" style="stroke:#181818;stroke-width:1;"/><path d="M620.0112,366.4569 C598.466,383.5251 577.0788,400.4682 555.5532,417.521" fill="none" style="stroke:#181818;stroke-width:1;"/><text fill="#000000" font-family="Arial" font-size="13" lengthAdjust="spacing" textLength="157.4409" x="597.5" y="398.3638">resolveSpatialActivation</text></g><g class="link" data-entity-1="Activation" data-entity-2="Catalogue" data-uid="lnk19" id="link_Activation_Catalogue"><polygon fill="#181818" points="378.3581,527.2904,388.1768,526.521,382.7545,524.909,384.3666,519.4867,378.3581,527.2904" style="stroke:#181818;stroke-width:1;"/><path d="M446.4283,490.4191 C424.6255,502.2289 405.419,512.6324 383.6338,524.4327" fill="none" style="stroke:#181818;stroke-width:1;"/></g><g class="link" data-entity-1="Activation" data-entity-2="Bundle" data-uid="lnk20" id="link_Activation_Bundle"><polygon fill="#181818" points="209.0263,529.6435,218.7721,531.0643,213.8405,528.2932,216.6116,523.3616,209.0263,529.6435" style="stroke:#181818;stroke-width:1;"/><path d="M424.4402,475.8026 C366.1421,489.3155 286.8257,508.3599 217.5,527.2969 C214.7076,528.0596 217.6558,527.2231 214.8033,528.0231" fill="none" style="stroke:#181818;stroke-width:1;"/></g><g class="link" data-entity-1="Map" data-entity-2="Adapter" data-uid="lnk21" id="link_Map_Adapter"><polygon fill="#181818" points="821.8931,421.1985,816.3743,413.0411,817.6509,418.552,812.14,419.8286,821.8931,421.1985" style="stroke:#181818;stroke-width:1;"/><path d="M727.949,366.377 C738.8891,372.2222 750.0684,378.34 760.5,384.2969 C780.8089,395.894 797.6509,406.0751 816.8025,418.0227" fill="none" style="stroke:#181818;stroke-width:1;"/><text fill="#000000" font-family="Arial" font-size="13" lengthAdjust="spacing" textLength="143.5332" x="794.5" y="398.3638">controlled fixture only</text></g><g class="link" data-entity-1="Adapter" data-entity-2="Lineage" data-uid="lnk22" id="link_Adapter_Lineage"><polygon fill="#181818" points="955.058,527.2005,950.9135,518.2661,951.2931,523.9102,945.649,524.2898,955.058,527.2005" style="stroke:#181818;stroke-width:1;"/><path d="M913.1359,490.5627 C926.5733,502.3063 937.1185,511.5223 950.5401,523.2521" fill="none" style="stroke:#181818;stroke-width:1;"/></g><g class="link" data-entity-1="Map" data-entity-2="Attribution" data-uid="lnk23" id="link_Map_Attribution"><polygon fill="#181818" points="1037.2756,421.2035,1030.7763,413.8035,1032.7347,419.1106,1027.4277,421.069,1037.2756,421.2035" style="stroke:#181818;stroke-width:1;"/><path d="M776.736,347.5901 C828.3384,355.8332 889.6717,367.8226 943.5,384.2969 C975.1579,393.9858 1003.4522,405.6143 1031.8265,418.692" fill="none" style="stroke:#181818;stroke-width:1;"/><text fill="#000000" font-family="Arial" font-size="13" lengthAdjust="spacing" textLength="163.1982" x="995.5" y="398.3638">visible source/layer state</text></g><g class="link" data-entity-1="Attribution" data-entity-2="AttributionUI" data-uid="lnk24" id="link_Attribution_AttributionUI"><polygon fill="#181818" points="1167.7511,535.1078,1165.2078,525.593,1164.6094,531.2181,1158.9843,530.6197,1167.7511,535.1078" style="stroke:#181818;stroke-width:1;"/><path d="M1131.7724,490.5627 C1143.4613,505.0346 1153.1227,516.9964 1163.9811,530.4401" fill="none" style="stroke:#181818;stroke-width:1;"/></g><g class="link" data-entity-1="Lineage" data-entity-2="LineageUI" data-uid="lnk25" id="link_Lineage_LineageUI"><polygon fill="#181818" points="993.5,633.2597,997.5,624.2597,993.5,628.2597,989.5,624.2597,993.5,633.2597" style="stroke:#181818;stroke-width:1;"/><path d="M993.5,596.373 C993.5,608.4846 993.5,615.9469 993.5,627.2597" fill="none" style="stroke:#181818;stroke-width:1;"/></g><!--SRC=[XLLDQnin4BthLqpJOxDEQ7io8U0u109D2JMX5qCOQyTh4QsqbRHEVEkfFw3q5-QNTFHXUqdZr62CfJTFJpDlHkywXqsBe75Z-m2-fO06HL114qm_LwUdd-3vvn-OTHWKQhZuE05wGXb0shQpXao05ZlX7vJfq64B2vGFZREzgQTMMmVlhz9dWF0hhEsZCWqiKNiQxEmuPs73vpkIhARHGqXDI-nrkB8cVCMMOE9ObX1xDKVVhNlm7KgwnORcHZh2G4N_pFPEqZVwqPCFHu0U8WZEpgRR-FFpLxbcAz9wRZnfrgIi0JGrVr5llFBW0n-Hw1BkCDyDTZlAgLQyDZUSFl19bp-ETI37lslbrK9f5JQ9bkCEa-RWghKrZOAV6zURe5ewSVcQW5tdx1fr5fZ0DumzJBZWuccgjCMQNAAKd6vdjQOQZ3KLfrJ3KZs5tkLhNwI8muni6BN6c3YEzLQl2-yIbQwajfw9FqGxw6YVH3dPXHocJTcg90RKjkdpxTFQISu9H3lNl9qOfrlSOKAkHPL9EQmBMvNi8BufFF_w7StEIWEwXhA19XduHdcsdgcqCiHsIvogvaqkBvF5wf118tCklsJK6yaCmQb57oaJLV9Ah5SK3jWqZfgKkAnlZpvCMThZaZCqmB-Clxl-BqEsLxd2fSD7SiDB_SCWKlzLrVd0c8Err4rZUArxHTwCiDWTOzZtfYm-yfpSqWGYOYAsE7KCqTsfSPMy3uouBtxU8GS674DnRH6otn83L0pQUUpbHZvtJrvSCuP1QnK5O8tUY2qYealszj63cewXrByCaPDiWpIIn13u8l3kMcoTDZY2LuMnWM1XGx0jsEKW3-BMsRelyqzAwWAFleq9Auf9t7PlaZzYBAqLFNB3RA2qVxuPC1xU62WZSQEyv-VX69JXiQNgO-XD7c8CvoUbLRx585VyZv-5dbN4izFB0tcOZ0IPo1peBm00]--></g></svg>