<svg xmlns="http://www.w3.org/2000/svg" xmlns:xlink="http://www.w3.org/1999/xlink" contentStyleType="text/css" data-diagram-type="DESCRIPTION" height="609px" preserveAspectRatio="none" style="width:1056px;height:609px;background:#FFFFFF;" version="1.1" viewBox="0 0 1056 609" width="1056px" zoomAndPan="magnify"><title>DATA-LINEAGE-001 &#8212; Spatial evidence identity, lineage and attribution</title><defs/><g><g class="title" data-source-line="2"><text fill="#000000" font-family="Arial" font-size="14" font-weight="bold" lengthAdjust="spacing" textLength="565.0586" x="241.7207" y="22.9951">DATA-LINEAGE-001 &#8212; Spatial evidence identity, lineage and attribution</text></g><!--entity Registry--><g class="entity" data-entity="Registry" data-source-line="7" data-uid="ent0002" id="entity_Registry"><rect fill="#F1F1F1" height="52.5938" rx="2.5" ry="2.5" style="stroke:#181818;stroke-width:0.5;" width="229.665" x="213.5" y="49.2969"/><text fill="#000000" font-family="Arial" font-size="14" lengthAdjust="spacing" textLength="156.5361" x="223.5" y="72.292">Source registry record</text><text fill="#000000" font-family="Arial" font-size="14" lengthAdjust="spacing" textLength="209.665" x="223.5" y="88.5889">sourceId + terms + readiness</text></g><!--entity Dataset--><g class="entity" data-entity="Dataset" data-source-line="8" data-uid="ent0003" id="entity_Dataset"><rect fill="#F1F1F1" height="52.5938" rx="2.5" ry="2.5" style="stroke:#181818;stroke-width:0.5;" width="249.2773" x="204" y="139.2969"/><text fill="#000000" font-family="Arial" font-size="14" lengthAdjust="spacing" textLength="110.5508" x="214" y="162.292">Dataset version</text><text fill="#000000" font-family="Arial" font-size="14" lengthAdjust="spacing" textLength="229.2773" x="214" y="178.5889">datasetId + version + checksum</text></g><!--entity Feature--><g class="entity" data-entity="Feature" data-source-line="9" data-uid="ent0004" id="entity_Feature"><rect fill="#F1F1F1" height="68.8906" rx="2.5" ry="2.5" style="stroke:#181818;stroke-width:0.5;" width="243.5625" x="307.5" y="229.2969"/><text fill="#000000" font-family="Arial" font-size="14" lengthAdjust="spacing" textLength="122.7666" x="317.5" y="252.292">Feature envelope</text><text fill="#000000" font-family="Arial" font-size="14" lengthAdjust="spacing" textLength="213.1309" x="317.5" y="268.5889">featureKey + source aliases +</text><text fill="#000000" font-family="Arial" font-size="14" lengthAdjust="spacing" textLength="223.5625" x="317.5" y="284.8857">provenance + geometry quality</text></g><!--entity Layer--><g class="entity" data-entity="Layer" data-source-line="10" data-uid="ent0005" id="entity_Layer"><rect fill="#F1F1F1" height="68.8906" rx="2.5" ry="2.5" style="stroke:#181818;stroke-width:0.5;" width="237.6836" x="51.5" y="229.2969"/><text fill="#000000" font-family="Arial" font-size="14" lengthAdjust="spacing" textLength="112.6563" x="61.5" y="252.292">Layer catalogue</text><text fill="#000000" font-family="Arial" font-size="14" lengthAdjust="spacing" textLength="217.6836" x="61.5" y="268.5889">layerKey + fallbackLayerKey +</text><text fill="#000000" font-family="Arial" font-size="14" lengthAdjust="spacing" textLength="198.3857" x="61.5" y="284.8857">attributionIds + reviewState</text></g><!--entity Activation--><g class="entity" data-entity="Activation" data-source-line="11" data-uid="ent0006" id="entity_Activation"><rect fill="#F1F1F1" height="52.5938" rx="2.5" ry="2.5" style="stroke:#181818;stroke-width:0.5;" width="247.7529" x="305.5" y="353.2969"/><text fill="#000000" font-family="Arial" font-size="14" lengthAdjust="spacing" textLength="114.7002" x="315.5" y="376.292">Activation result</text><text fill="#000000" font-family="Arial" font-size="14" lengthAdjust="spacing" textLength="227.7529" x="315.5" y="392.5889">effective source/layers + reason</text></g><!--entity MapFeature--><g class="entity" data-entity="MapFeature" data-source-line="12" data-uid="ent0007" id="entity_MapFeature"><rect fill="#F1F1F1" height="52.5938" rx="2.5" ry="2.5" style="stroke:#181818;stroke-width:0.5;" width="240.0488" x="452.5" y="461.2969"/><text fill="#000000" font-family="Arial" font-size="14" lengthAdjust="spacing" textLength="202.4121" x="462.5" y="484.292">Map feature / analysis target</text><text fill="#000000" font-family="Arial" font-size="14" lengthAdjust="spacing" textLength="220.0488" x="462.5" y="500.5889">status labels + dataset identity</text></g><!--entity Selection--><g class="entity" data-entity="Selection" data-source-line="13" data-uid="ent0008" id="entity_Selection"><rect fill="#F1F1F1" height="52.5938" rx="2.5" ry="2.5" style="stroke:#181818;stroke-width:0.5;" width="280.9346" x="6" y="353.2969"/><text fill="#000000" font-family="Arial" font-size="14" lengthAdjust="spacing" textLength="120.3125" x="16" y="376.292">Selection lineage</text><text fill="#000000" font-family="Arial" font-size="14" lengthAdjust="spacing" textLength="260.9346" x="16" y="392.5889">providerFeatureId != sourceRecordId</text></g><!--entity Attribution--><g class="entity" data-entity="Attribution" data-source-line="14" data-uid="ent0009" id="entity_Attribution"><rect fill="#F1F1F1" height="52.5938" rx="2.5" ry="2.5" style="stroke:#181818;stroke-width:0.5;" width="258.7588" x="175" y="461.2969"/><text fill="#000000" font-family="Arial" font-size="14" lengthAdjust="spacing" textLength="184.3926" x="185" y="484.292">Visible attribution payload</text><text fill="#000000" font-family="Arial" font-size="14" lengthAdjust="spacing" textLength="238.7588" x="185" y="500.5889">only visible layer/provider records</text></g><!--entity Evidence--><g class="entity" data-entity="Evidence" data-source-line="15" data-uid="ent0010" id="entity_Evidence"><rect fill="#F1F1F1" height="52.5938" rx="2.5" ry="2.5" style="stroke:#181818;stroke-width:0.5;" width="202.9775" x="203" y="551.2969"/><text fill="#000000" font-family="Arial" font-size="14" lengthAdjust="spacing" textLength="182.2871" x="213" y="574.292">Analysis / report evidence</text><text fill="#000000" font-family="Arial" font-size="14" lengthAdjust="spacing" textLength="182.9775" x="213" y="590.5889">source snapshot + caveat</text></g><g class="entity" data-entity="GMN23" data-source-line="31" data-uid="ent0024" id="entity_GMN23"><path d="M571.5,359.7969 L571.5,400.0625 A0,0 0 0 0 571.5,400.0625 L1049.3853,400.0625 A0,0 0 0 0 1049.3853,400.0625 L1049.3853,369.7969 L1039.3853,359.7969 L761.6818,359.7969 L551.5208,295.2368 L753.6818,359.7969 L571.5,359.7969 A0,0 0 0 0 571.5,359.7969" fill="#FEFFDD" style="stroke:#181818;stroke-width:0.5;"/><path d="M1039.3853,359.7969 L1039.3853,369.7969 L1049.3853,369.7969 L1039.3853,359.7969" fill="#FEFFDD" style="stroke:#181818;stroke-width:0.5;"/><text fill="#000000" font-family="Arial" font-size="13" lengthAdjust="spacing" textLength="365.9932" x="577.5" y="376.8638">Controlled B2A fixture has invented, non-real geometry.</text><text fill="#000000" font-family="Arial" font-size="13" lengthAdjust="spacing" textLength="456.8853" x="577.5" y="391.9966">No OSM/Overture provider geometry is inferred from attribution tests.</text></g><g class="link" data-entity-1="Registry" data-entity-2="Dataset" data-uid="lnk11" id="link_Registry_Dataset"><polygon fill="#181818" points="328.5,139.0552,332.5,130.0552,328.5,134.0552,324.5,130.0552,328.5,139.0552" style="stroke:#181818;stroke-width:1;"/><path d="M328.5,102.7238 C328.5,114.1818 328.5,121.6188 328.5,133.0552" fill="none" style="stroke:#181818;stroke-width:1;"/></g><g class="link" data-entity-1="Dataset" data-entity-2="Feature" data-uid="lnk12" id="link_Dataset_Feature"><polygon fill="#181818" points="393.991,229.0458,390.2234,219.9461,390.3669,225.6011,384.7119,225.7446,393.991,229.0458" style="stroke:#181818;stroke-width:1;"/><path d="M355.5661,192.5231 C367.3695,203.7421 377.0185,212.9135 389.6421,224.9122" fill="none" style="stroke:#181818;stroke-width:1;"/></g><g class="link" data-entity-1="Dataset" data-entity-2="Layer" data-uid="lnk13" id="link_Dataset_Layer"><polygon fill="#181818" points="225.7555,229.2239,235.5241,227.969,230.0286,226.6276,231.37,221.1321,225.7555,229.2239" style="stroke:#181818;stroke-width:1;"/><path d="M286.1589,192.5231 C267.6028,203.7977 250.7073,214.0633 230.8832,226.1083" fill="none" style="stroke:#181818;stroke-width:1;"/></g><g class="link" data-entity-1="Feature" data-entity-2="Activation" data-uid="lnk14" id="link_Feature_Activation"><polygon fill="#181818" points="429.5,353.0442,433.5,344.0442,429.5,348.0442,425.5,344.0442,429.5,353.0442" style="stroke:#181818;stroke-width:1;"/><path d="M429.5,298.384 C429.5,315.8544 429.5,330.8764 429.5,347.0442" fill="none" style="stroke:#181818;stroke-width:1;"/><text fill="#000000" font-family="Arial" font-size="13" lengthAdjust="spacing" textLength="189.5347" x="431.5" y="330.3638">bundle availability/checksum</text></g><g class="link" data-entity-1="Layer" data-entity-2="Activation" data-uid="lnk15" id="link_Layer_Activation"><polygon fill="#181818" points="340.3373,353.2586,333.1008,346.5778,335.6027,351.6513,330.5292,354.1532,340.3373,353.2586" style="stroke:#181818;stroke-width:1;"/><path d="M223.4107,298.3899 C244.6708,311.0132 269.7374,324.827 293.5,335.2969 C308.3588,341.8437 318.8356,345.9594 334.6558,351.3299" fill="none" style="stroke:#181818;stroke-width:1;"/><text fill="#000000" font-family="Arial" font-size="13" lengthAdjust="spacing" textLength="128.7813" x="295.5" y="330.3638">eligibility + fallback</text></g><g class="link" data-entity-1="Activation" data-entity-2="MapFeature" data-uid="lnk16" id="link_Activation_MapFeature"><polygon fill="#181818" points="557.5624,461.2486,555.9157,451.5384,554.7964,457.0834,549.2514,455.964,557.5624,461.2486" style="stroke:#181818;stroke-width:1;"/><path d="M497.3382,406.3034 C507.2733,411.4932 517.0053,417.4872 525.5,424.2969 C538.2116,434.4868 546.014,443.8583 554.2432,456.2503" fill="none" style="stroke:#181818;stroke-width:1;"/><text fill="#000000" font-family="Arial" font-size="13" lengthAdjust="spacing" textLength="143.8125" x="546.5" y="438.3638">activated feature only</text></g><g class="link" data-entity-1="Feature" data-entity-2="Selection" data-uid="lnk17" id="link_Feature_Selection"><polygon fill="#181818" points="286.0964,353.2543,295.7088,355.3995,290.9981,352.2676,294.1301,347.5569,286.0964,353.2543" style="stroke:#181818;stroke-width:1;"/><path d="M402.9935,298.6237 C390.8175,311.9823 375.3405,326.2684 358.5,335.2969 C350.8424,339.4022 326.9224,345.036 291.9784,352.0702" fill="none" style="stroke:#181818;stroke-width:1;"/></g><g class="link" data-entity-1="Layer" data-entity-2="Selection" data-uid="lnk18" id="link_Layer_Selection"><polygon fill="#181818" points="151.9216,353.0442,157.6899,345.0613,152.9517,348.1515,149.8615,343.4132,151.9216,353.0442" style="stroke:#181818;stroke-width:1;"/><path d="M163.429,298.384 C159.751,315.8544 156.5614,331.0051 153.1577,347.1729" fill="none" style="stroke:#181818;stroke-width:1;"/></g><g class="link" data-entity-1="MapFeature" data-entity-2="Evidence" data-uid="lnk19" id="link_MapFeature_Evidence"><polygon fill="#181818" points="382.5709,551.1616,392.3697,552.1543,387.3214,549.6018,389.8739,544.5535,382.5709,551.1616" style="stroke:#181818;stroke-width:1;"/><path d="M494.6233,514.3683 C459.3867,525.9385 423.5312,537.712 388.2715,549.2898" fill="none" style="stroke:#181818;stroke-width:1;"/></g><g class="link" data-entity-1="Selection" data-entity-2="Evidence" data-uid="lnk20" id="link_Selection_Evidence"><polygon fill="#181818" points="212.5461,551.2102,206.2685,543.6213,208.0691,548.9839,202.7064,550.7845,212.5461,551.2102" style="stroke:#181818;stroke-width:1;"/><path d="M143.292,406.3935 C141.0705,435.4766 141.9314,482.9574 165.5,514.2969 C177.5069,530.2626 189.1492,539.5756 207.1737,548.5387" fill="none" style="stroke:#181818;stroke-width:1;"/></g><g class="link" data-entity-1="Activation" data-entity-2="Attribution" data-uid="lnk21" id="link_Activation_Attribution"><polygon fill="#181818" points="334.9136,461.0061,344.3649,458.236,338.7271,457.7723,339.1908,452.1345,334.9136,461.0061" style="stroke:#181818;stroke-width:1;"/><path d="M399.241,406.4565 C379.7324,422.9998 359.0287,440.5565 339.4898,457.1256" fill="none" style="stroke:#181818;stroke-width:1;"/><text fill="#000000" font-family="Arial" font-size="13" lengthAdjust="spacing" textLength="143.7427" x="380.5" y="438.3638">active + visible layers</text></g><g class="link" data-entity-1="Attribution" data-entity-2="Evidence" data-uid="lnk22" id="link_Attribution_Evidence"><polygon fill="#181818" points="304.5,551.0552,308.5,542.0552,304.5,546.0552,300.5,542.0552,304.5,551.0552" style="stroke:#181818;stroke-width:1;"/><path d="M304.5,514.7238 C304.5,526.1818 304.5,533.6188 304.5,545.0552" fill="none" style="stroke:#181818;stroke-width:1;"/></g><!--SRC=[RLJ1Rjim3BtxAzZksARfTXom0LwR3i7I56Y6dN9XRDeHAakU9BlpRH-nBzoNZ99bHzdcYmsQV7nyVD95Qx1k42GEkdDW6tAeC7F2IOBx_6k-sAotg_ppQd5x-nP-__m5knQTG0dKYv9KGU1Vd3zSWnIAi2P0LG8wPyIXSqAhpBu8rQB11WvOlDH6Twgyqr8RUFCGdYJ37h7KhqBLKA6qbFmfgS9EkWUjt1ORWjmmZImpL33bckbUxdHdc92XMbXd1luej2dtoeRukeGhS6GQosz3M39RQoy1BJp7YXJi7XrQSj2JiJp4NfLZ8C3487yLHofURDS4d5YJmZmGkiuGaEf9wfRsgXeZNsZWyf4Qe1HSoCJsgZMw9uLUsIkeIVD6U9Jl7QUu8NI9a6cN3GvaeE3sKjSTDv4-CBPW7QNNVJE7zYhPpheSzUW5lUuSEWezGdBQ8I-SwD4NSAxbFUmLLHNvACKfbg5fLDTg5O1ETIdQ8xOGTO0b-mNbO8K5XwOcHhRCexDioWD9ZnUbdwqMa1dZFqhiI7fIJ3EwSLIKAqtCvWLUV8YKduD3rcK0d4jJl6_2YWD_98f1YuFKoCRIIWxGnumm_N9g5iqt-YjF3aEgwJJtahDRRTnyg2RFWbNOsgDstcdOym01RnNJicnoBYmM7sVxJTRriKcYD3OkTtAcZoJRVGy7Ffv-uXu5Rq1utoqdcsUZq_wf8IbgCUOcbikI75zoMXcNuFYFoja9NiupMgUDdDgUOWcQ_p6BShB0MVWlBibE9ZB-n9rjqsPfrXbQfhGZE6ZdT0EwcdM-u-l9Q2bvh4_lSgZ4Zq3mo5iJV0KedlSQs3WBFYDoFjytsLR3q-vn-SGtIoYOVJHV0S8ZL6ICLynmrzIIZgopDndnpUk9_G40]--></g></svg>