<svg xmlns="http://www.w3.org/2000/svg" xmlns:xlink="http://www.w3.org/1999/xlink" contentStyleType="text/css" data-diagram-type="DESCRIPTION" height="743px" preserveAspectRatio="none" style="width:1656px;height:743px;background:#FFFFFF;" version="1.1" viewBox="0 0 1656 743" width="1656px" zoomAndPan="magnify"><title>DEP-001 &#8212; Current deployment and data boundary</title><defs/><g><g class="title" data-source-line="2"><text fill="#000000" font-family="Arial" font-size="14" font-weight="bold" lengthAdjust="spacing" textLength="403.8672" x="550.0664" y="22.9951">DEP-001 &#8212; Current deployment and data boundary</text></g><!--cluster Browser--><g class="cluster" data-entity="Browser" data-source-line="7" data-uid="ent0002" id="cluster_Browser"><polygon fill="none" points="298,307.2969,308,297.2969,594,297.2969,594,558.2969,584,568.2969,298,568.2969,298,307.2969" style="stroke:#181818;stroke-width:1;"/><line style="stroke:#181818;stroke-width:1;" x1="584" x2="594" y1="307.2969" y2="297.2969"/><line style="stroke:#181818;stroke-width:1;" x1="298" x2="584" y1="307.2969" y2="307.2969"/><line style="stroke:#181818;stroke-width:1;" x1="584" x2="584" y1="307.2969" y2="568.2969"/><text fill="#000000" font-family="Arial" font-size="14" font-weight="bold" lengthAdjust="spacing" textLength="105.1846" x="389.4077" y="323.292">User browser</text></g><!--cluster Vercel--><g class="cluster" data-entity="Vercel" data-source-line="11" data-uid="ent0005" id="cluster_Vercel"><path d="M956.9176,442.2383 C971.9636,424.498 985.208,423.5127 999.7784,442.789 C1009.8267,425.5857 1027.3137,424.1095 1037.8543,442.2588 C1047.3629,425.1061 1064.4106,418.4541 1077.7884,438.0548 C1087.9138,421.4303 1102.3602,418.9308 1114.7253,435.5675 C1125.7001,417.2326 1141.6708,412.8015 1154.2651,433.9456 C1164.1564,413.7249 1181.318,414.9661 1192.1855,432.9774 C1202.8111,415.531 1218.5249,415.111 1229.1251,433.004 C1240.6523,417.6014 1259.8261,416.5485 1267.0949,437.4569 C1280.4669,415.7741 1293.0222,418.5942 1306.9082,436.9457 C1319.0419,418.8036 1334.2699,418.4114 1346.1761,437.1877 C1358.7688,420.8142 1372.9238,424.1498 1382.5508,440.4857 C1394.7476,418.6001 1412.8529,419.9139 1426.983,438.3557 C1437.7184,421.969 1452.7392,424.918 1460.9247,441.0196 C1477.7553,421.1971 1492.3215,422.3348 1505,445.2969 C1509.5395,444.3232 1512.0234,447.2735 1510.826,451.6013 C1526.7377,466.8098 1529.1718,481.3208 1506.9725,492.9801 C1528.6267,505.1463 1531.717,519.731 1510.5492,535.4995 C1529.4728,547.9658 1533.1989,560.4606 1516.2586,577.7709 C1531.7264,592.6519 1530.7982,607.4624 1512.0659,618.8532 C1530.2022,631.1292 1530.7896,650.7066 1508.0026,658.8224 C1530.4085,680.7159 1523.384,694.8675 1498,706.7969 C1501.8401,708.0837 1502.6569,710.6951 1499.7839,713.7134 C1489.0344,731.763 1470.4592,729.9865 1460.2294,713.1246 C1450.4181,729.0609 1432.5907,730.4502 1423.2443,712.6154 C1413.5443,731.5001 1398.3058,731.3269 1385.4076,716.17 C1373.3463,733.8485 1355.4438,731.2862 1346.7369,712.6026 C1334.6889,729.6429 1319.6323,729.434 1308.8534,711.2382 C1299.0486,734.1635 1282.265,735.3462 1267.7872,715.7514 C1254.1711,736.329 1241.5892,735.582 1229.0406,714.7525 C1218.8856,736.5501 1202.4411,733.4572 1190.0839,716.9948 C1175.8455,736.5922 1163.9875,731.6654 1151.5115,715.1143 C1142.6546,734.0912 1124.937,733.6206 1114.7619,716.4548 C1101.2402,731.6482 1084.2864,732.9141 1074.8125,711.9789 C1063.5709,728.9265 1046.5214,732.0281 1035.3094,711.9472 C1023.5013,729.5964 1010.8096,732.297 998.47,712.4697 C978.195,730.172 957.6068,727.6426 949,699.7969 C949.9418,698.7395 951.2425,699.036 951.6819,700.3622 C933.3721,687.4997 933.4183,674.6866 952.597,662.7358 C928.3455,652.684 927.7772,638.2742 945.7139,621.2267 C924.7047,608.9028 922.6118,585.3816 946.0565,573.376 C927.0398,562.3449 928.7152,544.1247 945.1193,532.2858 C928.1998,518.3342 928.7262,499.1486 949.6678,489.1935 C927.9814,471.3579 929.5478,450.1434 956,438.2969 C958.2276,438.9052 958.7223,440.6912 956.9176,442.2383" fill="none" style="stroke:#181818;stroke-width:1;"/><text fill="#000000" font-family="Arial" font-size="14" font-weight="bold" lengthAdjust="spacing" textLength="49.8271" x="1202.0864" y="456.292">Vercel</text></g><!--cluster Production--><g class="cluster" data-entity="Production" data-source-line="12" data-uid="ent0006" id="cluster_Production"><polygon fill="none" points="1175,467.2969,1185,457.2969,1505,457.2969,1505,696.7969,1495,706.7969,1175,706.7969,1175,467.2969" style="stroke:#181818;stroke-width:1;"/><line style="stroke:#181818;stroke-width:1;" x1="1495" x2="1505" y1="467.2969" y2="457.2969"/><line style="stroke:#181818;stroke-width:1;" x1="1175" x2="1495" y1="467.2969" y2="467.2969"/><line style="stroke:#181818;stroke-width:1;" x1="1495" x2="1495" y1="467.2969" y2="706.7969"/><text fill="#000000" font-family="Arial" font-size="14" font-weight="bold" lengthAdjust="spacing" textLength="134.7432" x="1268.6284" y="483.292">Production demo</text><text fill="#000000" font-family="Arial" font-size="14" font-weight="bold" lengthAdjust="spacing" textLength="186.8467" x="1242.5767" y="499.5889">Next.js Node.js runtime</text></g><!--cluster External--><g class="cluster" data-entity="External" data-source-line="18" data-uid="ent0010" id="cluster_External"><path d="M23.4831,616.9493 C33.9106,597.8105 50.2455,595.2143 63.4658,614.0055 C73.4412,595.2369 91.2547,594.7375 102.5148,612.6374 C118.8179,590.3691 135.8357,595.7671 146.4965,618.1901 C153.1697,601.3923 170.0159,595.1412 182.8161,611.4731 C195.62,597.6502 213.2315,598.0705 220.992,617.2985 C230.0863,594.4521 245.1515,592.3845 261.1933,610.4761 C273.4873,594.1184 293.0972,595.299 301.6211,614.7345 C310.9178,597.5295 328.9083,595.1385 339.8225,612.9709 C352.2742,596.4242 371.5281,596.2679 380.7689,616.5416 C390.616,599.4957 403.843,596.6907 417.9047,611.6516 C429.3557,592.7086 445.595,591.1116 456.3367,612.3303 C471.2459,591.7219 483.5819,595.5285 496.4341,614.4185 C511.57,596.4869 526.7312,595.9486 538.2459,618.1878 C549.9135,600.3229 561.8943,597.8177 576.7748,614.6165 C599.6298,623.8008 606.6545,640.7127 588.853,660.5805 C605.2361,679.6222 595.9899,693.588 575.7998,700.743 C563.2594,719.1568 547.281,713.0326 539.0959,696.2068 C529.3501,718.364 510.5456,718.1483 498.612,698.3162 C486.5921,719.0876 473.0769,718.0941 460.6869,698.6653 C447.4431,720.8608 433.2376,719.2405 417.502,701.3497 C405.9957,720.7257 387.3444,722.4887 376.973,700.2446 C366.147,720.6093 350.4602,719.7607 339.1462,700.7129 C326.2015,717.2618 313.4373,719.215 301.9308,699.2472 C292.3877,720.0813 273.5651,720.7386 261.1735,702.1955 C248.612,720.0787 229.9386,716.9602 221.7092,697.6045 C208.5358,719.1351 196.1292,717.7067 182.2109,698.3236 C172.3242,715.7683 158.6182,715.8512 146.6226,700.6205 C132.5915,721.2171 120.2737,720.712 105.9119,700.9541 C91.8941,720.5489 74.1939,715.2848 65.4043,695.5669 C56.8927,719.2511 36.6805,720.5777 23.5116,699.9722 C2.5615,688.5738 -0.7714,676.0538 17.6875,659.0471 C2.7028,642.8393 3.9954,628.4113 23.4831,616.9493" fill="none" style="stroke:#181818;stroke-width:1;"/><text fill="#000000" font-family="Arial" font-size="14" font-weight="bold" lengthAdjust="spacing" textLength="207.6074" x="193.1963" y="631.292">Optional external services</text></g><!--cluster CI--><g class="cluster" data-entity="CI" data-source-line="23" data-uid="ent0014" id="cluster_CI"><polygon fill="none" points="1106,159.2969,1116,149.2969,1392,149.2969,1392,235.2969,1382,245.2969,1106,245.2969,1106,159.2969" style="stroke:#181818;stroke-width:1;"/><line style="stroke:#181818;stroke-width:1;" x1="1382" x2="1392" y1="159.2969" y2="149.2969"/><line style="stroke:#181818;stroke-width:1;" x1="1106" x2="1382" y1="159.2969" y2="159.2969"/><line style="stroke:#181818;stroke-width:1;" x1="1382" x2="1382" y1="159.2969" y2="245.2969"/><text fill="#000000" font-family="Arial" font-size="14" font-weight="bold" lengthAdjust="spacing" textLength="118.1045" x="1185.9478" y="175.292">GitHub Actions</text></g><!--entity Git--><g class="entity" data-entity="Git" data-source-line="26" data-uid="ent0016" id="entity_Git"><polygon fill="#F1F1F1" points="1317,51.2969,1327,41.2969,1507.1787,41.2969,1507.1787,93.8906,1497.1787,103.8906,1317,103.8906,1317,51.2969" style="stroke:#181818;stroke-width:0.5;"/><line style="stroke:#181818;stroke-width:0.5;" x1="1497.1787" x2="1507.1787" y1="51.2969" y2="41.2969"/><line style="stroke:#181818;stroke-width:0.5;" x1="1317" x2="1497.1787" y1="51.2969" y2="51.2969"/><line style="stroke:#181818;stroke-width:0.5;" x1="1497.1787" x2="1497.1787" y1="51.2969" y2="103.8906"/><text fill="#000000" font-family="Arial" font-size="14" lengthAdjust="spacing" textLength="124.0654" x="1332" y="74.292">GitHub repository</text><text fill="#000000" font-family="Arial" font-size="14" lengthAdjust="spacing" textLength="150.1787" x="1332" y="90.5889">Vercel Git integration</text></g><g class="entity" data-entity="GMN28" data-source-line="41" data-uid="ent0029" id="entity_GMN28"><path d="M589.5,643.2969 L589.5,683.5625 L932.561,683.5625 L932.561,653.2969 L922.561,643.2969 L589.5,643.2969" fill="#FEFFDD" style="stroke:#181818;stroke-width:0.5;"/><path d="M922.561,643.2969 L922.561,653.2969 L932.561,653.2969 L922.561,643.2969" fill="#FEFFDD" style="stroke:#181818;stroke-width:1;"/><text fill="#000000" font-family="Arial" font-size="13" lengthAdjust="spacing" textLength="322.061" x="595.5" y="660.3638">Public demo, synthetic/local fallback, soft access.</text><text fill="#000000" font-family="Arial" font-size="13" lengthAdjust="spacing" textLength="315.6943" x="595.5" y="675.4966">Not Production-ready or confidential-pilot-ready.</text></g><!--entity Client--><g class="entity" data-entity="Client" data-source-line="8" data-uid="ent0003" id="entity_Client"><rect fill="#F1F1F1" height="55.5938" rx="2.5" ry="2.5" style="stroke:#181818;stroke-width:0.5;" width="245.3252" x="306.5" y="329.2969"/><polygon fill="#F1F1F1" points="534.8252,334.2969,534.8252,348.2969,546.8252,348.2969,546.8252,340.2969,540.8252,334.2969,534.8252,334.2969" style="stroke:#181818;stroke-width:0.5;"/><line style="stroke:#181818;stroke-width:0.5;" x1="540.8252" x2="540.8252" y1="334.2969" y2="340.2969"/><line style="stroke:#181818;stroke-width:0.5;" x1="546.8252" x2="540.8252" y1="340.2969" y2="340.2969"/><text fill="#000000" font-family="Arial" font-size="14" lengthAdjust="spacing" textLength="83.0088" x="316.5" y="355.292">React client</text><text fill="#000000" font-family="Arial" font-size="14" lengthAdjust="spacing" textLength="215.3252" x="316.5" y="371.5889">Mapbox GL when token usable</text></g><!--entity BrowserStore--><g class="entity" data-entity="BrowserStore" data-source-line="9" data-uid="ent0004" id="entity_BrowserStore"><path d="M333,489.2969 L374,489.2969 A3.75,3.75 0 0 1 376.5,491.7969 L383.5,510.2969 L524.8242,510.2969 A2.5,2.5 0 0 1 527.3242,512.7969 L527.3242,557.3906 A2.5,2.5 0 0 1 524.8242,559.8906 L333,559.8906 A2.5,2.5 0 0 1 330.5,557.3906 L330.5,491.7969 A2.5,2.5 0 0 1 333,489.2969" fill="#F1F1F1" style="stroke:#181818;stroke-width:0.5;"/><line style="stroke:#181818;stroke-width:0.5;" x1="330.5" x2="383.5" y1="510.2969" y2="510.2969"/><text fill="#000000" font-family="Arial" font-size="14" lengthAdjust="spacing" textLength="133.9092" x="340.5" y="530.292">browser-local state</text><text fill="#000000" font-family="Arial" font-size="14" lengthAdjust="spacing" textLength="166.8242" x="340.5" y="546.5889">limited demo continuity</text></g><!--entity Preview--><g class="entity" data-entity="Preview" data-source-line="16" data-uid="ent0009" id="entity_Preview"><polygon fill="#F1F1F1" points="949,503.2969,959,493.2969,1164.8477,493.2969,1164.8477,545.8906,1154.8477,555.8906,949,555.8906,949,503.2969" style="stroke:#181818;stroke-width:0.5;"/><line style="stroke:#181818;stroke-width:0.5;" x1="1154.8477" x2="1164.8477" y1="503.2969" y2="493.2969"/><line style="stroke:#181818;stroke-width:0.5;" x1="949" x2="1154.8477" y1="503.2969" y2="503.2969"/><line style="stroke:#181818;stroke-width:0.5;" x1="1154.8477" x2="1154.8477" y1="503.2969" y2="555.8906"/><text fill="#000000" font-family="Arial" font-size="14" lengthAdjust="spacing" textLength="77.6699" x="964" y="526.292">PR Preview</text><text fill="#000000" font-family="Arial" font-size="14" lengthAdjust="spacing" textLength="175.8477" x="964" y="542.5889">isolated validation target</text></g><!--entity App--><g class="entity" data-entity="App" data-source-line="13" data-uid="ent0007" id="entity_App"><rect fill="#F1F1F1" height="39.2969" rx="2.5" ry="2.5" style="stroke:#181818;stroke-width:0.5;" width="278.6777" x="1183.5" y="505.2969"/><polygon fill="#F1F1F1" points="1445.1777,510.2969,1445.1777,524.2969,1457.1777,524.2969,1457.1777,516.2969,1451.1777,510.2969,1445.1777,510.2969" style="stroke:#181818;stroke-width:0.5;"/><line style="stroke:#181818;stroke-width:0.5;" x1="1451.1777" x2="1451.1777" y1="510.2969" y2="516.2969"/><line style="stroke:#181818;stroke-width:0.5;" x1="1457.1777" x2="1451.1777" y1="516.2969" y2="516.2969"/><text fill="#000000" font-family="Arial" font-size="14" lengthAdjust="spacing" textLength="248.6777" x="1193.5" y="531.292">App Router pages + route handlers</text></g><!--entity Tmp--><g class="entity" data-entity="Tmp" data-source-line="14" data-uid="ent0008" id="entity_Tmp"><path d="M1223,627.7969 L1264,627.7969 A3.75,3.75 0 0 1 1266.5,630.2969 L1273.5,648.7969 L1423.2119,648.7969 A2.5,2.5 0 0 1 1425.7119,651.2969 L1425.7119,695.8906 A2.5,2.5 0 0 1 1423.2119,698.3906 L1223,698.3906 A2.5,2.5 0 0 1 1220.5,695.8906 L1220.5,630.2969 A2.5,2.5 0 0 1 1223,627.7969" fill="#F1F1F1" style="stroke:#181818;stroke-width:0.5;"/><line style="stroke:#181818;stroke-width:0.5;" x1="1220.5" x2="1273.5" y1="648.7969" y2="648.7969"/><text fill="#000000" font-family="Arial" font-size="14" lengthAdjust="spacing" textLength="175.2119" x="1230.5" y="668.792">/tmp/geoai-local_fallback</text><text fill="#000000" font-family="Arial" font-size="14" lengthAdjust="spacing" textLength="169.21" x="1230.5" y="685.0889">ephemeral, non-durable</text></g><!--entity Mapbox--><g class="entity" data-entity="Mapbox" data-source-line="19" data-uid="ent0011" id="entity_Mapbox"><path d="M32.2718,649.1775 C35.338,644.1841 39.2332,643.9187 43.0112,648.3681 C46.09,642.2419 50.4004,642.3384 54.6129,647.1676 C57.5011,641.8889 61.7322,641.4132 65.2845,646.4829 C69.0022,641.597 72.8283,640.5044 76.7849,646.2239 C81.7976,641.006 85.9972,641.1591 88.8092,648.3555 C92.8381,643.2275 97.4612,643.5012 101.1188,648.794 C108.4567,651.6334 110.194,658.9895 103.8792,664.2649 C109.6838,670.6665 109.5293,675.7502 101.5333,680.1084 C99.6029,686.2224 94.1138,686.6344 90.3888,681.9627 C87.4798,690.1862 83.0431,691.2278 76.95,684.9043 C76.0431,690.5815 71.3912,692.7635 66.5286,689.531 C61.9567,693.69 56.7135,693.1446 54.7775,686.6292 C48.2896,691.4154 45.093,688.791 42.9176,682.1524 C38.736,686.5695 33.7076,686.0989 31.0627,680.3589 C21.4047,679.3862 18.1838,672.1627 24.7799,664.6777 C18.6629,655.6954 21.7557,650.1204 32.2718,649.1775" fill="#F1F1F1" style="stroke:#181818;stroke-width:0.5;"/><text fill="#000000" font-family="Arial" font-size="14" lengthAdjust="spacing" textLength="55.2822" x="37.5" y="668.292">Mapbox</text></g><!--entity OpenAI--><g class="entity" data-entity="OpenAI" data-source-line="20" data-uid="ent0012" id="entity_OpenAI"><path d="M135.7338,650.4496 C138.0777,645.2003 142.7466,643.4862 147.1002,648.1438 C151.1397,643.2485 154.5163,643.2554 157.8609,648.8563 C160.5559,642.5829 163.9223,641.2808 169.1235,646.3727 C172.1534,641.1156 176.4028,641.076 180.0004,645.7511 C184.4612,639.9644 190.3496,640.7616 193.399,647.287 C196.2666,642.83 200.4042,642.8738 203.4041,647.135 C207.1143,641.1821 212.4574,642.7071 215.0924,648.2301 C219.1591,644.207 223.2574,643.4775 225.9959,649.6504 C233.5084,652.486 234.0401,657.8472 229.3262,663.6014 C236.9539,670.0931 234.8039,675.96 226.5314,679.6897 C223.331,684.5682 219.6395,684.5641 216.0212,680.163 C212.8638,685.8359 209.0581,686.8819 204.2395,682.0209 C201.6394,688.8356 197.144,687.9609 192.7729,683.8856 C190.1041,689.2989 186.001,690.4081 181.6763,685.7012 C178.2777,691.8304 172.9133,690.7198 169.9164,685.2925 C164.7316,690.1188 159.86,689.3639 157.6827,682.219 C154.1866,687.2109 150.8394,686.3963 147.422,682.1318 C142.5088,686.072 137.7951,685.6109 135.9193,678.8629 C127.1577,677.4293 125.6691,670.7665 130.3167,664.2069 C126.387,658.0354 126.9068,651.598 135.7338,650.4496" fill="#F1F1F1" style="stroke:#181818;stroke-width:0.5;"/><text fill="#000000" font-family="Arial" font-size="14" lengthAdjust="spacing" textLength="77.6973" x="141" y="668.292">OpenAI API</text></g><!--entity Supabase--><g class="entity" data-entity="Supabase" data-source-line="21" data-uid="ent0013" id="entity_Supabase"><path d="M252.5,642.2969 C252.5,632.2969 411.855,632.2969 411.855,632.2969 C411.855,632.2969 571.21,632.2969 571.21,642.2969 L571.21,683.8906 C571.21,693.8906 411.855,693.8906 411.855,693.8906 C411.855,693.8906 252.5,693.8906 252.5,683.8906 L252.5,642.2969" fill="#F1F1F1" style="stroke:#181818;stroke-width:0.5;"/><path d="M252.5,642.2969 C252.5,652.2969 411.855,652.2969 411.855,652.2969 C411.855,652.2969 571.21,652.2969 571.21,642.2969" fill="none" style="stroke:#181818;stroke-width:0.5;"/><text fill="#000000" font-family="Arial" font-size="14" lengthAdjust="spacing" textLength="202.3779" x="262.5" y="669.292">Supabase/PostGIS + Storage</text><text fill="#000000" font-family="Arial" font-size="14" lengthAdjust="spacing" textLength="298.71" x="262.5" y="685.5889">not configured in current Production demo</text></g><!--entity Gate--><g class="entity" data-entity="Gate" data-source-line="24" data-uid="ent0015" id="entity_Gate"><rect fill="#F1F1F1" height="55.5938" rx="2.5" ry="2.5" style="stroke:#181818;stroke-width:0.5;" width="235.625" x="1148" y="181.2969"/><polygon fill="#F1F1F1" points="1366.625,186.2969,1366.625,200.2969,1378.625,200.2969,1378.625,192.2969,1372.625,186.2969,1366.625,186.2969" style="stroke:#181818;stroke-width:0.5;"/><line style="stroke:#181818;stroke-width:0.5;" x1="1372.625" x2="1372.625" y1="186.2969" y2="192.2969"/><line style="stroke:#181818;stroke-width:0.5;" x1="1378.625" x2="1372.625" y1="192.2969" y2="192.2969"/><text fill="#000000" font-family="Arial" font-size="14" lengthAdjust="spacing" textLength="205.625" x="1158" y="207.292">Exact-event SHA quality gate</text><text fill="#000000" font-family="Arial" font-size="14" lengthAdjust="spacing" textLength="187.2432" x="1158" y="223.5889">checks + evidence artifact</text></g><g class="link" data-entity-1="Browser" data-entity-2="Production" data-uid="lnk17" id="link_Browser_Production"><polygon fill="#181818" points="1488.417,457.2901,1489.6916,447.524,1486.9947,452.4966,1482.0221,449.7997,1488.417,457.2901" style="stroke:#181818;stroke-width:1;"/><path d="M594.1506,360.499 C594.4346,360.5373 594.7221,360.576 595.013,360.6153 C596.177,360.7721 597.3971,360.9363 598.6721,361.1075 C603.7722,361.7924 609.7517,362.5903 616.5381,363.4876 C630.1109,365.2822 646.9113,367.4746 666.3591,369.9557 C705.2546,374.9181 754.7394,381.0358 810.1718,387.4379 C921.0364,400.2422 1055.691,414.1842 1177,422.2969 C1193.3584,423.3909 1459.5563,419.6222 1472,430.2969 C1477.9795,435.4263 1482.3198,441.8952 1485.4244,449.0254 C1486.2005,450.8079 1486.8994,452.6318 1487.5274,454.4864 C1487.8414,455.4137 1486.4309,450.5966 1486.7102,451.5379" fill="none" style="stroke:#181818;stroke-width:1;"/><text fill="#000000" font-family="Arial" font-size="13" lengthAdjust="spacing" textLength="41.7485" x="1336" y="417.3638">HTTPS</text></g><g class="link" data-entity-1="Client" data-entity-2="BrowserStore" data-uid="lnk18" id="link_Client_BrowserStore"><polygon fill="#181818" points="429,489.238,433,480.238,429,484.238,425,480.238,429,489.238" style="stroke:#181818;stroke-width:1;"/><path d="M429,385.6258 C429,413.9951 429,452.4479 429,483.238" fill="none" style="stroke:#181818;stroke-width:1;"/></g><g class="link" data-entity-1="Client" data-entity-2="Mapbox" data-uid="lnk19" id="link_Client_Mapbox"><polygon fill="#181818" points="68.7282,640.0397,74.3629,631.962,69.6767,635.1305,66.5082,630.4443,68.7282,640.0397" style="stroke:#181818;stroke-width:1;"/><path d="M306.3232,370.3614 C259.625,380.2545 208.6493,398.1201 171,430.2969 C104.6829,486.9744 78.7993,587.916 69.8664,634.1487" fill="none" style="stroke:#181818;stroke-width:1;"/><text fill="#000000" font-family="Arial" font-size="13" lengthAdjust="spacing" textLength="146.7642" x="173" y="529.3638">public map token path</text></g><g class="link" data-entity-1="App" data-entity-2="OpenAI" data-uid="lnk20" id="link_App_OpenAI"><polygon fill="#181818" points="198.0404,640.1529,207.082,636.248,201.4298,636.4771,201.2007,630.8249,198.0404,640.1529" style="stroke:#181818;stroke-width:1;"/><path d="M1272.4499,544.3903 C1245.1779,553.4798 1210.6973,563.4792 1179,568.2969 C1104.1844,579.6682 573.5383,573.7526 498,578.2969 C384.2388,585.1406 347.0403,558.7774 243,605.2969 C225.4954,613.1237 213.5902,623.2892 202.1077,635.7419" fill="none" style="stroke:#181818;stroke-width:1;"/><text fill="#000000" font-family="Arial" font-size="13" lengthAdjust="spacing" textLength="191.1978" x="500" y="592.3638">server-only optional key path</text></g><g class="link" data-entity-1="App" data-entity-2="Supabase" data-uid="lnk21" id="link_App_Supabase"><polygon fill="#181818" points="486.5253,632.2698,496.3475,632.9942,491.2313,630.5807,493.6448,625.4645,486.5253,632.2698" style="stroke:#181818;stroke-width:1;"/><path d="M1270.6777,544.3333 C1243.6509,553.113 1209.9335,562.8486 1179,568.2969 C1170.7911,569.7427 588.1783,603.6867 580,605.2969 C548.7227,611.4548 520.9227,619.9234 492.1725,630.2428" fill="none" style="stroke:#181818;stroke-width:1;"/><text fill="#000000" font-family="Arial" font-size="13" lengthAdjust="spacing" textLength="138.8994" x="1019" y="592.3638">readiness-gated path</text></g><g class="link" data-entity-1="App" data-entity-2="Tmp" data-uid="lnk22" id="link_App_Tmp"><polygon fill="#181818" points="1323,627.5459,1327,618.5459,1323,622.5459,1319,618.5459,1323,627.5459" style="stroke:#181818;stroke-width:1;"/><path d="M1323,544.4904 C1323,565.8109 1323,595.13 1323,621.5459" fill="none" style="stroke:#181818;stroke-width:1;"/><text fill="#000000" font-family="Arial" font-size="13" lengthAdjust="spacing" textLength="168.1177" x="1325" y="592.3638">active Production fallback</text></g><g class="link" data-entity-1="Git" data-entity-2="Preview" data-uid="lnk23" id="link_Git_Preview"><polygon fill="#181818" points="1083.5767,493.2689,1092.7053,489.5716,1087.0493,489.6715,1086.9495,484.0155,1083.5767,493.2689" style="stroke:#181818;stroke-width:1;"/><path d="M1411.9416,104.4006 C1411.5986,172.034 1409.5513,332.4092 1398,385.2969 C1394.2137,402.6326 1397.5271,412.1073 1383,422.2969 C1363.7017,435.8331 1193.0419,421.9418 1171,430.2969 C1136.5333,443.3616 1108.9384,466.9956 1087.7438,488.952" fill="none" style="stroke:#181818;stroke-width:1;"/><text fill="#000000" font-family="Arial" font-size="13" lengthAdjust="spacing" textLength="70.1416" x="1430.8298" y="269.3638">PR commit</text><text fill="#000000" font-family="Arial" font-size="13" lengthAdjust="spacing" textLength="111.8013" x="1410" y="284.4966">Vercel Git deploy</text></g><g class="link" data-entity-1="Git" data-entity-2="Production" data-uid="lnk24" id="link_Git_Production"><polygon fill="#181818" points="1505.1483,484.0378,1511.9744,476.9382,1506.8512,479.3367,1504.4527,474.2135,1505.1483,484.0378" style="stroke:#181818;stroke-width:1;"/><path d="M1439.5104,104.463 C1468.0277,138.4984 1510.7953,196.4296 1528,255.2969 C1542.1719,303.7871 1537.6242,358.7737 1527.5545,406.3025 C1522.5197,430.067 1516.1043,451.967 1509.9582,470.2584 C1508.4216,474.8312 1506.9019,479.1785 1505.4248,483.273 C1505.3325,483.5289 1507.2838,478.1426 1507.1918,478.3965" fill="none" style="stroke:#181818;stroke-width:1;"/><text fill="#000000" font-family="Arial" font-size="13" lengthAdjust="spacing" textLength="78.8696" x="1552.4658" y="269.3638">main merge</text><text fill="#000000" font-family="Arial" font-size="13" lengthAdjust="spacing" textLength="111.8013" x="1536" y="284.4966">Vercel Git deploy</text></g><g class="link" data-entity-1="Git" data-entity-2="CI" data-uid="lnk25" id="link_Git_CI"><polygon fill="#181818" points="1139.5491,148.7561,1148.7758,145.3111,1143.1192,145.2555,1143.1749,139.5989,1139.5491,148.7561" style="stroke:#181818;stroke-width:1;"/><path d="M1316.6789,77.3588 C1287.4271,80.9336 1254.6964,87.3538 1223.4342,98.6624 C1207.8031,104.3168 1192.539,111.1932 1178.2605,119.5471 C1171.1213,123.7241 1164.2284,128.2704 1157.6592,133.2181 C1154.3746,135.6919 1151.1709,138.2661 1148.0579,140.9445 C1146.5013,142.2838 1144.9674,143.6491 1143.4574,145.041 C1142.7023,145.7369 1141.9533,146.4395 1141.2103,147.1488 C1140.8389,147.5035 1140.4689,147.8598 1140.1005,148.2178 C1139.9163,148.3968 1144.0167,144.3755 1143.8333,144.5554" fill="none" style="stroke:#181818;stroke-width:1;"/><text fill="#000000" font-family="Arial" font-size="13" lengthAdjust="spacing" textLength="68.0786" x="1171" y="136.3638">event SHA</text></g><g class="link" data-entity-1="CI" data-entity-2="Preview" data-uid="lnk26" id="link_CI_Preview"><polygon fill="#181818" points="1038.6296,492.9294,1037.8885,483.1085,1036.2609,488.5261,1030.8433,486.8985,1038.6296,492.9294" style="stroke:#181818;stroke-width:1;"/><path d="M1105.9637,217.0322 C1105.739,217.1352 1105.5124,217.2394 1105.2841,217.3448 C1104.8275,217.5556 1104.3636,217.771 1103.8929,217.9911 C1100.1274,219.7517 1095.9216,221.8103 1091.4211,224.1626 C1082.4201,228.8673 1072.2402,234.7468 1062.045,241.7667 C1041.6547,255.8066 1021.2032,274.4083 1010,297.2969 C978.2196,362.2254 1011.524,442.5424 1035.7871,487.6455" fill="none" style="stroke:#181818;stroke-width:1;stroke-dasharray:7,7;"/><text fill="#000000" font-family="Arial" font-size="13" lengthAdjust="spacing" textLength="200.5034" x="1012" y="354.3638">separate evidence comparison</text><text fill="#000000" font-family="Arial" font-size="13" lengthAdjust="spacing" textLength="96.3384" x="1064.0825" y="369.4966">no deploy step</text></g><g class="link" data-entity-1="CI" data-entity-2="Production" data-uid="lnk27" id="link_CI_Production"><polygon fill="#181818" points="1484.4963,456.9673,1485.846,447.2114,1483.1109,452.1631,1478.1592,449.428,1484.4963,456.9673" style="stroke:#181818;stroke-width:1;"/><path d="M1139,245.2969 C1182.5193,291.511 1332.3524,354.7515 1388,385.2969 C1425.1275,405.6764 1447.0678,396.06 1472,430.2969 C1476.5406,436.532 1479.9897,443.6079 1482.5946,451.0097 C1483.2458,452.8601 1483.8443,454.7309 1484.3938,456.6141 C1484.4282,456.7318 1482.7999,451.0844 1482.8339,451.2022" fill="none" style="stroke:#181818;stroke-width:1;stroke-dasharray:7,7;"/><text fill="#000000" font-family="Arial" font-size="13" lengthAdjust="spacing" textLength="144.1553" x="1390" y="354.3638">main quality evidence</text><text fill="#000000" font-family="Arial" font-size="13" lengthAdjust="spacing" textLength="96.3384" x="1413.9084" y="369.4966">no deploy step</text></g><g class="link" data-entity-1="Production" data-entity-2="GMN28" data-uid="lnk30" id="link_Production_GMN28"><path d="M1173.2791,596.2483 C1172.6423,596.3349 1172.0056,596.4217 1171.3689,596.5086 C1170.0956,596.6823 1168.8226,596.8563 1167.5498,597.0306 C1157.368,598.4253 1147.2066,599.8403 1137.0881,601.2701 C1116.8512,604.1299 1096.7862,607.0492 1077.0731,609.9855 C998.2205,621.7304 924.998,633.7452 868.9264,643.2936" fill="none" style="stroke:#181818;stroke-width:1;stroke-dasharray:7,7;"/></g><!--SRC=[VLNDRjiu4BxhAQRUOokdlUQmWDUR9W6sgH5dzsHWCPB6CjSKoP8Z9yAYG1-YJzWdsI4f9OeBR0uXnVdXD_DzGxzn7jiEGUDWUuRG4QF1WXLhWj-lDkNxzn_WnxVliEwz9yFGaDDswE8MJGCDCa9bUzEW7ufmLCQXnmugh8-jZ-Thgws7Npwclvb7E61Z7vLfOOywqCpIq1vxpH-juJli25PUeIuAOnk2nP-1F5JUFigw00pmMzx3lmK0UbPxh1aMznINMYi1kZEVq5Ns2Qx_WCS36M1xbFzzm4fJoh5EVf9WRtKZkHRZ1QMsDMe8Z4mxerMdcAHcwYpKWawPNl4mHx5bwwduMjJQzWqi_Y9VaquEUPjGva8stZPzpSgQb71dxkY9b_y4k1DpN7qlDtGPuCmvPfXNkd8ExeKxWUsmfG1lmSTFE0W_cdn82SGhnKq5Nd3dBbgog7ADVmi9EfAsC-GEr957_KwGchBf_NEV7hgOvUjB3VU2Z4wA7dT61QinjkU4Meai8bP6tnAF5II_bzvyTj55kYjbauyRwTz9rPG1NqsdiTun9DEOp7dxOlhioAnkORMvJURyAUQepmg3ODtsBkqkDZRmzUrM-XJPafRjZB4S2TshjlTIWJ9GZt8_Ooabdp99BRaDrufl-WfMoI_3Nz-U2VBgIPQIJZ7fzcO5Ntff4m_G9cdL1wgFaJffKaEcfkV8bErQdCvly-HiK5B1i3EZkCGYs9bQdzgVGnKNnJGZPVdhlA9Bk7bus6oBBFzaVQNZsVauGPVW-agh6ZfqunWvv4CHHHZTHXek4vSoFzRe0Up4z966r-vJ9oN04pRAK0XbcrJqoazq9oxI3NMYUG6JQ8jOUIdFYKa59gL9WCYpjfqCxQiEvHViB6JMamw5Vnc0A8p_3rl7IfyfBUHpkVm9HA3ugiayFbChcEH8viL4vOs9vP4XTvRY7DIacIdJJ-6Y4Bceiios0xkVfIWscRSeudSG1iC7ObLVv0TkwgDOx5uUzbgcC2oBEpiVW39I96pwF2g2WELTBftIbhDjMP3y94GC_m40]--></g></svg>