<svg xmlns="http://www.w3.org/2000/svg" xmlns:xlink="http://www.w3.org/1999/xlink" contentStyleType="text/css" data-diagram-type="DESCRIPTION" height="502px" preserveAspectRatio="none" style="width:1670px;height:502px;background:#FFFFFF;" version="1.1" viewBox="0 0 1670 502" width="1670px" zoomAndPan="magnify"><title>DEP-001 &#8212; Current deployment and data boundary</title><defs/><g><g class="title" data-source-line="2"><text fill="#000000" font-family="Arial" font-size="14" font-weight="bold" lengthAdjust="spacing" textLength="403.8672" x="550.0664" y="22.9951">DEP-001 &#8212; Current deployment and data boundary</text></g><!--cluster Browser--><g class="cluster" data-entity="Browser" data-source-line="7" data-uid="ent0002" id="cluster_Browser"><polygon fill="none" points="563,51.2969,573,41.2969,859,41.2969,859,317.2969,849,327.2969,563,327.2969,563,51.2969" style="stroke:#181818;stroke-width:1;"/><line style="stroke:#181818;stroke-width:1;" x1="849" x2="859" y1="51.2969" y2="41.2969"/><line style="stroke:#181818;stroke-width:1;" x1="563" x2="849" y1="51.2969" y2="51.2969"/><line style="stroke:#181818;stroke-width:1;" x1="849" x2="849" y1="51.2969" y2="327.2969"/><text fill="#000000" font-family="Arial" font-size="14" font-weight="bold" lengthAdjust="spacing" textLength="105.1846" x="654.4077" y="67.292">User browser</text></g><!--cluster Vercel--><g class="cluster" data-entity="Vercel" data-source-line="11" data-uid="ent0005" id="cluster_Vercel"><path d="M956.9176,201.2383 C971.9636,183.498 985.208,182.5127 999.7784,201.789 C1009.8267,184.5857 1027.3137,183.1095 1037.8543,201.2588 C1047.3629,184.1061 1064.4106,177.4541 1077.7884,197.0548 C1087.9138,180.4303 1102.3602,177.9308 1114.7253,194.5675 C1125.7001,176.2326 1141.6708,171.8015 1154.2651,192.9456 C1164.1564,172.7249 1181.318,173.9661 1192.1855,191.9774 C1202.8111,174.531 1218.5249,174.111 1229.1251,192.004 C1240.6523,176.6014 1259.8261,175.5485 1267.0949,196.4569 C1280.4669,174.7741 1293.0222,177.5942 1306.9082,195.9457 C1319.0419,177.8036 1334.2699,177.4114 1346.1761,196.1877 C1358.7688,179.8142 1372.9238,183.1498 1382.5508,199.4857 C1394.7476,177.6001 1412.8529,178.9139 1426.983,197.3557 C1437.7184,180.969 1452.7392,183.918 1460.9247,200.0196 C1477.7553,180.1971 1492.3215,181.3348 1505,204.2969 C1509.5395,203.3232 1512.0234,206.2735 1510.826,210.6013 C1526.7377,225.8098 1529.1718,240.3208 1506.9725,251.9801 C1528.6267,264.1463 1531.717,278.731 1510.5492,294.4995 C1529.4728,306.9658 1533.1989,319.4606 1516.2586,336.7709 C1531.7264,351.6519 1530.7982,366.4624 1512.0659,377.8532 C1530.2022,390.1292 1530.7896,409.7066 1508.0026,417.8224 C1530.4085,439.7159 1523.384,453.8675 1498,465.7969 C1501.8401,467.0837 1502.6569,469.6951 1499.7839,472.7134 C1489.0344,490.763 1470.4592,488.9865 1460.2294,472.1246 C1450.4181,488.0609 1432.5907,489.4502 1423.2443,471.6154 C1413.5443,490.5001 1398.3058,490.3269 1385.4076,475.17 C1373.3463,492.8485 1355.4438,490.2862 1346.7369,471.6026 C1334.6889,488.6429 1319.6323,488.434 1308.8534,470.2382 C1299.0486,493.1635 1282.265,494.3462 1267.7872,474.7514 C1254.1711,495.329 1241.5892,494.582 1229.0406,473.7525 C1218.8856,495.5501 1202.4411,492.4572 1190.0839,475.9948 C1175.8455,495.5922 1163.9875,490.6654 1151.5115,474.1143 C1142.6546,493.0912 1124.937,492.6206 1114.7619,475.4548 C1101.2402,490.6482 1084.2864,491.9141 1074.8125,470.9789 C1063.5709,487.9265 1046.5214,491.0281 1035.3094,470.9472 C1023.5013,488.5964 1010.8096,491.297 998.47,471.4697 C978.195,489.172 957.6068,486.6426 949,458.7969 C949.9418,457.7395 951.2425,458.036 951.6819,459.3622 C933.3721,446.4997 933.4183,433.6866 952.597,421.7358 C928.3455,411.684 927.7772,397.2742 945.7139,380.2267 C924.7047,367.9028 922.6118,344.3816 946.0565,332.376 C927.0398,321.3449 928.7152,303.1247 945.1193,291.2858 C928.1998,277.3342 928.7262,258.1486 949.6678,248.1935 C927.9814,230.3579 929.5478,209.1434 956,197.2969 C958.2276,197.9052 958.7223,199.6912 956.9176,201.2383" fill="none" style="stroke:#181818;stroke-width:1;"/><text fill="#000000" font-family="Arial" font-size="14" font-weight="bold" lengthAdjust="spacing" textLength="49.8271" x="1202.0864" y="215.292">Vercel</text></g><!--cluster Production--><g class="cluster" data-entity="Production" data-source-line="12" data-uid="ent0006" id="cluster_Production"><polygon fill="none" points="949,226.2969,959,216.2969,1279,216.2969,1279,455.7969,1269,465.7969,949,465.7969,949,226.2969" style="stroke:#181818;stroke-width:1;"/><line style="stroke:#181818;stroke-width:1;" x1="1269" x2="1279" y1="226.2969" y2="216.2969"/><line style="stroke:#181818;stroke-width:1;" x1="949" x2="1269" y1="226.2969" y2="226.2969"/><line style="stroke:#181818;stroke-width:1;" x1="1269" x2="1269" y1="226.2969" y2="465.7969"/><text fill="#000000" font-family="Arial" font-size="14" font-weight="bold" lengthAdjust="spacing" textLength="134.7432" x="1042.6284" y="242.292">Production demo</text><text fill="#000000" font-family="Arial" font-size="14" font-weight="bold" lengthAdjust="spacing" textLength="186.8467" x="1016.5767" y="258.5889">Next.js Node.js runtime</text></g><!--cluster External--><g class="cluster" data-entity="External" data-source-line="18" data-uid="ent0010" id="cluster_External"><path d="M23.4831,375.9493 C33.9106,356.8105 50.2455,354.2143 63.4658,373.0055 C73.4412,354.2369 91.2547,353.7375 102.5148,371.6374 C118.8179,349.3691 135.8357,354.7671 146.4965,377.1901 C153.1697,360.3923 170.0159,354.1412 182.8161,370.4731 C195.62,356.6502 213.2315,357.0705 220.992,376.2985 C230.0863,353.4521 245.1515,351.3845 261.1933,369.4761 C273.4873,353.1184 293.0972,354.299 301.6211,373.7345 C310.9178,356.5295 328.9083,354.1385 339.8225,371.9709 C352.2742,355.4242 371.5281,355.2679 380.7689,375.5416 C390.616,358.4957 403.843,355.6907 417.9047,370.6516 C429.3557,351.7086 445.595,350.1116 456.3367,371.3303 C471.2459,350.7219 483.5819,354.5285 496.4341,373.4185 C511.57,355.4869 526.7312,354.9486 538.2459,377.1878 C549.9135,359.3229 561.8943,356.8177 576.7748,373.6165 C599.6298,382.8008 606.6545,399.7127 588.853,419.5805 C605.2361,438.6222 595.9899,452.588 575.7998,459.743 C563.2594,478.1568 547.281,472.0326 539.0959,455.2068 C529.3501,477.364 510.5456,477.1483 498.612,457.3162 C486.5921,478.0876 473.0769,477.0941 460.6869,457.6653 C447.4431,479.8608 433.2376,478.2405 417.502,460.3497 C405.9957,479.7257 387.3444,481.4887 376.973,459.2446 C366.147,479.6093 350.4602,478.7607 339.1462,459.7129 C326.2015,476.2618 313.4373,478.215 301.9308,458.2472 C292.3877,479.0813 273.5651,479.7386 261.1735,461.1955 C248.612,479.0787 229.9386,475.9602 221.7092,456.6045 C208.5358,478.1351 196.1292,476.7067 182.2109,457.3236 C172.3242,474.7683 158.6182,474.8512 146.6226,459.6205 C132.5915,480.2171 120.2737,479.712 105.9119,459.9541 C91.8941,479.5489 74.1939,474.2848 65.4043,454.5669 C56.8927,478.2511 36.6805,479.5777 23.5116,458.9722 C2.5615,447.5738 -0.7714,435.0538 17.6875,418.0471 C2.7028,401.8393 3.9954,387.4113 23.4831,375.9493" fill="none" style="stroke:#181818;stroke-width:1;"/><text fill="#000000" font-family="Arial" font-size="14" font-weight="bold" lengthAdjust="spacing" textLength="207.6074" x="193.1963" y="390.292">Optional external services</text></g><!--cluster CI--><g class="cluster" data-entity="CI" data-source-line="23" data-uid="ent0014" id="cluster_CI"><polygon fill="none" points="1206,51.2969,1216,41.2969,1492,41.2969,1492,127.2969,1482,137.2969,1206,137.2969,1206,51.2969" style="stroke:#181818;stroke-width:1;"/><line style="stroke:#181818;stroke-width:1;" x1="1482" x2="1492" y1="51.2969" y2="41.2969"/><line style="stroke:#181818;stroke-width:1;" x1="1206" x2="1482" y1="51.2969" y2="51.2969"/><line style="stroke:#181818;stroke-width:1;" x1="1482" x2="1482" y1="51.2969" y2="137.2969"/><text fill="#000000" font-family="Arial" font-size="14" font-weight="bold" lengthAdjust="spacing" textLength="118.1045" x="1285.9478" y="67.292">GitHub Actions</text></g><g class="entity" data-entity="GMN24" data-source-line="37" data-uid="ent0025" id="entity_GMN24"><path d="M589.5,402.2969 L589.5,442.5625 L932.561,442.5625 L932.561,412.2969 L922.561,402.2969 L589.5,402.2969" fill="#FEFFDD" style="stroke:#181818;stroke-width:0.5;"/><path d="M922.561,402.2969 L922.561,412.2969 L932.561,412.2969 L922.561,402.2969" fill="#FEFFDD" style="stroke:#181818;stroke-width:1;"/><text fill="#000000" font-family="Arial" font-size="13" lengthAdjust="spacing" textLength="322.061" x="595.5" y="419.3638">Public demo, synthetic/local fallback, soft access.</text><text fill="#000000" font-family="Arial" font-size="13" lengthAdjust="spacing" textLength="315.6943" x="595.5" y="434.4966">Not Production-ready or confidential-pilot-ready.</text></g><!--entity Client--><g class="entity" data-entity="Client" data-source-line="8" data-uid="ent0003" id="entity_Client"><rect fill="#F1F1F1" height="55.5938" rx="2.5" ry="2.5" style="stroke:#181818;stroke-width:0.5;" width="245.3252" x="571.5" y="73.2969"/><polygon fill="#F1F1F1" points="799.8252,78.2969,799.8252,92.2969,811.8252,92.2969,811.8252,84.2969,805.8252,78.2969,799.8252,78.2969" style="stroke:#181818;stroke-width:0.5;"/><line style="stroke:#181818;stroke-width:0.5;" x1="805.8252" x2="805.8252" y1="78.2969" y2="84.2969"/><line style="stroke:#181818;stroke-width:0.5;" x1="811.8252" x2="805.8252" y1="84.2969" y2="84.2969"/><text fill="#000000" font-family="Arial" font-size="14" lengthAdjust="spacing" textLength="83.0088" x="581.5" y="99.292">React client</text><text fill="#000000" font-family="Arial" font-size="14" lengthAdjust="spacing" textLength="215.3252" x="581.5" y="115.5889">Mapbox GL when token usable</text></g><!--entity BrowserStore--><g class="entity" data-entity="BrowserStore" data-source-line="9" data-uid="ent0004" id="entity_BrowserStore"><path d="M598,248.2969 L639,248.2969 A3.75,3.75 0 0 1 641.5,250.7969 L648.5,269.2969 L789.8242,269.2969 A2.5,2.5 0 0 1 792.3242,271.7969 L792.3242,316.3906 A2.5,2.5 0 0 1 789.8242,318.8906 L598,318.8906 A2.5,2.5 0 0 1 595.5,316.3906 L595.5,250.7969 A2.5,2.5 0 0 1 598,248.2969" fill="#F1F1F1" style="stroke:#181818;stroke-width:0.5;"/><line style="stroke:#181818;stroke-width:0.5;" x1="595.5" x2="648.5" y1="269.2969" y2="269.2969"/><text fill="#000000" font-family="Arial" font-size="14" lengthAdjust="spacing" textLength="133.9092" x="605.5" y="289.292">browser-local state</text><text fill="#000000" font-family="Arial" font-size="14" lengthAdjust="spacing" textLength="166.8242" x="605.5" y="305.5889">limited demo continuity</text></g><!--entity Preview--><g class="entity" data-entity="Preview" data-source-line="16" data-uid="ent0009" id="entity_Preview"><polygon fill="#F1F1F1" points="1289,262.2969,1299,252.2969,1504.8477,252.2969,1504.8477,304.8906,1494.8477,314.8906,1289,314.8906,1289,262.2969" style="stroke:#181818;stroke-width:0.5;"/><line style="stroke:#181818;stroke-width:0.5;" x1="1494.8477" x2="1504.8477" y1="262.2969" y2="252.2969"/><line style="stroke:#181818;stroke-width:0.5;" x1="1289" x2="1494.8477" y1="262.2969" y2="262.2969"/><line style="stroke:#181818;stroke-width:0.5;" x1="1494.8477" x2="1494.8477" y1="262.2969" y2="314.8906"/><text fill="#000000" font-family="Arial" font-size="14" lengthAdjust="spacing" textLength="77.6699" x="1304" y="285.292">PR Preview</text><text fill="#000000" font-family="Arial" font-size="14" lengthAdjust="spacing" textLength="175.8477" x="1304" y="301.5889">isolated validation target</text></g><!--entity App--><g class="entity" data-entity="App" data-source-line="13" data-uid="ent0007" id="entity_App"><rect fill="#F1F1F1" height="39.2969" rx="2.5" ry="2.5" style="stroke:#181818;stroke-width:0.5;" width="278.6777" x="957.5" y="264.2969"/><polygon fill="#F1F1F1" points="1219.1777,269.2969,1219.1777,283.2969,1231.1777,283.2969,1231.1777,275.2969,1225.1777,269.2969,1219.1777,269.2969" style="stroke:#181818;stroke-width:0.5;"/><line style="stroke:#181818;stroke-width:0.5;" x1="1225.1777" x2="1225.1777" y1="269.2969" y2="275.2969"/><line style="stroke:#181818;stroke-width:0.5;" x1="1231.1777" x2="1225.1777" y1="275.2969" y2="275.2969"/><text fill="#000000" font-family="Arial" font-size="14" lengthAdjust="spacing" textLength="248.6777" x="967.5" y="290.292">App Router pages + route handlers</text></g><!--entity Tmp--><g class="entity" data-entity="Tmp" data-source-line="14" data-uid="ent0008" id="entity_Tmp"><path d="M997,386.7969 L1038,386.7969 A3.75,3.75 0 0 1 1040.5,389.2969 L1047.5,407.7969 L1197.2119,407.7969 A2.5,2.5 0 0 1 1199.7119,410.2969 L1199.7119,454.8906 A2.5,2.5 0 0 1 1197.2119,457.3906 L997,457.3906 A2.5,2.5 0 0 1 994.5,454.8906 L994.5,389.2969 A2.5,2.5 0 0 1 997,386.7969" fill="#F1F1F1" style="stroke:#181818;stroke-width:0.5;"/><line style="stroke:#181818;stroke-width:0.5;" x1="994.5" x2="1047.5" y1="407.7969" y2="407.7969"/><text fill="#000000" font-family="Arial" font-size="14" lengthAdjust="spacing" textLength="175.2119" x="1004.5" y="427.792">/tmp/geoai-local_fallback</text><text fill="#000000" font-family="Arial" font-size="14" lengthAdjust="spacing" textLength="169.21" x="1004.5" y="444.0889">ephemeral, non-durable</text></g><!--entity Mapbox--><g class="entity" data-entity="Mapbox" data-source-line="19" data-uid="ent0011" id="entity_Mapbox"><path d="M32.2718,408.1775 C35.338,403.1841 39.2332,402.9187 43.0112,407.3681 C46.09,401.2419 50.4004,401.3384 54.6129,406.1676 C57.5011,400.8889 61.7322,400.4132 65.2845,405.4829 C69.0022,400.597 72.8283,399.5044 76.7849,405.2239 C81.7976,400.006 85.9972,400.1591 88.8092,407.3555 C92.8381,402.2275 97.4612,402.5012 101.1188,407.794 C108.4567,410.6334 110.194,417.9895 103.8792,423.2649 C109.6838,429.6665 109.5293,434.7502 101.5333,439.1084 C99.6029,445.2224 94.1138,445.6344 90.3888,440.9627 C87.4798,449.1862 83.0431,450.2278 76.95,443.9043 C76.0431,449.5815 71.3912,451.7635 66.5286,448.531 C61.9567,452.69 56.7135,452.1446 54.7775,445.6292 C48.2896,450.4154 45.093,447.791 42.9176,441.1524 C38.736,445.5695 33.7076,445.0989 31.0627,439.3589 C21.4047,438.3862 18.1838,431.1627 24.7799,423.6777 C18.6629,414.6954 21.7557,409.1204 32.2718,408.1775" fill="#F1F1F1" style="stroke:#181818;stroke-width:0.5;"/><text fill="#000000" font-family="Arial" font-size="14" lengthAdjust="spacing" textLength="55.2822" x="37.5" y="427.292">Mapbox</text></g><!--entity OpenAI--><g class="entity" data-entity="OpenAI" data-source-line="20" data-uid="ent0012" id="entity_OpenAI"><path d="M135.7338,409.4496 C138.0777,404.2003 142.7466,402.4862 147.1002,407.1438 C151.1397,402.2485 154.5163,402.2554 157.8609,407.8563 C160.5559,401.5829 163.9223,400.2808 169.1235,405.3727 C172.1534,400.1156 176.4028,400.076 180.0004,404.7511 C184.4612,398.9644 190.3496,399.7616 193.399,406.287 C196.2666,401.83 200.4042,401.8738 203.4041,406.135 C207.1143,400.1821 212.4574,401.7071 215.0924,407.2301 C219.1591,403.207 223.2574,402.4775 225.9959,408.6504 C233.5084,411.486 234.0401,416.8472 229.3262,422.6014 C236.9539,429.0931 234.8039,434.96 226.5314,438.6897 C223.331,443.5682 219.6395,443.5641 216.0212,439.163 C212.8638,444.8359 209.0581,445.8819 204.2395,441.0209 C201.6394,447.8356 197.144,446.9609 192.7729,442.8856 C190.1041,448.2989 186.001,449.4081 181.6763,444.7012 C178.2777,450.8304 172.9133,449.7198 169.9164,444.2925 C164.7316,449.1188 159.86,448.3639 157.6827,441.219 C154.1866,446.2109 150.8394,445.3963 147.422,441.1318 C142.5088,445.072 137.7951,444.6109 135.9193,437.8629 C127.1577,436.4293 125.6691,429.7665 130.3167,423.2069 C126.387,417.0354 126.9068,410.598 135.7338,409.4496" fill="#F1F1F1" style="stroke:#181818;stroke-width:0.5;"/><text fill="#000000" font-family="Arial" font-size="14" lengthAdjust="spacing" textLength="77.6973" x="141" y="427.292">OpenAI API</text></g><!--entity Supabase--><g class="entity" data-entity="Supabase" data-source-line="21" data-uid="ent0013" id="entity_Supabase"><path d="M252.5,401.2969 C252.5,391.2969 411.855,391.2969 411.855,391.2969 C411.855,391.2969 571.21,391.2969 571.21,401.2969 L571.21,442.8906 C571.21,452.8906 411.855,452.8906 411.855,452.8906 C411.855,452.8906 252.5,452.8906 252.5,442.8906 L252.5,401.2969" fill="#F1F1F1" style="stroke:#181818;stroke-width:0.5;"/><path d="M252.5,401.2969 C252.5,411.2969 411.855,411.2969 411.855,411.2969 C411.855,411.2969 571.21,411.2969 571.21,401.2969" fill="none" style="stroke:#181818;stroke-width:0.5;"/><text fill="#000000" font-family="Arial" font-size="14" lengthAdjust="spacing" textLength="202.3779" x="262.5" y="428.292">Supabase/PostGIS + Storage</text><text fill="#000000" font-family="Arial" font-size="14" lengthAdjust="spacing" textLength="298.71" x="262.5" y="444.5889">not configured in current Production demo</text></g><!--entity Gate--><g class="entity" data-entity="Gate" data-source-line="24" data-uid="ent0015" id="entity_Gate"><rect fill="#F1F1F1" height="55.5938" rx="2.5" ry="2.5" style="stroke:#181818;stroke-width:0.5;" width="235.625" x="1248" y="73.2969"/><polygon fill="#F1F1F1" points="1466.625,78.2969,1466.625,92.2969,1478.625,92.2969,1478.625,84.2969,1472.625,78.2969,1466.625,78.2969" style="stroke:#181818;stroke-width:0.5;"/><line style="stroke:#181818;stroke-width:0.5;" x1="1472.625" x2="1472.625" y1="78.2969" y2="84.2969"/><line style="stroke:#181818;stroke-width:0.5;" x1="1478.625" x2="1472.625" y1="84.2969" y2="84.2969"/><text fill="#000000" font-family="Arial" font-size="14" lengthAdjust="spacing" textLength="205.625" x="1258" y="99.292">Exact-event SHA quality gate</text><text fill="#000000" font-family="Arial" font-size="14" lengthAdjust="spacing" textLength="187.2432" x="1258" y="115.5889">checks + evidence artifact</text></g><g class="link" data-entity-1="Browser" data-entity-2="Production" data-uid="lnk16" id="link_Browser_Production"><polygon fill="#181818" points="1261.9467,216.1357,1263.196,206.3664,1260.512,211.3459,1255.5324,208.6619,1261.9467,216.1357" style="stroke:#181818;stroke-width:1;"/><path d="M859.1781,107.5677 C862.1806,108.5303 865.5647,109.6083 869.2992,110.7874 C876.7682,113.1457 885.6391,115.9089 895.6633,118.9646 C915.7118,125.0761 940.3738,132.3578 967.6618,139.9109 C1022.2377,155.0172 1087.3174,171.2092 1147,181.2969 C1157.8815,183.1361 1237.8191,181.8899 1246,189.2969 C1251.8095,194.5568 1256.0484,201.0838 1259.0996,208.2265 C1259.8624,210.0122 1260.5509,211.8364 1261.1712,213.6889 C1261.3263,214.152 1261.4771,214.6169 1261.6237,215.0834 C1261.697,215.3166 1261.7693,215.5503 1261.8406,215.7843 C1261.8762,215.9013 1260.1899,210.2708 1260.225,210.388" fill="none" style="stroke:#181818;stroke-width:1;"/><text fill="#000000" font-family="Arial" font-size="13" lengthAdjust="spacing" textLength="41.7485" x="1154" y="168.8638">HTTPS</text></g><g class="link" data-entity-1="Client" data-entity-2="BrowserStore" data-uid="lnk17" id="link_Client_BrowserStore"><polygon fill="#181818" points="694,248.1599,698,239.1599,694,243.1599,690,239.1599,694,248.1599" style="stroke:#181818;stroke-width:1;"/><path d="M694,129.3195 C694,160.9872 694,207.5267 694,242.1599" fill="none" style="stroke:#181818;stroke-width:1;"/></g><g class="link" data-entity-1="Client" data-entity-2="Mapbox" data-uid="lnk18" id="link_Client_Mapbox"><polygon fill="#181818" points="82.269,399.0989,91.1204,394.78,85.4848,395.2703,84.9946,389.6347,82.269,399.0989" style="stroke:#181818;stroke-width:1;"/><path d="M600.3764,129.3742 C479.6441,167.5549 267.3539,246.0329 117,364.2969 C104.1553,374.4001 95.6024,383.2247 86.128,394.5046" fill="none" style="stroke:#181818;stroke-width:1;"/><text fill="#000000" font-family="Arial" font-size="13" lengthAdjust="spacing" textLength="146.7642" x="435" y="288.3638">public map token path</text></g><g class="link" data-entity-1="App" data-entity-2="OpenAI" data-uid="lnk19" id="link_App_OpenAI"><polygon fill="#181818" points="198.4361,399.1473,207.507,395.3108,201.8532,395.4972,201.6668,389.8434,198.4361,399.1473" style="stroke:#181818;stroke-width:1;"/><path d="M1013.2452,303.3031 C968.8366,312.2781 913.2185,322.1989 863,327.2969 C667.9521,347.0972 617.3226,320.4201 422,337.2969 C341.8432,344.2228 315.7038,329.8404 243,364.2969 C225.806,372.4456 214.0438,382.4754 202.5366,394.7672" fill="none" style="stroke:#181818;stroke-width:1;"/><text fill="#000000" font-family="Arial" font-size="13" lengthAdjust="spacing" textLength="191.1978" x="424" y="351.3638">server-only optional key path</text></g><g class="link" data-entity-1="App" data-entity-2="Supabase" data-uid="lnk20" id="link_App_Supabase"><polygon fill="#181818" points="490.1256,391.2202,499.9423,392.0153,494.8437,389.565,497.294,384.4663,490.1256,391.2202" style="stroke:#181818;stroke-width:1;"/><path d="M1000.9799,303.3468 C958.7408,311.2195 908.4872,320.197 863,327.2969 C737.6693,346.859 703.5496,335.5573 580,364.2969 C550.1512,371.2402 523.7878,379.4106 495.7873,389.2339" fill="none" style="stroke:#181818;stroke-width:1;"/><text fill="#000000" font-family="Arial" font-size="13" lengthAdjust="spacing" textLength="138.8994" x="783" y="351.3638">readiness-gated path</text></g><g class="link" data-entity-1="App" data-entity-2="Tmp" data-uid="lnk21" id="link_App_Tmp"><polygon fill="#181818" points="1097,386.5459,1101,377.5459,1097,381.5459,1093,377.5459,1097,386.5459" style="stroke:#181818;stroke-width:1;"/><path d="M1097,303.4904 C1097,324.8109 1097,354.13 1097,380.5459" fill="none" style="stroke:#181818;stroke-width:1;"/><text fill="#000000" font-family="Arial" font-size="13" lengthAdjust="spacing" textLength="168.1177" x="1099" y="351.3638">active Production fallback</text></g><g class="link" data-entity-1="CI" data-entity-2="Preview" data-uid="lnk22" id="link_CI_Preview"><polygon fill="#181818" points="1413.7602,252.1497,1421.1784,245.6712,1415.8658,247.6147,1413.9223,242.3022,1413.7602,252.1497" style="stroke:#181818;stroke-width:1;"/><path d="M1239,137.2969 C1255.3948,148.2158 1402.4699,132.9808 1416,147.2969 C1442.2693,175.0922 1430.5085,216.0776 1416.287,246.7077" fill="none" style="stroke:#181818;stroke-width:1;"/><text fill="#000000" font-family="Arial" font-size="13" lengthAdjust="spacing" textLength="229.2646" x="1432" y="168.8638">PR commit deployment/verification</text></g><g class="link" data-entity-1="CI" data-entity-2="Production" data-uid="lnk23" id="link_CI_Production"><polygon fill="#181818" points="1261.1009,216.0964,1262.3488,206.3269,1259.6655,211.3068,1254.6855,208.6235,1261.1009,216.0964" style="stroke:#181818;stroke-width:1;"/><path d="M1205.9328,127.1425 C1205.7542,127.4889 1205.5764,127.8374 1205.3995,128.1879 C1202.5702,133.7958 1199.993,139.9207 1198.27,146.1434 C1194.8241,158.5886 1194.795,171.4246 1203,181.2969 C1215.425,196.2467 1232.2827,175.5233 1246,189.2969 C1251.5302,194.8497 1255.5934,201.5609 1258.5437,208.8095 C1259.2813,210.6216 1259.9493,212.4673 1260.5533,214.3369 C1260.7043,214.8043 1260.8513,215.2732 1260.9943,215.7434 C1261.0301,215.861 1259.3431,210.2312 1259.3784,210.3489" fill="none" style="stroke:#181818;stroke-width:1;"/><text fill="#000000" font-family="Arial" font-size="13" lengthAdjust="spacing" textLength="179.791" x="1220.0249" y="161.3638">main push quality evidence</text><text fill="#000000" font-family="Arial" font-size="13" lengthAdjust="spacing" textLength="209.8408" x="1205" y="176.4966">(no deployment control implied)</text></g><g class="link" data-entity-1="Production" data-entity-2="GMN24" data-uid="lnk26" id="link_Production_GMN24"><path d="M948.7506,363.3788 C948.5042,363.439 948.257,363.4994 948.0091,363.56 C947.0176,363.8025 946.0147,364.0481 945,364.2969 C901.3141,375.0073 852.7421,390.1975 816.477,402.2036" fill="none" style="stroke:#181818;stroke-width:1;stroke-dasharray:7,7;"/></g><!--SRC=[NLJ1Rjiu4BthAsRToousYhlN71PmqpG9q4sDEEt9m694ZMNM58SbAIV6ea0_eb_OBzaXQSLAV30fpN3qtfl7-Srvx7e4WmSU8eIU8bgieew6uFtLidxxzY_uzUCdN0xUautGaZDywDCMRGijHeI61zkYFrHXfwr3Zpqqg7QTJ-ylsR27Dn_oRv8HjjZoexOTRD04caHQsk1WuWUsyGvxWeNNQAhASaim-np8G-FvKTOPO81tPG__LG3eezwWYZ2xfxGeemNeslw3hk4dkFu8Zrko47ad_qF0nb2kSPdpfC26JIkrPiSFr8OL6WWH8wsjqRsE99ofPr22Jjj1nyCKnIgof-fxfGmFBSo-a5TaSaBPPfI5oD9pEwYesUQ2Qtj7J_7yQu0x2QVL3_A5lW2S9ASAKwOBv-1UUYUm7NOKu4_mwH6sqXz3FkG2afNFZGJdiNVpZXXruVYlDC6afgqjkItrvD6S2L9RjuD_rkcXJrM-dpZS2pBQQtfSMntOO99dZqQBBHBMYBwZU6IGyqxQV78fHTGLskJJHlJRQqK5yDNuDl4z7YbjpE6oFOK-ERABMrWiRtEuF4eu-RF185XNWykx-P93lBvTYKwfMoBPsbgEgQ4RtGrU66WBwcZtLrtAnSTAmgN8SAtZpT308kSL-9UthmnvzIHBJVjKT7MpW6-3o1GFq6LhgIsfNMgTYDIILVHyCbUxbYJvMZLwlQx_dYAxW9k7X-MgAZREqHT-dBm_teGBS4DZj88UtV4wE8pRAfaffHtblCWzaNl0rXo0nuxjwF0oVLH43dZ2LbiAeUwo6rxaYNyaHLZfFKq9ZEQhHBR2BPj5SiLXYdkvTvF1CnT4UgDLzjZfo4IE7gM5RWZRPvb7NTVsTylJ8PRkiMS3kdUYKlj7cZDoUHgEaNlWpQHmjIoQ9IESGJZOkAMerRmCYP63H7WZmr69ayDvTSTJ4zL97b7I5xi9f2YphNRQS2onyufah2OC_mC0]--></g></svg>