<svg xmlns="http://www.w3.org/2000/svg" xmlns:xlink="http://www.w3.org/1999/xlink" contentStyleType="text/css" data-diagram-type="CLASS" height="930px" preserveAspectRatio="none" style="width:1914px;height:930px;background:#FFFFFF;" version="1.1" viewBox="0 0 1914 930" width="1914px" zoomAndPan="magnify"><title>ERD-001 v1.5 &#8212; Pilot-persistence migration source model (runtime not proven)</title><defs/><g><g class="title" data-source-line="2"><text fill="#000000" font-family="Arial" font-size="14" font-weight="bold" lengthAdjust="spacing" textLength="627.1973" x="621.6514" y="22.9951">ERD-001 v1.5 &#8212; Pilot-persistence migration source model (runtime not proven)</text></g><!--class organizations--><g class="entity" data-entity="organizations" data-source-line="9" data-uid="ent0002" id="entity_organizations"><rect fill="#F1F1F1" height="96.8906" rx="2.5" ry="2.5" style="stroke:#181818;stroke-width:0.5;" width="126.5889" x="1273.1727" y="49.2969"/><ellipse cx="1288.1727" cy="65.2969" fill="#ADD1B2" rx="11" ry="11" style="stroke:#181818;stroke-width:1;"/><path d="M1292.2821,71.2969 L1284.5633,71.2969 L1284.5633,58.9063 L1292.2821,58.9063 L1292.2821,61.0625 L1287.0164,61.0625 L1287.0164,63.7344 L1291.7821,63.7344 L1291.7821,65.8906 L1287.0164,65.8906 L1287.0164,69.1406 L1292.2821,69.1406 L1292.2821,71.2969 Z " fill="#000000"/><text fill="#000000" font-family="Arial" font-size="14" lengthAdjust="spacing" textLength="94.5889" x="1302.1727" y="70.1436">organizations</text><line style="stroke:#181818;stroke-width:0.5;" x1="1274.1727" x2="1398.7616" y1="81.2969" y2="81.2969"/><ellipse cx="1284.1727" cy="94.9453" fill="#000000" rx="3" ry="3" style="stroke:#000000;stroke-width:1;"/><text fill="#000000" font-family="Arial" font-size="14" lengthAdjust="spacing" textLength="96.1201" x="1293.1727" y="98.292">id : uuid &#171;PK&#187;</text><line style="stroke:#181818;stroke-width:1;" x1="1274.1727" x2="1398.7616" y1="105.5938" y2="105.5938"/><text fill="#000000" font-family="Arial" font-size="14" lengthAdjust="spacing" textLength="81.1973" x="1279.1727" y="122.5889">name : text</text><text fill="#000000" font-family="Arial" font-size="14" lengthAdjust="spacing" textLength="84.5127" x="1279.1727" y="138.8857">status : text</text></g><!--class profiles--><g class="entity" data-entity="profiles" data-source-line="15" data-uid="ent0003" id="entity_profiles"><rect fill="#F1F1F1" height="96.8906" rx="2.5" ry="2.5" style="stroke:#181818;stroke-width:0.5;" width="363.1348" x="1300.1727" y="190.2969"/><ellipse cx="1451.5784" cy="206.2969" fill="#ADD1B2" rx="11" ry="11" style="stroke:#181818;stroke-width:1;"/><path d="M1455.6878,212.2969 L1447.9691,212.2969 L1447.9691,199.9063 L1455.6878,199.9063 L1455.6878,202.0625 L1450.4222,202.0625 L1450.4222,204.7344 L1455.1878,204.7344 L1455.1878,206.8906 L1450.4222,206.8906 L1450.4222,210.1406 L1455.6878,210.1406 L1455.6878,212.2969 Z " fill="#000000"/><text fill="#000000" font-family="Arial" font-size="14" lengthAdjust="spacing" textLength="51.8232" x="1472.0784" y="211.1436">profiles</text><line style="stroke:#181818;stroke-width:0.5;" x1="1301.1727" x2="1662.3074" y1="222.2969" y2="222.2969"/><ellipse cx="1311.1727" cy="235.9453" fill="#000000" rx="3" ry="3" style="stroke:#000000;stroke-width:1;"/><text fill="#000000" font-family="Arial" font-size="14" lengthAdjust="spacing" textLength="96.1201" x="1320.1727" y="239.292">id : uuid &#171;PK&#187;</text><line style="stroke:#181818;stroke-width:1;" x1="1301.1727" x2="1662.3074" y1="246.5938" y2="246.5938"/><text fill="#000000" font-family="Arial" font-size="14" lengthAdjust="spacing" textLength="351.1348" x="1306.1727" y="263.5889">auth_user_id : uuid &#171;identity link; no declared FK&#187;</text><text fill="#000000" font-family="Arial" font-size="14" lengthAdjust="spacing" textLength="80.1035" x="1306.1727" y="279.8857">email : text</text></g><!--class projects--><g class="entity" data-entity="projects" data-source-line="21" data-uid="ent0004" id="entity_projects"><rect fill="#F1F1F1" height="113.1875" rx="2.5" ry="2.5" style="stroke:#181818;stroke-width:0.5;" width="202.0254" x="841.6727" y="182.2969"/><ellipse cx="910.3397" cy="198.2969" fill="#ADD1B2" rx="11" ry="11" style="stroke:#181818;stroke-width:1;"/><path d="M914.4491,204.2969 L906.7303,204.2969 L906.7303,191.9063 L914.4491,191.9063 L914.4491,194.0625 L909.1834,194.0625 L909.1834,196.7344 L913.9491,196.7344 L913.9491,198.8906 L909.1834,198.8906 L909.1834,202.1406 L914.4491,202.1406 L914.4491,204.2969 Z " fill="#000000"/><text fill="#000000" font-family="Arial" font-size="14" lengthAdjust="spacing" textLength="56.1914" x="930.8397" y="203.1436">projects</text><line style="stroke:#181818;stroke-width:0.5;" x1="842.6727" x2="1042.6981" y1="214.2969" y2="214.2969"/><ellipse cx="852.6727" cy="227.9453" fill="#000000" rx="3" ry="3" style="stroke:#000000;stroke-width:1;"/><text fill="#000000" font-family="Arial" font-size="14" lengthAdjust="spacing" textLength="96.1201" x="861.6727" y="231.292">id : uuid &#171;PK&#187;</text><line style="stroke:#181818;stroke-width:1;" x1="842.6727" x2="1042.6981" y1="238.5938" y2="238.5938"/><text fill="#000000" font-family="Arial" font-size="14" lengthAdjust="spacing" textLength="190.0254" x="847.6727" y="255.5889">organization_id : uuid &#171;FK&#187;</text><text fill="#000000" font-family="Arial" font-size="14" lengthAdjust="spacing" textLength="122.3975" x="847.6727" y="271.8857">project_key : text</text><text fill="#000000" font-family="Arial" font-size="14" lengthAdjust="spacing" textLength="84.5127" x="847.6727" y="288.1826">status : text</text></g><!--class project_memberships--><g class="entity" data-entity="project_memberships" data-source-line="28" data-uid="ent0005" id="entity_project_memberships"><rect fill="#F1F1F1" height="129.4844" rx="2.5" ry="2.5" style="stroke:#181818;stroke-width:0.5;" width="218.7666" x="1641.1727" y="331.2969"/><ellipse cx="1672.142" cy="347.2969" fill="#ADD1B2" rx="11" ry="11" style="stroke:#181818;stroke-width:1;"/><path d="M1676.2513,353.2969 L1668.5326,353.2969 L1668.5326,340.9063 L1676.2513,340.9063 L1676.2513,343.0625 L1670.9857,343.0625 L1670.9857,345.7344 L1675.7513,345.7344 L1675.7513,347.8906 L1670.9857,347.8906 L1670.9857,351.1406 L1676.2513,351.1406 L1676.2513,353.2969 Z " fill="#000000"/><text fill="#000000" font-family="Arial" font-size="14" lengthAdjust="spacing" textLength="151.2793" x="1689.6907" y="352.1436">project_memberships</text><line style="stroke:#181818;stroke-width:0.5;" x1="1642.1727" x2="1858.9393" y1="363.2969" y2="363.2969"/><ellipse cx="1652.1727" cy="376.9453" fill="#000000" rx="3" ry="3" style="stroke:#000000;stroke-width:1;"/><text fill="#000000" font-family="Arial" font-size="14" lengthAdjust="spacing" textLength="96.1201" x="1661.1727" y="380.292">id : uuid &#171;PK&#187;</text><line style="stroke:#181818;stroke-width:1;" x1="1642.1727" x2="1858.9393" y1="387.5938" y2="387.5938"/><text fill="#000000" font-family="Arial" font-size="14" lengthAdjust="spacing" textLength="190.0254" x="1647.1727" y="404.5889">organization_id : uuid &#171;FK&#187;</text><text fill="#000000" font-family="Arial" font-size="14" lengthAdjust="spacing" textLength="151.6279" x="1647.1727" y="420.8857">project_id : uuid &#171;FK&#187;</text><text fill="#000000" font-family="Arial" font-size="14" lengthAdjust="spacing" textLength="206.7666" x="1647.1727" y="437.1826">user_id : uuid &#171;FK profiles.id&#187;</text><text fill="#000000" font-family="Arial" font-size="14" lengthAdjust="spacing" textLength="68.3184" x="1647.1727" y="453.4795">role : text</text></g><!--class aois--><g class="entity" data-entity="aois" data-source-line="36" data-uid="ent0006" id="entity_aois"><rect fill="#F1F1F1" height="113.1875" rx="2.5" ry="2.5" style="stroke:#181818;stroke-width:0.5;" width="172.4395" x="1072.6727" y="339.2969"/><ellipse cx="1140.4783" cy="355.2969" fill="#ADD1B2" rx="11" ry="11" style="stroke:#181818;stroke-width:1;"/><path d="M1144.5877,361.2969 L1136.869,361.2969 L1136.869,348.9063 L1144.5877,348.9063 L1144.5877,351.0625 L1139.3221,351.0625 L1139.3221,353.7344 L1144.0877,353.7344 L1144.0877,355.8906 L1139.3221,355.8906 L1139.3221,359.1406 L1144.5877,359.1406 L1144.5877,361.2969 Z " fill="#000000"/><text fill="#000000" font-family="Arial" font-size="14" lengthAdjust="spacing" textLength="28.3281" x="1160.9783" y="360.1436">aois</text><line style="stroke:#181818;stroke-width:0.5;" x1="1073.6727" x2="1244.1121" y1="371.2969" y2="371.2969"/><ellipse cx="1083.6727" cy="384.9453" fill="#000000" rx="3" ry="3" style="stroke:#000000;stroke-width:1;"/><text fill="#000000" font-family="Arial" font-size="14" lengthAdjust="spacing" textLength="96.1201" x="1092.6727" y="388.292">id : uuid &#171;PK&#187;</text><line style="stroke:#181818;stroke-width:1;" x1="1073.6727" x2="1244.1121" y1="395.5938" y2="395.5938"/><text fill="#000000" font-family="Arial" font-size="14" lengthAdjust="spacing" textLength="151.6279" x="1078.6727" y="412.5889">project_id : uuid &#171;FK&#187;</text><text fill="#000000" font-family="Arial" font-size="14" lengthAdjust="spacing" textLength="149.3105" x="1078.6727" y="428.8857">geometry : geometry</text><text fill="#000000" font-family="Arial" font-size="14" lengthAdjust="spacing" textLength="160.4395" x="1078.6727" y="445.1826">validation_status : text</text></g><!--class analysis_runs--><g class="entity" data-entity="analysis_runs" data-source-line="43" data-uid="ent0007" id="entity_analysis_runs"><rect fill="#F1F1F1" height="129.4844" rx="2.5" ry="2.5" style="stroke:#181818;stroke-width:0.5;" width="296.7783" x="899.1727" y="661.2969"/><ellipse cx="996.0721" cy="677.2969" fill="#ADD1B2" rx="11" ry="11" style="stroke:#181818;stroke-width:1;"/><path d="M1000.1815,683.2969 L992.4627,683.2969 L992.4627,670.9063 L1000.1815,670.9063 L1000.1815,673.0625 L994.9158,673.0625 L994.9158,675.7344 L999.6815,675.7344 L999.6815,677.8906 L994.9158,677.8906 L994.9158,681.1406 L1000.1815,681.1406 L1000.1815,683.2969 Z " fill="#000000"/><text fill="#000000" font-family="Arial" font-size="14" lengthAdjust="spacing" textLength="94.4795" x="1016.5721" y="682.1436">analysis_runs</text><line style="stroke:#181818;stroke-width:0.5;" x1="900.1727" x2="1194.951" y1="693.2969" y2="693.2969"/><ellipse cx="910.1727" cy="706.9453" fill="#000000" rx="3" ry="3" style="stroke:#000000;stroke-width:1;"/><text fill="#000000" font-family="Arial" font-size="14" lengthAdjust="spacing" textLength="96.1201" x="919.1727" y="710.292">id : uuid &#171;PK&#187;</text><line style="stroke:#181818;stroke-width:1;" x1="900.1727" x2="1194.951" y1="717.5938" y2="717.5938"/><text fill="#000000" font-family="Arial" font-size="14" lengthAdjust="spacing" textLength="151.6279" x="905.1727" y="734.5889">project_id : uuid &#171;FK&#187;</text><text fill="#000000" font-family="Arial" font-size="14" lengthAdjust="spacing" textLength="249.8057" x="905.1727" y="750.8857">selected_aoi_id : uuid &#171;FK nullable&#187;</text><text fill="#000000" font-family="Arial" font-size="14" lengthAdjust="spacing" textLength="284.7783" x="905.1727" y="767.1826">ai_decision_score_id : uuid &#171;FK nullable&#187;</text><text fill="#000000" font-family="Arial" font-size="14" lengthAdjust="spacing" textLength="126.6631" x="905.1727" y="783.4795">result_json : jsonb</text></g><!--class ai_decision_scores--><g class="entity" data-entity="ai_decision_scores" data-source-line="51" data-uid="ent0008" id="entity_ai_decision_scores"><rect fill="#F1F1F1" height="129.4844" rx="2.5" ry="2.5" style="stroke:#181818;stroke-width:0.5;" width="261.8057" x="892.6727" y="496.2969"/><ellipse cx="954.6268" cy="512.2969" fill="#ADD1B2" rx="11" ry="11" style="stroke:#181818;stroke-width:1;"/><path d="M958.7362,518.2969 L951.0174,518.2969 L951.0174,505.9063 L958.7362,505.9063 L958.7362,508.0625 L953.4705,508.0625 L953.4705,510.7344 L958.2362,510.7344 L958.2362,512.8906 L953.4705,512.8906 L953.4705,516.1406 L958.7362,516.1406 L958.7362,518.2969 Z " fill="#000000"/><text fill="#000000" font-family="Arial" font-size="14" lengthAdjust="spacing" textLength="129.3975" x="975.1268" y="517.1436">ai_decision_scores</text><line style="stroke:#181818;stroke-width:0.5;" x1="893.6727" x2="1153.4783" y1="528.2969" y2="528.2969"/><ellipse cx="903.6727" cy="541.9453" fill="#000000" rx="3" ry="3" style="stroke:#000000;stroke-width:1;"/><text fill="#000000" font-family="Arial" font-size="14" lengthAdjust="spacing" textLength="96.1201" x="912.6727" y="545.292">id : uuid &#171;PK&#187;</text><line style="stroke:#181818;stroke-width:1;" x1="893.6727" x2="1153.4783" y1="552.5938" y2="552.5938"/><text fill="#000000" font-family="Arial" font-size="14" lengthAdjust="spacing" textLength="151.6279" x="898.6727" y="569.5889">project_id : uuid &#171;FK&#187;</text><text fill="#000000" font-family="Arial" font-size="14" lengthAdjust="spacing" textLength="226.8779" x="898.6727" y="585.8857">analysis_run_key : text &#171;not FK&#187;</text><text fill="#000000" font-family="Arial" font-size="14" lengthAdjust="spacing" textLength="249.8057" x="898.6727" y="602.1826">selected_aoi_id : uuid &#171;FK nullable&#187;</text><text fill="#000000" font-family="Arial" font-size="14" lengthAdjust="spacing" textLength="147.8066" x="898.6727" y="618.4795">raw_response : jsonb</text></g><!--class reports--><g class="entity" data-entity="reports" data-source-line="59" data-uid="ent0009" id="entity_reports"><rect fill="#F1F1F1" height="96.8906" rx="2.5" ry="2.5" style="stroke:#181818;stroke-width:0.5;" width="261.8604" x="1028.6727" y="826.2969"/><ellipse cx="1130.1727" cy="842.2969" fill="#ADD1B2" rx="11" ry="11" style="stroke:#181818;stroke-width:1;"/><path d="M1134.2821,848.2969 L1126.5633,848.2969 L1126.5633,835.9063 L1134.2821,835.9063 L1134.2821,838.0625 L1129.0164,838.0625 L1129.0164,840.7344 L1133.7821,840.7344 L1133.7821,842.8906 L1129.0164,842.8906 L1129.0164,846.1406 L1134.2821,846.1406 L1134.2821,848.2969 Z " fill="#000000"/><text fill="#000000" font-family="Arial" font-size="14" lengthAdjust="spacing" textLength="50.3604" x="1150.6727" y="847.1436">reports</text><line style="stroke:#181818;stroke-width:0.5;" x1="1029.6727" x2="1289.533" y1="858.2969" y2="858.2969"/><ellipse cx="1039.6727" cy="871.9453" fill="#000000" rx="3" ry="3" style="stroke:#000000;stroke-width:1;"/><text fill="#000000" font-family="Arial" font-size="14" lengthAdjust="spacing" textLength="96.1201" x="1048.6727" y="875.292">id : uuid &#171;PK&#187;</text><line style="stroke:#181818;stroke-width:1;" x1="1029.6727" x2="1289.533" y1="882.5938" y2="882.5938"/><text fill="#000000" font-family="Arial" font-size="14" lengthAdjust="spacing" textLength="151.6279" x="1034.6727" y="899.5889">project_id : uuid &#171;FK&#187;</text><text fill="#000000" font-family="Arial" font-size="14" lengthAdjust="spacing" textLength="249.8604" x="1034.6727" y="915.8857">analysis_run_id : uuid &#171;FK nullable&#187;</text></g><!--class comparison_sets--><g class="entity" data-entity="comparison_sets" data-source-line="65" data-uid="ent0010" id="entity_comparison_sets"><rect fill="#F1F1F1" height="96.8906" rx="2.5" ry="2.5" style="stroke:#181818;stroke-width:0.5;" width="163.6279" x="42.6727" y="347.2969"/><ellipse cx="64.0597" cy="363.2969" fill="#ADD1B2" rx="11" ry="11" style="stroke:#181818;stroke-width:1;"/><path d="M68.1691,369.2969 L60.4503,369.2969 L60.4503,356.9063 L68.1691,356.9063 L68.1691,359.0625 L62.9034,359.0625 L62.9034,361.7344 L67.6691,361.7344 L67.6691,363.8906 L62.9034,363.8906 L62.9034,367.1406 L68.1691,367.1406 L68.1691,369.2969 Z " fill="#000000"/><text fill="#000000" font-family="Arial" font-size="14" lengthAdjust="spacing" textLength="117.4346" x="79.479" y="368.1436">comparison_sets</text><line style="stroke:#181818;stroke-width:0.5;" x1="43.6727" x2="205.3006" y1="379.2969" y2="379.2969"/><ellipse cx="53.6727" cy="392.9453" fill="#000000" rx="3" ry="3" style="stroke:#000000;stroke-width:1;"/><text fill="#000000" font-family="Arial" font-size="14" lengthAdjust="spacing" textLength="96.1201" x="62.6727" y="396.292">id : uuid &#171;PK&#187;</text><line style="stroke:#181818;stroke-width:1;" x1="43.6727" x2="205.3006" y1="403.5938" y2="403.5938"/><text fill="#000000" font-family="Arial" font-size="14" lengthAdjust="spacing" textLength="151.6279" x="48.6727" y="420.5889">project_id : uuid &#171;FK&#187;</text><text fill="#000000" font-family="Arial" font-size="14" lengthAdjust="spacing" textLength="106.7979" x="48.6727" y="436.8857">payload : jsonb</text></g><!--class uploaded_datasets--><g class="entity" data-entity="uploaded_datasets" data-source-line="71" data-uid="ent0011" id="entity_uploaded_datasets"><rect fill="#F1F1F1" height="96.8906" rx="2.5" ry="2.5" style="stroke:#181818;stroke-width:0.5;" width="164.4053" x="224.6727" y="347.2969"/><ellipse cx="239.6727" cy="363.2969" fill="#ADD1B2" rx="11" ry="11" style="stroke:#181818;stroke-width:1;"/><path d="M243.7821,369.2969 L236.0633,369.2969 L236.0633,356.9063 L243.7821,356.9063 L243.7821,359.0625 L238.5164,359.0625 L238.5164,361.7344 L243.2821,361.7344 L243.2821,363.8906 L238.5164,363.8906 L238.5164,367.1406 L243.7821,367.1406 L243.7821,369.2969 Z " fill="#000000"/><text fill="#000000" font-family="Arial" font-size="14" lengthAdjust="spacing" textLength="132.4053" x="253.6727" y="368.1436">uploaded_datasets</text><line style="stroke:#181818;stroke-width:0.5;" x1="225.6727" x2="388.078" y1="379.2969" y2="379.2969"/><ellipse cx="235.6727" cy="392.9453" fill="#000000" rx="3" ry="3" style="stroke:#000000;stroke-width:1;"/><text fill="#000000" font-family="Arial" font-size="14" lengthAdjust="spacing" textLength="96.1201" x="244.6727" y="396.292">id : uuid &#171;PK&#187;</text><line style="stroke:#181818;stroke-width:1;" x1="225.6727" x2="388.078" y1="403.5938" y2="403.5938"/><text fill="#000000" font-family="Arial" font-size="14" lengthAdjust="spacing" textLength="151.6279" x="230.6727" y="420.5889">project_id : uuid &#171;FK&#187;</text><text fill="#000000" font-family="Arial" font-size="14" lengthAdjust="spacing" textLength="133.5059" x="230.6727" y="436.8857">storage_path : text</text></g><!--class data_room_assets--><g class="entity" data-entity="data_room_assets" data-source-line="77" data-uid="ent0012" id="entity_data_room_assets"><rect fill="#F1F1F1" height="96.8906" rx="2.5" ry="2.5" style="stroke:#181818;stroke-width:0.5;" width="163.6279" x="406.6727" y="347.2969"/><ellipse cx="423.9253" cy="363.2969" fill="#ADD1B2" rx="11" ry="11" style="stroke:#181818;stroke-width:1;"/><path d="M428.0347,369.2969 L420.3159,369.2969 L420.3159,356.9063 L428.0347,356.9063 L428.0347,359.0625 L422.7691,359.0625 L422.7691,361.7344 L427.5347,361.7344 L427.5347,363.8906 L422.7691,363.8906 L422.7691,367.1406 L428.0347,367.1406 L428.0347,369.2969 Z " fill="#000000"/><text fill="#000000" font-family="Arial" font-size="14" lengthAdjust="spacing" textLength="126.6221" x="438.4259" y="368.1436">data_room_assets</text><line style="stroke:#181818;stroke-width:0.5;" x1="407.6727" x2="569.3006" y1="379.2969" y2="379.2969"/><ellipse cx="417.6727" cy="392.9453" fill="#000000" rx="3" ry="3" style="stroke:#000000;stroke-width:1;"/><text fill="#000000" font-family="Arial" font-size="14" lengthAdjust="spacing" textLength="96.1201" x="426.6727" y="396.292">id : uuid &#171;PK&#187;</text><line style="stroke:#181818;stroke-width:1;" x1="407.6727" x2="569.3006" y1="403.5938" y2="403.5938"/><text fill="#000000" font-family="Arial" font-size="14" lengthAdjust="spacing" textLength="151.6279" x="412.6727" y="420.5889">project_id : uuid &#171;FK&#187;</text><text fill="#000000" font-family="Arial" font-size="14" lengthAdjust="spacing" textLength="133.5059" x="412.6727" y="436.8857">storage_path : text</text></g><!--class source_registry_snapshots--><g class="entity" data-entity="source_registry_snapshots" data-source-line="83" data-uid="ent0013" id="entity_source_registry_snapshots"><rect fill="#F1F1F1" height="129.4844" rx="2.5" ry="2.5" style="stroke:#181818;stroke-width:0.5;" width="223.5723" x="588.6727" y="331.2969"/><ellipse cx="606.2176" cy="347.2969" fill="#ADD1B2" rx="11" ry="11" style="stroke:#181818;stroke-width:1;"/><path d="M610.3269,353.2969 L602.6082,353.2969 L602.6082,340.9063 L610.3269,340.9063 L610.3269,343.0625 L605.0613,343.0625 L605.0613,345.7344 L609.8269,345.7344 L609.8269,347.8906 L605.0613,347.8906 L605.0613,351.1406 L610.3269,351.1406 L610.3269,353.2969 Z " fill="#000000"/><text fill="#000000" font-family="Arial" font-size="14" lengthAdjust="spacing" textLength="185.917" x="620.7831" y="352.1436">source_registry_snapshots</text><line style="stroke:#181818;stroke-width:0.5;" x1="589.6727" x2="811.2449" y1="363.2969" y2="363.2969"/><ellipse cx="599.6727" cy="376.9453" fill="#000000" rx="3" ry="3" style="stroke:#000000;stroke-width:1;"/><text fill="#000000" font-family="Arial" font-size="14" lengthAdjust="spacing" textLength="96.1201" x="608.6727" y="380.292">id : uuid &#171;PK&#187;</text><line style="stroke:#181818;stroke-width:1;" x1="589.6727" x2="811.2449" y1="387.5938" y2="387.5938"/><text fill="#000000" font-family="Arial" font-size="14" lengthAdjust="spacing" textLength="211.5723" x="594.6727" y="404.5889">project_id : uuid &#171;FK nullable&#187;</text><text fill="#000000" font-family="Arial" font-size="14" lengthAdjust="spacing" textLength="108.0693" x="594.6727" y="420.8857">source_id : text</text><text fill="#000000" font-family="Arial" font-size="14" lengthAdjust="spacing" textLength="99.0186" x="594.6727" y="437.1826">quality : jsonb</text><text fill="#000000" font-family="Arial" font-size="14" lengthAdjust="spacing" textLength="102.4707" x="594.6727" y="453.4795">lineage : jsonb</text></g><!--class external_data_snapshots--><g class="entity" data-entity="external_data_snapshots" data-source-line="91" data-uid="ent0014" id="entity_external_data_snapshots"><rect fill="#F1F1F1" height="129.4844" rx="2.5" ry="2.5" style="stroke:#181818;stroke-width:0.5;" width="223.5723" x="830.6727" y="331.2969"/><ellipse cx="853.2286" cy="347.2969" fill="#ADD1B2" rx="11" ry="11" style="stroke:#181818;stroke-width:1;"/><path d="M857.338,353.2969 L849.6193,353.2969 L849.6193,340.9063 L857.338,340.9063 L857.338,343.0625 L852.0724,343.0625 L852.0724,345.7344 L856.838,345.7344 L856.838,347.8906 L852.0724,347.8906 L852.0724,351.1406 L857.338,351.1406 L857.338,353.2969 Z " fill="#000000"/><text fill="#000000" font-family="Arial" font-size="14" lengthAdjust="spacing" textLength="174.7813" x="868.9077" y="352.1436">external_data_snapshots</text><line style="stroke:#181818;stroke-width:0.5;" x1="831.6727" x2="1053.2449" y1="363.2969" y2="363.2969"/><ellipse cx="841.6727" cy="376.9453" fill="#000000" rx="3" ry="3" style="stroke:#000000;stroke-width:1;"/><text fill="#000000" font-family="Arial" font-size="14" lengthAdjust="spacing" textLength="96.1201" x="850.6727" y="380.292">id : uuid &#171;PK&#187;</text><line style="stroke:#181818;stroke-width:1;" x1="831.6727" x2="1053.2449" y1="387.5938" y2="387.5938"/><text fill="#000000" font-family="Arial" font-size="14" lengthAdjust="spacing" textLength="211.5723" x="836.6727" y="404.5889">project_id : uuid &#171;FK nullable&#187;</text><text fill="#000000" font-family="Arial" font-size="14" lengthAdjust="spacing" textLength="108.0693" x="836.6727" y="420.8857">source_id : text</text><text fill="#000000" font-family="Arial" font-size="14" lengthAdjust="spacing" textLength="99.0186" x="836.6727" y="437.1826">quality : jsonb</text><text fill="#000000" font-family="Arial" font-size="14" lengthAdjust="spacing" textLength="112.4307" x="836.6727" y="453.4795">manifest : jsonb</text></g><!--class audit_events--><g class="entity" data-entity="audit_events" data-source-line="99" data-uid="ent0015" id="entity_audit_events"><rect fill="#F1F1F1" height="96.8906" rx="2.5" ry="2.5" style="stroke:#181818;stroke-width:0.5;" width="321.7979" x="1300.6727" y="347.2969"/><ellipse cx="1412.3787" cy="363.2969" fill="#ADD1B2" rx="11" ry="11" style="stroke:#181818;stroke-width:1;"/><path d="M1416.4881,369.2969 L1408.7694,369.2969 L1408.7694,356.9063 L1416.4881,356.9063 L1416.4881,359.0625 L1411.2225,359.0625 L1411.2225,361.7344 L1415.9881,361.7344 L1415.9881,363.8906 L1411.2225,363.8906 L1411.2225,367.1406 L1416.4881,367.1406 L1416.4881,369.2969 Z " fill="#000000"/><text fill="#000000" font-family="Arial" font-size="14" lengthAdjust="spacing" textLength="89.8857" x="1432.8787" y="368.1436">audit_events</text><line style="stroke:#181818;stroke-width:0.5;" x1="1301.6727" x2="1621.4705" y1="379.2969" y2="379.2969"/><ellipse cx="1311.6727" cy="392.9453" fill="#000000" rx="3" ry="3" style="stroke:#000000;stroke-width:1;"/><text fill="#000000" font-family="Arial" font-size="14" lengthAdjust="spacing" textLength="96.1201" x="1320.6727" y="396.292">id : uuid &#171;PK&#187;</text><line style="stroke:#181818;stroke-width:1;" x1="1301.6727" x2="1621.4705" y1="403.5938" y2="403.5938"/><text fill="#000000" font-family="Arial" font-size="14" lengthAdjust="spacing" textLength="211.5723" x="1306.6727" y="420.5889">project_id : uuid &#171;FK nullable&#187;</text><text fill="#000000" font-family="Arial" font-size="14" lengthAdjust="spacing" textLength="309.7979" x="1306.6727" y="436.8857">actor_user_id : uuid &#171;FK profiles.id nullable&#187;</text></g><g class="entity" data-entity="GMN34" data-source-line="126" data-uid="ent0035" id="entity_GMN34"><path d="M1301.1727,533.2969 L1301.1727,588.6953 A0,0 0 0 0 1301.1727,588.6953 L1907.89,588.6953 A0,0 0 0 0 1907.89,588.6953 L1907.89,543.2969 L1897.89,533.2969 L1585.3516,533.2969 L1503.4186,444.3814 L1577.3516,533.2969 L1301.1727,533.2969 A0,0 0 0 0 1301.1727,533.2969" fill="#FEFFDD" style="stroke:#181818;stroke-width:0.5;"/><path d="M1897.89,533.2969 L1897.89,543.2969 L1907.89,543.2969 L1897.89,533.2969" fill="#FEFFDD" style="stroke:#181818;stroke-width:0.5;"/><text fill="#000000" font-family="Arial" font-size="13" lengthAdjust="spacing" textLength="576.1895" x="1307.1727" y="550.3638">This compact model maps declared migration fields and explicit FK relations. It does not</text><text fill="#000000" font-family="Arial" font-size="13" lengthAdjust="spacing" textLength="585.7173" x="1307.1727" y="565.4966">prove ordered fresh-database applicability or the live applied schema. Current Production</text><text fill="#000000" font-family="Arial" font-size="13" lengthAdjust="spacing" textLength="371.2998" x="1307.1727" y="580.6294">does not have durable Supabase persistence configured.</text></g><g class="link" data-entity-1="organizations" data-entity-2="projects" data-uid="lnk16" id="link_organizations_projects"><line style="stroke:#181818;stroke-width:1;" x1="1267.829" x2="1270.4905" y1="118.8428" y2="126.387"/><line style="stroke:#181818;stroke-width:1;" x1="1264.9999" x2="1267.6614" y1="119.8408" y2="127.3851"/><line style="stroke:#181818;stroke-width:1;" x1="1265.3876" x2="1272.9319" y1="123.9457" y2="121.2841"/><line style="stroke:#181818;stroke-width:1;" x1="1051.5658" x2="1046.0177" y1="199.3803" y2="207.7"/><line style="stroke:#181818;stroke-width:1;" x1="1051.5658" x2="1042.0253" y1="199.3803" y2="196.3836"/><line style="stroke:#181818;stroke-width:1;" x1="1051.5658" x2="1044.0215" y1="199.3803" y2="202.0418"/><ellipse cx="1057.224" cy="197.3841" fill="none" rx="4" ry="4" style="stroke:#181818;stroke-width:1;"/><path d="M1265.3876,123.9457 C1203.5341,145.7671 1133.2047,170.5787 1060.9961,196.0533" fill="none" style="stroke:#181818;stroke-width:1;"/></g><g class="link" data-entity-1="organizations" data-entity-2="project_memberships" data-uid="lnk17" id="link_organizations_project_memberships"><line style="stroke:#181818;stroke-width:1;" x1="1403.667" x2="1404.8553" y1="112.0292" y2="104.118"/><line style="stroke:#181818;stroke-width:1;" x1="1406.6337" x2="1407.822" y1="112.4748" y2="104.5636"/><line style="stroke:#181818;stroke-width:1;" x1="1408.2168" x2="1400.3055" y1="108.6677" y2="107.4795"/><line style="stroke:#181818;stroke-width:1;" x1="1741.4915" x2="1748.8846" y1="323.1865" y2="329.9202"/><line style="stroke:#181818;stroke-width:1;" x1="1741.4915" x2="1737.0973" y1="323.1865" y2="332.1693"/><line style="stroke:#181818;stroke-width:1;" x1="1741.4915" x2="1742.9909" y1="323.1865" y2="331.0447"/><ellipse cx="1740.3669" cy="317.2929" fill="none" rx="4" ry="4" style="stroke:#181818;stroke-width:1;"/><path d="M1408.2168,108.6677 C1493.803,121.5227 1631.9613,146.7892 1671.6727,182.2969 C1714.2169,220.3375 1730.5372,265.7777 1739.6172,313.3637" fill="none" style="stroke:#181818;stroke-width:1;"/></g><g class="link" data-entity-1="projects" data-entity-2="project_memberships" data-uid="lnk18" id="link_projects_project_memberships"><line style="stroke:#181818;stroke-width:1;" x1="1047.0097" x2="1048.3405" y1="261.9736" y2="254.085"/><line style="stroke:#181818;stroke-width:1;" x1="1049.968" x2="1051.2987" y1="262.4726" y2="254.5841"/><line style="stroke:#181818;stroke-width:1;" x1="1051.6194" x2="1043.7308" y1="258.6947" y2="257.364"/><line style="stroke:#181818;stroke-width:1;" x1="1633.5653" x2="1643.1123" y1="331.7456" y2="328.7698"/><line style="stroke:#181818;stroke-width:1;" x1="1633.5653" x2="1639.0952" y1="331.7456" y2="340.0775"/><line style="stroke:#181818;stroke-width:1;" x1="1633.5653" x2="1641.1038" y1="331.7456" y2="334.4236"/><ellipse cx="1627.9115" cy="329.7371" fill="none" rx="4" ry="4" style="stroke:#181818;stroke-width:1;"/><path d="M1051.6194,258.6947 C1120.9628,270.3921 1207.2781,284.2527 1290.6727,295.2969 C1441.7514,315.3046 1485.9774,286.5983 1631.6727,331.2969 C1634.8069,332.2584 1620.9927,327.2791 1624.1423,328.398" fill="none" style="stroke:#181818;stroke-width:1;"/></g><g class="link" data-entity-1="profiles" data-entity-2="project_memberships" data-uid="lnk19" id="link_profiles_project_memberships"><line style="stroke:#181818;stroke-width:1;" x1="1565.6784" x2="1569.6725" y1="292.8182" y2="285.8866"/><line style="stroke:#181818;stroke-width:1;" x1="1568.2778" x2="1572.2719" y1="294.316" y2="287.3843"/><line style="stroke:#181818;stroke-width:1;" x1="1571.1413" x2="1564.2097" y1="291.3494" y2="287.3554"/><line style="stroke:#181818;stroke-width:1;" x1="1634.0943" x2="1644.0215" y1="327.6235" y2="326.4188"/><line style="stroke:#181818;stroke-width:1;" x1="1634.0943" x2="1638.0304" y1="327.6235" y2="336.8163"/><line style="stroke:#181818;stroke-width:1;" x1="1634.0943" x2="1641.026" y1="327.6235" y2="331.6175"/><ellipse cx="1628.8956" cy="324.6279" fill="none" rx="4" ry="4" style="stroke:#181818;stroke-width:1;"/><path d="M1571.1413,291.3494 C1595.3885,305.3209 1599.7704,307.8457 1625.4298,322.6309" fill="none" style="stroke:#181818;stroke-width:1;"/></g><g class="link" data-entity-1="projects" data-entity-2="aois" data-uid="lnk20" id="link_projects_aois"><line style="stroke:#181818;stroke-width:1;" x1="1020.9613" x2="1025.6254" y1="300.8995" y2="294.3999"/><line style="stroke:#181818;stroke-width:1;" x1="1023.3987" x2="1028.0628" y1="302.6486" y2="296.1489"/><line style="stroke:#181818;stroke-width:1;" x1="1026.5432" x2="1020.0435" y1="299.9818" y2="295.3176"/><line style="stroke:#181818;stroke-width:1;" x1="1074.6163" x2="1084.6141" y1="334.4787" y2="334.268"/><line style="stroke:#181818;stroke-width:1;" x1="1074.6163" x2="1077.6179" y1="334.4787" y2="344.0176"/><line style="stroke:#181818;stroke-width:1;" x1="1074.6163" x2="1081.116" y1="334.4787" y2="339.1428"/><ellipse cx="1069.7416" cy="330.9806" fill="none" rx="4" ry="4" style="stroke:#181818;stroke-width:1;"/><path d="M1026.5432,299.9818 C1046.3958,314.2278 1046.6298,314.3957 1066.4917,328.6485" fill="none" style="stroke:#181818;stroke-width:1;"/></g><g class="link" data-entity-1="projects" data-entity-2="analysis_runs" data-uid="lnk21" id="link_projects_analysis_runs"><line style="stroke:#181818;stroke-width:1;" x1="837.267" x2="837.5169" y1="238.6201" y2="246.6162"/><line style="stroke:#181818;stroke-width:1;" x1="834.2685" x2="834.5184" y1="238.7138" y2="246.7099"/><line style="stroke:#181818;stroke-width:1;" x1="833.3939" x2="841.39" y1="242.7431" y2="242.4932"/><line style="stroke:#181818;stroke-width:1;" x1="891.0966" x2="899.7818" y1="707.1111" y2="702.1546"/><line style="stroke:#181818;stroke-width:1;" x1="891.0966" x2="898.2867" y1="707.1111" y2="714.0611"/><line style="stroke:#181818;stroke-width:1;" x1="891.0966" x2="899.0342" y1="707.1111" y2="708.1079"/><ellipse cx="885.1433" cy="706.3635" fill="none" rx="4" ry="4" style="stroke:#181818;stroke-width:1;"/><path d="M833.3939,242.7431 C607.7022,249.7964 87.067,272.258 33.6727,331.2969 C-4.7844,373.8194 -1.3804,414.9274 33.6727,460.2969 C139.0299,596.6617 625.8525,673.8029 881.1745,705.8651" fill="none" style="stroke:#181818;stroke-width:1;"/></g><g class="link" data-entity-1="aois" data-entity-2="analysis_runs" data-uid="lnk22" id="link_aois_analysis_runs"><line style="stroke:#181818;stroke-width:1;" x1="1175.1511" x2="1173.044" y1="463.4296" y2="452.6334"/><ellipse cx="1175.1511" cy="463.4296" fill="none" rx="4" ry="4" style="stroke:#181818;stroke-width:1;"/><line style="stroke:#181818;stroke-width:1;" x1="1169.8843" x2="1177.7361" y1="457.3255" y2="455.793"/><line style="stroke:#181818;stroke-width:1;" x1="1144.5986" x2="1143.6071" y1="655.1338" y2="665.0845"/><line style="stroke:#181818;stroke-width:1;" x1="1144.5986" x2="1134.7683" y1="655.1338" y2="656.9681"/><line style="stroke:#181818;stroke-width:1;" x1="1144.5986" x2="1139.1877" y1="655.1338" y2="661.0263"/><ellipse cx="1148.6569" cy="650.7144" fill="none" rx="4" ry="4" style="stroke:#181818;stroke-width:1;"/><path d="M1175.9174,467.3556 C1185.2946,515.4014 1188.7823,570.6775 1163.6727,625.2969 C1157.6881,638.3147 1161.2416,637.0098 1151.3623,647.7682" fill="none" style="stroke:#181818;stroke-width:1;"/></g><g class="link" data-entity-1="aois" data-entity-2="ai_decision_scores" data-uid="lnk23" id="link_aois_ai_decision_scores"><line style="stroke:#181818;stroke-width:1;" x1="1105.5745" x2="1112.5909" y1="460.908" y2="452.4363"/><ellipse cx="1105.5745" cy="460.908" fill="none" rx="4" ry="4" style="stroke:#181818;stroke-width:1;"/><line style="stroke:#181818;stroke-width:1;" x1="1106.9589" x2="1113.1201" y1="452.9655" y2="458.0684"/><line style="stroke:#181818;stroke-width:1;" x1="1081.3816" x2="1080.8996" y1="490.1187" y2="500.1071"/><line style="stroke:#181818;stroke-width:1;" x1="1081.3816" x2="1071.6578" y1="490.1187" y2="492.4528"/><line style="stroke:#181818;stroke-width:1;" x1="1081.3816" x2="1076.2787" y1="490.1187" y2="496.28"/><ellipse cx="1085.2087" cy="485.4978" fill="none" rx="4" ry="4" style="stroke:#181818;stroke-width:1;"/><path d="M1103.0231,463.9886 C1091.3363,478.0993 1099.7433,467.9486 1087.7601,482.4172" fill="none" style="stroke:#181818;stroke-width:1;"/></g><g class="link" data-entity-1="ai_decision_scores" data-entity-2="analysis_runs" data-uid="lnk24" id="link_ai_decision_scores_analysis_runs"><line style="stroke:#181818;stroke-width:1;" x1="1034.6916" x2="1033.0892" y1="636.6336" y2="625.751"/><ellipse cx="1034.6916" cy="636.6336" fill="none" rx="4" ry="4" style="stroke:#181818;stroke-width:1;"/><line style="stroke:#181818;stroke-width:1;" x1="1029.7146" x2="1037.6292" y1="630.291" y2="629.1256"/><line style="stroke:#181818;stroke-width:1;" x1="1037.1573" x2="1044.2587" y1="653.3799" y2="660.4206"/><line style="stroke:#181818;stroke-width:1;" x1="1037.1573" x2="1032.3867" y1="653.3799" y2="662.1686"/><line style="stroke:#181818;stroke-width:1;" x1="1037.1573" x2="1038.3227" y1="653.3799" y2="661.2946"/><ellipse cx="1036.2833" cy="647.4439" fill="none" rx="4" ry="4" style="stroke:#181818;stroke-width:1;"/><path d="M1035.2743,640.591 C1036.9946,652.2749 1033.9822,631.8159 1035.7006,643.4866" fill="none" style="stroke:#181818;stroke-width:1;"/></g><g class="link" data-entity-1="projects" data-entity-2="reports" data-uid="lnk25" id="link_projects_reports"><line style="stroke:#181818;stroke-width:1;" x1="1047.0456" x2="1048.5424" y1="260.855" y2="252.9963"/><line style="stroke:#181818;stroke-width:1;" x1="1049.9926" x2="1051.4894" y1="261.4163" y2="253.5576"/><line style="stroke:#181818;stroke-width:1;" x1="1051.7233" x2="1043.8646" y1="257.674" y2="256.1772"/><line style="stroke:#181818;stroke-width:1;" x1="1192.7561" x2="1194.3575" y1="818.9781" y2="828.8491"/><line style="stroke:#181818;stroke-width:1;" x1="1192.7561" x2="1183.7284" y1="818.9781" y2="823.2793"/><line style="stroke:#181818;stroke-width:1;" x1="1192.7561" x2="1189.0429" y1="818.9781" y2="826.0642"/><ellipse cx="1195.541" cy="813.6636" fill="none" rx="4" ry="4" style="stroke:#181818;stroke-width:1;"/><path d="M1051.7233,257.674 C1132.4481,273.0492 1228.2171,297.273 1253.6727,331.2969 C1302.9234,397.1251 1258.29,628.9624 1204.6727,790.2969 C1200.6737,802.3299 1203.3639,798.7348 1197.3976,810.1206" fill="none" style="stroke:#181818;stroke-width:1;"/></g><g class="link" data-entity-1="analysis_runs" data-entity-2="reports" data-uid="lnk26" id="link_analysis_runs_reports"><line style="stroke:#181818;stroke-width:1;" x1="1102.8126" x2="1096.1461" y1="799.168" y2="790.4183"/><ellipse cx="1102.8126" cy="799.168" fill="none" rx="4" ry="4" style="stroke:#181818;stroke-width:1;"/><line style="stroke:#181818;stroke-width:1;" x1="1095.3886" x2="1101.752" y1="796.0242" y2="791.1758"/><line style="stroke:#181818;stroke-width:1;" x1="1118.4358" x2="1128.0567" y1="819.6734" y2="822.4006"/><line style="stroke:#181818;stroke-width:1;" x1="1118.4358" x2="1118.5115" y1="819.6734" y2="829.6731"/><line style="stroke:#181818;stroke-width:1;" x1="1118.4358" x2="1123.2841" y1="819.6734" y2="826.0369"/><ellipse cx="1114.7995" cy="814.9008" fill="none" rx="4" ry="4" style="stroke:#181818;stroke-width:1;"/><path d="M1105.2368,802.3497 C1114.3412,814.2993 1103.7165,800.3544 1112.3753,811.7191" fill="none" style="stroke:#181818;stroke-width:1;"/></g><g class="link" data-entity-1="projects" data-entity-2="comparison_sets" data-uid="lnk27" id="link_projects_comparison_sets"><line style="stroke:#181818;stroke-width:1;" x1="837.1009" x2="837.6771" y1="242.822" y2="250.8012"/><line style="stroke:#181818;stroke-width:1;" x1="834.1087" x2="834.6849" y1="243.038" y2="251.0173"/><line style="stroke:#181818;stroke-width:1;" x1="833.3994" x2="841.3786" y1="247.0997" y2="246.5235"/><line style="stroke:#181818;stroke-width:1;" x1="191.0994" x2="187.4632" y1="343.0506" y2="352.3661"/><line style="stroke:#181818;stroke-width:1;" x1="191.0994" x2="181.1384" y1="343.0506" y2="342.1682"/><line style="stroke:#181818;stroke-width:1;" x1="191.0994" x2="184.3008" y1="343.0506" y2="347.2672"/><ellipse cx="196.1983" cy="339.8882" fill="none" rx="4" ry="4" style="stroke:#181818;stroke-width:1;"/><path d="M833.3994,247.0997 C661.3215,259.5248 327.6494,288.2223 215.6727,331.2969 C204.9744,335.4122 209.6301,331.5576 199.5976,337.7799" fill="none" style="stroke:#181818;stroke-width:1;"/></g><g class="link" data-entity-1="projects" data-entity-2="uploaded_datasets" data-uid="lnk28" id="link_projects_uploaded_datasets"><line style="stroke:#181818;stroke-width:1;" x1="837.3641" x2="837.869" y1="239.7659" y2="247.7499"/><line style="stroke:#181818;stroke-width:1;" x1="834.3701" x2="834.8749" y1="239.9552" y2="247.9392"/><line style="stroke:#181818;stroke-width:1;" x1="833.6245" x2="841.6085" y1="244.0103" y2="243.5054"/><line style="stroke:#181818;stroke-width:1;" x1="374.0057" x2="370.3819" y1="342.9555" y2="352.2758"/><line style="stroke:#181818;stroke-width:1;" x1="374.0057" x2="364.0435" y1="342.9555" y2="342.0864"/><line style="stroke:#181818;stroke-width:1;" x1="374.0057" x2="367.2127" y1="342.9555" y2="347.1811"/><ellipse cx="379.1004" cy="339.7863" fill="none" rx="4" ry="4" style="stroke:#181818;stroke-width:1;"/><path d="M833.6245,244.0103 C721.3964,251.1071 544.6667,271.253 397.6727,331.2969 C387.3288,335.5221 392.2851,331.5847 382.4969,337.6735" fill="none" style="stroke:#181818;stroke-width:1;"/></g><g class="link" data-entity-1="projects" data-entity-2="data_room_assets" data-uid="lnk29" id="link_projects_data_room_assets"><line style="stroke:#181818;stroke-width:1;" x1="836.9111" x2="838.3561" y1="251.9224" y2="259.7908"/><line style="stroke:#181818;stroke-width:1;" x1="833.9605" x2="835.4055" y1="252.4643" y2="260.3327"/><line style="stroke:#181818;stroke-width:1;" x1="833.6994" x2="841.5678" y1="256.5791" y2="255.1341"/><line style="stroke:#181818;stroke-width:1;" x1="557.3105" x2="553.7425" y1="343.0176" y2="352.3594"/><line style="stroke:#181818;stroke-width:1;" x1="557.3105" x2="547.3434" y1="343.0176" y2="342.208"/><line style="stroke:#181818;stroke-width:1;" x1="557.3105" x2="550.5429" y1="343.0176" y2="347.2837"/><ellipse cx="562.3862" cy="339.818" fill="none" rx="4" ry="4" style="stroke:#181818;stroke-width:1;"/><path d="M833.6994,256.5791 C758.9912,270.2993 663.9291,292.8501 579.6727,331.2969 C569.8579,335.7754 575.2097,331.7344 565.77,337.685" fill="none" style="stroke:#181818;stroke-width:1;"/></g><g class="link" data-entity-1="projects" data-entity-2="source_registry_snapshots" data-uid="lnk30" id="link_projects_source_registry_snapshots"><line style="stroke:#181818;stroke-width:1;" x1="846.7258" x2="855.9887" y1="301.2505" y2="295.3176"/><ellipse cx="846.7258" cy="301.2505" fill="none" rx="4" ry="4" style="stroke:#181818;stroke-width:1;"/><line style="stroke:#181818;stroke-width:1;" x1="850.4629" x2="854.7777" y1="294.1067" y2="300.8434"/><line style="stroke:#181818;stroke-width:1;" x1="806.6611" x2="803.1605" y1="326.9118" y2="336.279"/><line style="stroke:#181818;stroke-width:1;" x1="806.6611" x2="796.6883" y1="326.9118" y2="326.1741"/><line style="stroke:#181818;stroke-width:1;" x1="806.6611" x2="799.9244" y1="326.9118" y2="331.2266"/><ellipse cx="811.7136" cy="323.6757" fill="none" rx="4" ry="4" style="stroke:#181818;stroke-width:1;"/><path d="M843.3574,303.4079 C825.1839,315.048 833.6731,309.6107 815.0819,321.5183" fill="none" style="stroke:#181818;stroke-width:1;"/></g><g class="link" data-entity-1="projects" data-entity-2="external_data_snapshots" data-uid="lnk31" id="link_projects_external_data_snapshots"><line style="stroke:#181818;stroke-width:1;" x1="942.6727" x2="942.6727" y1="306.3176" y2="295.3176"/><ellipse cx="942.6727" cy="306.3176" fill="none" rx="4" ry="4" style="stroke:#181818;stroke-width:1;"/><line style="stroke:#181818;stroke-width:1;" x1="938.6727" x2="946.6727" y1="299.3176" y2="299.3176"/><line style="stroke:#181818;stroke-width:1;" x1="942.6727" x2="948.6727" y1="323.2266" y2="331.2266"/><line style="stroke:#181818;stroke-width:1;" x1="942.6727" x2="936.6727" y1="323.2266" y2="331.2266"/><line style="stroke:#181818;stroke-width:1;" x1="942.6727" x2="942.6727" y1="323.2266" y2="331.2266"/><ellipse cx="942.6727" cy="317.2266" fill="none" rx="4" ry="4" style="stroke:#181818;stroke-width:1;"/><path d="M942.6727,310.3176 C942.6727,321.9577 942.6727,301.319 942.6727,313.2266" fill="none" style="stroke:#181818;stroke-width:1;"/></g><g class="link" data-entity-1="projects" data-entity-2="audit_events" data-uid="lnk32" id="link_projects_audit_events"><line style="stroke:#181818;stroke-width:1;" x1="1054.4907" x2="1043.8195" y1="266.8749" y2="264.2055"/><ellipse cx="1054.4907" cy="266.8749" fill="none" rx="4" ry="4" style="stroke:#181818;stroke-width:1;"/><line style="stroke:#181818;stroke-width:1;" x1="1046.7292" x2="1048.6706" y1="269.0566" y2="261.2958"/><line style="stroke:#181818;stroke-width:1;" x1="1326.9636" x2="1336.4891" y1="344.5565" y2="341.5126"/><line style="stroke:#181818;stroke-width:1;" x1="1326.9636" x2="1332.5528" y1="344.5565" y2="352.8487"/><line style="stroke:#181818;stroke-width:1;" x1="1326.9636" x2="1334.5209" y1="344.5565" y2="347.1807"/><ellipse cx="1321.2956" cy="342.5884" fill="none" rx="4" ry="4" style="stroke:#181818;stroke-width:1;"/><path d="M1058.3711,267.8456 C1127.2649,285.0797 1205.7437,305.9052 1286.6727,331.2969 C1302.2459,336.183 1301.4808,335.7081 1317.5169,341.2763" fill="none" style="stroke:#181818;stroke-width:1;"/></g><g class="link" data-entity-1="profiles" data-entity-2="audit_events" data-uid="lnk33" id="link_profiles_audit_events"><line style="stroke:#181818;stroke-width:1;" x1="1474.1011" x2="1475.5088" y1="298.4763" y2="287.5667"/><ellipse cx="1474.1011" cy="298.4763" fill="none" rx="4" ry="4" style="stroke:#181818;stroke-width:1;"/><line style="stroke:#181818;stroke-width:1;" x1="1471.0298" x2="1478.9641" y1="291.022" y2="292.0457"/><line style="stroke:#181818;stroke-width:1;" x1="1468.84" x2="1473.7669" y1="339.2505" y2="347.9526"/><line style="stroke:#181818;stroke-width:1;" x1="1468.84" x2="1461.8655" y1="339.2505" y2="346.4169"/><line style="stroke:#181818;stroke-width:1;" x1="1468.84" x2="1467.8162" y1="339.2505" y2="347.1847"/><ellipse cx="1469.6078" cy="333.2999" fill="none" rx="4" ry="4" style="stroke:#181818;stroke-width:1;"/><path d="M1473.5893,302.4434 C1471.1446,321.3899 1472.5624,310.4018 1470.1197,329.3327" fill="none" style="stroke:#181818;stroke-width:1;"/></g><!--SRC=[lLRRRjD047ttLmpY1P0IjG-y55G95IAXIgW2tgs9Tn9li_QOlQI45ecFu0lv4cPj9tNYN2Wfv269FPTpPdOk-wIoE2qG32uuU705UImnyTeRWdSVtmvEJavXVZfy2Rz-_8GhRTWFAh9EEqzbHb3egKMlkGJ7mSONhCZ0CnjAhmk2aZrKbkTKFazohKHEFcVbcWTnOedzeYANk9akAxHOm1YpsTHoADK56xRmT5H_EXekHyKtkfp218sZZaJH18Fn8oxz1nJyDrQZIH8IDdu1RATOwcyrOGUt2S0Bq0hE80JvUVtwwlByN5uE1l9LHlCpyFJLovFpw8DRFdzVEfJG9jhG8LyOV9u6HpRjQaW66Yz6bxDNaYfXdncqf63K65E1scm3lQRC7mBj1hk6spfltQGpMln9dBLkGSLOJZ_NrMEXRn7r4ZMwN2Lwg5MjOzbGZoMoFaHh3-oKM8hJncGi_yhREHgjcYXsv4RwnIoa8LAf-IFW7HcHa4ebYiteos0CZWtLYgXJgHFjQaePMzghRSb9FwJNJbhq3EBFk4DzqzKH_BjfwDIKACGPyD0WBTwaGgUIFgK-RqiLM_zOP7VpM05cNCXyqIxcYOu1hd1X65K_f535zv8PAJOy3iDvbg5EQOK-xrLhT9zQvY95zmzXccqWHpYLJM4NgIknSZd_9TvwRRI-QvLsR7q9qgP-iKehn9bAmgwVQ34WAyTV9_h_yofaAax8-ItD69JsAScgV1GscCdvf0TcwNgn9-lxyUvkCE3RrRhPA-rkXcIreFRhD9lp0NxYVE-_x8xVf5u1Ttn8qfjxoPPHkDND9dmxYfBrBT2QBeMRHXlZf2Vl3OEUncORTnGQw9qDsDFSqH0zlMvzTevlYp2HYKymPk-vI3xdalSwuCotjyD28ExlElTNo8acevmaN0cfokXCnyKXMJHDpGtXlGV5WYe0INsjb7k6ekXb8YUM3s88OyaOO1NjSQnDS-y3dvFCX7ah4GENvNAz6i95i5POmvLb5RA8aomX84SnKC763e5FeMfyT- -_6PSJFGt2O2XzhA8L_GO0]--></g></svg>