<svg xmlns="http://www.w3.org/2000/svg" xmlns:xlink="http://www.w3.org/1999/xlink" contentStyleType="text/css" data-diagram-type="CLASS" height="749px" preserveAspectRatio="none" style="width:1427px;height:749px;background:#FFFFFF;" version="1.1" viewBox="0 0 1427 749" width="1427px" zoomAndPan="magnify"><title>ERD-001 &#8212; Implemented pilot-persistence foundation (not activated in Production)</title><defs/><g><g class="title" data-source-line="2"><text fill="#000000" font-family="Arial" font-size="14" font-weight="bold" lengthAdjust="spacing" textLength="658.1299" x="380.6851" y="22.9951">ERD-001 &#8212; Implemented pilot-persistence foundation (not activated in Production)</text></g><!--class organizations--><g class="entity" data-entity="organizations" data-source-line="9" data-uid="ent0002" id="entity_organizations"><rect fill="#F1F1F1" height="96.8906" rx="2.5" ry="2.5" style="stroke:#181818;stroke-width:0.5;" width="126.5889" x="237" y="49.2969"/><ellipse cx="252" cy="65.2969" fill="#ADD1B2" rx="11" ry="11" style="stroke:#181818;stroke-width:1;"/><path d="M256.1094,71.2969 L248.3906,71.2969 L248.3906,58.9063 L256.1094,58.9063 L256.1094,61.0625 L250.8438,61.0625 L250.8438,63.7344 L255.6094,63.7344 L255.6094,65.8906 L250.8438,65.8906 L250.8438,69.1406 L256.1094,69.1406 L256.1094,71.2969 Z " fill="#000000"/><text fill="#000000" font-family="Arial" font-size="14" lengthAdjust="spacing" textLength="94.5889" x="266" y="70.1436">organizations</text><line style="stroke:#181818;stroke-width:0.5;" x1="238" x2="362.5889" y1="81.2969" y2="81.2969"/><ellipse cx="248" cy="94.9453" fill="#000000" rx="3" ry="3" style="stroke:#000000;stroke-width:1;"/><text fill="#000000" font-family="Arial" font-size="14" lengthAdjust="spacing" textLength="96.1201" x="257" y="98.292">id : uuid &#171;PK&#187;</text><line style="stroke:#181818;stroke-width:1;" x1="238" x2="362.5889" y1="105.5938" y2="105.5938"/><text fill="#000000" font-family="Arial" font-size="14" lengthAdjust="spacing" textLength="81.1973" x="243" y="122.5889">name : text</text><text fill="#000000" font-family="Arial" font-size="14" lengthAdjust="spacing" textLength="84.5127" x="243" y="138.8857">status : text</text></g><!--class profiles--><g class="entity" data-entity="profiles" data-source-line="15" data-uid="ent0003" id="entity_profiles"><rect fill="#F1F1F1" height="96.8906" rx="2.5" ry="2.5" style="stroke:#181818;stroke-width:0.5;" width="222.6152" x="45" y="190.2969"/><ellipse cx="126.146" cy="206.2969" fill="#ADD1B2" rx="11" ry="11" style="stroke:#181818;stroke-width:1;"/><path d="M130.2554,212.2969 L122.5366,212.2969 L122.5366,199.9063 L130.2554,199.9063 L130.2554,202.0625 L124.9897,202.0625 L124.9897,204.7344 L129.7554,204.7344 L129.7554,206.8906 L124.9897,206.8906 L124.9897,210.1406 L130.2554,210.1406 L130.2554,212.2969 Z " fill="#000000"/><text fill="#000000" font-family="Arial" font-size="14" lengthAdjust="spacing" textLength="51.8232" x="146.646" y="211.1436">profiles</text><line style="stroke:#181818;stroke-width:0.5;" x1="46" x2="266.6152" y1="222.2969" y2="222.2969"/><ellipse cx="56" cy="235.9453" fill="#000000" rx="3" ry="3" style="stroke:#000000;stroke-width:1;"/><text fill="#000000" font-family="Arial" font-size="14" lengthAdjust="spacing" textLength="196.6152" x="65" y="239.292">id : uuid &#171;PK/FK auth.users&#187;</text><line style="stroke:#181818;stroke-width:1;" x1="46" x2="266.6152" y1="246.5938" y2="246.5938"/><text fill="#000000" font-family="Arial" font-size="14" lengthAdjust="spacing" textLength="190.0254" x="51" y="263.5889">organization_id : uuid &#171;FK&#187;</text><text fill="#000000" font-family="Arial" font-size="14" lengthAdjust="spacing" textLength="80.1035" x="51" y="279.8857">email : text</text></g><!--class projects--><g class="entity" data-entity="projects" data-source-line="21" data-uid="ent0004" id="entity_projects"><rect fill="#F1F1F1" height="113.1875" rx="2.5" ry="2.5" style="stroke:#181818;stroke-width:0.5;" width="202.0254" x="344.5" y="182.2969"/><ellipse cx="413.167" cy="198.2969" fill="#ADD1B2" rx="11" ry="11" style="stroke:#181818;stroke-width:1;"/><path d="M417.2764,204.2969 L409.5576,204.2969 L409.5576,191.9063 L417.2764,191.9063 L417.2764,194.0625 L412.0107,194.0625 L412.0107,196.7344 L416.7764,196.7344 L416.7764,198.8906 L412.0107,198.8906 L412.0107,202.1406 L417.2764,202.1406 L417.2764,204.2969 Z " fill="#000000"/><text fill="#000000" font-family="Arial" font-size="14" lengthAdjust="spacing" textLength="56.1914" x="433.667" y="203.1436">projects</text><line style="stroke:#181818;stroke-width:0.5;" x1="345.5" x2="545.5254" y1="214.2969" y2="214.2969"/><ellipse cx="355.5" cy="227.9453" fill="#000000" rx="3" ry="3" style="stroke:#000000;stroke-width:1;"/><text fill="#000000" font-family="Arial" font-size="14" lengthAdjust="spacing" textLength="96.1201" x="364.5" y="231.292">id : uuid &#171;PK&#187;</text><line style="stroke:#181818;stroke-width:1;" x1="345.5" x2="545.5254" y1="238.5938" y2="238.5938"/><text fill="#000000" font-family="Arial" font-size="14" lengthAdjust="spacing" textLength="190.0254" x="350.5" y="255.5889">organization_id : uuid &#171;FK&#187;</text><text fill="#000000" font-family="Arial" font-size="14" lengthAdjust="spacing" textLength="122.3975" x="350.5" y="271.8857">project_key : text</text><text fill="#000000" font-family="Arial" font-size="14" lengthAdjust="spacing" textLength="84.5127" x="350.5" y="288.1826">status : text</text></g><!--class project_memberships--><g class="entity" data-entity="project_memberships" data-source-line="28" data-uid="ent0005" id="entity_project_memberships"><rect fill="#F1F1F1" height="96.8906" rx="2.5" ry="2.5" style="stroke:#181818;stroke-width:0.5;" width="183.2793" x="6" y="339.2969"/><ellipse cx="21" cy="355.2969" fill="#ADD1B2" rx="11" ry="11" style="stroke:#181818;stroke-width:1;"/><path d="M25.1094,361.2969 L17.3906,361.2969 L17.3906,348.9063 L25.1094,348.9063 L25.1094,351.0625 L19.8438,351.0625 L19.8438,353.7344 L24.6094,353.7344 L24.6094,355.8906 L19.8438,355.8906 L19.8438,359.1406 L25.1094,359.1406 L25.1094,361.2969 Z " fill="#000000"/><text fill="#000000" font-family="Arial" font-size="14" lengthAdjust="spacing" textLength="151.2793" x="35" y="360.1436">project_memberships</text><line style="stroke:#181818;stroke-width:0.5;" x1="7" x2="188.2793" y1="371.2969" y2="371.2969"/><ellipse cx="17" cy="384.9453" fill="#000000" rx="3" ry="3" style="stroke:#000000;stroke-width:1;"/><text fill="#000000" font-family="Arial" font-size="14" lengthAdjust="spacing" textLength="151.6279" x="26" y="388.292">project_id : uuid &#171;FK&#187;</text><ellipse cx="17" cy="401.2422" fill="#000000" rx="3" ry="3" style="stroke:#000000;stroke-width:1;"/><text fill="#000000" font-family="Arial" font-size="14" lengthAdjust="spacing" textLength="133.2666" x="26" y="404.5889">user_id : uuid &#171;FK&#187;</text><line style="stroke:#181818;stroke-width:1;" x1="7" x2="188.2793" y1="411.8906" y2="411.8906"/><text fill="#000000" font-family="Arial" font-size="14" lengthAdjust="spacing" textLength="68.3184" x="12" y="428.8857">role : text</text></g><!--class aois--><g class="entity" data-entity="aois" data-source-line="34" data-uid="ent0006" id="entity_aois"><rect fill="#F1F1F1" height="113.1875" rx="2.5" ry="2.5" style="stroke:#181818;stroke-width:0.5;" width="172.4395" x="207.5" y="331.2969"/><ellipse cx="275.3057" cy="347.2969" fill="#ADD1B2" rx="11" ry="11" style="stroke:#181818;stroke-width:1;"/><path d="M279.415,353.2969 L271.6963,353.2969 L271.6963,340.9063 L279.415,340.9063 L279.415,343.0625 L274.1494,343.0625 L274.1494,345.7344 L278.915,345.7344 L278.915,347.8906 L274.1494,347.8906 L274.1494,351.1406 L279.415,351.1406 L279.415,353.2969 Z " fill="#000000"/><text fill="#000000" font-family="Arial" font-size="14" lengthAdjust="spacing" textLength="28.3281" x="295.8057" y="352.1436">aois</text><line style="stroke:#181818;stroke-width:0.5;" x1="208.5" x2="378.9395" y1="363.2969" y2="363.2969"/><ellipse cx="218.5" cy="376.9453" fill="#000000" rx="3" ry="3" style="stroke:#000000;stroke-width:1;"/><text fill="#000000" font-family="Arial" font-size="14" lengthAdjust="spacing" textLength="96.1201" x="227.5" y="380.292">id : uuid &#171;PK&#187;</text><line style="stroke:#181818;stroke-width:1;" x1="208.5" x2="378.9395" y1="387.5938" y2="387.5938"/><text fill="#000000" font-family="Arial" font-size="14" lengthAdjust="spacing" textLength="151.6279" x="213.5" y="404.5889">project_id : uuid &#171;FK&#187;</text><text fill="#000000" font-family="Arial" font-size="14" lengthAdjust="spacing" textLength="149.3105" x="213.5" y="420.8857">geometry : geometry</text><text fill="#000000" font-family="Arial" font-size="14" lengthAdjust="spacing" textLength="160.4395" x="213.5" y="437.1826">validation_status : text</text></g><!--class analysis_runs--><g class="entity" data-entity="analysis_runs" data-source-line="41" data-uid="ent0007" id="entity_analysis_runs"><rect fill="#F1F1F1" height="113.1875" rx="2.5" ry="2.5" style="stroke:#181818;stroke-width:0.5;" width="195.709" x="208.5" y="480.2969"/><ellipse cx="254.8647" cy="496.2969" fill="#ADD1B2" rx="11" ry="11" style="stroke:#181818;stroke-width:1;"/><path d="M258.9741,502.2969 L251.2554,502.2969 L251.2554,489.9063 L258.9741,489.9063 L258.9741,492.0625 L253.7085,492.0625 L253.7085,494.7344 L258.4741,494.7344 L258.4741,496.8906 L253.7085,496.8906 L253.7085,500.1406 L258.9741,500.1406 L258.9741,502.2969 Z " fill="#000000"/><text fill="#000000" font-family="Arial" font-size="14" lengthAdjust="spacing" textLength="94.4795" x="275.3647" y="501.1436">analysis_runs</text><line style="stroke:#181818;stroke-width:0.5;" x1="209.5" x2="403.209" y1="512.2969" y2="512.2969"/><ellipse cx="219.5" cy="525.9453" fill="#000000" rx="3" ry="3" style="stroke:#000000;stroke-width:1;"/><text fill="#000000" font-family="Arial" font-size="14" lengthAdjust="spacing" textLength="96.1201" x="228.5" y="529.292">id : uuid &#171;PK&#187;</text><line style="stroke:#181818;stroke-width:1;" x1="209.5" x2="403.209" y1="536.5938" y2="536.5938"/><text fill="#000000" font-family="Arial" font-size="14" lengthAdjust="spacing" textLength="151.6279" x="214.5" y="553.5889">project_id : uuid &#171;FK&#187;</text><text fill="#000000" font-family="Arial" font-size="14" lengthAdjust="spacing" textLength="183.709" x="214.5" y="569.8857">aoi_id : uuid &#171;FK nullable&#187;</text><text fill="#000000" font-family="Arial" font-size="14" lengthAdjust="spacing" textLength="91.041" x="214.5" y="586.1826">result : jsonb</text></g><!--class ai_decision_scores--><g class="entity" data-entity="ai_decision_scores" data-source-line="48" data-uid="ent0008" id="entity_ai_decision_scores"><rect fill="#F1F1F1" height="113.1875" rx="2.5" ry="2.5" style="stroke:#181818;stroke-width:0.5;" width="261.8604" x="34.5" y="629.2969"/><ellipse cx="96.4814" cy="645.2969" fill="#ADD1B2" rx="11" ry="11" style="stroke:#181818;stroke-width:1;"/><path d="M100.5908,651.2969 L92.8721,651.2969 L92.8721,638.9063 L100.5908,638.9063 L100.5908,641.0625 L95.3252,641.0625 L95.3252,643.7344 L100.0908,643.7344 L100.0908,645.8906 L95.3252,645.8906 L95.3252,649.1406 L100.5908,649.1406 L100.5908,651.2969 Z " fill="#000000"/><text fill="#000000" font-family="Arial" font-size="14" lengthAdjust="spacing" textLength="129.3975" x="116.9814" y="650.1436">ai_decision_scores</text><line style="stroke:#181818;stroke-width:0.5;" x1="35.5" x2="295.3604" y1="661.2969" y2="661.2969"/><ellipse cx="45.5" cy="674.9453" fill="#000000" rx="3" ry="3" style="stroke:#000000;stroke-width:1;"/><text fill="#000000" font-family="Arial" font-size="14" lengthAdjust="spacing" textLength="96.1201" x="54.5" y="678.292">id : uuid &#171;PK&#187;</text><line style="stroke:#181818;stroke-width:1;" x1="35.5" x2="295.3604" y1="685.5938" y2="685.5938"/><text fill="#000000" font-family="Arial" font-size="14" lengthAdjust="spacing" textLength="151.6279" x="40.5" y="702.5889">project_id : uuid &#171;FK&#187;</text><text fill="#000000" font-family="Arial" font-size="14" lengthAdjust="spacing" textLength="249.8604" x="40.5" y="718.8857">analysis_run_id : uuid &#171;FK nullable&#187;</text><text fill="#000000" font-family="Arial" font-size="14" lengthAdjust="spacing" textLength="151.7236" x="40.5" y="735.1826">score_payload : jsonb</text></g><!--class reports--><g class="entity" data-entity="reports" data-source-line="55" data-uid="ent0009" id="entity_reports"><rect fill="#F1F1F1" height="96.8906" rx="2.5" ry="2.5" style="stroke:#181818;stroke-width:0.5;" width="261.8604" x="314.5" y="637.2969"/><ellipse cx="416" cy="653.2969" fill="#ADD1B2" rx="11" ry="11" style="stroke:#181818;stroke-width:1;"/><path d="M420.1094,659.2969 L412.3906,659.2969 L412.3906,646.9063 L420.1094,646.9063 L420.1094,649.0625 L414.8438,649.0625 L414.8438,651.7344 L419.6094,651.7344 L419.6094,653.8906 L414.8438,653.8906 L414.8438,657.1406 L420.1094,657.1406 L420.1094,659.2969 Z " fill="#000000"/><text fill="#000000" font-family="Arial" font-size="14" lengthAdjust="spacing" textLength="50.3604" x="436.5" y="658.1436">reports</text><line style="stroke:#181818;stroke-width:0.5;" x1="315.5" x2="575.3604" y1="669.2969" y2="669.2969"/><ellipse cx="325.5" cy="682.9453" fill="#000000" rx="3" ry="3" style="stroke:#000000;stroke-width:1;"/><text fill="#000000" font-family="Arial" font-size="14" lengthAdjust="spacing" textLength="96.1201" x="334.5" y="686.292">id : uuid &#171;PK&#187;</text><line style="stroke:#181818;stroke-width:1;" x1="315.5" x2="575.3604" y1="693.5938" y2="693.5938"/><text fill="#000000" font-family="Arial" font-size="14" lengthAdjust="spacing" textLength="151.6279" x="320.5" y="710.5889">project_id : uuid &#171;FK&#187;</text><text fill="#000000" font-family="Arial" font-size="14" lengthAdjust="spacing" textLength="249.8604" x="320.5" y="726.8857">analysis_run_id : uuid &#171;FK nullable&#187;</text></g><!--class comparison_sets--><g class="entity" data-entity="comparison_sets" data-source-line="61" data-uid="ent0010" id="entity_comparison_sets"><rect fill="#F1F1F1" height="96.8906" rx="2.5" ry="2.5" style="stroke:#181818;stroke-width:0.5;" width="163.6279" x="473.5" y="339.2969"/><ellipse cx="494.887" cy="355.2969" fill="#ADD1B2" rx="11" ry="11" style="stroke:#181818;stroke-width:1;"/><path d="M498.9964,361.2969 L491.2776,361.2969 L491.2776,348.9063 L498.9964,348.9063 L498.9964,351.0625 L493.7308,351.0625 L493.7308,353.7344 L498.4964,353.7344 L498.4964,355.8906 L493.7308,355.8906 L493.7308,359.1406 L498.9964,359.1406 L498.9964,361.2969 Z " fill="#000000"/><text fill="#000000" font-family="Arial" font-size="14" lengthAdjust="spacing" textLength="117.4346" x="510.3063" y="360.1436">comparison_sets</text><line style="stroke:#181818;stroke-width:0.5;" x1="474.5" x2="636.1279" y1="371.2969" y2="371.2969"/><ellipse cx="484.5" cy="384.9453" fill="#000000" rx="3" ry="3" style="stroke:#000000;stroke-width:1;"/><text fill="#000000" font-family="Arial" font-size="14" lengthAdjust="spacing" textLength="96.1201" x="493.5" y="388.292">id : uuid &#171;PK&#187;</text><line style="stroke:#181818;stroke-width:1;" x1="474.5" x2="636.1279" y1="395.5938" y2="395.5938"/><text fill="#000000" font-family="Arial" font-size="14" lengthAdjust="spacing" textLength="151.6279" x="479.5" y="412.5889">project_id : uuid &#171;FK&#187;</text><text fill="#000000" font-family="Arial" font-size="14" lengthAdjust="spacing" textLength="106.7979" x="479.5" y="428.8857">payload : jsonb</text></g><!--class uploaded_datasets--><g class="entity" data-entity="uploaded_datasets" data-source-line="67" data-uid="ent0011" id="entity_uploaded_datasets"><rect fill="#F1F1F1" height="96.8906" rx="2.5" ry="2.5" style="stroke:#181818;stroke-width:0.5;" width="164.4053" x="655.5" y="339.2969"/><ellipse cx="670.5" cy="355.2969" fill="#ADD1B2" rx="11" ry="11" style="stroke:#181818;stroke-width:1;"/><path d="M674.6094,361.2969 L666.8906,361.2969 L666.8906,348.9063 L674.6094,348.9063 L674.6094,351.0625 L669.3438,351.0625 L669.3438,353.7344 L674.1094,353.7344 L674.1094,355.8906 L669.3438,355.8906 L669.3438,359.1406 L674.6094,359.1406 L674.6094,361.2969 Z " fill="#000000"/><text fill="#000000" font-family="Arial" font-size="14" lengthAdjust="spacing" textLength="132.4053" x="684.5" y="360.1436">uploaded_datasets</text><line style="stroke:#181818;stroke-width:0.5;" x1="656.5" x2="818.9053" y1="371.2969" y2="371.2969"/><ellipse cx="666.5" cy="384.9453" fill="#000000" rx="3" ry="3" style="stroke:#000000;stroke-width:1;"/><text fill="#000000" font-family="Arial" font-size="14" lengthAdjust="spacing" textLength="96.1201" x="675.5" y="388.292">id : uuid &#171;PK&#187;</text><line style="stroke:#181818;stroke-width:1;" x1="656.5" x2="818.9053" y1="395.5938" y2="395.5938"/><text fill="#000000" font-family="Arial" font-size="14" lengthAdjust="spacing" textLength="151.6279" x="661.5" y="412.5889">project_id : uuid &#171;FK&#187;</text><text fill="#000000" font-family="Arial" font-size="14" lengthAdjust="spacing" textLength="133.5059" x="661.5" y="428.8857">storage_path : text</text></g><!--class data_room_assets--><g class="entity" data-entity="data_room_assets" data-source-line="73" data-uid="ent0012" id="entity_data_room_assets"><rect fill="#F1F1F1" height="96.8906" rx="2.5" ry="2.5" style="stroke:#181818;stroke-width:0.5;" width="163.6279" x="837.5" y="339.2969"/><ellipse cx="854.7526" cy="355.2969" fill="#ADD1B2" rx="11" ry="11" style="stroke:#181818;stroke-width:1;"/><path d="M858.862,361.2969 L851.1433,361.2969 L851.1433,348.9063 L858.862,348.9063 L858.862,351.0625 L853.5964,351.0625 L853.5964,353.7344 L858.362,353.7344 L858.362,355.8906 L853.5964,355.8906 L853.5964,359.1406 L858.862,359.1406 L858.862,361.2969 Z " fill="#000000"/><text fill="#000000" font-family="Arial" font-size="14" lengthAdjust="spacing" textLength="126.6221" x="869.2532" y="360.1436">data_room_assets</text><line style="stroke:#181818;stroke-width:0.5;" x1="838.5" x2="1000.1279" y1="371.2969" y2="371.2969"/><ellipse cx="848.5" cy="384.9453" fill="#000000" rx="3" ry="3" style="stroke:#000000;stroke-width:1;"/><text fill="#000000" font-family="Arial" font-size="14" lengthAdjust="spacing" textLength="96.1201" x="857.5" y="388.292">id : uuid &#171;PK&#187;</text><line style="stroke:#181818;stroke-width:1;" x1="838.5" x2="1000.1279" y1="395.5938" y2="395.5938"/><text fill="#000000" font-family="Arial" font-size="14" lengthAdjust="spacing" textLength="151.6279" x="843.5" y="412.5889">project_id : uuid &#171;FK&#187;</text><text fill="#000000" font-family="Arial" font-size="14" lengthAdjust="spacing" textLength="133.5059" x="843.5" y="428.8857">storage_path : text</text></g><!--class source_registry_snapshots--><g class="entity" data-entity="source_registry_snapshots" data-source-line="79" data-uid="ent0013" id="entity_source_registry_snapshots"><rect fill="#F1F1F1" height="96.8906" rx="2.5" ry="2.5" style="stroke:#181818;stroke-width:0.5;" width="217.917" x="382.5" y="49.2969"/><ellipse cx="397.5" cy="65.2969" fill="#ADD1B2" rx="11" ry="11" style="stroke:#181818;stroke-width:1;"/><path d="M401.6094,71.2969 L393.8906,71.2969 L393.8906,58.9063 L401.6094,58.9063 L401.6094,61.0625 L396.3438,61.0625 L396.3438,63.7344 L401.1094,63.7344 L401.1094,65.8906 L396.3438,65.8906 L396.3438,69.1406 L401.6094,69.1406 L401.6094,71.2969 Z " fill="#000000"/><text fill="#000000" font-family="Arial" font-size="14" lengthAdjust="spacing" textLength="185.917" x="411.5" y="70.1436">source_registry_snapshots</text><line style="stroke:#181818;stroke-width:0.5;" x1="383.5" x2="599.417" y1="81.2969" y2="81.2969"/><ellipse cx="393.5" cy="94.9453" fill="#000000" rx="3" ry="3" style="stroke:#000000;stroke-width:1;"/><text fill="#000000" font-family="Arial" font-size="14" lengthAdjust="spacing" textLength="96.1201" x="402.5" y="98.292">id : uuid &#171;PK&#187;</text><line style="stroke:#181818;stroke-width:1;" x1="383.5" x2="599.417" y1="105.5938" y2="105.5938"/><text fill="#000000" font-family="Arial" font-size="14" lengthAdjust="spacing" textLength="108.0693" x="388.5" y="122.5889">source_id : text</text><text fill="#000000" font-family="Arial" font-size="14" lengthAdjust="spacing" textLength="114.9805" x="388.5" y="138.8857">snapshot : jsonb</text></g><!--class external_data_snapshots--><g class="entity" data-entity="external_data_snapshots" data-source-line="85" data-uid="ent0014" id="entity_external_data_snapshots"><rect fill="#F1F1F1" height="96.8906" rx="2.5" ry="2.5" style="stroke:#181818;stroke-width:0.5;" width="206.7813" x="619" y="49.2969"/><ellipse cx="634" cy="65.2969" fill="#ADD1B2" rx="11" ry="11" style="stroke:#181818;stroke-width:1;"/><path d="M638.1094,71.2969 L630.3906,71.2969 L630.3906,58.9063 L638.1094,58.9063 L638.1094,61.0625 L632.8438,61.0625 L632.8438,63.7344 L637.6094,63.7344 L637.6094,65.8906 L632.8438,65.8906 L632.8438,69.1406 L638.1094,69.1406 L638.1094,71.2969 Z " fill="#000000"/><text fill="#000000" font-family="Arial" font-size="14" lengthAdjust="spacing" textLength="174.7813" x="648" y="70.1436">external_data_snapshots</text><line style="stroke:#181818;stroke-width:0.5;" x1="620" x2="824.7813" y1="81.2969" y2="81.2969"/><ellipse cx="630" cy="94.9453" fill="#000000" rx="3" ry="3" style="stroke:#000000;stroke-width:1;"/><text fill="#000000" font-family="Arial" font-size="14" lengthAdjust="spacing" textLength="96.1201" x="639" y="98.292">id : uuid &#171;PK&#187;</text><line style="stroke:#181818;stroke-width:1;" x1="620" x2="824.7813" y1="105.5938" y2="105.5938"/><text fill="#000000" font-family="Arial" font-size="14" lengthAdjust="spacing" textLength="108.0693" x="625" y="122.5889">source_id : text</text><text fill="#000000" font-family="Arial" font-size="14" lengthAdjust="spacing" textLength="114.9805" x="625" y="138.8857">snapshot : jsonb</text></g><!--class audit_events--><g class="entity" data-entity="audit_events" data-source-line="91" data-uid="ent0015" id="entity_audit_events"><rect fill="#F1F1F1" height="96.8906" rx="2.5" ry="2.5" style="stroke:#181818;stroke-width:0.5;" width="223.5723" x="1019.5" y="339.2969"/><ellipse cx="1082.0933" cy="355.2969" fill="#ADD1B2" rx="11" ry="11" style="stroke:#181818;stroke-width:1;"/><path d="M1086.2026,361.2969 L1078.4839,361.2969 L1078.4839,348.9063 L1086.2026,348.9063 L1086.2026,351.0625 L1080.937,351.0625 L1080.937,353.7344 L1085.7026,353.7344 L1085.7026,355.8906 L1080.937,355.8906 L1080.937,359.1406 L1086.2026,359.1406 L1086.2026,361.2969 Z " fill="#000000"/><text fill="#000000" font-family="Arial" font-size="14" lengthAdjust="spacing" textLength="89.8857" x="1102.5933" y="360.1436">audit_events</text><line style="stroke:#181818;stroke-width:0.5;" x1="1020.5" x2="1242.0723" y1="371.2969" y2="371.2969"/><ellipse cx="1030.5" cy="384.9453" fill="#000000" rx="3" ry="3" style="stroke:#000000;stroke-width:1;"/><text fill="#000000" font-family="Arial" font-size="14" lengthAdjust="spacing" textLength="96.1201" x="1039.5" y="388.292">id : uuid &#171;PK&#187;</text><line style="stroke:#181818;stroke-width:1;" x1="1020.5" x2="1242.0723" y1="395.5938" y2="395.5938"/><text fill="#000000" font-family="Arial" font-size="14" lengthAdjust="spacing" textLength="211.5723" x="1025.5" y="412.5889">project_id : uuid &#171;FK nullable&#187;</text><text fill="#000000" font-family="Arial" font-size="14" lengthAdjust="spacing" textLength="198.7617" x="1025.5" y="428.8857">actor_id : uuid &#171;FK nullable&#187;</text></g><g class="entity" data-entity="GMN30" data-source-line="114" data-uid="ent0031" id="entity_GMN30"><path d="M842.5,516.7969 L842.5,557.0625 A0,0 0 0 0 842.5,557.0625 L1420.5195,557.0625 A0,0 0 0 0 1420.5195,557.0625 L1420.5195,526.7969 L1410.5195,516.7969 L1135.5,516.7969 L1131.5,436.5236 L1127.5,516.7969 L842.5,516.7969 A0,0 0 0 0 842.5,516.7969" fill="#FEFFDD" style="stroke:#181818;stroke-width:0.5;"/><path d="M1410.5195,516.7969 L1410.5195,526.7969 L1420.5195,526.7969 L1410.5195,516.7969" fill="#FEFFDD" style="stroke:#181818;stroke-width:0.5;"/><text fill="#000000" font-family="Arial" font-size="13" lengthAdjust="spacing" textLength="553.0332" x="848.5" y="533.8638">Migrations and RLS policy foundations exist. Current Production demo does not have</text><text fill="#000000" font-family="Arial" font-size="13" lengthAdjust="spacing" textLength="557.0195" x="848.5" y="548.9966">durable Supabase persistence configured; this ERD is not proof of runtime activation.</text></g><g class="link" data-entity-1="organizations" data-entity-2="profiles" data-uid="lnk16" id="link_organizations_profiles"><line style="stroke:#181818;stroke-width:1;" x1="245.2874" x2="250.8434" y1="146.5329" y2="152.2888"/><line style="stroke:#181818;stroke-width:1;" x1="243.1289" x2="248.685" y1="148.6164" y2="154.3723"/><line style="stroke:#181818;stroke-width:1;" x1="245.1875" x2="250.9434" y1="152.1888" y2="146.6328"/><line style="stroke:#181818;stroke-width:1;" x1="211.9039" x2="210.315" y1="184.3167" y2="194.1897"/><line style="stroke:#181818;stroke-width:1;" x1="211.9039" x2="201.9809" y1="184.3167" y2="185.5559"/><line style="stroke:#181818;stroke-width:1;" x1="211.9039" x2="206.148" y1="184.3167" y2="189.8728"/><ellipse cx="216.2208" cy="180.1497" fill="none" rx="4" ry="4" style="stroke:#181818;stroke-width:1;"/><path d="M245.1875,152.1888 C230.7062,166.1673 233.5857,163.3878 219.0988,177.3717" fill="none" style="stroke:#181818;stroke-width:1;"/></g><g class="link" data-entity-1="organizations" data-entity-2="projects" data-uid="lnk17" id="link_organizations_projects"><line style="stroke:#181818;stroke-width:1;" x1="350.5203" x2="356.0564" y1="152.2884" y2="146.5133"/><line style="stroke:#181818;stroke-width:1;" x1="352.6859" x2="358.222" y1="154.3644" y2="148.5893"/><line style="stroke:#181818;stroke-width:1;" x1="356.1759" x2="350.4008" y1="152.1689" y2="146.6328"/><line style="stroke:#181818;stroke-width:1;" x1="381.7496" x2="391.6768" y1="176.6844" y2="177.8892"/><line style="stroke:#181818;stroke-width:1;" x1="381.7496" x2="383.3726" y1="176.6844" y2="186.5518"/><line style="stroke:#181818;stroke-width:1;" x1="381.7496" x2="387.5247" y1="176.6844" y2="182.2205"/><ellipse cx="377.4183" cy="172.5323" fill="none" rx="4" ry="4" style="stroke:#181818;stroke-width:1;"/><path d="M356.1759,152.1689 C368.1363,163.6344 362.2394,157.9815 374.5308,169.7643" fill="none" style="stroke:#181818;stroke-width:1;"/></g><g class="link" data-entity-1="projects" data-entity-2="project_memberships" data-uid="lnk18" id="link_projects_project_memberships"><line style="stroke:#181818;stroke-width:1;" x1="339.2804" x2="341.9513" y1="271.0131" y2="278.5541"/><line style="stroke:#181818;stroke-width:1;" x1="336.4526" x2="339.1234" y1="272.0146" y2="279.5556"/><line style="stroke:#181818;stroke-width:1;" x1="336.8454" x2="344.3864" y1="276.119" y2="273.4482"/><line style="stroke:#181818;stroke-width:1;" x1="189.0619" x2="184.5727" y1="335.6734" y2="344.6091"/><line style="stroke:#181818;stroke-width:1;" x1="189.0619" x2="179.2266" y1="335.6734" y2="333.8657"/><line style="stroke:#181818;stroke-width:1;" x1="189.0619" x2="181.8997" y1="335.6734" y2="339.2374"/><ellipse cx="194.4336" cy="333.0004" fill="none" rx="4" ry="4" style="stroke:#181818;stroke-width:1;"/><path d="M336.8454,276.119 C291.5924,292.1464 245.5002,309.8202 198.5,331.2969 C193.0407,333.7915 203.5889,328.4446 198.0147,331.2184" fill="none" style="stroke:#181818;stroke-width:1;"/></g><g class="link" data-entity-1="profiles" data-entity-2="project_memberships" data-uid="lnk19" id="link_profiles_project_memberships"><line style="stroke:#181818;stroke-width:1;" x1="132.1423" x2="139.5666" y1="289.7458" y2="292.7256"/><line style="stroke:#181818;stroke-width:1;" x1="131.0249" x2="138.4492" y1="292.5299" y2="295.5098"/><line style="stroke:#181818;stroke-width:1;" x1="134.3646" x2="137.3444" y1="294.9479" y2="287.5236"/><line style="stroke:#181818;stroke-width:1;" x1="119.6402" x2="122.2286" y1="331.634" y2="341.2932"/><line style="stroke:#181818;stroke-width:1;" x1="119.6402" x2="111.0921" y1="331.634" y2="336.8234"/><line style="stroke:#181818;stroke-width:1;" x1="119.6402" x2="116.6604" y1="331.634" y2="339.0583"/><ellipse cx="121.8751" cy="326.0657" fill="none" rx="4" ry="4" style="stroke:#181818;stroke-width:1;"/><path d="M134.3646,294.9479 C127.736,311.4632 129.994,305.8373 123.365,322.3536" fill="none" style="stroke:#181818;stroke-width:1;"/></g><g class="link" data-entity-1="projects" data-entity-2="aois" data-uid="lnk20" id="link_projects_aois"><line style="stroke:#181818;stroke-width:1;" x1="382.3793" x2="387.9407" y1="295.2767" y2="301.0273"/><line style="stroke:#181818;stroke-width:1;" x1="380.2228" x2="385.7842" y1="297.3622" y2="303.1129"/><line style="stroke:#181818;stroke-width:1;" x1="382.2847" x2="388.0353" y1="300.9328" y2="295.3713"/><line style="stroke:#181818;stroke-width:1;" x1="356.7966" x2="355.2171" y1="325.5824" y2="335.4569"/><line style="stroke:#181818;stroke-width:1;" x1="356.7966" x2="346.8748" y1="325.5824" y2="326.8309"/><line style="stroke:#181818;stroke-width:1;" x1="356.7966" x2="351.0459" y1="325.5824" y2="331.1439"/><ellipse cx="361.1096" cy="321.4113" fill="none" rx="4" ry="4" style="stroke:#181818;stroke-width:1;"/><path d="M382.2847,300.9328 C370.1786,312.6406 376.0939,306.9198 363.9849,318.6306" fill="none" style="stroke:#181818;stroke-width:1;"/></g><g class="link" data-entity-1="projects" data-entity-2="analysis_runs" data-uid="lnk21" id="link_projects_analysis_runs"><line style="stroke:#181818;stroke-width:1;" x1="432.455" x2="440.3157" y1="298.5497" y2="300.0363"/><line style="stroke:#181818;stroke-width:1;" x1="431.8976" x2="439.7583" y1="301.4975" y2="302.984"/><line style="stroke:#181818;stroke-width:1;" x1="435.6421" x2="437.1286" y1="303.2233" y2="295.3627"/><line style="stroke:#181818;stroke-width:1;" x1="368.6896" x2="368.1804" y1="473.9141" y2="483.9011"/><line style="stroke:#181818;stroke-width:1;" x1="368.6896" x2="358.9594" y1="473.9141" y2="476.2216"/><line style="stroke:#181818;stroke-width:1;" x1="368.6896" x2="363.5699" y1="473.9141" y2="480.0613"/><ellipse cx="372.5293" cy="469.3036" fill="none" rx="4" ry="4" style="stroke:#181818;stroke-width:1;"/><path d="M435.6421,303.2233 C427.5701,345.9076 414.1809,397.4292 388.5,444.2969 C381.6836,456.7369 384.3945,455.0568 375.0891,466.23" fill="none" style="stroke:#181818;stroke-width:1;"/></g><g class="link" data-entity-1="aois" data-entity-2="analysis_runs" data-uid="lnk22" id="link_aois_analysis_runs"><line style="stroke:#181818;stroke-width:1;" x1="299.3837" x2="298.4147" y1="455.3285" y2="444.3713"/><ellipse cx="299.3837" cy="455.3285" fill="none" rx="4" ry="4" style="stroke:#181818;stroke-width:1;"/><line style="stroke:#181818;stroke-width:1;" x1="294.7827" x2="302.7516" y1="448.7081" y2="448.0034"/><line style="stroke:#181818;stroke-width:1;" x1="300.8736" x2="307.555" y1="472.175" y2="479.6153"/><line style="stroke:#181818;stroke-width:1;" x1="300.8736" x2="295.6016" y1="472.175" y2="480.6724"/><line style="stroke:#181818;stroke-width:1;" x1="300.8736" x2="301.5783" y1="472.175" y2="480.1439"/><ellipse cx="300.345" cy="466.1983" fill="none" rx="4" ry="4" style="stroke:#181818;stroke-width:1;"/><path d="M299.7361,459.313 C300.7715,471.0208 298.957,450.5032 299.9927,462.2139" fill="none" style="stroke:#181818;stroke-width:1;"/></g><g class="link" data-entity-1="analysis_runs" data-entity-2="ai_decision_scores" data-uid="lnk23" id="link_analysis_runs_ai_decision_scores"><line style="stroke:#181818;stroke-width:1;" x1="245.5795" x2="253.1939" y1="601.3098" y2="593.3713"/><ellipse cx="245.5795" cy="601.3098" fill="none" rx="4" ry="4" style="stroke:#181818;stroke-width:1;"/><line style="stroke:#181818;stroke-width:1;" x1="247.5383" x2="253.3118" y1="593.4891" y2="599.0269"/><line style="stroke:#181818;stroke-width:1;" x1="224.4192" x2="223.2115" y1="623.3704" y2="633.2972"/><line style="stroke:#181818;stroke-width:1;" x1="224.4192" x2="214.5513" y1="623.3704" y2="624.9905"/><line style="stroke:#181818;stroke-width:1;" x1="224.4192" x2="218.8814" y1="623.3704" y2="629.1439"/><ellipse cx="228.5726" cy="619.0404" fill="none" rx="4" ry="4" style="stroke:#181818;stroke-width:1;"/><path d="M242.8106,604.1965 C231.5806,615.9043 242.5742,604.4429 231.3415,616.1536" fill="none" style="stroke:#181818;stroke-width:1;"/></g><g class="link" data-entity-1="projects" data-entity-2="reports" data-uid="lnk24" id="link_projects_reports"><line style="stroke:#181818;stroke-width:1;" x1="441.5" x2="449.5" y1="299.7058" y2="299.7058"/><line style="stroke:#181818;stroke-width:1;" x1="441.5" x2="449.5" y1="302.7058" y2="302.7058"/><line style="stroke:#181818;stroke-width:1;" x1="445.5" x2="445.5" y1="303.7058" y2="295.7058"/><line style="stroke:#181818;stroke-width:1;" x1="445.5" x2="451.5" y1="629.2536" y2="637.2536"/><line style="stroke:#181818;stroke-width:1;" x1="445.5" x2="439.5" y1="629.2536" y2="637.2536"/><line style="stroke:#181818;stroke-width:1;" x1="445.5" x2="445.5" y1="629.2536" y2="637.2536"/><ellipse cx="445.5" cy="623.2536" fill="none" rx="4" ry="4" style="stroke:#181818;stroke-width:1;"/><path d="M445.5,303.7058 C445.5,392.0603 445.5,536.4204 445.5,619.2536" fill="none" style="stroke:#181818;stroke-width:1;"/></g><g class="link" data-entity-1="analysis_runs" data-entity-2="reports" data-uid="lnk25" id="link_analysis_runs_reports"><line style="stroke:#181818;stroke-width:1;" x1="366.6076" x2="359.0499" y1="601.3639" y2="593.3713"/><ellipse cx="366.6076" cy="601.3639" fill="none" rx="4" ry="4" style="stroke:#181818;stroke-width:1;"/><line style="stroke:#181818;stroke-width:1;" x1="358.8918" x2="364.7046" y1="599.0259" y2="593.5294"/><line style="stroke:#181818;stroke-width:1;" x1="394.658" x2="404.5141" y1="631.0288" y2="632.7192"/><line style="stroke:#181818;stroke-width:1;" x1="394.658" x2="395.7949" y1="631.0288" y2="640.9639"/><line style="stroke:#181818;stroke-width:1;" x1="394.658" x2="400.1545" y1="631.0288" y2="636.8416"/><ellipse cx="390.5357" cy="626.6691" fill="none" rx="4" ry="4" style="stroke:#181818;stroke-width:1;"/><path d="M369.3558,604.2703 C382.8866,618.5799 374.6574,609.877 387.7874,623.7627" fill="none" style="stroke:#181818;stroke-width:1;"/></g><g class="link" data-entity-1="projects" data-entity-2="comparison_sets" data-uid="lnk26" id="link_projects_comparison_sets"><line style="stroke:#181818;stroke-width:1;" x1="486.2802" x2="492.6854" y1="300.9704" y2="296.1774"/><line style="stroke:#181818;stroke-width:1;" x1="488.0776" x2="494.4828" y1="303.3724" y2="298.5793"/><line style="stroke:#181818;stroke-width:1;" x1="491.8793" x2="487.0863" y1="301.7765" y2="295.3713"/><line style="stroke:#181818;stroke-width:1;" x1="514.8221" x2="524.419" y1="332.4363" y2="335.2468"/><line style="stroke:#181818;stroke-width:1;" x1="514.8221" x2="514.8112" y1="332.4363" y2="342.4363"/><line style="stroke:#181818;stroke-width:1;" x1="514.8221" x2="519.6151" y1="332.4363" y2="338.8416"/><ellipse cx="511.2273" cy="327.6324" fill="none" rx="4" ry="4" style="stroke:#181818;stroke-width:1;"/><path d="M491.8793,301.7765 C502.5871,316.0861 498.4401,310.544 508.8308,324.4298" fill="none" style="stroke:#181818;stroke-width:1;"/></g><g class="link" data-entity-1="projects" data-entity-2="uploaded_datasets" data-uid="lnk27" id="link_projects_uploaded_datasets"><line style="stroke:#181818;stroke-width:1;" x1="548.5931" x2="551.8781" y1="288.2418" y2="280.9474"/><line style="stroke:#181818;stroke-width:1;" x1="551.3285" x2="554.6135" y1="289.4737" y2="282.1793"/><line style="stroke:#181818;stroke-width:1;" x1="553.8828" x2="546.5884" y1="286.2371" y2="282.9521"/><line style="stroke:#181818;stroke-width:1;" x1="653.9555" x2="663.8713" y1="335.2698" y2="333.9751"/><line style="stroke:#181818;stroke-width:1;" x1="653.9555" x2="657.9748" y1="335.2698" y2="344.4265"/><line style="stroke:#181818;stroke-width:1;" x1="653.9555" x2="660.923" y1="335.2698" y2="339.2008"/><ellipse cx="648.7298" cy="332.3215" fill="none" rx="4" ry="4" style="stroke:#181818;stroke-width:1;"/><path d="M553.8828,286.2371 C586.2029,300.7922 614.5716,314.3721 646.5,331.2969 C651.2415,333.8103 640.3995,327.6217 645.246,330.356" fill="none" style="stroke:#181818;stroke-width:1;"/></g><g class="link" data-entity-1="projects" data-entity-2="data_room_assets" data-uid="lnk28" id="link_projects_data_room_assets"><line style="stroke:#181818;stroke-width:1;" x1="549.8124" x2="551.2092" y1="259.6666" y2="251.7895"/><line style="stroke:#181818;stroke-width:1;" x1="552.7663" x2="554.1631" y1="260.1904" y2="252.3133"/><line style="stroke:#181818;stroke-width:1;" x1="554.4493" x2="546.5722" y1="256.4264" y2="255.0296"/><line style="stroke:#181818;stroke-width:1;" x1="838.6158" x2="848.4625" y1="335.6446" y2="333.9001"/><line style="stroke:#181818;stroke-width:1;" x1="838.6158" x2="843.0476" y1="335.6446" y2="344.609"/><line style="stroke:#181818;stroke-width:1;" x1="838.6158" x2="845.7551" y1="335.6446" y2="339.2546"/><ellipse cx="833.2614" cy="332.9372" fill="none" rx="4" ry="4" style="stroke:#181818;stroke-width:1;"/><path d="M554.4493,256.4264 C633.2687,270.4032 736.5403,293.3798 828.5,331.2969 C834.2311,333.66 823.9574,328.2326 829.6918,331.1322" fill="none" style="stroke:#181818;stroke-width:1;"/></g><g class="link" data-entity-1="projects" data-entity-2="audit_events" data-uid="lnk29" id="link_projects_audit_events"><line style="stroke:#181818;stroke-width:1;" x1="557.554" x2="546.6049" y1="248.9554" y2="247.8975"/><ellipse cx="557.554" cy="248.9554" fill="none" rx="4" ry="4" style="stroke:#181818;stroke-width:1;"/><line style="stroke:#181818;stroke-width:1;" x1="550.2017" x2="550.9711" y1="252.2637" y2="244.3008"/><line style="stroke:#181818;stroke-width:1;" x1="1026.1548" x2="1035.7647" y1="336.418" y2="333.6522"/><line style="stroke:#181818;stroke-width:1;" x1="1026.1548" x2="1031.5007" y1="336.418" y2="344.8691"/><line style="stroke:#181818;stroke-width:1;" x1="1026.1548" x2="1033.6327" y1="336.418" y2="339.2607"/><ellipse cx="1020.5464" cy="334.2859" fill="none" rx="4" ry="4" style="stroke:#181818;stroke-width:1;"/><path d="M561.5354,249.3401 C676.0413,260.4033 852.3321,283.1832 1010.5,331.2969 C1018.1283,333.6173 1009.0728,329.9243 1016.8074,332.8646" fill="none" style="stroke:#181818;stroke-width:1;"/></g><!--SRC=[jLPTRjD047xtAGRn0fLIockfAg5295H0LNi0Q-ATsDkkTwpz2PWMYKDmGax2sB5J9quJHDGeIh8xFzytuvd9lAWSvYM2mPfZ05zIG8j9qC4GVBp-C3avUGj_Vls6JsLbg2GRI46b3OT9HSvh7yXc17EELc7GRE6LvG2O1Rt0HbTRk7AiOjO8NoU5LWG2Kh3oouDuSCIXhiWd_axR2XsMCCFiBdUDrmisxE3bj7qDD7o1YhzfcyCSZQU1HD4SembJjk4hbWJldKQJ9C9TXnhOvMZrZvQiX_i4u0YqWbE8KRxEpgukpy_bSZAH3zkOdqAWxq5EFc28lZ__x1rMZkVQq7PVRwQNW34Knz5BkXuz3rcaGvFf4fvAr6ORr2rbOH_jVSuxD-aTrVyINQjRKZcJ20fTzUYzP0l04JJXRfEq_1mR6W4XwtrnxK3CYQMgN1DF_rDk5sZqiYpJ9yAJOZUrb77geZq0NiXlN8EDnk3CK2jtvAKYHNxhsSu6y3fLb6dVCipOqI4S1g7i9DC2fHNMXb6DEJcgs8Nd9x82pBYKnjM-oG4T0lnaIB5gxacbKWnu68OFB1EpILyeHjNKk4yTSvcYVqOOpz5bb3hAPVwwElKMAr_mNhpEhXNtNT-PZdCcSdBo9DkSFGy4HgL3IWiv_b-grkjQ_dJOxIouP7tuFpnC9do_6k1FIjkPcwo6xxfWE1cJrN_1RfqrFytW6ryEvrBIpiO7tYPPcr-zocYgZFntJRxTlXTk6cqqwaW-QhEHncQ331GwweEII19P9GXc70ANoHUTk-x9e5Lm_Va6AZOwgmVBXvUgbPOuXeledBWOh1wo5PGCYkNPD0jAWGjAL7HDQS1Dh70cX66uqcHivpgFZjGx28NaNxOXq4jhOSrpaBTaBMZP4RfzHt2EfRXLeqH_0G00]--></g></svg>