<svg xmlns="http://www.w3.org/2000/svg" xmlns:xlink="http://www.w3.org/1999/xlink" contentStyleType="text/css" data-diagram-type="SEQUENCE" height="885px" preserveAspectRatio="none" style="width:1569px;height:885px;background:#FFFFFF;" version="1.1" viewBox="0 0 1569 885" width="1569px" zoomAndPan="magnify"><title>SEQ-001 v1.5 &#8212; Exact analysis request and persistence sequence</title><defs/><g><text fill="#000000" font-family="Arial" font-size="14" font-weight="bold" lengthAdjust="spacing" textLength="518.0342" x="527.2151" y="27.9951">SEQ-001 v1.5 &#8212; Exact analysis request and persistence sequence</text><rect fill="none" height="174.4688" style="stroke:#000000;stroke-width:1.5;" width="369.9219" x="675.8809" y="353.8203"/><g><title>User</title><rect fill="#000000" fill-opacity="0.00000" height="670.4609" width="8" x="19.9551" y="120.8906"/><line style="stroke:#181818;stroke-width:0.5;stroke-dasharray:5,5;" x1="23" x2="23" y1="120.8906" y2="791.3516"/></g><g><title>WorkspaceShell</title><rect fill="#000000" fill-opacity="0.00000" height="670.4609" width="8" x="275.6572" y="120.8906"/><line style="stroke:#181818;stroke-width:0.5;stroke-dasharray:5,5;" x1="278.9102" x2="278.9102" y1="120.8906" y2="791.3516"/></g><g><title>Context APIs</title><rect fill="#000000" fill-opacity="0.00000" height="670.4609" width="8" x="620.3892" y="120.8906"/><line style="stroke:#181818;stroke-width:0.5;stroke-dasharray:5,5;" x1="623.8975" x2="623.8975" y1="120.8906" y2="791.3516"/></g><g><title>.api.analyze</title><rect fill="#000000" fill-opacity="0.00000" height="670.4609" width="8" x="731.3594" y="120.8906"/><line style="stroke:#181818;stroke-width:0.5;stroke-dasharray:5,5;" x1="734.8809" x2="734.8809" y1="120.8906" y2="791.3516"/></g><g><title>OpenAI</title><rect fill="#000000" fill-opacity="0.00000" height="670.4609" width="8" x="963.0459" y="120.8906"/><line style="stroke:#181818;stroke-width:0.5;stroke-dasharray:5,5;" x1="966.6768" x2="966.6768" y1="120.8906" y2="791.3516"/></g><g><title>.api.ai.decision-score</title><rect fill="#000000" fill-opacity="0.00000" height="670.4609" width="8" x="1089.7456" y="120.8906"/><line style="stroke:#181818;stroke-width:0.5;stroke-dasharray:5,5;" x1="1093.415" x2="1093.415" y1="120.8906" y2="791.3516"/></g><g><title>Repository API</title><rect fill="#000000" fill-opacity="0.00000" height="670.4609" width="8" x="1238.9116" y="120.8906"/><line style="stroke:#181818;stroke-width:0.5;stroke-dasharray:5,5;" x1="1242.0762" x2="1242.0762" y1="120.8906" y2="791.3516"/></g><g><title>Supabase or</title><rect fill="#000000" fill-opacity="0.00000" height="670.4609" width="8" x="1515.6499" y="120.8906"/><line style="stroke:#181818;stroke-width:0.5;stroke-dasharray:5,5;" x1="1518.8354" x2="1518.8354" y1="120.8906" y2="791.3516"/></g><g class="participant participant-head" data-participant="User"><text fill="#000000" font-family="Arial" font-size="14" lengthAdjust="spacing" textLength="31.9102" x="5" y="117.5889">User</text><ellipse cx="23.9551" cy="53.0938" fill="#E2E2F0" rx="8" ry="8" style="stroke:#181818;stroke-width:0.5;"/><path d="M23.9551,61.0938 L23.9551,88.0938 M10.9551,69.0938 L36.9551,69.0938 M23.9551,88.0938 L10.9551,103.0938 M23.9551,88.0938 L36.9551,103.0938" fill="none" style="stroke:#181818;stroke-width:0.5;"/></g><g class="participant participant-tail" data-participant="User"><text fill="#000000" font-family="Arial" font-size="14" lengthAdjust="spacing" textLength="31.9102" x="5" y="803.3467">User</text><ellipse cx="23.9551" cy="815.1484" fill="#E2E2F0" rx="8" ry="8" style="stroke:#181818;stroke-width:0.5;"/><path d="M23.9551,823.1484 L23.9551,850.1484 M10.9551,831.1484 L36.9551,831.1484 M23.9551,850.1484 L10.9551,865.1484 M23.9551,850.1484 L36.9551,865.1484" fill="none" style="stroke:#181818;stroke-width:0.5;"/></g><g class="participant participant-head" data-participant="Workspace"><rect fill="#E2E2F0" height="30.2969" rx="2.5" ry="2.5" style="stroke:#181818;stroke-width:0.5;" width="125.4941" x="216.9102" y="89.5938"/><text fill="#000000" font-family="Arial" font-size="14" lengthAdjust="spacing" textLength="111.4941" x="223.9102" y="109.5889">WorkspaceShell</text></g><g class="participant participant-tail" data-participant="Workspace"><rect fill="#E2E2F0" height="30.2969" rx="2.5" ry="2.5" style="stroke:#181818;stroke-width:0.5;" width="125.4941" x="216.9102" y="790.3516"/><text fill="#000000" font-family="Arial" font-size="14" lengthAdjust="spacing" textLength="111.4941" x="223.9102" y="810.3467">WorkspaceShell</text></g><g class="participant participant-head" data-participant="Context"><rect fill="#E2E2F0" height="30.2969" rx="2.5" ry="2.5" style="stroke:#181818;stroke-width:0.5;" width="102.9834" x="572.8975" y="89.5938"/><text fill="#000000" font-family="Arial" font-size="14" lengthAdjust="spacing" textLength="88.9834" x="579.8975" y="109.5889">Context APIs</text></g><g class="participant participant-tail" data-participant="Context"><rect fill="#E2E2F0" height="30.2969" rx="2.5" ry="2.5" style="stroke:#181818;stroke-width:0.5;" width="102.9834" x="572.8975" y="790.3516"/><text fill="#000000" font-family="Arial" font-size="14" lengthAdjust="spacing" textLength="88.9834" x="579.8975" y="810.3467">Context APIs</text></g><g class="participant participant-head" data-participant="Analyze"><rect fill="#E2E2F0" height="30.2969" rx="2.5" ry="2.5" style="stroke:#181818;stroke-width:0.5;" width="98.957" x="685.8809" y="89.5938"/><text fill="#000000" font-family="Arial" font-size="14" lengthAdjust="spacing" textLength="84.957" x="692.8809" y="109.5889">/api/analyze</text></g><g class="participant participant-tail" data-participant="Analyze"><rect fill="#E2E2F0" height="30.2969" rx="2.5" ry="2.5" style="stroke:#181818;stroke-width:0.5;" width="98.957" x="685.8809" y="790.3516"/><text fill="#000000" font-family="Arial" font-size="14" lengthAdjust="spacing" textLength="84.957" x="692.8809" y="810.3467">/api/analyze</text></g><g class="participant participant-head" data-participant="OpenAI"><rect fill="#E2E2F0" height="46.5938" rx="2.5" ry="2.5" style="stroke:#181818;stroke-width:0.5;" width="70.7383" x="931.6768" y="73.2969"/><text fill="#000000" font-family="Arial" font-size="14" lengthAdjust="spacing" textLength="51.0986" x="941.4966" y="93.292">OpenAI</text><text fill="#000000" font-family="Arial" font-size="14" lengthAdjust="spacing" textLength="56.7383" x="938.6768" y="109.5889">optional</text></g><g class="participant participant-tail" data-participant="OpenAI"><rect fill="#E2E2F0" height="46.5938" rx="2.5" ry="2.5" style="stroke:#181818;stroke-width:0.5;" width="70.7383" x="931.6768" y="790.3516"/><text fill="#000000" font-family="Arial" font-size="14" lengthAdjust="spacing" textLength="51.0986" x="941.4966" y="810.3467">OpenAI</text><text fill="#000000" font-family="Arial" font-size="14" lengthAdjust="spacing" textLength="56.7383" x="938.6768" y="826.6436">optional</text></g><g class="participant participant-head" data-participant="Score"><rect fill="#E2E2F0" height="30.2969" rx="2.5" ry="2.5" style="stroke:#181818;stroke-width:0.5;" width="162.6611" x="1012.415" y="89.5938"/><text fill="#000000" font-family="Arial" font-size="14" lengthAdjust="spacing" textLength="148.6611" x="1019.415" y="109.5889">/api/ai/decision-score</text></g><g class="participant participant-tail" data-participant="Score"><rect fill="#E2E2F0" height="30.2969" rx="2.5" ry="2.5" style="stroke:#181818;stroke-width:0.5;" width="162.6611" x="1012.415" y="790.3516"/><text fill="#000000" font-family="Arial" font-size="14" lengthAdjust="spacing" textLength="148.6611" x="1019.415" y="810.3467">/api/ai/decision-score</text></g><g class="participant participant-head" data-participant="Repository"><rect fill="#E2E2F0" height="30.2969" rx="2.5" ry="2.5" style="stroke:#181818;stroke-width:0.5;" width="115.6709" x="1185.0762" y="89.5938"/><text fill="#000000" font-family="Arial" font-size="14" lengthAdjust="spacing" textLength="101.6709" x="1192.0762" y="109.5889">Repository API</text></g><g class="participant participant-tail" data-participant="Repository"><rect fill="#E2E2F0" height="30.2969" rx="2.5" ry="2.5" style="stroke:#181818;stroke-width:0.5;" width="115.6709" x="1185.0762" y="790.3516"/><text fill="#000000" font-family="Arial" font-size="14" lengthAdjust="spacing" textLength="101.6709" x="1192.0762" y="810.3467">Repository API</text></g><g class="participant participant-head" data-participant="Store"><text fill="#000000" font-family="Arial" font-size="14" lengthAdjust="spacing" textLength="87.3701" x="1472.9648" y="101.292">Supabase or</text><text fill="#000000" font-family="Arial" font-size="14" lengthAdjust="spacing" textLength="91.6289" x="1470.8354" y="117.5889">local fallback</text><path d="M1501.6499,52.2969 C1501.6499,42.2969 1519.6499,42.2969 1519.6499,42.2969 C1519.6499,42.2969 1537.6499,42.2969 1537.6499,52.2969 L1537.6499,78.2969 C1537.6499,88.2969 1519.6499,88.2969 1519.6499,88.2969 C1519.6499,88.2969 1501.6499,88.2969 1501.6499,78.2969 L1501.6499,52.2969" fill="#E2E2F0" style="stroke:#181818;stroke-width:0.5;"/><path d="M1501.6499,52.2969 C1501.6499,62.2969 1519.6499,62.2969 1519.6499,62.2969 C1519.6499,62.2969 1537.6499,62.2969 1537.6499,52.2969" fill="none" style="stroke:#181818;stroke-width:0.5;"/></g><g class="participant participant-tail" data-participant="Store"><text fill="#000000" font-family="Arial" font-size="14" lengthAdjust="spacing" textLength="87.3701" x="1472.9648" y="803.3467">Supabase or</text><text fill="#000000" font-family="Arial" font-size="14" lengthAdjust="spacing" textLength="91.6289" x="1470.8354" y="819.6436">local fallback</text><path d="M1501.6499,832.9453 C1501.6499,822.9453 1519.6499,822.9453 1519.6499,822.9453 C1519.6499,822.9453 1537.6499,822.9453 1537.6499,832.9453 L1537.6499,858.9453 C1537.6499,868.9453 1519.6499,868.9453 1519.6499,868.9453 C1519.6499,868.9453 1501.6499,868.9453 1501.6499,858.9453 L1501.6499,832.9453" fill="#E2E2F0" style="stroke:#181818;stroke-width:0.5;"/><path d="M1501.6499,832.9453 C1501.6499,842.9453 1519.6499,842.9453 1519.6499,842.9453 C1519.6499,842.9453 1537.6499,842.9453 1537.6499,832.9453" fill="none" style="stroke:#181818;stroke-width:0.5;"/></g><g class="message" data-participant-1="User" data-participant-2="Workspace"><polygon fill="#181818" points="267.6572,148.0234,277.6572,152.0234,267.6572,156.0234,271.6572,152.0234" style="stroke:#181818;stroke-width:1;"/><line style="stroke:#181818;stroke-width:1;" x1="23.9551" x2="273.6572" y1="152.0234" y2="152.0234"/><text fill="#000000" font-family="Arial" font-size="13" lengthAdjust="spacing" textLength="231.7021" x="30.9551" y="146.9575">choose criteria/map target and Run</text></g><g class="message" data-participant-1="Workspace" data-participant-2="Context"><polygon fill="#181818" points="612.3892,192.2891,622.3892,196.2891,612.3892,200.2891,616.3892,196.2891" style="stroke:#181818;stroke-width:1;"/><line style="stroke:#181818;stroke-width:1;" x1="279.6572" x2="618.3892" y1="196.2891" y2="196.2891"/><text fill="#000000" font-family="Arial" font-size="13" lengthAdjust="spacing" textLength="167.1909" x="286.6572" y="176.0903">POST /api/context/market</text><text fill="#000000" font-family="Arial" font-size="13" lengthAdjust="spacing" textLength="214.9761" x="286.6572" y="191.2231">GET climate + validation context</text></g><g class="message" data-participant-1="Context" data-participant-2="Workspace"><polygon fill="#181818" points="290.6572,221.4219,280.6572,225.4219,290.6572,229.4219,286.6572,225.4219" style="stroke:#181818;stroke-width:1;"/><line style="stroke:#181818;stroke-width:1;stroke-dasharray:2,2;" x1="284.6572" x2="623.3892" y1="225.4219" y2="225.4219"/><text fill="#000000" font-family="Arial" font-size="13" lengthAdjust="spacing" textLength="214.2144" x="296.6572" y="220.356">bounded context or safe fallback</text></g><g class="message" data-participant-1="Workspace" data-participant-2="Workspace"><line style="stroke:#181818;stroke-width:1;" x1="279.6572" x2="321.6572" y1="254.5547" y2="254.5547"/><line style="stroke:#181818;stroke-width:1;" x1="321.6572" x2="321.6572" y1="254.5547" y2="267.5547"/><line style="stroke:#181818;stroke-width:1;" x1="280.6572" x2="321.6572" y1="267.5547" y2="267.5547"/><polygon fill="#181818" points="290.6572,263.5547,280.6572,267.5547,290.6572,271.5547,286.6572,267.5547" style="stroke:#181818;stroke-width:1;"/><text fill="#000000" font-family="Arial" font-size="13" lengthAdjust="spacing" textLength="330.7319" x="286.6572" y="249.4888">createMockExpressAnalysis + deterministic scores</text></g><g class="message" data-participant-1="Workspace" data-participant-2="Analyze"><polygon fill="#181818" points="723.3594,292.6875,733.3594,296.6875,723.3594,300.6875,727.3594,296.6875" style="stroke:#181818;stroke-width:1;"/><line style="stroke:#181818;stroke-width:1;" x1="279.6572" x2="729.3594" y1="296.6875" y2="296.6875"/><text fill="#000000" font-family="Arial" font-size="13" lengthAdjust="spacing" textLength="143.0127" x="286.6572" y="291.6216">POST AnalyzeRequest</text></g><g class="message" data-participant-1="Analyze" data-participant-2="Analyze"><line style="stroke:#181818;stroke-width:1;" x1="735.3594" x2="777.3594" y1="325.8203" y2="325.8203"/><line style="stroke:#181818;stroke-width:1;" x1="777.3594" x2="777.3594" y1="325.8203" y2="338.8203"/><line style="stroke:#181818;stroke-width:1;" x1="736.3594" x2="777.3594" y1="338.8203" y2="338.8203"/><polygon fill="#181818" points="746.3594,334.8203,736.3594,338.8203,746.3594,342.8203,742.3594,338.8203" style="stroke:#181818;stroke-width:1;"/><text fill="#000000" font-family="Arial" font-size="13" lengthAdjust="spacing" textLength="115.0005" x="742.3594" y="320.7544">isAnalyzeRequest</text></g><path d="M675.8809,353.8203 L740.3237,353.8203 L740.3237,360.9531 L730.3237,370.9531 L675.8809,370.9531 L675.8809,353.8203" fill="#EEEEEE" style="stroke:#000000;stroke-width:1.5;"/><rect fill="none" height="174.4688" style="stroke:#000000;stroke-width:1.5;" width="369.9219" x="675.8809" y="353.8203"/><text fill="#000000" font-family="Arial" font-size="13" font-weight="bold" lengthAdjust="spacing" textLength="19.4429" x="690.8809" y="366.8872">alt</text><text fill="#000000" font-family="Arial" font-size="11" font-weight="bold" lengthAdjust="spacing" textLength="285.479" x="755.3237" y="366.0308">[OPENAI_API_KEY present and valid response]</text><g class="message" data-participant-1="Analyze" data-participant-2="OpenAI"><polygon fill="#181818" points="955.0459,388.0859,965.0459,392.0859,955.0459,396.0859,959.0459,392.0859" style="stroke:#181818;stroke-width:1;"/><line style="stroke:#181818;stroke-width:1;" x1="735.3594" x2="961.0459" y1="392.0859" y2="392.0859"/><text fill="#000000" font-family="Arial" font-size="13" lengthAdjust="spacing" textLength="201.8936" x="742.3594" y="387.02">chat.completions JSON request</text></g><g class="message" data-participant-1="OpenAI" data-participant-2="Analyze"><polygon fill="#181818" points="746.3594,417.2188,736.3594,421.2188,746.3594,425.2188,742.3594,421.2188" style="stroke:#181818;stroke-width:1;"/><line style="stroke:#181818;stroke-width:1;stroke-dasharray:2,2;" x1="740.3594" x2="966.0459" y1="421.2188" y2="421.2188"/><text fill="#000000" font-family="Arial" font-size="13" lengthAdjust="spacing" textLength="95.437" x="752.3594" y="416.1528">JSON narrative</text></g><g class="message" data-participant-1="Analyze" data-participant-2="Analyze"><line style="stroke:#181818;stroke-width:1;" x1="735.3594" x2="777.3594" y1="450.3516" y2="450.3516"/><line style="stroke:#181818;stroke-width:1;" x1="777.3594" x2="777.3594" y1="450.3516" y2="463.3516"/><line style="stroke:#181818;stroke-width:1;" x1="736.3594" x2="777.3594" y1="463.3516" y2="463.3516"/><polygon fill="#181818" points="746.3594,459.3516,736.3594,463.3516,746.3594,467.3516,742.3594,463.3516" style="stroke:#181818;stroke-width:1;"/><text fill="#000000" font-family="Arial" font-size="13" lengthAdjust="spacing" textLength="174.77" x="742.3594" y="445.2856">validateStructuredAnalysis</text></g><line style="stroke:#000000;stroke-width:1;stroke-dasharray:2,2;" x1="675.8809" x2="1045.8027" y1="472.3516" y2="472.3516"/><text fill="#000000" font-family="Arial" font-size="11" font-weight="bold" lengthAdjust="spacing" textLength="194.4551" x="680.8809" y="482.562">[absent, unavailable or invalid]</text><g class="message" data-participant-1="Analyze" data-participant-2="Analyze"><line style="stroke:#181818;stroke-width:1;" x1="735.3594" x2="777.3594" y1="507.2891" y2="507.2891"/><line style="stroke:#181818;stroke-width:1;" x1="777.3594" x2="777.3594" y1="507.2891" y2="520.2891"/><line style="stroke:#181818;stroke-width:1;" x1="736.3594" x2="777.3594" y1="520.2891" y2="520.2891"/><polygon fill="#181818" points="746.3594,516.2891,736.3594,520.2891,746.3594,524.2891,742.3594,520.2891" style="stroke:#181818;stroke-width:1;"/><text fill="#000000" font-family="Arial" font-size="13" lengthAdjust="spacing" textLength="217.6865" x="742.3594" y="502.2231">createFallbackStructuredAnalysis</text></g><g class="message" data-participant-1="Analyze" data-participant-2="Workspace"><polygon fill="#181818" points="290.6572,552.4219,280.6572,556.4219,290.6572,560.4219,286.6572,556.4219" style="stroke:#181818;stroke-width:1;"/><line style="stroke:#181818;stroke-width:1;stroke-dasharray:2,2;" x1="284.6572" x2="734.3594" y1="556.4219" y2="556.4219"/><text fill="#000000" font-family="Arial" font-size="13" lengthAdjust="spacing" textLength="163.3252" x="296.6572" y="551.356">StructuredAnalysisResult</text></g><g class="message" data-participant-1="Workspace" data-participant-2="Score"><polygon fill="#181818" points="1081.7456,581.5547,1091.7456,585.5547,1081.7456,589.5547,1085.7456,585.5547" style="stroke:#181818;stroke-width:1;"/><line style="stroke:#181818;stroke-width:1;" x1="279.6572" x2="1087.7456" y1="585.5547" y2="585.5547"/><text fill="#000000" font-family="Arial" font-size="13" lengthAdjust="spacing" textLength="251.5894" x="286.6572" y="580.4888">POST governed decision-score request</text></g><g class="message" data-participant-1="Score" data-participant-2="Workspace"><polygon fill="#181818" points="290.6572,610.6875,280.6572,614.6875,290.6572,618.6875,286.6572,614.6875" style="stroke:#181818;stroke-width:1;"/><line style="stroke:#181818;stroke-width:1;stroke-dasharray:2,2;" x1="284.6572" x2="1092.7456" y1="614.6875" y2="614.6875"/><text fill="#000000" font-family="Arial" font-size="13" lengthAdjust="spacing" textLength="135.2749" x="296.6572" y="609.6216">score or null fallback</text></g><g class="message" data-participant-1="Workspace" data-participant-2="Workspace"><line style="stroke:#181818;stroke-width:1;" x1="279.6572" x2="321.6572" y1="643.8203" y2="643.8203"/><line style="stroke:#181818;stroke-width:1;" x1="321.6572" x2="321.6572" y1="643.8203" y2="656.8203"/><line style="stroke:#181818;stroke-width:1;" x1="280.6572" x2="321.6572" y1="656.8203" y2="656.8203"/><polygon fill="#181818" points="290.6572,652.8203,280.6572,656.8203,290.6572,660.8203,286.6572,656.8203" style="stroke:#181818;stroke-width:1;"/><text fill="#000000" font-family="Arial" font-size="13" lengthAdjust="spacing" textLength="201.7412" x="286.6572" y="638.7544">merge, render and retain state</text></g><g class="message" data-participant-1="Workspace" data-participant-2="Repository"><polygon fill="#181818" points="1230.9116,681.9531,1240.9116,685.9531,1230.9116,689.9531,1234.9116,685.9531" style="stroke:#181818;stroke-width:1;"/><line style="stroke:#181818;stroke-width:1;" x1="279.6572" x2="1236.9116" y1="685.9531" y2="685.9531"/><text fill="#000000" font-family="Arial" font-size="13" lengthAdjust="spacing" textLength="152.9087" x="286.6572" y="680.8872">POST /api/analysis-runs</text></g><g class="message" data-participant-1="Repository" data-participant-2="Store"><polygon fill="#181818" points="1507.6499,711.0859,1517.6499,715.0859,1507.6499,719.0859,1511.6499,715.0859" style="stroke:#181818;stroke-width:1;"/><line style="stroke:#181818;stroke-width:1;" x1="1242.9116" x2="1513.6499" y1="715.0859" y2="715.0859"/><text fill="#000000" font-family="Arial" font-size="13" lengthAdjust="spacing" textLength="206.3179" x="1249.9116" y="710.02">configured repository operation</text></g><g class="message" data-participant-1="Store" data-participant-2="Repository"><polygon fill="#181818" points="1253.9116,740.2188,1243.9116,744.2188,1253.9116,748.2188,1249.9116,744.2188" style="stroke:#181818;stroke-width:1;"/><line style="stroke:#181818;stroke-width:1;stroke-dasharray:2,2;" x1="1247.9116" x2="1518.6499" y1="744.2188" y2="744.2188"/><text fill="#000000" font-family="Arial" font-size="13" lengthAdjust="spacing" textLength="252.7383" x="1259.9116" y="739.1528">Supabase result or local fallback result</text></g><g class="message" data-participant-1="Repository" data-participant-2="Workspace"><polygon fill="#181818" points="290.6572,769.3516,280.6572,773.3516,290.6572,777.3516,286.6572,773.3516" style="stroke:#181818;stroke-width:1;"/><line style="stroke:#181818;stroke-width:1;stroke-dasharray:2,2;" x1="284.6572" x2="1241.9116" y1="773.3516" y2="773.3516"/><text fill="#000000" font-family="Arial" font-size="13" lengthAdjust="spacing" textLength="153.4102" x="296.6572" y="768.2856">mode + storage caveat</text></g><!--SRC=[ZLJ1Rjim3BtxAuZksBff3xlqC20eqg4RrdHnXs50WOAHcLI8B7cIdBKxxIFsXVkIKfATH5u7B2U5UdpYUoJjfLS4rUnpUNPs3jlpqxVmvzTlc3sXy80QrREJ3YnzxyY5G0qjMGvvqeB0XJWV2hUHkaMB3InHRDRMTBg-DCfOU7CLVmS8zuYr-I7r6bQet65kJIlibByosjzWGp2r4bLHS2bCzCMHBHZdfP0jQWz7NutTk1O5LO-ar16WWrqeHruo8prvcDvUkuZh0pbgWgsSHCq_AQAcwPoZvYtfwVMzDgsNXW4HcOAlqSb9JK8wXfPE69k8gt3AqGjgZPCiz3bK6L7xK56ZnoKwWgEgQzF9s7kjZ40LR5J1zaJj0tKHt8BotTuGk03nQ0md2YiziREJ1blmQDUK6hleTB67S-xWsWNSpgixY7f4Yd6ktP2_r-zdTo2KRD0J7CCMbUHIMIpqm68WAKV5BCE8K3tWM0uuND5EJ5vA9iCIl_R9YCtigRNat7GOqsEU89RMICq3AWL4mrtErFTq4DN_NQG1BuRR32ZT28NAm_nsTZEzVk1UFNoSVODG2EbaP7I1TyQrHlDy0nomfa69pK1_AapJAWf-EVXGpM-6HUES7bXcbKICHclPu-s8UO_gkq2LjvtmdQLwSAWWNZZ0PIZr13gDMvGAbofC4qWT4__5cco_wjlp6hUkz_wDUlOtV46ELptlJLoBeJDhioMhUKBo_TbPbC3ZXnA6rUXEgVyOfePu_a-Ob8VHnkvPyYWrECzgyxo35JrSYU4hMTfEk-8051Jvf8YdV2NNGJ_pxm26lwLnMug4AyUFx9RTHhU2hdpb-ulirR52KuVLT7o9Qzv-t78VNm00]--></g></svg>