<svg xmlns="http://www.w3.org/2000/svg" xmlns:xlink="http://www.w3.org/1999/xlink" contentStyleType="text/css" data-diagram-type="STATE" height="772px" preserveAspectRatio="none" style="width:1381px;height:772px;background:#FFFFFF;" version="1.1" viewBox="0 0 1381 772" width="1381px" zoomAndPan="magnify"><title>STATE-001 v1.5 &#8212; Workspace analysis and spatial-source lifecycles</title><defs/><g><g class="title" data-source-line="2"><text fill="#000000" font-family="Arial" font-size="14" font-weight="bold" lengthAdjust="spacing" textLength="532.7178" x="417.1411" y="22.9951">STATE-001 v1.5 &#8212; Workspace analysis and spatial-source lifecycles</text></g><!--cluster Workspace--><g class="cluster" data-entity="Workspace" data-source-line="10" data-uid="ent0002" id="cluster_Workspace"><path d="M372.5,41.2969 L837.5,41.2969 A12.5,12.5 0 0 1 850,53.7969 L850,62.5938 L360,62.5938 L360,53.7969 A12.5,12.5 0 0 1 372.5,41.2969" fill="#F1F1F1"/><rect fill="none" height="725.5" rx="12.5" ry="12.5" style="stroke:#181818;stroke-width:0.5;" width="490" x="360" y="41.2969"/><line style="stroke:#181818;stroke-width:0.5;" x1="360" x2="850" y1="62.5938" y2="62.5938"/><text fill="#000000" font-family="Arial" font-size="14" lengthAdjust="spacing" textLength="183.6611" x="513.1694" y="54.292">Workspace result lifecycle</text></g><!--cluster Spatial--><g class="cluster" data-entity="Spatial" data-source-line="39" data-uid="ent0012" id="cluster_Spatial"><path d="M870.5,119.2969 L1355.5,119.2969 A12.5,12.5 0 0 1 1368,131.7969 L1368,140.5938 L858,140.5938 L858,131.7969 A12.5,12.5 0 0 1 870.5,119.2969" fill="#F1F1F1"/><rect fill="none" height="362.5" rx="12.5" ry="12.5" style="stroke:#181818;stroke-width:0.5;" width="510" x="858" y="119.2969"/><line style="stroke:#181818;stroke-width:0.5;" x1="858" x2="1368" y1="140.5938" y2="140.5938"/><text fill="#000000" font-family="Arial" font-size="14" lengthAdjust="spacing" textLength="161.4033" x="1032.2983" y="132.292">Spatial source lifecycle</text></g><g class="entity" data-entity="GMN2" data-source-line="54" data-uid="ent0003" id="entity_GMN2"><path d="M6,130.7969 L6,186.1953 L352.438,186.1953 L352.438,140.7969 L342.438,130.7969 L6,130.7969" fill="#FEFFDD" style="stroke:#181818;stroke-width:0.5;"/><path d="M342.438,130.7969 L342.438,140.7969 L352.438,140.7969 L342.438,130.7969" fill="#FEFFDD" style="stroke:#181818;stroke-width:1;"/><text fill="#000000" font-family="Arial" font-size="13" lengthAdjust="spacing" textLength="278.1289" x="12" y="147.8638">Production cannot enter ControlledFixture.</text><text fill="#000000" font-family="Arial" font-size="13" lengthAdjust="spacing" textLength="325.438" x="12" y="162.9966">Point/AOI context survives invalid fixture rollback;</text><text fill="#000000" font-family="Arial" font-size="13" lengthAdjust="spacing" textLength="284.3179" x="12" y="178.1294">an invalid selected fixture object is cleared.</text></g><rect fill="#F1F1F1" height="40" rx="12.5" ry="12.5" style="stroke:#181818;stroke-width:0.5;" width="76.3018" x="581" y="138.2969"/><text fill="#000000" font-family="Arial" font-size="14" lengthAdjust="spacing" textLength="66.3018" x="586" y="163.1436">No target</text><rect fill="#F1F1F1" height="40" rx="12.5" ry="12.5" style="stroke:#181818;stroke-width:0.5;" width="106.3184" x="424" y="240.7969"/><text fill="#000000" font-family="Arial" font-size="14" lengthAdjust="spacing" textLength="96.3184" x="429" y="265.6436">Criteria ready</text><rect fill="#F1F1F1" height="40" rx="12.5" ry="12.5" style="stroke:#181818;stroke-width:0.5;" width="162.0928" x="409" y="335.7969"/><text fill="#000000" font-family="Arial" font-size="14" lengthAdjust="spacing" textLength="152.0928" x="414" y="360.6436">Candidate list current</text><rect fill="#F1F1F1" height="40" rx="12.5" ry="12.5" style="stroke:#181818;stroke-width:0.5;" width="100.0635" x="407" y="432.2969"/><text fill="#000000" font-family="Arial" font-size="14" lengthAdjust="spacing" textLength="90.0635" x="412" y="457.1436">Criteria stale</text><rect fill="#F1F1F1" height="42.5938" rx="12.5" ry="12.5" style="stroke:#181818;stroke-width:0.5;" width="140.2725" x="629" y="430.7969"/><text fill="#000000" font-family="Arial" font-size="14" lengthAdjust="spacing" textLength="109.4229" x="634" y="448.792">Target selected</text><text fill="#000000" font-family="Arial" font-size="14" lengthAdjust="spacing" textLength="130.2725" x="634" y="465.0889">point &#183; object &#183; AOI</text><rect fill="#F1F1F1" height="40" rx="12.5" ry="12.5" style="stroke:#181818;stroke-width:0.5;" width="126.1563" x="429" y="528.7969"/><text fill="#000000" font-family="Arial" font-size="14" lengthAdjust="spacing" textLength="116.1563" x="434" y="553.6436">Analysis running</text><rect fill="#F1F1F1" height="40" rx="12.5" ry="12.5" style="stroke:#181818;stroke-width:0.5;" width="112.252" x="557" y="623.7969"/><text fill="#000000" font-family="Arial" font-size="14" lengthAdjust="spacing" textLength="102.252" x="562" y="648.6436">Analysis ready</text><rect fill="#F1F1F1" height="40" rx="12.5" ry="12.5" style="stroke:#181818;stroke-width:0.5;" width="138.3926" x="451" y="718.7969"/><text fill="#000000" font-family="Arial" font-size="14" lengthAdjust="spacing" textLength="128.3926" x="456" y="743.6436">Comparison ready</text><rect fill="#F1F1F1" height="40" rx="12.5" ry="12.5" style="stroke:#181818;stroke-width:0.5;" width="116.9824" x="647.5" y="718.7969"/><text fill="#000000" font-family="Arial" font-size="14" lengthAdjust="spacing" textLength="106.9824" x="652.5" y="743.6436">Report preview</text><ellipse cx="619" cy="78.2969" fill="#222222" rx="10" ry="10" style="stroke:#222222;stroke-width:1;"/><rect fill="#F1F1F1" height="40" rx="12.5" ry="12.5" style="stroke:#181818;stroke-width:0.5;" width="129.8066" x="948" y="240.7969"/><text fill="#000000" font-family="Arial" font-size="14" lengthAdjust="spacing" textLength="119.8066" x="953" y="265.6436">Synthetic default</text><rect fill="#F1F1F1" height="40" rx="12.5" ry="12.5" style="stroke:#181818;stroke-width:0.5;" width="195.2402" x="952.5" y="335.7969"/><text fill="#000000" font-family="Arial" font-size="14" lengthAdjust="spacing" textLength="185.2402" x="957.5" y="360.6436">Controlled non-real fixture</text><rect fill="#F1F1F1" height="42.5938" rx="12.5" ry="12.5" style="stroke:#181818;stroke-width:0.5;" width="135.1045" x="984.5" y="430.7969"/><text fill="#000000" font-family="Arial" font-size="14" lengthAdjust="spacing" textLength="125.1045" x="989.5" y="448.792">Synthetic fallback</text><text fill="#000000" font-family="Arial" font-size="14" lengthAdjust="spacing" textLength="81.833" x="989.5" y="465.0889">with reason</text><ellipse cx="1013" cy="156.2969" fill="#222222" rx="10" ry="10" style="stroke:#222222;stroke-width:1;"/><g class="link" data-entity-1=".start.Workspace" data-entity-2="NoTarget" data-uid="lnk3" id="link_.start.Workspace_NoTarget"><polygon fill="#181818" points="619,138.0728,623,129.0728,619,133.0728,615,129.0728,619,138.0728" style="stroke:#181818;stroke-width:1;"/><path d="M619,92.5109 C619,104.4851 619,117.6792 619,132.0728" fill="none" style="stroke:#181818;stroke-width:1;"/></g><g class="link" data-entity-1="NoTarget" data-entity-2="CriteriaReady" data-uid="lnk4" id="link_NoTarget_CriteriaReady"><polygon fill="#181818" points="470.7393,240.6479,472.7126,230.9987,469.6652,235.7646,464.8993,232.7173,470.7393,240.6479" style="stroke:#181818;stroke-width:1;"/><path d="M580.6859,159.3699 C546.7866,161.7291 499.0757,171.1577 475,203.7969 C467.3194,214.2094 466.8703,223.0579 469.4504,234.7879" fill="none" style="stroke:#181818;stroke-width:1;"/><text fill="#000000" font-family="Arial" font-size="13" lengthAdjust="spacing" textLength="135.3828" x="477" y="217.8638">criteria-first scenario</text></g><g class="link" data-entity-1="CriteriaReady" data-entity-2="CandidateList" data-uid="lnk5" id="link_CriteriaReady_CandidateList"><polygon fill="#181818" points="487.3098,335.5519,490.0254,326.0848,486.6176,330.6,482.1024,327.1923,487.3098,335.5519" style="stroke:#181818;stroke-width:1;"/><path d="M479.6936,281.0665 C481.9247,297.0276 484.249,313.6554 486.4792,329.6097" fill="none" style="stroke:#181818;stroke-width:1;"/><text fill="#000000" font-family="Arial" font-size="13" lengthAdjust="spacing" textLength="69.4243" x="487" y="312.8638">run search</text></g><g class="link" data-entity-1="CandidateList" data-entity-2="CriteriaStale" data-uid="lnk6" id="link_CandidateList_CriteriaStale"><polygon fill="#181818" points="465.3535,432.2516,472.5231,425.499,467.2873,427.6407,465.1456,422.4049,465.3535,432.2516" style="stroke:#181818;stroke-width:1;"/><path d="M484.7182,375.8723 C481.5733,386.7735 477.3555,400.6505 473,412.7969 C470.7034,419.2015 470.2567,420.5605 467.6741,426.7185" fill="none" style="stroke:#181818;stroke-width:1;"/><text fill="#000000" font-family="Arial" font-size="13" lengthAdjust="spacing" textLength="195.0508" x="482" y="407.8638">criteria/role/scenario changed</text></g><g class="link" data-entity-1="CriteriaStale" data-entity-2="CandidateList" data-uid="lnk7" id="link_CriteriaStale_CandidateList"><polygon fill="#181818" points="408.8581,372.2959,399.0263,372.8749,404.4164,374.5917,402.6996,379.9818,408.8581,372.2959" style="stroke:#181818;stroke-width:1;"/><path d="M406.9454,433.3189 C387.2248,423.327 371.673,409.6988 383,393.7969 C389.6141,384.5114 393.3934,380.2891 403.528,375.0509" fill="none" style="stroke:#181818;stroke-width:1;"/><text fill="#000000" font-family="Arial" font-size="13" lengthAdjust="spacing" textLength="82.7671" x="385" y="407.8638">rerun search</text></g><g class="link" data-entity-1="CandidateList" data-entity-2="TargetSelected" data-uid="lnk8" id="link_CandidateList_TargetSelected"><polygon fill="#181818" points="698.4882,430.6972,701.4318,421.2985,697.916,425.73,693.4844,422.2141,698.4882,430.6972" style="stroke:#181818;stroke-width:1;"/><path d="M571.0943,363.7857 C616.2197,369.2868 666.5328,378.6273 683,393.7969 C693.136,403.1342 696.372,412.3289 697.8015,424.7366" fill="none" style="stroke:#181818;stroke-width:1;"/><text fill="#000000" font-family="Arial" font-size="13" lengthAdjust="spacing" textLength="107.2881" x="697" y="407.8638">select candidate</text></g><g class="link" data-entity-1="NoTarget" data-entity-2="TargetSelected" data-uid="lnk9" id="link_NoTarget_TargetSelected"><polygon fill="#181818" points="769.1346,438.9741,778.8882,440.3402,773.9411,437.5968,776.6846,432.6497,769.1346,438.9741" style="stroke:#181818;stroke-width:1;"/><path d="M617.9339,178.5857 C615.9073,218.3285 612.3473,306.57 620,317.7969 C671.2262,392.9479 759.0111,318.4846 810,393.7969 C825.0875,416.0815 805.2841,428.6158 774.9025,437.3213" fill="none" style="stroke:#181818;stroke-width:1;"/><text fill="#000000" font-family="Arial" font-size="13" lengthAdjust="spacing" textLength="115.5273" x="622" y="312.8638">select map target</text></g><g class="link" data-entity-1="TargetSelected" data-entity-2="Analyzing" data-uid="lnk10" id="link_TargetSelected_Analyzing"><polygon fill="#181818" points="460.7553,528.6642,456.1232,519.9726,456.8143,525.5871,451.1998,526.2782,460.7553,528.6642" style="stroke:#181818;stroke-width:1;"/><path d="M628.6422,464.4664 C594.6297,469.8117 553.2076,476.2421 516,481.7969 C500.4588,484.117 456.2955,479.9261 446,491.7969 C435.5307,503.8681 442.0407,514.052 456.0261,524.9717" fill="none" style="stroke:#181818;stroke-width:1;"/><text fill="#000000" font-family="Arial" font-size="13" lengthAdjust="spacing" textLength="78.5903" x="448" y="505.8638">run analysis</text></g><g class="link" data-entity-1="Analyzing" data-entity-2="AnalysisReady" data-uid="lnk11" id="link_Analyzing_AnalysisReady"><polygon fill="#181818" points="556.9833,639.6085,548.877,634.015,552.0693,638.685,547.3993,641.8773,556.9833,639.6085" style="stroke:#181818;stroke-width:1;"/><path d="M487.0876,568.9988 C485.2609,580.7494 485.2272,595.4607 493,605.7969 C507.9375,625.6604 527.4709,634.0619 551.0866,638.5003" fill="none" style="stroke:#181818;stroke-width:1;"/><text fill="#000000" font-family="Arial" font-size="13" lengthAdjust="spacing" textLength="180.9526" x="495" y="600.8638">structured or fallback result</text></g><g class="link" data-entity-1="Analyzing" data-entity-2="TargetSelected" data-uid="lnk12" id="link_Analyzing_TargetSelected"><polygon fill="#181818" points="628.8404,463.9735,619.1782,462.0653,623.9645,465.0805,620.9493,469.8668,628.8404,463.9735" style="stroke:#181818;stroke-width:1;"/><path d="M510.0444,528.7261 C523.8184,514.5528 541.9253,496.8361 551,491.7969 C574.7913,478.5855 597.4061,471.1099 622.9893,465.3018" fill="none" style="stroke:#181818;stroke-width:1;"/><text fill="#000000" font-family="Arial" font-size="13" lengthAdjust="spacing" textLength="122.7891" x="553" y="505.8638">recoverable failure</text></g><g class="link" data-entity-1="AnalysisReady" data-entity-2="ComparisonReady" data-uid="lnk13" id="link_AnalysisReady_ComparisonReady"><polygon fill="#181818" points="450.9716,726.9337,443.1707,720.9214,446.113,725.7529,441.2815,728.6952,450.9716,726.9337" style="stroke:#181818;stroke-width:1;"/><path d="M556.9145,646.8482 C501.7781,650.1841 423.1779,658.9257 404,681.7969 C385.1052,704.3305 410.3992,717.0735 445.1413,725.5168" fill="none" style="stroke:#181818;stroke-width:1;"/><text fill="#000000" font-family="Arial" font-size="13" lengthAdjust="spacing" textLength="133.3516" x="406" y="695.8638">compare 2-3 targets</text></g><g class="link" data-entity-1="ComparisonReady" data-entity-2="AnalysisReady" data-uid="lnk14" id="link_ComparisonReady_AnalysisReady"><polygon fill="#181818" points="585.0213,663.9684,575.4315,666.2126,581.0351,666.9868,580.2609,672.5904,585.0213,663.9684" style="stroke:#181818;stroke-width:1;"/><path d="M533.1455,718.6333 C541.3585,707.3179 552.5257,693.0529 564,681.7969 C570.3921,675.5264 573.0817,673.0093 580.2379,667.5905" fill="none" style="stroke:#181818;stroke-width:1;"/><text fill="#000000" font-family="Arial" font-size="13" lengthAdjust="spacing" textLength="73.6392" x="566" y="695.8638">open result</text></g><g class="link" data-entity-1="AnalysisReady" data-entity-2="ReportPreview" data-uid="lnk15" id="link_AnalysisReady_ReportPreview"><polygon fill="#181818" points="683.3533,718.6549,679.2341,709.7089,679.5978,715.354,673.9526,715.7177,683.3533,718.6549" style="stroke:#181818;stroke-width:1;"/><path d="M629.5002,663.9445 C639.2503,674.9937 652.0003,688.9937 664,700.7969 C670.0965,706.7935 672.4579,709.0785 678.8467,714.6939" fill="none" style="stroke:#181818;stroke-width:1;"/><text fill="#000000" font-family="Arial" font-size="13" lengthAdjust="spacing" textLength="98.249" x="666" y="695.8638">preview/export</text></g><g class="link" data-entity-1="ReportPreview" data-entity-2="AnalysisReady" data-uid="lnk16" id="link_ReportPreview_AnalysisReady"><polygon fill="#181818" points="669.0509,651.0846,677.3806,656.3397,673.9987,651.8051,678.5333,648.4232,669.0509,651.0846" style="stroke:#181818;stroke-width:1;"/><path d="M747.7621,718.5517 C764.0518,708.3779 776.5745,695.2334 766,681.7969 C753.9158,666.4421 713.5292,657.561 674.9883,651.9492" fill="none" style="stroke:#181818;stroke-width:1;"/><text fill="#000000" font-family="Arial" font-size="13" lengthAdjust="spacing" textLength="33.4839" x="772" y="695.8638">close</text></g><g class="link" data-entity-1="AnalysisReady" data-entity-2="TargetSelected" data-uid="lnk17" id="link_AnalysisReady_TargetSelected"><polygon fill="#181818" points="701.3878,474.0506,698.1176,483.3407,701.7861,479.0347,706.0921,482.7033,701.3878,474.0506" style="stroke:#181818;stroke-width:1;"/><path d="M658.2627,623.7183 C665.5,618.8466 672.1806,612.9184 677,605.7969 C704.2859,565.4773 704.3722,511.3897 701.8658,480.0315" fill="none" style="stroke:#181818;stroke-width:1;"/><text fill="#000000" font-family="Arial" font-size="13" lengthAdjust="spacing" textLength="156.2031" x="704" y="553.3638">target/settings changed</text></g><g class="link" data-entity-1="TargetSelected" data-entity-2="NoTarget" data-uid="lnk18" id="link_TargetSelected_NoTarget"><polygon fill="#181818" points="638.3451,178.3923,641.887,187.5822,641.8831,181.9253,647.5399,181.9214,638.3451,178.3923" style="stroke:#181818;stroke-width:1;"/><path d="M769.0025,442.5417 C800.0545,434.8812 827.6719,420.5544 818,393.7969 C799.5313,342.7026 688.9223,228.8992 642.5907,182.632" fill="none" style="stroke:#181818;stroke-width:1;"/><text fill="#000000" font-family="Arial" font-size="13" lengthAdjust="spacing" textLength="77.4033" x="769" y="312.8638">clear/delete</text></g><g class="link" data-entity-1=".start.Spatial" data-entity-2="Synthetic" data-uid="lnk20" id="link_.start.Spatial_Synthetic"><polygon fill="#181818" points="1013,240.72,1017,231.72,1013,235.72,1009,231.72,1013,240.72" style="stroke:#181818;stroke-width:1;"/><path d="M1013,170.4361 C1013,187.4034 1013,213.9399 1013,234.72" fill="none" style="stroke:#181818;stroke-width:1;"/></g><g class="link" data-entity-1="Synthetic" data-entity-2="ControlledFixture" data-uid="lnk21" id="link_Synthetic_ControlledFixture"><polygon fill="#181818" points="952.3951,340.0269,946.1774,332.3888,947.9357,337.7654,942.5591,339.5238,952.3951,340.0269" style="stroke:#181818;stroke-width:1;"/><path d="M947.8696,280.2164 C927.5193,289.368 913.1341,301.9098 925,317.7969 C932.1779,327.4072 936.3901,331.9105 947.0438,337.3132" fill="none" style="stroke:#181818;stroke-width:1;"/><text fill="#000000" font-family="Arial" font-size="13" lengthAdjust="spacing" textLength="185.0596" x="927" y="312.8638">eligible Preview checks pass</text></g><g class="link" data-entity-1="ControlledFixture" data-entity-2="SyntheticFallback" data-uid="lnk22" id="link_ControlledFixture_SyntheticFallback"><polygon fill="#181818" points="984.173,444.2215,975.8283,438.9903,979.2231,443.5152,974.6982,446.9101,984.173,444.2215" style="stroke:#181818;stroke-width:1;"/><path d="M952.4731,361.6685 C903.9436,367.9033 860.373,381.8464 885,412.7969 C897.5511,428.5707 937.6618,437.5849 978.2332,443.3739" fill="none" style="stroke:#181818;stroke-width:1;"/><text fill="#000000" font-family="Arial" font-size="13" lengthAdjust="spacing" textLength="260.4507" x="887" y="407.8638">missing / invalid / unapproved / rollback</text></g><g class="link" data-entity-1="SyntheticFallback" data-entity-2="ControlledFixture" data-uid="lnk23" id="link_SyntheticFallback_ControlledFixture"><polygon fill="#181818" points="1129.9206,376.0512,1135.4044,384.2322,1134.1514,378.7158,1139.6677,377.4628,1129.9206,376.0512" style="stroke:#181818;stroke-width:1;"/><path d="M1119.5429,435.0159 C1143.5627,425.7759 1161.8337,412.294 1149,393.7969 C1143.9794,386.5607 1142.438,383.9348 1134.9976,379.2488" fill="none" style="stroke:#181818;stroke-width:1;"/><text fill="#000000" font-family="Arial" font-size="13" lengthAdjust="spacing" textLength="185.0596" x="1155" y="407.8638">eligible Preview checks pass</text></g><g class="link" data-entity-1="ControlledFixture" data-entity-2="Synthetic" data-uid="lnk24" id="link_ControlledFixture_Synthetic"><polygon fill="#181818" points="1078.1811,272.7473,1085.1022,279.7544,1082.8367,274.571,1088.02,272.3055,1078.1811,272.7473" style="stroke:#181818;stroke-width:1;"/><path d="M1094.8648,335.7204 C1111.3752,325.8713 1123.8932,312.9572 1114,298.7969 C1105.3904,286.4737 1097.7951,280.4305 1083.7678,274.9357" fill="none" style="stroke:#181818;stroke-width:1;"/><text fill="#000000" font-family="Arial" font-size="13" lengthAdjust="spacing" textLength="140.2451" x="1119" y="312.8638">explicit source switch</text></g><g class="link" data-entity-1="Spatial" data-entity-2="GMN2" data-uid="lnk4" id="link_Spatial_GMN2"><path d="M859.3425,119.1572 C859.3041,119.1021 859.2656,119.0471 859.227,118.9922 C859.1498,118.8824 859.0723,118.7728 858.9943,118.6636 C857.7472,116.9152 856.404,115.2385 854.9581,113.668 C852.0663,110.5272 848.764,107.8113 845,105.7969 C797.9774,80.6311 417.8296,98.4839 365,105.7969 C329.2708,110.7427 290.7504,120.7923 258.0832,130.7873" fill="none" style="stroke:#181818;stroke-width:1;stroke-dasharray:7,7;"/></g><!--SRC=[jLNDRXCn4BxlKmpbXfIc1N412IcgY8I4IjLKua1xSBoJh8dNjcnlce2GU0ZUXJkFmfCmzgxtBuiuaTDcvfiVV_Ftn5YsBHb8TjIL1rUYPufbNdY9iBfRtBsTNLnSmlxo_2Ny_lu3FcgxSuPn18B9enEEFd8WaHTCpfokBEcas20_Seakyzg0rx3MtkiISc6HUw5LLeWS0KlZZv2ZurQOA7OxeGoph8GruxkjrPNAhxJK5fukuw-7S0NBzQDGMzWmwR2doN73AkcNMlbhLY8iB2NNqqkXq1yDWhQ-q5dcFFC8PztZB3goxzvn1iprtlur0_Zqx05cipTmhU-OtQ8dKUFcMeEFecXrgh-omYDbH55OVeoW9BeDaXwIk1Lv-9J2UU2LjQXgjwtgFMacVDF_9kqaMWL9Xwop0eUIAeBvlJ9QA0-_Ve9UVoPH-5fyU1TTrDXL0-ryB58Fs4efAaG4H-4N-ZU5Qr-SHECNwv9A99nMVNPQuGXzYuOg2CRYNk1ZnDQYcrgI4JJn7uiru1bU0M_-ppR24i6Eew90cio6o6ZRPvniwSt47hEy2F21iXygqjuBDRTQuZn50bumjOsS3Wqc8-8_OWxhH1PrTO4dv9YFlncKp3GzJ1OZKB1hQzpma9O1eJjL2qnb3lwzhRYlBFcXcQQvbM7EctaxiJv9ZxQ7tgDbQs9emuGaHyce3HAP6tPCe3zA49xFNZGl2ycESLCfQuDgbE0Wrg3Z2DzqunmFGKucGy1K22wrctx82GDrxdE7tXDBhjS_4sLgQnr2KDlCSz9I5tnhLzwgNjmmNjnnbfAol-vMH-KBz89tKzYAqjwjZK-1LxIFgVibPQUqcj60IzY8GsY7PiwJVbbBfsAadhbNZy8NOKjGzOOHbmqaZ7zdMFV5A08nWr9iHMYeL25U8DyvCCpLBJ8s6T2GOf6ZKZWNEdSEGksP53bzLOePOwbdmv_W9kO54_R_9xtWu62auCAd6ZlYZVO7zK1tq6QVw1xdg1xeeAfWNrS-ovGczgtO5XxqfXNVM9rNyOw7rK8OeBE4zZIPy-mcN9Kv7HAQGC8SA8tAxiKUNSjIqm8jFQypfbfbkayjghbET4nYIsD-dg4A3UNn3m00]--></g></svg>